<?xml version="1.0" encoding="utf-8" standalone="no"?>
<!DOCTYPE svg PUBLIC "-//W3C//DTD SVG 1.1//EN"
  "http://www.w3.org/Graphics/SVG/1.1/DTD/svg11.dtd">
<!-- Created with matplotlib (http://matplotlib.org/) -->
<svg height="345pt" version="1.1" viewBox="0 0 460 345" width="460pt" xmlns="http://www.w3.org/2000/svg" xmlns:xlink="http://www.w3.org/1999/xlink">
 <defs>
  <style type="text/css">
*{stroke-linecap:butt;stroke-linejoin:round;}
  </style>
 </defs>
 <g id="figure_1">
  <g id="patch_1">
   <path d="M 0 345.6 
L 460.8 345.6 
L 460.8 0 
L 0 0 
z
" style="fill:#ffffff;"/>
  </g>
  <g id="axes_1">
   <g id="patch_2">
    <path d="M 57.6 276.48 
L 414.72 276.48 
L 414.72 41.472 
L 57.6 41.472 
z
" style="fill:#ffffff;"/>
   </g>
   <g id="matplotlib.axis_1">
    <g id="xtick_1">
     <g id="line2d_1">
      <path clip-path="url(#p748678596d)" d="M 81.791835 276.48 
L 81.791835 41.472 
" style="fill:none;stroke:#b0b0b0;stroke-linecap:square;stroke-width:0.8;"/>
     </g>
     <g id="line2d_2">
      <defs>
       <path d="M 0 0 
L 0 3.5 
" id="m896c9fd2c7" style="stroke:#000000;stroke-width:0.8;"/>
      </defs>
      <g>
       <use style="stroke:#000000;stroke-width:0.8;" x="81.791835" xlink:href="#m896c9fd2c7" y="276.48"/>
      </g>
     </g>
     <g id="text_1">
      <!-- 07:46 -->
      <defs>
       <path d="M 31.78125 66.40625 
Q 24.171875 66.40625 20.328125 58.90625 
Q 16.5 51.421875 16.5 36.375 
Q 16.5 21.390625 20.328125 13.890625 
Q 24.171875 6.390625 31.78125 6.390625 
Q 39.453125 6.390625 43.28125 13.890625 
Q 47.125 21.390625 47.125 36.375 
Q 47.125 51.421875 43.28125 58.90625 
Q 39.453125 66.40625 31.78125 66.40625 
M 31.78125 74.21875 
Q 44.046875 74.21875 50.515625 64.515625 
Q 56.984375 54.828125 56.984375 36.375 
Q 56.984375 17.96875 50.515625 8.265625 
Q 44.046875 -1.421875 31.78125 -1.421875 
Q 19.53125 -1.421875 13.0625 8.265625 
Q 6.59375 17.96875 6.59375 36.375 
Q 6.59375 54.828125 13.0625 64.515625 
Q 19.53125 74.21875 31.78125 74.21875 
" id="DejaVuSans-30"/>
       <path d="M 8.203125 72.90625 
L 55.078125 72.90625 
L 55.078125 68.703125 
L 28.609375 0 
L 18.3125 0 
L 43.21875 64.59375 
L 8.203125 64.59375 
z
" id="DejaVuSans-37"/>
       <path d="M 11.71875 12.40625 
L 22.015625 12.40625 
L 22.015625 0 
L 11.71875 0 
z
M 11.71875 51.703125 
L 22.015625 51.703125 
L 22.015625 39.3125 
L 11.71875 39.3125 
z
" id="DejaVuSans-3a"/>
       <path d="M 37.796875 64.3125 
L 12.890625 25.390625 
L 37.796875 25.390625 
z
M 35.203125 72.90625 
L 47.609375 72.90625 
L 47.609375 25.390625 
L 58.015625 25.390625 
L 58.015625 17.1875 
L 47.609375 17.1875 
L 47.609375 0 
L 37.796875 0 
L 37.796875 17.1875 
L 4.890625 17.1875 
L 4.890625 26.703125 
z
" id="DejaVuSans-34"/>
       <path d="M 33.015625 40.375 
Q 26.375 40.375 22.484375 35.828125 
Q 18.609375 31.296875 18.609375 23.390625 
Q 18.609375 15.53125 22.484375 10.953125 
Q 26.375 6.390625 33.015625 6.390625 
Q 39.65625 6.390625 43.53125 10.953125 
Q 47.40625 15.53125 47.40625 23.390625 
Q 47.40625 31.296875 43.53125 35.828125 
Q 39.65625 40.375 33.015625 40.375 
M 52.59375 71.296875 
L 52.59375 62.3125 
Q 48.875 64.0625 45.09375 64.984375 
Q 41.3125 65.921875 37.59375 65.921875 
Q 27.828125 65.921875 22.671875 59.328125 
Q 17.53125 52.734375 16.796875 39.40625 
Q 19.671875 43.65625 24.015625 45.921875 
Q 28.375 48.1875 33.59375 48.1875 
Q 44.578125 48.1875 50.953125 41.515625 
Q 57.328125 34.859375 57.328125 23.390625 
Q 57.328125 12.15625 50.6875 5.359375 
Q 44.046875 -1.421875 33.015625 -1.421875 
Q 20.359375 -1.421875 13.671875 8.265625 
Q 6.984375 17.96875 6.984375 36.375 
Q 6.984375 53.65625 15.1875 63.9375 
Q 23.390625 74.21875 37.203125 74.21875 
Q 40.921875 74.21875 44.703125 73.484375 
Q 48.484375 72.75 52.59375 71.296875 
" id="DejaVuSans-36"/>
      </defs>
      <g transform="translate(55.794221 304.469815)rotate(-30)scale(0.1 -0.1)">
       <use xlink:href="#DejaVuSans-30"/>
       <use x="63.623047" xlink:href="#DejaVuSans-37"/>
       <use x="127.246094" xlink:href="#DejaVuSans-3a"/>
       <use x="160.9375" xlink:href="#DejaVuSans-34"/>
       <use x="224.560547" xlink:href="#DejaVuSans-36"/>
      </g>
     </g>
    </g>
    <g id="xtick_2">
     <g id="line2d_3">
      <path clip-path="url(#p748678596d)" d="M 120.303642 276.48 
L 120.303642 41.472 
" style="fill:none;stroke:#b0b0b0;stroke-linecap:square;stroke-width:0.8;"/>
     </g>
     <g id="line2d_4">
      <g>
       <use style="stroke:#000000;stroke-width:0.8;" x="120.303642" xlink:href="#m896c9fd2c7" y="276.48"/>
      </g>
     </g>
     <g id="text_2">
      <!-- 07:51 -->
      <defs>
       <path d="M 10.796875 72.90625 
L 49.515625 72.90625 
L 49.515625 64.59375 
L 19.828125 64.59375 
L 19.828125 46.734375 
Q 21.96875 47.46875 24.109375 47.828125 
Q 26.265625 48.1875 28.421875 48.1875 
Q 40.625 48.1875 47.75 41.5 
Q 54.890625 34.8125 54.890625 23.390625 
Q 54.890625 11.625 47.5625 5.09375 
Q 40.234375 -1.421875 26.90625 -1.421875 
Q 22.3125 -1.421875 17.546875 -0.640625 
Q 12.796875 0.140625 7.71875 1.703125 
L 7.71875 11.625 
Q 12.109375 9.234375 16.796875 8.0625 
Q 21.484375 6.890625 26.703125 6.890625 
Q 35.15625 6.890625 40.078125 11.328125 
Q 45.015625 15.765625 45.015625 23.390625 
Q 45.015625 31 40.078125 35.4375 
Q 35.15625 39.890625 26.703125 39.890625 
Q 22.75 39.890625 18.8125 39.015625 
Q 14.890625 38.140625 10.796875 36.28125 
z
" id="DejaVuSans-35"/>
       <path d="M 12.40625 8.296875 
L 28.515625 8.296875 
L 28.515625 63.921875 
L 10.984375 60.40625 
L 10.984375 69.390625 
L 28.421875 72.90625 
L 38.28125 72.90625 
L 38.28125 8.296875 
L 54.390625 8.296875 
L 54.390625 0 
L 12.40625 0 
z
" id="DejaVuSans-31"/>
      </defs>
      <g transform="translate(94.306029 304.469815)rotate(-30)scale(0.1 -0.1)">
       <use xlink:href="#DejaVuSans-30"/>
       <use x="63.623047" xlink:href="#DejaVuSans-37"/>
       <use x="127.246094" xlink:href="#DejaVuSans-3a"/>
       <use x="160.9375" xlink:href="#DejaVuSans-35"/>
       <use x="224.560547" xlink:href="#DejaVuSans-31"/>
      </g>
     </g>
    </g>
    <g id="xtick_3">
     <g id="line2d_5">
      <path clip-path="url(#p748678596d)" d="M 158.815452 276.48 
L 158.815452 41.472 
" style="fill:none;stroke:#b0b0b0;stroke-linecap:square;stroke-width:0.8;"/>
     </g>
     <g id="line2d_6">
      <g>
       <use style="stroke:#000000;stroke-width:0.8;" x="158.815452" xlink:href="#m896c9fd2c7" y="276.48"/>
      </g>
     </g>
     <g id="text_3">
      <!-- 07:56 -->
      <g transform="translate(132.817838 304.469815)rotate(-30)scale(0.1 -0.1)">
       <use xlink:href="#DejaVuSans-30"/>
       <use x="63.623047" xlink:href="#DejaVuSans-37"/>
       <use x="127.246094" xlink:href="#DejaVuSans-3a"/>
       <use x="160.9375" xlink:href="#DejaVuSans-35"/>
       <use x="224.560547" xlink:href="#DejaVuSans-36"/>
      </g>
     </g>
    </g>
    <g id="xtick_4">
     <g id="line2d_7">
      <path clip-path="url(#p748678596d)" d="M 197.32726 276.48 
L 197.32726 41.472 
" style="fill:none;stroke:#b0b0b0;stroke-linecap:square;stroke-width:0.8;"/>
     </g>
     <g id="line2d_8">
      <g>
       <use style="stroke:#000000;stroke-width:0.8;" x="197.32726" xlink:href="#m896c9fd2c7" y="276.48"/>
      </g>
     </g>
     <g id="text_4">
      <!-- 08:01 -->
      <defs>
       <path d="M 31.78125 34.625 
Q 24.75 34.625 20.71875 30.859375 
Q 16.703125 27.09375 16.703125 20.515625 
Q 16.703125 13.921875 20.71875 10.15625 
Q 24.75 6.390625 31.78125 6.390625 
Q 38.8125 6.390625 42.859375 10.171875 
Q 46.921875 13.96875 46.921875 20.515625 
Q 46.921875 27.09375 42.890625 30.859375 
Q 38.875 34.625 31.78125 34.625 
M 21.921875 38.8125 
Q 15.578125 40.375 12.03125 44.71875 
Q 8.5 49.078125 8.5 55.328125 
Q 8.5 64.0625 14.71875 69.140625 
Q 20.953125 74.21875 31.78125 74.21875 
Q 42.671875 74.21875 48.875 69.140625 
Q 55.078125 64.0625 55.078125 55.328125 
Q 55.078125 49.078125 51.53125 44.71875 
Q 48 40.375 41.703125 38.8125 
Q 48.828125 37.15625 52.796875 32.3125 
Q 56.78125 27.484375 56.78125 20.515625 
Q 56.78125 9.90625 50.3125 4.234375 
Q 43.84375 -1.421875 31.78125 -1.421875 
Q 19.734375 -1.421875 13.25 4.234375 
Q 6.78125 9.90625 6.78125 20.515625 
Q 6.78125 27.484375 10.78125 32.3125 
Q 14.796875 37.15625 21.921875 38.8125 
M 18.3125 54.390625 
Q 18.3125 48.734375 21.84375 45.5625 
Q 25.390625 42.390625 31.78125 42.390625 
Q 38.140625 42.390625 41.71875 45.5625 
Q 45.3125 48.734375 45.3125 54.390625 
Q 45.3125 60.0625 41.71875 63.234375 
Q 38.140625 66.40625 31.78125 66.40625 
Q 25.390625 66.40625 21.84375 63.234375 
Q 18.3125 60.0625 18.3125 54.390625 
" id="DejaVuSans-38"/>
      </defs>
      <g transform="translate(171.329647 304.469815)rotate(-30)scale(0.1 -0.1)">
       <use xlink:href="#DejaVuSans-30"/>
       <use x="63.623047" xlink:href="#DejaVuSans-38"/>
       <use x="127.246094" xlink:href="#DejaVuSans-3a"/>
       <use x="160.9375" xlink:href="#DejaVuSans-30"/>
       <use x="224.560547" xlink:href="#DejaVuSans-31"/>
      </g>
     </g>
    </g>
    <g id="xtick_5">
     <g id="line2d_9">
      <path clip-path="url(#p748678596d)" d="M 235.839068 276.48 
L 235.839068 41.472 
" style="fill:none;stroke:#b0b0b0;stroke-linecap:square;stroke-width:0.8;"/>
     </g>
     <g id="line2d_10">
      <g>
       <use style="stroke:#000000;stroke-width:0.8;" x="235.839068" xlink:href="#m896c9fd2c7" y="276.48"/>
      </g>
     </g>
     <g id="text_5">
      <!-- 08:06 -->
      <g transform="translate(209.841455 304.469815)rotate(-30)scale(0.1 -0.1)">
       <use xlink:href="#DejaVuSans-30"/>
       <use x="63.623047" xlink:href="#DejaVuSans-38"/>
       <use x="127.246094" xlink:href="#DejaVuSans-3a"/>
       <use x="160.9375" xlink:href="#DejaVuSans-30"/>
       <use x="224.560547" xlink:href="#DejaVuSans-36"/>
      </g>
     </g>
    </g>
    <g id="xtick_6">
     <g id="line2d_11">
      <path clip-path="url(#p748678596d)" d="M 274.350878 276.48 
L 274.350878 41.472 
" style="fill:none;stroke:#b0b0b0;stroke-linecap:square;stroke-width:0.8;"/>
     </g>
     <g id="line2d_12">
      <g>
       <use style="stroke:#000000;stroke-width:0.8;" x="274.350878" xlink:href="#m896c9fd2c7" y="276.48"/>
      </g>
     </g>
     <g id="text_6">
      <!-- 08:11 -->
      <g transform="translate(248.353264 304.469815)rotate(-30)scale(0.1 -0.1)">
       <use xlink:href="#DejaVuSans-30"/>
       <use x="63.623047" xlink:href="#DejaVuSans-38"/>
       <use x="127.246094" xlink:href="#DejaVuSans-3a"/>
       <use x="160.9375" xlink:href="#DejaVuSans-31"/>
       <use x="224.560547" xlink:href="#DejaVuSans-31"/>
      </g>
     </g>
    </g>
    <g id="xtick_7">
     <g id="line2d_13">
      <path clip-path="url(#p748678596d)" d="M 312.862685 276.48 
L 312.862685 41.472 
" style="fill:none;stroke:#b0b0b0;stroke-linecap:square;stroke-width:0.8;"/>
     </g>
     <g id="line2d_14">
      <g>
       <use style="stroke:#000000;stroke-width:0.8;" x="312.862685" xlink:href="#m896c9fd2c7" y="276.48"/>
      </g>
     </g>
     <g id="text_7">
      <!-- 08:16 -->
      <g transform="translate(286.865072 304.469815)rotate(-30)scale(0.1 -0.1)">
       <use xlink:href="#DejaVuSans-30"/>
       <use x="63.623047" xlink:href="#DejaVuSans-38"/>
       <use x="127.246094" xlink:href="#DejaVuSans-3a"/>
       <use x="160.9375" xlink:href="#DejaVuSans-31"/>
       <use x="224.560547" xlink:href="#DejaVuSans-36"/>
      </g>
     </g>
    </g>
    <g id="xtick_8">
     <g id="line2d_15">
      <path clip-path="url(#p748678596d)" d="M 351.374494 276.48 
L 351.374494 41.472 
" style="fill:none;stroke:#b0b0b0;stroke-linecap:square;stroke-width:0.8;"/>
     </g>
     <g id="line2d_16">
      <g>
       <use style="stroke:#000000;stroke-width:0.8;" x="351.374494" xlink:href="#m896c9fd2c7" y="276.48"/>
      </g>
     </g>
     <g id="text_8">
      <!-- 08:21 -->
      <defs>
       <path d="M 19.1875 8.296875 
L 53.609375 8.296875 
L 53.609375 0 
L 7.328125 0 
L 7.328125 8.296875 
Q 12.9375 14.109375 22.625 23.890625 
Q 32.328125 33.6875 34.8125 36.53125 
Q 39.546875 41.84375 41.421875 45.53125 
Q 43.3125 49.21875 43.3125 52.78125 
Q 43.3125 58.59375 39.234375 62.25 
Q 35.15625 65.921875 28.609375 65.921875 
Q 23.96875 65.921875 18.8125 64.3125 
Q 13.671875 62.703125 7.8125 59.421875 
L 7.8125 69.390625 
Q 13.765625 71.78125 18.9375 73 
Q 24.125 74.21875 28.421875 74.21875 
Q 39.75 74.21875 46.484375 68.546875 
Q 53.21875 62.890625 53.21875 53.421875 
Q 53.21875 48.921875 51.53125 44.890625 
Q 49.859375 40.875 45.40625 35.40625 
Q 44.1875 33.984375 37.640625 27.21875 
Q 31.109375 20.453125 19.1875 8.296875 
" id="DejaVuSans-32"/>
      </defs>
      <g transform="translate(325.37688 304.469815)rotate(-30)scale(0.1 -0.1)">
       <use xlink:href="#DejaVuSans-30"/>
       <use x="63.623047" xlink:href="#DejaVuSans-38"/>
       <use x="127.246094" xlink:href="#DejaVuSans-3a"/>
       <use x="160.9375" xlink:href="#DejaVuSans-32"/>
       <use x="224.560547" xlink:href="#DejaVuSans-31"/>
      </g>
     </g>
    </g>
    <g id="xtick_9">
     <g id="line2d_17">
      <path clip-path="url(#p748678596d)" d="M 389.886303 276.48 
L 389.886303 41.472 
" style="fill:none;stroke:#b0b0b0;stroke-linecap:square;stroke-width:0.8;"/>
     </g>
     <g id="line2d_18">
      <g>
       <use style="stroke:#000000;stroke-width:0.8;" x="389.886303" xlink:href="#m896c9fd2c7" y="276.48"/>
      </g>
     </g>
     <g id="text_9">
      <!-- 08:26 -->
      <g transform="translate(363.88869 304.469815)rotate(-30)scale(0.1 -0.1)">
       <use xlink:href="#DejaVuSans-30"/>
       <use x="63.623047" xlink:href="#DejaVuSans-38"/>
       <use x="127.246094" xlink:href="#DejaVuSans-3a"/>
       <use x="160.9375" xlink:href="#DejaVuSans-32"/>
       <use x="224.560547" xlink:href="#DejaVuSans-36"/>
      </g>
     </g>
    </g>
   </g>
   <g id="matplotlib.axis_2">
    <g id="ytick_1">
     <g id="line2d_19">
      <path clip-path="url(#p748678596d)" d="M 57.6 253.41268 
L 414.72 253.41268 
" style="fill:none;stroke:#b0b0b0;stroke-linecap:square;stroke-width:0.8;"/>
     </g>
     <g id="line2d_20">
      <defs>
       <path d="M 0 0 
L -3.5 0 
" id="m360d46087a" style="stroke:#000000;stroke-width:0.8;"/>
      </defs>
      <g>
       <use style="stroke:#000000;stroke-width:0.8;" x="57.6" xlink:href="#m360d46087a" y="253.41268"/>
      </g>
     </g>
     <g id="text_10">
      <!-- 90 -->
      <defs>
       <path d="M 10.984375 1.515625 
L 10.984375 10.5 
Q 14.703125 8.734375 18.5 7.8125 
Q 22.3125 6.890625 25.984375 6.890625 
Q 35.75 6.890625 40.890625 13.453125 
Q 46.046875 20.015625 46.78125 33.40625 
Q 43.953125 29.203125 39.59375 26.953125 
Q 35.25 24.703125 29.984375 24.703125 
Q 19.046875 24.703125 12.671875 31.3125 
Q 6.296875 37.9375 6.296875 49.421875 
Q 6.296875 60.640625 12.9375 67.421875 
Q 19.578125 74.21875 30.609375 74.21875 
Q 43.265625 74.21875 49.921875 64.515625 
Q 56.59375 54.828125 56.59375 36.375 
Q 56.59375 19.140625 48.40625 8.859375 
Q 40.234375 -1.421875 26.421875 -1.421875 
Q 22.703125 -1.421875 18.890625 -0.6875 
Q 15.09375 0.046875 10.984375 1.515625 
M 30.609375 32.421875 
Q 37.25 32.421875 41.125 36.953125 
Q 45.015625 41.5 45.015625 49.421875 
Q 45.015625 57.28125 41.125 61.84375 
Q 37.25 66.40625 30.609375 66.40625 
Q 23.96875 66.40625 20.09375 61.84375 
Q 16.21875 57.28125 16.21875 49.421875 
Q 16.21875 41.5 20.09375 36.953125 
Q 23.96875 32.421875 30.609375 32.421875 
" id="DejaVuSans-39"/>
      </defs>
      <g transform="translate(37.875 257.211899)scale(0.1 -0.1)">
       <use xlink:href="#DejaVuSans-39"/>
       <use x="63.623047" xlink:href="#DejaVuSans-30"/>
      </g>
     </g>
    </g>
    <g id="ytick_2">
     <g id="line2d_21">
      <path clip-path="url(#p748678596d)" d="M 57.6 222.449834 
L 414.72 222.449834 
" style="fill:none;stroke:#b0b0b0;stroke-linecap:square;stroke-width:0.8;"/>
     </g>
     <g id="line2d_22">
      <g>
       <use style="stroke:#000000;stroke-width:0.8;" x="57.6" xlink:href="#m360d46087a" y="222.449834"/>
      </g>
     </g>
     <g id="text_11">
      <!-- 100 -->
      <g transform="translate(31.5125 226.249053)scale(0.1 -0.1)">
       <use xlink:href="#DejaVuSans-31"/>
       <use x="63.623047" xlink:href="#DejaVuSans-30"/>
       <use x="127.246094" xlink:href="#DejaVuSans-30"/>
      </g>
     </g>
    </g>
    <g id="ytick_3">
     <g id="line2d_23">
      <path clip-path="url(#p748678596d)" d="M 57.6 191.486988 
L 414.72 191.486988 
" style="fill:none;stroke:#b0b0b0;stroke-linecap:square;stroke-width:0.8;"/>
     </g>
     <g id="line2d_24">
      <g>
       <use style="stroke:#000000;stroke-width:0.8;" x="57.6" xlink:href="#m360d46087a" y="191.486988"/>
      </g>
     </g>
     <g id="text_12">
      <!-- 110 -->
      <g transform="translate(31.5125 195.286207)scale(0.1 -0.1)">
       <use xlink:href="#DejaVuSans-31"/>
       <use x="63.623047" xlink:href="#DejaVuSans-31"/>
       <use x="127.246094" xlink:href="#DejaVuSans-30"/>
      </g>
     </g>
    </g>
    <g id="ytick_4">
     <g id="line2d_25">
      <path clip-path="url(#p748678596d)" d="M 57.6 160.524142 
L 414.72 160.524142 
" style="fill:none;stroke:#b0b0b0;stroke-linecap:square;stroke-width:0.8;"/>
     </g>
     <g id="line2d_26">
      <g>
       <use style="stroke:#000000;stroke-width:0.8;" x="57.6" xlink:href="#m360d46087a" y="160.524142"/>
      </g>
     </g>
     <g id="text_13">
      <!-- 120 -->
      <g transform="translate(31.5125 164.323361)scale(0.1 -0.1)">
       <use xlink:href="#DejaVuSans-31"/>
       <use x="63.623047" xlink:href="#DejaVuSans-32"/>
       <use x="127.246094" xlink:href="#DejaVuSans-30"/>
      </g>
     </g>
    </g>
    <g id="ytick_5">
     <g id="line2d_27">
      <path clip-path="url(#p748678596d)" d="M 57.6 129.561296 
L 414.72 129.561296 
" style="fill:none;stroke:#b0b0b0;stroke-linecap:square;stroke-width:0.8;"/>
     </g>
     <g id="line2d_28">
      <g>
       <use style="stroke:#000000;stroke-width:0.8;" x="57.6" xlink:href="#m360d46087a" y="129.561296"/>
      </g>
     </g>
     <g id="text_14">
      <!-- 130 -->
      <defs>
       <path d="M 40.578125 39.3125 
Q 47.65625 37.796875 51.625 33 
Q 55.609375 28.21875 55.609375 21.1875 
Q 55.609375 10.40625 48.1875 4.484375 
Q 40.765625 -1.421875 27.09375 -1.421875 
Q 22.515625 -1.421875 17.65625 -0.515625 
Q 12.796875 0.390625 7.625 2.203125 
L 7.625 11.71875 
Q 11.71875 9.328125 16.59375 8.109375 
Q 21.484375 6.890625 26.8125 6.890625 
Q 36.078125 6.890625 40.9375 10.546875 
Q 45.796875 14.203125 45.796875 21.1875 
Q 45.796875 27.640625 41.28125 31.265625 
Q 36.765625 34.90625 28.71875 34.90625 
L 20.21875 34.90625 
L 20.21875 43.015625 
L 29.109375 43.015625 
Q 36.375 43.015625 40.234375 45.921875 
Q 44.09375 48.828125 44.09375 54.296875 
Q 44.09375 59.90625 40.109375 62.90625 
Q 36.140625 65.921875 28.71875 65.921875 
Q 24.65625 65.921875 20.015625 65.03125 
Q 15.375 64.15625 9.8125 62.3125 
L 9.8125 71.09375 
Q 15.4375 72.65625 20.34375 73.4375 
Q 25.25 74.21875 29.59375 74.21875 
Q 40.828125 74.21875 47.359375 69.109375 
Q 53.90625 64.015625 53.90625 55.328125 
Q 53.90625 49.265625 50.4375 45.09375 
Q 46.96875 40.921875 40.578125 39.3125 
" id="DejaVuSans-33"/>
      </defs>
      <g transform="translate(31.5125 133.360515)scale(0.1 -0.1)">
       <use xlink:href="#DejaVuSans-31"/>
       <use x="63.623047" xlink:href="#DejaVuSans-33"/>
       <use x="127.246094" xlink:href="#DejaVuSans-30"/>
      </g>
     </g>
    </g>
    <g id="ytick_6">
     <g id="line2d_29">
      <path clip-path="url(#p748678596d)" d="M 57.6 98.598451 
L 414.72 98.598451 
" style="fill:none;stroke:#b0b0b0;stroke-linecap:square;stroke-width:0.8;"/>
     </g>
     <g id="line2d_30">
      <g>
       <use style="stroke:#000000;stroke-width:0.8;" x="57.6" xlink:href="#m360d46087a" y="98.598451"/>
      </g>
     </g>
     <g id="text_15">
      <!-- 140 -->
      <g transform="translate(31.5125 102.397669)scale(0.1 -0.1)">
       <use xlink:href="#DejaVuSans-31"/>
       <use x="63.623047" xlink:href="#DejaVuSans-34"/>
       <use x="127.246094" xlink:href="#DejaVuSans-30"/>
      </g>
     </g>
    </g>
    <g id="ytick_7">
     <g id="line2d_31">
      <path clip-path="url(#p748678596d)" d="M 57.6 67.635605 
L 414.72 67.635605 
" style="fill:none;stroke:#b0b0b0;stroke-linecap:square;stroke-width:0.8;"/>
     </g>
     <g id="line2d_32">
      <g>
       <use style="stroke:#000000;stroke-width:0.8;" x="57.6" xlink:href="#m360d46087a" y="67.635605"/>
      </g>
     </g>
     <g id="text_16">
      <!-- 150 -->
      <g transform="translate(31.5125 71.434823)scale(0.1 -0.1)">
       <use xlink:href="#DejaVuSans-31"/>
       <use x="63.623047" xlink:href="#DejaVuSans-35"/>
       <use x="127.246094" xlink:href="#DejaVuSans-30"/>
      </g>
     </g>
    </g>
   </g>
   <g id="line2d_33">
    <path clip-path="url(#p748678596d)" d="M 74.089473 247.220111 
L 74.217846 247.220111 
L 75.886691 253.41268 
L 77.042046 262.701534 
L 77.812281 250.316395 
L 78.967635 241.027542 
L 80.251362 228.642403 
L 81.535089 185.294419 
L 82.04858 176.005565 
L 83.332307 163.620427 
L 84.102543 160.524142 
L 84.487661 163.620427 
L 85.386271 157.427858 
L 86.28488 154.331573 
L 87.055116 145.042719 
L 88.082096 145.042719 
L 88.980705 141.946435 
L 90.007687 141.946435 
L 91.034669 138.85015 
L 93.345377 132.657581 
L 94.372359 132.657581 
L 95.399341 135.753866 
L 96.426322 135.753866 
L 96.81144 138.85015 
L 97.581676 141.946435 
L 98.73703 141.946435 
L 99.892385 148.139004 
L 100.919366 148.139004 
L 101.817975 138.85015 
L 104.128684 145.042719 
L 105.284038 141.946435 
L 106.439392 148.139004 
L 107.72312 151.235289 
L 108.7501 154.331573 
L 109.520336 145.042719 
L 109.648709 135.753866 
L 110.290572 145.042719 
L 111.317554 145.042719 
L 112.472909 138.85015 
L 112.9864 138.85015 
L 114.141754 135.753866 
L 115.297108 135.753866 
L 118.378052 126.465012 
L 119.405035 135.753866 
L 120.560389 141.946435 
L 124.154824 141.946435 
L 124.41157 138.85015 
L 125.695296 141.946435 
L 127.107396 148.139004 
L 128.391122 148.139004 
L 129.67485 151.235289 
L 129.931595 148.139004 
L 130.445086 148.139004 
L 131.985559 145.042719 
L 133.140912 141.946435 
L 133.782776 145.042719 
L 134.681385 141.946435 
L 135.323249 145.042719 
L 136.478602 148.139004 
L 137.505585 148.139004 
L 138.917685 145.042719 
L 140.20141 141.946435 
L 141.485137 148.139004 
L 142.897237 154.331573 
L 144.180964 151.235289 
L 145.336319 145.042719 
L 146.3633 145.042719 
L 147.647027 151.235289 
L 148.802382 148.139004 
L 149.957735 151.235289 
L 151.11309 151.235289 
L 152.011699 148.139004 
L 152.396816 138.85015 
L 152.653562 129.561296 
L 153.03868 120.272443 
L 154.065661 89.309597 
L 154.45078 80.020743 
L 154.579152 80.020743 
L 154.964271 70.731889 
L 155.86288 67.635605 
L 156.889861 70.731889 
L 157.916842 76.924458 
L 158.815452 76.924458 
L 159.585687 86.213312 
L 161.511279 86.213312 
L 162.53826 83.117028 
L 164.592223 95.502166 
L 165.490831 101.694735 
L 166.389441 104.79102 
L 167.159677 104.79102 
L 168.443404 114.079874 
L 169.342011 123.368727 
L 170.497366 132.657581 
L 171.781095 135.753866 
L 175.375529 135.753866 
L 176.787629 132.657581 
L 177.81461 141.946435 
L 179.098337 141.946435 
L 181.409045 148.139004 
L 182.821145 151.235289 
L 184.361618 148.139004 
L 185.388599 148.139004 
L 186.415581 141.946435 
L 187.31419 132.657581 
L 188.341171 132.657581 
L 188.983035 123.368727 
L 189.496526 114.079874 
L 190.13839 104.79102 
L 193.98957 89.309597 
L 194.888179 83.117028 
L 195.658415 83.117028 
L 196.428651 86.213312 
L 197.198887 83.117028 
L 197.455633 83.117028 
L 198.73936 80.020743 
L 200.023087 80.020743 
L 201.178441 83.117028 
L 203.232404 83.117028 
L 204.772876 101.694735 
L 205.92823 104.79102 
L 206.955212 110.983589 
L 208.367311 110.983589 
L 210.934766 123.368727 
L 212.09012 123.368727 
L 213.117101 132.657581 
L 214.529201 132.657581 
L 215.171064 141.946435 
L 216.326419 138.85015 
L 217.738519 141.946435 
L 219.022245 145.042719 
L 221.332954 151.235289 
L 223.900409 145.042719 
L 225.055763 145.042719 
L 225.569253 135.753866 
L 226.339489 117.176158 
L 226.981353 107.887304 
L 227.751589 101.694735 
L 228.650198 101.694735 
L 229.420434 95.502166 
L 230.19067 92.405881 
L 231.089279 89.309597 
L 231.859515 86.213312 
L 232.62975 76.924458 
L 233.656734 76.924458 
L 234.683714 80.020743 
L 237.37954 98.598451 
L 238.534895 95.502166 
L 239.561876 92.405881 
L 240.20374 92.405881 
L 240.588859 95.502166 
L 241.359095 104.79102 
L 243.284685 107.887304 
L 244.44004 114.079874 
L 245.338649 123.368727 
L 246.108884 132.657581 
L 248.676338 138.85015 
L 249.960065 132.657581 
L 251.115419 135.753866 
L 252.270774 135.753866 
L 253.554501 141.946435 
L 254.581483 145.042719 
L 255.736835 148.139004 
L 258.047544 141.946435 
L 259.202899 141.946435 
L 260.486626 138.85015 
L 261.513608 135.753866 
L 262.283844 117.176158 
L 262.540589 107.887304 
L 263.567571 89.309597 
L 265.108044 83.117028 
L 266.006653 86.213312 
L 266.90526 83.117028 
L 267.162005 86.213312 
L 268.31736 92.405881 
L 269.344342 89.309597 
L 270.24295 80.020743 
L 271.269933 73.828174 
L 272.296914 70.731889 
L 273.195523 70.731889 
L 274.094131 67.635605 
L 274.864368 64.53932 
L 275.121114 64.53932 
L 275.891349 67.635605 
L 276.661585 67.635605 
L 277.816939 70.731889 
L 278.458803 80.020743 
L 278.972294 89.309597 
L 279.74253 98.598451 
L 280.769512 107.887304 
L 281.924866 114.079874 
L 284.49232 120.272443 
L 285.262555 129.561296 
L 286.546284 129.561296 
L 287.830009 126.465012 
L 289.113737 135.753866 
L 290.525837 138.85015 
L 292.066309 141.946435 
L 293.350036 141.946435 
L 294.50539 138.85015 
L 295.660745 141.946435 
L 297.971453 135.753866 
L 298.484943 123.368727 
L 298.870062 117.176158 
L 299.126807 107.887304 
L 299.897043 98.598451 
L 300.795652 95.502166 
L 301.694261 89.309597 
L 302.464498 86.213312 
L 303.491479 86.213312 
L 304.390088 83.117028 
L 305.288697 76.924458 
L 306.572424 70.731889 
L 307.342659 70.731889 
L 308.112895 67.635605 
L 308.883132 61.443036 
L 310.551977 61.443036 
L 311.450585 64.53932 
L 312.477568 70.731889 
L 313.504549 73.828174 
L 314.53153 83.117028 
L 315.686885 92.405881 
L 316.970613 95.502166 
L 318.511084 114.079874 
L 319.666438 117.176158 
L 320.950165 123.368727 
L 322.362265 129.561296 
L 323.517619 132.657581 
L 324.801347 132.657581 
L 325.9567 129.561296 
L 326.085073 129.561296 
L 327.240428 132.657581 
L 328.395782 132.657581 
L 329.422763 135.753866 
L 330.578117 141.946435 
L 331.733472 145.042719 
L 332.760453 145.042719 
L 333.787435 138.85015 
L 334.814417 138.85015 
L 335.841398 129.561296 
L 336.996753 135.753866 
L 337.895362 145.042719 
L 339.179088 151.235289 
L 342.773523 151.235289 
L 344.185623 148.139004 
L 345.46935 141.946435 
L 346.624704 135.753866 
L 347.651685 138.85015 
L 348.807039 138.85015 
L 350.090768 141.946435 
L 351.246121 145.042719 
L 353.941948 145.042719 
L 354.968929 141.946435 
L 356.124284 135.753866 
L 357.151265 135.753866 
L 358.049874 138.85015 
L 359.205229 135.753866 
L 360.360582 129.561296 
L 361.387564 129.561296 
L 362.542918 123.368727 
L 363.826645 126.465012 
L 364.853627 126.465012 
L 365.880609 120.272443 
L 366.265727 123.368727 
L 367.421082 123.368727 
L 368.576435 117.176158 
L 369.603417 110.983589 
L 371.657379 110.983589 
L 372.941107 114.079874 
L 373.839716 123.368727 
L 376.278797 123.368727 
L 377.434152 126.465012 
L 378.461133 126.465012 
L 379.488114 123.368727 
L 380.515097 126.465012 
L 381.670449 129.561296 
L 382.954177 132.657581 
L 384.237904 129.561296 
L 385.393258 126.465012 
L 386.548613 120.272443 
L 387.703967 117.176158 
L 388.730948 120.272443 
L 391.041657 126.465012 
L 392.197012 126.465012 
L 393.480738 123.368727 
L 396.561683 123.368727 
L 398.487273 126.465012 
L 398.487273 126.465012 
" style="fill:none;stroke:#1f77b4;stroke-linecap:square;stroke-width:1.5;"/>
   </g>
   <g id="line2d_34">
    <path clip-path="url(#p748678596d)" d="M 74.731337 265.797818 
L 75.116455 265.797818 
L 75.629946 259.605249 
L 75.758317 253.41268 
L 76.528555 244.123826 
L 76.913671 241.027542 
L 77.170417 237.931257 
L 77.427162 241.027542 
L 77.683908 241.027542 
L 78.069026 244.123826 
L 78.582517 250.316395 
L 79.737871 250.316395 
L 80.508107 231.738688 
L 81.021598 200.775842 
L 81.278344 200.775842 
L 81.535089 194.583273 
L 81.791835 185.294419 
L 82.176952 176.005565 
L 82.305326 176.005565 
L 82.433698 172.909281 
L 82.562071 172.909281 
L 82.690443 169.812996 
L 83.075562 169.812996 
L 83.332307 166.716711 
L 83.589052 166.716711 
L 83.717425 169.812996 
L 84.487661 160.524142 
L 84.744407 160.524142 
L 85.514643 166.716711 
L 85.643016 163.620427 
L 85.771387 163.620427 
L 85.899761 160.524142 
L 86.28488 160.524142 
L 86.541625 157.427858 
L 86.79837 157.427858 
L 87.055116 154.331573 
L 87.183487 151.235289 
L 87.440232 148.139004 
L 87.696978 141.946435 
L 88.210469 141.946435 
L 88.467215 145.042719 
L 88.852332 145.042719 
L 88.980705 141.946435 
L 89.622569 141.946435 
L 89.879314 138.85015 
L 90.13606 138.85015 
L 90.264432 141.946435 
L 90.521177 138.85015 
L 90.777923 138.85015 
L 90.906296 135.753866 
L 92.06165 135.753866 
L 92.831886 123.368727 
L 93.088632 123.368727 
L 93.345377 120.272443 
L 93.602122 120.272443 
L 93.858868 123.368727 
L 94.115613 123.368727 
L 94.372359 129.561296 
L 94.629105 132.657581 
L 94.88585 132.657581 
L 95.014222 129.561296 
L 95.270967 129.561296 
L 95.527713 126.465012 
L 96.29795 135.753866 
L 97.068186 135.753866 
L 97.324931 132.657581 
L 97.838421 132.657581 
L 98.480285 141.946435 
L 98.608657 141.946435 
L 98.865402 145.042719 
L 99.122148 145.042719 
L 99.250521 141.946435 
L 99.635639 141.946435 
L 100.14913 154.331573 
L 100.405875 154.331573 
L 100.662621 151.235289 
L 100.790993 148.139004 
L 101.56123 148.139004 
L 101.689602 145.042719 
L 101.817975 145.042719 
L 102.07472 141.946435 
L 102.203093 138.85015 
L 102.331466 138.85015 
L 102.588211 135.753866 
L 103.358447 145.042719 
L 103.871938 145.042719 
L 104.257056 151.235289 
L 104.642175 148.139004 
L 104.89892 141.946435 
L 105.155665 141.946435 
L 105.412411 145.042719 
L 105.669156 145.042719 
L 105.797529 141.946435 
L 106.054275 141.946435 
L 106.31102 138.85015 
L 107.081256 148.139004 
L 107.594746 148.139004 
L 108.108236 154.331573 
L 108.364982 154.331573 
L 108.621727 151.235289 
L 109.777081 151.235289 
L 110.290572 145.042719 
L 110.804064 145.042719 
L 110.932436 148.139004 
L 111.189181 148.139004 
L 111.317554 145.042719 
L 111.5743 145.042719 
L 111.831045 148.139004 
L 112.601281 148.139004 
L 113.628263 135.753866 
L 113.885009 138.85015 
L 114.013381 138.85015 
L 114.270126 135.753866 
L 114.398499 135.753866 
L 114.655245 132.657581 
L 114.91199 135.753866 
L 115.040362 138.85015 
L 115.810599 138.85015 
L 116.067345 135.753866 
L 116.195717 132.657581 
L 116.452462 135.753866 
L 116.709208 132.657581 
L 118.121306 132.657581 
L 118.634797 126.465012 
L 119.019916 126.465012 
L 120.046897 138.85015 
L 120.560389 138.85015 
L 120.688761 141.946435 
L 121.330625 141.946435 
L 121.458997 145.042719 
L 121.715742 145.042719 
L 121.972487 141.946435 
L 122.100861 141.946435 
L 122.357606 138.85015 
L 122.614351 141.946435 
L 123.127842 141.946435 
L 123.384587 138.85015 
L 123.641333 141.946435 
L 124.154824 141.946435 
L 124.41157 138.85015 
L 124.668315 141.946435 
L 124.92506 141.946435 
L 125.181806 138.85015 
L 125.438551 141.946435 
L 125.823669 145.042719 
L 126.465532 145.042719 
L 126.722278 148.139004 
L 127.620887 148.139004 
L 127.877631 151.235289 
L 128.391122 151.235289 
L 128.647869 148.139004 
L 128.904614 148.139004 
L 129.16136 151.235289 
L 130.18834 151.235289 
L 130.316714 148.139004 
L 131.985559 148.139004 
L 132.242304 145.042719 
L 132.884167 145.042719 
L 133.01254 141.946435 
L 134.039521 141.946435 
L 134.296267 145.042719 
L 135.579994 145.042719 
L 136.093485 151.235289 
L 137.377212 151.235289 
L 137.633957 148.139004 
L 137.890702 151.235289 
L 138.660939 151.235289 
L 138.917685 148.139004 
L 139.17443 148.139004 
L 139.431175 145.042719 
L 139.944665 145.042719 
L 140.329784 141.946435 
L 140.586529 141.946435 
L 140.843274 145.042719 
L 141.100019 145.042719 
L 141.356765 148.139004 
L 142.127001 148.139004 
L 142.383746 151.235289 
L 142.640491 151.235289 
L 143.153982 157.427858 
L 143.410728 157.427858 
L 143.924219 151.235289 
L 144.9512 151.235289 
L 145.207946 148.139004 
L 145.593064 148.139004 
L 145.84981 145.042719 
L 146.234927 145.042719 
L 146.491673 141.946435 
L 146.748419 141.946435 
L 147.133536 145.042719 
L 147.518655 151.235289 
L 148.288891 151.235289 
L 148.545636 148.139004 
L 149.957735 148.139004 
L 150.21448 151.235289 
L 151.62658 151.235289 
L 151.883326 154.331573 
L 152.011699 154.331573 
L 152.525189 148.139004 
L 152.653562 145.042719 
L 153.167053 126.465012 
L 153.423799 123.368727 
L 153.680544 117.176158 
L 154.194035 98.598451 
L 154.45078 95.502166 
L 154.707525 86.213312 
L 155.092644 76.924458 
L 155.349389 73.828174 
L 155.477761 76.924458 
L 155.991252 64.53932 
L 156.119625 64.53932 
L 156.247997 67.635605 
L 156.504744 67.635605 
L 156.761489 70.731889 
L 157.018234 70.731889 
L 157.146606 67.635605 
L 157.27498 67.635605 
L 157.403352 70.731889 
L 157.531725 70.731889 
L 157.660097 73.828174 
L 157.78847 73.828174 
L 158.045216 76.924458 
L 158.430334 76.924458 
L 158.558706 80.020743 
L 158.815452 76.924458 
L 159.328941 76.924458 
L 159.457315 80.020743 
L 159.842434 80.020743 
L 160.099179 86.213312 
L 160.355925 89.309597 
L 161.511279 89.309597 
L 161.768023 86.213312 
L 162.409886 86.213312 
L 162.53826 83.117028 
L 162.795005 80.020743 
L 163.05175 83.117028 
L 163.180123 83.117028 
L 163.436869 86.213312 
L 163.565241 89.309597 
L 164.207105 89.309597 
L 164.46385 86.213312 
L 164.592223 89.309597 
L 164.720595 89.309597 
L 164.977341 95.502166 
L 165.234086 98.598451 
L 166.132695 98.598451 
L 166.389441 101.694735 
L 166.517814 104.79102 
L 166.774559 104.79102 
L 167.031304 107.887304 
L 167.159677 107.887304 
L 167.28805 104.79102 
L 167.544795 104.79102 
L 167.80154 110.983589 
L 168.058286 104.79102 
L 168.315031 104.79102 
L 168.571776 110.983589 
L 168.828522 110.983589 
L 169.085267 114.079874 
L 169.342011 120.272443 
L 169.598759 120.272443 
L 169.983876 123.368727 
L 170.112249 126.465012 
L 170.62574 126.465012 
L 170.882485 129.561296 
L 171.010857 132.657581 
L 171.524349 132.657581 
L 172.037839 138.85015 
L 172.294584 138.85015 
L 172.422956 135.753866 
L 172.679702 132.657581 
L 172.936448 132.657581 
L 173.321566 135.753866 
L 174.220175 135.753866 
L 174.348547 138.85015 
L 174.605293 141.946435 
L 175.118784 135.753866 
L 176.145765 135.753866 
L 176.402511 138.85015 
L 176.916001 138.85015 
L 177.429492 132.657581 
L 177.686238 132.657581 
L 178.199729 138.85015 
L 178.456474 145.042719 
L 178.71322 141.946435 
L 179.098337 132.657581 
L 179.22671 132.657581 
L 179.355083 135.753866 
L 179.483456 135.753866 
L 179.996946 141.946435 
L 180.125319 141.946435 
L 180.382065 145.042719 
L 180.767181 148.139004 
L 181.023929 145.042719 
L 181.922536 145.042719 
L 183.07789 154.331573 
L 183.591381 154.331573 
L 183.848126 151.235289 
L 183.9765 148.139004 
L 185.131854 148.139004 
L 185.388599 145.042719 
L 186.158835 145.042719 
L 186.415581 148.139004 
L 186.672326 141.946435 
L 187.185817 141.946435 
L 188.212799 129.561296 
L 188.341171 132.657581 
L 188.469544 132.657581 
L 188.597917 135.753866 
L 188.983035 135.753866 
L 189.496526 123.368727 
L 189.753271 120.272443 
L 189.881644 117.176158 
L 190.010016 117.176158 
L 190.13839 114.079874 
L 190.395135 110.983589 
L 190.523506 107.887304 
L 191.036999 101.694735 
L 191.165371 98.598451 
L 191.550489 98.598451 
L 191.678861 95.502166 
L 191.807235 98.598451 
L 193.090961 98.598451 
L 193.219334 95.502166 
L 193.476079 95.502166 
L 193.604451 92.405881 
L 194.374688 92.405881 
L 194.50306 89.309597 
L 194.759806 86.213312 
L 194.888179 83.117028 
L 195.144924 83.117028 
L 195.40167 86.213312 
L 195.658415 83.117028 
L 196.685396 83.117028 
L 196.813769 86.213312 
L 197.070515 86.213312 
L 197.198887 83.117028 
L 198.610987 83.117028 
L 198.867732 80.020743 
L 198.996105 80.020743 
L 199.124478 83.117028 
L 199.509596 83.117028 
L 199.766341 80.020743 
L 200.023087 83.117028 
L 200.279832 83.117028 
L 200.408205 80.020743 
L 201.178441 80.020743 
L 201.306814 83.117028 
L 201.820305 83.117028 
L 202.07705 80.020743 
L 202.718914 80.020743 
L 203.104031 83.117028 
L 203.489149 83.117028 
L 204.131013 86.213312 
L 204.51613 86.213312 
L 204.901249 89.309597 
L 205.157994 95.502166 
L 205.671485 101.694735 
L 205.92823 98.598451 
L 206.056603 98.598451 
L 206.313349 101.694735 
L 206.441721 104.79102 
L 206.698466 104.79102 
L 206.955212 110.983589 
L 207.982194 110.983589 
L 208.238939 107.887304 
L 208.495685 101.694735 
L 208.75243 104.79102 
L 209.009175 110.983589 
L 209.265921 114.079874 
L 209.522666 114.079874 
L 209.779411 117.176158 
L 210.292902 117.176158 
L 210.549648 120.272443 
L 210.934766 120.272443 
L 211.191511 117.176158 
L 211.961746 126.465012 
L 212.475239 120.272443 
L 212.60361 123.368727 
L 212.860355 126.465012 
L 212.988729 126.465012 
L 213.245474 129.561296 
L 213.630593 129.561296 
L 213.887339 132.657581 
L 214.144083 132.657581 
L 214.529201 129.561296 
L 215.042691 132.657581 
L 215.42781 135.753866 
L 215.684555 138.85015 
L 215.9413 145.042719 
L 216.326419 145.042719 
L 216.583164 138.85015 
L 216.83991 135.753866 
L 217.096655 138.85015 
L 217.866891 138.85015 
L 218.252009 141.946435 
L 218.508755 141.946435 
L 219.022245 145.042719 
L 219.920855 145.042719 
L 220.1776 148.139004 
L 221.332954 148.139004 
L 221.5897 151.235289 
L 222.10319 151.235289 
L 222.359936 148.139004 
L 222.745054 148.139004 
L 223.258545 141.946435 
L 224.02878 141.946435 
L 224.542271 148.139004 
L 225.697625 148.139004 
L 226.981353 117.176158 
L 227.109725 117.176158 
L 227.494843 107.887304 
L 227.623216 107.887304 
L 227.751589 104.79102 
L 228.393453 104.79102 
L 228.521825 101.694735 
L 229.292061 101.694735 
L 229.548806 98.598451 
L 229.805552 98.598451 
L 229.933925 95.502166 
L 230.832534 95.502166 
L 230.960906 92.405881 
L 231.859515 92.405881 
L 232.116261 86.213312 
L 232.758124 86.213312 
L 233.399988 70.731889 
L 234.170224 80.020743 
L 234.683714 80.020743 
L 234.940459 76.924458 
L 235.45395 83.117028 
L 235.582323 86.213312 
L 235.839068 86.213312 
L 235.967441 83.117028 
L 236.224186 83.117028 
L 236.352559 86.213312 
L 236.480931 86.213312 
L 236.609304 89.309597 
L 237.122795 95.502166 
L 237.37954 95.502166 
L 238.021404 98.598451 
L 238.534895 98.598451 
L 238.79164 95.502166 
L 239.561876 95.502166 
L 239.818623 92.405881 
L 240.332113 92.405881 
L 240.717231 89.309597 
L 242.000958 98.598451 
L 242.386076 92.405881 
L 242.514449 92.405881 
L 242.642821 95.502166 
L 242.771194 101.694735 
L 243.02794 107.887304 
L 243.284685 107.887304 
L 243.669804 110.983589 
L 244.311666 110.983589 
L 244.568411 114.079874 
L 244.696784 117.176158 
L 244.953529 114.079874 
L 245.210275 114.079874 
L 245.46702 120.272443 
L 245.723765 120.272443 
L 245.980511 117.176158 
L 246.237256 120.272443 
L 246.494002 126.465012 
L 246.750748 129.561296 
L 247.649356 129.561296 
L 247.906101 132.657581 
L 248.162848 129.561296 
L 248.419593 129.561296 
L 248.676338 135.753866 
L 248.933084 138.85015 
L 250.21681 138.85015 
L 250.730301 132.657581 
L 251.243793 132.657581 
L 251.500538 126.465012 
L 251.757283 123.368727 
L 251.885655 126.465012 
L 252.270774 132.657581 
L 252.527519 132.657581 
L 252.784265 129.561296 
L 253.04101 129.561296 
L 253.297755 135.753866 
L 253.554501 138.85015 
L 253.811245 138.85015 
L 254.06799 141.946435 
L 254.324736 138.85015 
L 254.581483 141.946435 
L 254.966599 141.946435 
L 255.48009 148.139004 
L 255.736835 145.042719 
L 256.250328 145.042719 
L 256.507072 148.139004 
L 256.763818 145.042719 
L 257.534054 145.042719 
L 257.662426 141.946435 
L 257.790799 141.946435 
L 258.047544 138.85015 
L 258.81778 138.85015 
L 259.074526 145.042719 
L 259.202899 145.042719 
L 259.459644 141.946435 
L 260.358253 141.946435 
L 260.614999 135.753866 
L 261.128489 120.272443 
L 261.385235 126.465012 
L 261.64198 135.753866 
L 261.898726 135.753866 
L 262.155471 132.657581 
L 262.668962 120.272443 
L 262.925708 117.176158 
L 263.439198 104.79102 
L 263.695944 95.502166 
L 263.824316 92.405881 
L 264.08106 89.309597 
L 264.209435 86.213312 
L 264.46618 86.213312 
L 264.594553 89.309597 
L 264.851298 89.309597 
L 264.97967 86.213312 
L 265.364789 86.213312 
L 265.49316 83.117028 
L 266.263398 83.117028 
L 266.391769 86.213312 
L 266.520143 86.213312 
L 266.648515 83.117028 
L 267.547124 83.117028 
L 267.803869 86.213312 
L 268.188988 86.213312 
L 268.445733 89.309597 
L 268.702478 89.309597 
L 269.215969 95.502166 
L 269.344342 92.405881 
L 269.72946 92.405881 
L 269.857833 89.309597 
L 269.986205 89.309597 
L 270.114578 86.213312 
L 270.24295 86.213312 
L 270.499696 83.117028 
L 270.628069 80.020743 
L 270.756441 80.020743 
L 270.884814 76.924458 
L 271.783423 76.924458 
L 272.040169 73.828174 
L 272.296914 76.924458 
L 272.553659 76.924458 
L 272.682033 73.828174 
L 272.938778 70.731889 
L 274.222505 70.731889 
L 274.47925 67.635605 
L 275.762978 67.635605 
L 275.891349 70.731889 
L 276.019723 70.731889 
L 276.148094 67.635605 
L 276.276468 67.635605 
L 276.40484 64.53932 
L 277.046703 64.53932 
L 277.303449 67.635605 
L 277.560194 64.53932 
L 277.816939 64.53932 
L 278.073685 67.635605 
L 278.33043 67.635605 
L 278.587175 70.731889 
L 279.357412 70.731889 
L 279.614158 73.828174 
L 280.127648 95.502166 
L 280.641139 95.502166 
L 280.897884 104.79102 
L 281.411375 110.983589 
L 281.66812 110.983589 
L 281.796494 114.079874 
L 282.053239 114.079874 
L 282.309984 117.176158 
L 282.56673 117.176158 
L 282.823475 114.079874 
L 284.107203 114.079874 
L 284.363948 110.983589 
L 284.620693 110.983589 
L 284.877439 117.176158 
L 285.904419 129.561296 
L 286.161164 129.561296 
L 286.674655 135.753866 
L 287.188148 135.753866 
L 287.573264 132.657581 
L 287.830009 126.465012 
L 288.086755 123.368727 
L 288.600245 123.368727 
L 288.856992 126.465012 
L 289.113737 126.465012 
L 289.370482 123.368727 
L 289.627228 123.368727 
L 290.012345 120.272443 
L 290.269091 120.272443 
L 290.782582 132.657581 
L 291.296073 132.657581 
L 291.552818 135.753866 
L 291.809564 141.946435 
L 291.937936 141.946435 
L 292.194682 138.85015 
L 292.451427 138.85015 
L 292.708173 141.946435 
L 292.836545 145.042719 
L 292.964918 145.042719 
L 293.221663 141.946435 
L 293.478409 135.753866 
L 293.735154 135.753866 
L 293.991899 141.946435 
L 294.248645 145.042719 
L 294.50539 145.042719 
L 295.018881 138.85015 
L 295.789118 138.85015 
L 296.045863 141.946435 
L 296.302608 138.85015 
L 296.816099 138.85015 
L 297.072844 141.946435 
L 297.329589 141.946435 
L 297.586334 138.85015 
L 297.84308 138.85015 
L 297.971453 141.946435 
L 298.228198 141.946435 
L 298.484943 138.85015 
L 298.741689 132.657581 
L 299.383553 110.983589 
L 300.410534 98.598451 
L 301.565888 98.598451 
L 301.951007 89.309597 
L 303.234734 89.309597 
L 303.491479 86.213312 
L 304.133343 86.213312 
L 304.261715 89.309597 
L 304.390088 89.309597 
L 304.903579 83.117028 
L 305.031951 83.117028 
L 305.160324 80.020743 
L 305.673815 80.020743 
L 305.93056 73.828174 
L 306.44405 73.828174 
L 306.572424 76.924458 
L 306.829169 73.828174 
L 306.957542 70.731889 
L 307.599404 70.731889 
L 307.727778 73.828174 
L 308.112895 73.828174 
L 308.241268 70.731889 
L 308.36964 70.731889 
L 309.139877 52.154182 
L 309.26825 52.154182 
L 309.396623 55.250466 
L 309.524995 55.250466 
L 309.78174 61.443036 
L 309.910113 61.443036 
L 310.295232 52.154182 
L 310.551977 52.154182 
L 310.680349 55.250466 
L 310.937095 58.346751 
L 311.19384 58.346751 
L 311.450585 64.53932 
L 311.707332 64.53932 
L 312.092449 73.828174 
L 312.220822 73.828174 
L 312.477568 70.731889 
L 312.991058 70.731889 
L 313.119431 67.635605 
L 313.247804 67.635605 
L 313.376177 70.731889 
L 313.504549 70.731889 
L 313.761294 76.924458 
L 313.889668 76.924458 
L 314.403158 83.117028 
L 314.659904 80.020743 
L 315.94363 80.020743 
L 316.200376 76.924458 
L 316.713867 83.117028 
L 316.970613 89.309597 
L 317.227358 98.598451 
L 317.484103 95.502166 
L 317.740849 95.502166 
L 318.254338 101.694735 
L 318.511084 107.887304 
L 319.024574 114.079874 
L 319.923183 114.079874 
L 320.436674 120.272443 
L 321.20691 120.272443 
L 321.463655 126.465012 
L 321.720402 126.465012 
L 321.977147 120.272443 
L 322.233892 120.272443 
L 323.004128 129.561296 
L 323.260874 135.753866 
L 323.517619 132.657581 
L 323.774364 126.465012 
L 324.03111 126.465012 
L 324.287855 132.657581 
L 324.5446 132.657581 
L 324.801347 129.561296 
L 324.929719 129.561296 
L 325.186464 132.657581 
L 325.314837 135.753866 
L 325.571583 135.753866 
L 325.828328 129.561296 
L 326.085073 129.561296 
L 326.341819 132.657581 
L 327.497173 132.657581 
L 327.625545 135.753866 
L 328.267408 135.753866 
L 328.524154 138.85015 
L 328.652528 138.85015 
L 328.780899 141.946435 
L 328.909273 141.946435 
L 329.29439 132.657581 
L 329.422763 132.657581 
L 329.936254 138.85015 
L 330.321372 135.753866 
L 330.70649 135.753866 
L 330.963235 141.946435 
L 331.476727 148.139004 
L 331.990217 148.139004 
L 332.503708 141.946435 
L 332.760453 145.042719 
L 333.017199 145.042719 
L 333.145572 148.139004 
L 333.402317 148.139004 
L 334.172553 138.85015 
L 334.942789 138.85015 
L 335.199534 141.946435 
L 335.45628 141.946435 
L 335.96977 126.465012 
L 336.226517 126.465012 
L 336.483262 138.85015 
L 336.996753 132.657581 
L 337.253498 132.657581 
L 337.638615 138.85015 
L 338.023734 141.946435 
L 338.280478 141.946435 
L 338.665598 148.139004 
L 339.692578 148.139004 
L 340.077697 151.235289 
L 340.206069 154.331573 
L 340.591187 154.331573 
L 340.847933 151.235289 
L 342.516778 151.235289 
L 343.030269 145.042719 
L 343.158642 148.139004 
L 343.287014 148.139004 
L 343.415387 151.235289 
L 344.185623 151.235289 
L 344.442369 148.139004 
L 344.955859 148.139004 
L 345.212605 145.042719 
L 345.46935 145.042719 
L 345.854468 141.946435 
L 346.111214 138.85015 
L 346.367959 138.85015 
L 346.753078 135.753866 
L 347.009823 135.753866 
L 347.39494 138.85015 
L 347.908432 138.85015 
L 348.165177 135.753866 
L 348.421923 138.85015 
L 348.935413 138.85015 
L 349.192159 141.946435 
L 349.448903 141.946435 
L 349.705648 138.85015 
L 349.962394 132.657581 
L 350.219139 132.657581 
L 350.73263 148.139004 
L 351.117748 145.042719 
L 351.374494 148.139004 
L 351.631239 148.139004 
L 351.887984 145.042719 
L 352.401475 145.042719 
L 352.529848 141.946435 
L 352.914967 141.946435 
L 353.043339 145.042719 
L 354.712184 145.042719 
L 355.225675 138.85015 
L 355.610793 141.946435 
L 356.124284 141.946435 
L 356.381029 135.753866 
L 356.637774 138.85015 
L 356.89452 138.85015 
L 357.151265 135.753866 
L 358.049874 135.753866 
L 358.563364 141.946435 
L 358.820109 141.946435 
L 359.076855 145.042719 
L 359.333602 141.946435 
L 359.590347 141.946435 
L 359.847093 138.85015 
L 360.103838 132.657581 
L 360.874073 123.368727 
L 361.259192 110.983589 
L 361.515937 107.887304 
L 362.1578 123.368727 
L 362.542918 123.368727 
L 362.799664 126.465012 
L 363.5699 126.465012 
L 363.826645 123.368727 
L 364.083391 126.465012 
L 364.340137 126.465012 
L 364.596882 129.561296 
L 365.238745 129.561296 
L 365.49549 126.465012 
L 365.623863 123.368727 
L 365.880609 120.272443 
L 366.008982 120.272443 
L 366.265727 123.368727 
L 366.394099 126.465012 
L 366.650845 120.272443 
L 366.90759 120.272443 
L 367.164335 123.368727 
L 367.677827 123.368727 
L 367.934572 126.465012 
L 368.191318 126.465012 
L 368.448063 123.368727 
L 368.704808 123.368727 
L 369.218299 117.176158 
L 369.731789 117.176158 
L 370.502025 107.887304 
L 371.015517 114.079874 
L 371.272263 110.983589 
L 372.17087 110.983589 
L 372.427616 107.887304 
L 372.812734 107.887304 
L 373.326224 114.079874 
L 373.58297 114.079874 
L 373.711343 117.176158 
L 373.968088 117.176158 
L 374.481579 123.368727 
L 375.123443 123.368727 
L 375.508561 126.465012 
L 375.765306 126.465012 
L 376.535542 117.176158 
L 376.792288 117.176158 
L 377.049033 114.079874 
L 377.177406 114.079874 
L 377.562524 123.368727 
L 377.819269 126.465012 
L 378.076015 123.368727 
L 378.204388 123.368727 
L 378.33276 120.272443 
L 378.717878 120.272443 
L 378.974624 114.079874 
L 379.231369 110.983589 
L 379.744859 117.176158 
L 380.258349 117.176158 
L 380.386724 120.272443 
L 380.515097 120.272443 
L 380.771842 117.176158 
L 381.028587 117.176158 
L 381.542077 110.983589 
L 381.798822 110.983589 
L 382.312313 126.465012 
L 382.569058 132.657581 
L 382.825804 135.753866 
L 383.210922 135.753866 
L 383.724413 129.561296 
L 383.981158 132.657581 
L 384.494649 132.657581 
L 385.00814 126.465012 
L 385.136513 126.465012 
L 385.393258 132.657581 
L 386.420239 120.272443 
L 386.548613 117.176158 
L 387.190476 117.176158 
L 387.447222 114.079874 
L 387.575594 117.176158 
L 387.832339 117.176158 
L 388.089085 114.079874 
L 388.34583 114.079874 
L 388.602576 110.983589 
L 388.859322 110.983589 
L 389.372812 95.502166 
L 389.629558 95.502166 
L 389.886303 92.405881 
L 390.014674 89.309597 
L 390.528167 83.117028 
L 390.784912 86.213312 
L 391.298403 98.598451 
L 392.068638 123.368727 
L 392.325383 126.465012 
L 392.582129 126.465012 
L 392.838874 123.368727 
L 393.095619 126.465012 
L 393.352365 126.465012 
L 393.609111 129.561296 
L 393.865856 126.465012 
L 393.994228 126.465012 
L 394.122602 123.368727 
L 394.379347 126.465012 
L 396.048192 126.465012 
L 396.304937 123.368727 
L 396.561683 123.368727 
L 396.818428 120.272443 
L 397.203547 126.465012 
L 397.973783 126.465012 
L 397.973783 126.465012 
" style="fill:none;stroke:#ff7f0e;stroke-linecap:square;stroke-width:1.5;"/>
   </g>
   <g id="line2d_35">
    <path clip-path="url(#p748678596d)" d="M 73.832727 253.41268 
L 73.961101 247.220111 
L 74.731337 244.123826 
L 75.886691 247.220111 
L 77.29879 259.605249 
L 78.325771 250.316395 
L 78.71089 241.027542 
L 79.866244 244.123826 
L 79.994617 241.027542 
L 81.021598 197.679557 
L 82.176952 169.812996 
L 82.818816 166.716711 
L 83.974171 160.524142 
L 85.514643 160.524142 
L 87.825351 141.946435 
L 90.392805 141.946435 
L 90.521177 138.85015 
L 91.676532 135.753866 
L 92.960259 135.753866 
L 93.345377 132.657581 
L 94.629105 132.657581 
L 95.784457 138.85015 
L 97.196557 138.85015 
L 98.351912 145.042719 
L 98.480285 145.042719 
L 99.635639 151.235289 
L 99.764011 151.235289 
L 100.919366 148.139004 
L 101.047739 148.139004 
L 102.203093 135.753866 
L 102.331466 135.753866 
L 103.48682 145.042719 
L 104.770547 145.042719 
L 104.89892 141.946435 
L 106.054275 138.85015 
L 106.182647 141.946435 
L 107.338001 151.235289 
L 107.594746 151.235289 
L 108.7501 154.331573 
L 108.878472 154.331573 
L 110.033827 145.042719 
L 110.1622 145.042719 
L 111.317554 148.139004 
L 112.601281 148.139004 
L 112.729654 135.753866 
L 113.885009 135.753866 
L 114.013381 132.657581 
L 115.168736 138.85015 
L 115.297108 135.753866 
L 116.452462 132.657581 
L 116.580835 129.561296 
L 117.73619 132.657581 
L 117.864561 129.561296 
L 119.14829 129.561296 
L 120.303642 141.946435 
L 121.58737 141.946435 
L 122.100861 138.85015 
L 122.742724 138.85015 
L 123.51296 141.946435 
L 123.898079 138.85015 
L 124.283196 141.946435 
L 124.668315 141.946435 
L 125.438551 145.042719 
L 126.33716 148.139004 
L 126.979024 148.139004 
L 128.006005 151.235289 
L 130.316714 151.235289 
L 131.472067 148.139004 
L 131.985559 145.042719 
L 133.01254 141.946435 
L 133.269285 141.946435 
L 134.296267 145.042719 
L 134.681385 145.042719 
L 135.965112 151.235289 
L 138.404194 151.235289 
L 138.789311 141.946435 
L 140.20141 141.946435 
L 140.586529 145.042719 
L 140.971646 145.042719 
L 141.870255 148.139004 
L 142.768865 154.331573 
L 143.539101 154.331573 
L 143.924219 151.235289 
L 144.309337 151.235289 
L 145.593064 145.042719 
L 145.978182 138.85015 
L 146.234927 141.946435 
L 146.620046 141.946435 
L 147.518655 151.235289 
L 148.160517 151.235289 
L 148.674009 148.139004 
L 149.572617 148.139004 
L 150.342854 151.235289 
L 150.984716 154.331573 
L 151.498209 154.331573 
L 152.011699 145.042719 
L 152.525189 132.657581 
L 153.552171 98.598451 
L 154.194035 86.213312 
L 154.579152 73.828174 
L 154.964271 67.635605 
L 156.37637 67.635605 
L 156.633116 70.731889 
L 157.146606 70.731889 
L 157.403352 76.924458 
L 159.072197 76.924458 
L 159.714061 86.213312 
L 160.355925 89.309597 
L 161.12616 86.213312 
L 161.63965 83.117028 
L 162.53826 83.117028 
L 163.308496 89.309597 
L 164.078732 92.405881 
L 164.720595 95.502166 
L 165.234086 98.598451 
L 165.490831 101.694735 
L 166.004322 101.694735 
L 166.261068 104.79102 
L 167.28805 104.79102 
L 167.929914 107.887304 
L 168.443404 110.983589 
L 169.085267 120.272443 
L 170.112249 129.561296 
L 170.754111 132.657581 
L 171.395975 132.657581 
L 172.294584 135.753866 
L 172.936448 132.657581 
L 173.578311 135.753866 
L 174.220175 135.753866 
L 174.862039 132.657581 
L 175.503901 135.753866 
L 176.145765 135.753866 
L 176.787629 132.657581 
L 178.328101 141.946435 
L 178.969965 138.85015 
L 180.253691 145.042719 
L 182.5644 151.235289 
L 183.9765 151.235289 
L 184.361618 148.139004 
L 184.746736 148.139004 
L 185.131854 145.042719 
L 186.030463 145.042719 
L 186.672326 138.85015 
L 187.057445 129.561296 
L 188.854662 129.561296 
L 189.111408 123.368727 
L 189.496526 110.983589 
L 189.881644 104.79102 
L 191.165371 98.598451 
L 192.320724 98.598451 
L 192.834215 95.502166 
L 193.347706 89.309597 
L 193.861197 89.309597 
L 194.50306 86.213312 
L 195.016551 83.117028 
L 196.043533 83.117028 
L 196.428651 86.213312 
L 196.685396 86.213312 
L 197.198887 83.117028 
L 197.969124 83.117028 
L 198.73936 80.020743 
L 200.793324 80.020743 
L 201.178441 83.117028 
L 203.104031 83.117028 
L 204.259385 95.502166 
L 205.157994 98.598451 
L 206.313349 104.79102 
L 206.441721 107.887304 
L 207.597075 110.983589 
L 207.725449 107.887304 
L 208.880803 110.983589 
L 209.009175 114.079874 
L 210.16453 117.176158 
L 210.292902 117.176158 
L 211.448256 123.368727 
L 211.705001 123.368727 
L 212.860355 126.465012 
L 212.988729 129.561296 
L 214.144083 132.657581 
L 214.529201 132.657581 
L 215.684555 138.85015 
L 217.610146 138.85015 
L 218.7655 141.946435 
L 219.792481 148.139004 
L 219.920855 148.139004 
L 221.076209 151.235289 
L 222.359936 151.235289 
L 222.488309 148.139004 
L 223.643663 141.946435 
L 223.900409 141.946435 
L 225.055763 145.042719 
L 225.184134 145.042719 
L 226.339489 123.368727 
L 226.467861 110.983589 
L 227.623216 104.79102 
L 228.650198 101.694735 
L 229.805552 92.405881 
L 229.933925 92.405881 
L 230.960906 89.309597 
L 232.116261 83.117028 
L 232.244634 83.117028 
L 233.399988 73.828174 
L 233.528359 73.828174 
L 234.683714 80.020743 
L 234.812086 80.020743 
L 235.967441 89.309597 
L 237.122795 95.502166 
L 238.406523 95.502166 
L 239.176759 92.405881 
L 240.20374 89.309597 
L 240.460485 89.309597 
L 241.487468 104.79102 
L 242.514449 107.887304 
L 243.798175 107.887304 
L 243.926549 110.983589 
L 245.081903 117.176158 
L 245.210275 120.272443 
L 246.365629 132.657581 
L 246.494002 132.657581 
L 247.649356 135.753866 
L 247.777729 135.753866 
L 248.933084 138.85015 
L 249.189829 138.85015 
L 250.21681 132.657581 
L 250.473556 132.657581 
L 251.500538 138.85015 
L 251.757283 138.85015 
L 252.784265 135.753866 
L 253.04101 138.85015 
L 254.06799 141.946435 
L 254.324736 145.042719 
L 257.020563 145.042719 
L 258.175918 138.85015 
L 258.30429 141.946435 
L 259.202899 141.946435 
L 259.973135 135.753866 
L 260.871744 135.753866 
L 261.770353 132.657581 
L 263.05408 95.502166 
L 263.695944 86.213312 
L 264.722925 86.213312 
L 265.108044 83.117028 
L 267.033633 83.117028 
L 267.547124 86.213312 
L 267.932242 89.309597 
L 268.188988 92.405881 
L 268.445733 92.405881 
L 268.959224 89.309597 
L 269.72946 86.213312 
L 270.24295 76.924458 
L 270.756441 76.924458 
L 271.526678 73.828174 
L 272.168541 73.828174 
L 273.709014 67.635605 
L 274.350878 64.53932 
L 275.891349 64.53932 
L 276.40484 67.635605 
L 277.431823 67.635605 
L 278.33043 73.828174 
L 278.715549 80.020743 
L 279.614158 98.598451 
L 280.256021 104.79102 
L 281.411375 114.079874 
L 282.309984 114.079874 
L 282.695103 117.176158 
L 283.978829 117.176158 
L 284.749065 123.368727 
L 285.134184 129.561296 
L 285.390929 129.561296 
L 286.032793 132.657581 
L 287.188148 126.465012 
L 287.830009 126.465012 
L 288.471873 129.561296 
L 289.627228 135.753866 
L 290.782582 135.753866 
L 292.323054 141.946435 
L 292.836545 138.85015 
L 293.478409 141.946435 
L 293.863527 138.85015 
L 297.457963 138.85015 
L 298.099825 132.657581 
L 298.35657 117.176158 
L 298.613316 117.176158 
L 299.383553 104.79102 
L 300.410534 95.502166 
L 301.052398 95.502166 
L 301.822634 86.213312 
L 303.491479 86.213312 
L 304.775206 80.020743 
L 305.673815 73.828174 
L 306.700795 73.828174 
L 307.599404 67.635605 
L 308.626388 61.443036 
L 309.653368 61.443036 
L 310.808722 64.53932 
L 310.937095 64.53932 
L 312.092449 67.635605 
L 312.220822 67.635605 
L 313.247804 73.828174 
L 314.403158 80.020743 
L 314.53153 83.117028 
L 315.686885 89.309597 
L 315.815258 92.405881 
L 316.970613 95.502166 
L 317.227358 95.502166 
L 318.511084 114.079874 
L 319.538065 114.079874 
L 320.565047 117.176158 
L 321.592029 126.465012 
L 322.490638 129.561296 
L 323.004128 132.657581 
L 324.929719 132.657581 
L 325.44321 129.561296 
L 326.598564 129.561296 
L 326.855309 132.657581 
L 327.240428 132.657581 
L 327.753919 135.753866 
L 329.29439 135.753866 
L 329.936254 138.85015 
L 330.834863 145.042719 
L 332.246963 145.042719 
L 333.017199 141.946435 
L 334.04418 138.85015 
L 334.557671 138.85015 
L 335.199534 135.753866 
L 335.841398 129.561296 
L 337.125125 135.753866 
L 338.023734 145.042719 
L 338.665598 145.042719 
L 339.30746 151.235289 
L 340.206069 154.331573 
L 340.847933 151.235289 
L 343.928878 151.235289 
L 344.699114 141.946435 
L 345.340978 141.946435 
L 346.624704 135.753866 
L 347.009823 135.753866 
L 347.523314 138.85015 
L 348.550294 138.85015 
L 349.063785 135.753866 
L 349.705648 141.946435 
L 350.73263 145.042719 
L 351.246121 145.042719 
L 351.887984 141.946435 
L 352.529848 141.946435 
L 353.043339 145.042719 
L 353.685203 141.946435 
L 354.455439 145.042719 
L 354.840557 141.946435 
L 355.739165 138.85015 
L 356.381029 135.753866 
L 357.536384 135.753866 
L 358.049874 141.946435 
L 358.691738 138.85015 
L 359.205229 135.753866 
L 360.103838 129.561296 
L 360.7457 126.465012 
L 362.029428 126.465012 
L 363.184782 120.272443 
L 363.313154 123.368727 
L 364.468509 126.465012 
L 364.596882 126.465012 
L 365.752236 120.272443 
L 365.880609 120.272443 
L 367.035963 123.368727 
L 367.164335 123.368727 
L 368.31969 120.272443 
L 368.448063 120.272443 
L 369.603417 110.983589 
L 372.299243 110.983589 
L 373.454597 117.176158 
L 373.58297 120.272443 
L 374.738324 123.368727 
L 374.866697 123.368727 
L 376.022052 120.272443 
L 376.278797 120.272443 
L 377.434152 126.465012 
L 377.562524 126.465012 
L 378.717878 123.368727 
L 378.846251 123.368727 
L 380.001604 120.272443 
L 380.129978 120.272443 
L 381.285333 126.465012 
L 381.413704 126.465012 
L 382.697432 132.657581 
L 383.852786 126.465012 
L 383.981158 126.465012 
L 385.136513 129.561296 
L 385.264885 126.465012 
L 386.420239 120.272443 
L 386.548613 120.272443 
L 387.703967 114.079874 
L 387.832339 114.079874 
L 388.987694 120.272443 
L 389.116067 120.272443 
L 390.271421 123.368727 
L 390.399794 123.368727 
L 391.555147 126.465012 
L 395.534701 126.465012 
L 396.690055 123.368727 
L 396.818428 123.368727 
L 397.588664 120.272443 
L 397.588664 120.272443 
" style="fill:none;stroke:#2ca02c;stroke-linecap:square;stroke-width:1.5;"/>
   </g>
   <g id="patch_3">
    <path d="M 57.6 276.48 
L 57.6 41.472 
" style="fill:none;stroke:#000000;stroke-linecap:square;stroke-linejoin:miter;stroke-width:0.8;"/>
   </g>
   <g id="patch_4">
    <path d="M 414.72 276.48 
L 414.72 41.472 
" style="fill:none;stroke:#000000;stroke-linecap:square;stroke-linejoin:miter;stroke-width:0.8;"/>
   </g>
   <g id="patch_5">
    <path d="M 57.6 276.48 
L 414.72 276.48 
" style="fill:none;stroke:#000000;stroke-linecap:square;stroke-linejoin:miter;stroke-width:0.8;"/>
   </g>
   <g id="patch_6">
    <path d="M 57.6 41.472 
L 414.72 41.472 
" style="fill:none;stroke:#000000;stroke-linecap:square;stroke-linejoin:miter;stroke-width:0.8;"/>
   </g>
   <g id="legend_1">
    <g id="patch_7">
     <path d="M 64.6 93.506375 
L 136.625 93.506375 
Q 138.625 93.506375 138.625 91.506375 
L 138.625 48.472 
Q 138.625 46.472 136.625 46.472 
L 64.6 46.472 
Q 62.6 46.472 62.6 48.472 
L 62.6 91.506375 
Q 62.6 93.506375 64.6 93.506375 
z
" style="fill:#ffffff;opacity:0.8;stroke:#cccccc;stroke-linejoin:miter;"/>
    </g>
    <g id="line2d_36">
     <path d="M 66.6 54.570437 
L 86.6 54.570437 
" style="fill:none;stroke:#1f77b4;stroke-linecap:square;stroke-width:1.5;"/>
    </g>
    <g id="line2d_37"/>
    <g id="text_17">
     <!-- garmin -->
     <defs>
      <path d="M 45.40625 27.984375 
Q 45.40625 37.75 41.375 43.109375 
Q 37.359375 48.484375 30.078125 48.484375 
Q 22.859375 48.484375 18.828125 43.109375 
Q 14.796875 37.75 14.796875 27.984375 
Q 14.796875 18.265625 18.828125 12.890625 
Q 22.859375 7.515625 30.078125 7.515625 
Q 37.359375 7.515625 41.375 12.890625 
Q 45.40625 18.265625 45.40625 27.984375 
M 54.390625 6.78125 
Q 54.390625 -7.171875 48.1875 -13.984375 
Q 42 -20.796875 29.203125 -20.796875 
Q 24.46875 -20.796875 20.265625 -20.09375 
Q 16.0625 -19.390625 12.109375 -17.921875 
L 12.109375 -9.1875 
Q 16.0625 -11.328125 19.921875 -12.34375 
Q 23.78125 -13.375 27.78125 -13.375 
Q 36.625 -13.375 41.015625 -8.765625 
Q 45.40625 -4.15625 45.40625 5.171875 
L 45.40625 9.625 
Q 42.625 4.78125 38.28125 2.390625 
Q 33.9375 0 27.875 0 
Q 17.828125 0 11.671875 7.65625 
Q 5.515625 15.328125 5.515625 27.984375 
Q 5.515625 40.671875 11.671875 48.328125 
Q 17.828125 56 27.875 56 
Q 33.9375 56 38.28125 53.609375 
Q 42.625 51.21875 45.40625 46.390625 
L 45.40625 54.6875 
L 54.390625 54.6875 
z
" id="DejaVuSans-67"/>
      <path d="M 34.28125 27.484375 
Q 23.390625 27.484375 19.1875 25 
Q 14.984375 22.515625 14.984375 16.5 
Q 14.984375 11.71875 18.140625 8.90625 
Q 21.296875 6.109375 26.703125 6.109375 
Q 34.1875 6.109375 38.703125 11.40625 
Q 43.21875 16.703125 43.21875 25.484375 
L 43.21875 27.484375 
z
M 52.203125 31.203125 
L 52.203125 0 
L 43.21875 0 
L 43.21875 8.296875 
Q 40.140625 3.328125 35.546875 0.953125 
Q 30.953125 -1.421875 24.3125 -1.421875 
Q 15.921875 -1.421875 10.953125 3.296875 
Q 6 8.015625 6 15.921875 
Q 6 25.140625 12.171875 29.828125 
Q 18.359375 34.515625 30.609375 34.515625 
L 43.21875 34.515625 
L 43.21875 35.40625 
Q 43.21875 41.609375 39.140625 45 
Q 35.0625 48.390625 27.6875 48.390625 
Q 23 48.390625 18.546875 47.265625 
Q 14.109375 46.140625 10.015625 43.890625 
L 10.015625 52.203125 
Q 14.9375 54.109375 19.578125 55.046875 
Q 24.21875 56 28.609375 56 
Q 40.484375 56 46.34375 49.84375 
Q 52.203125 43.703125 52.203125 31.203125 
" id="DejaVuSans-61"/>
      <path d="M 41.109375 46.296875 
Q 39.59375 47.171875 37.8125 47.578125 
Q 36.03125 48 33.890625 48 
Q 26.265625 48 22.1875 43.046875 
Q 18.109375 38.09375 18.109375 28.8125 
L 18.109375 0 
L 9.078125 0 
L 9.078125 54.6875 
L 18.109375 54.6875 
L 18.109375 46.1875 
Q 20.953125 51.171875 25.484375 53.578125 
Q 30.03125 56 36.53125 56 
Q 37.453125 56 38.578125 55.875 
Q 39.703125 55.765625 41.0625 55.515625 
z
" id="DejaVuSans-72"/>
      <path d="M 52 44.1875 
Q 55.375 50.25 60.0625 53.125 
Q 64.75 56 71.09375 56 
Q 79.640625 56 84.28125 50.015625 
Q 88.921875 44.046875 88.921875 33.015625 
L 88.921875 0 
L 79.890625 0 
L 79.890625 32.71875 
Q 79.890625 40.578125 77.09375 44.375 
Q 74.3125 48.1875 68.609375 48.1875 
Q 61.625 48.1875 57.5625 43.546875 
Q 53.515625 38.921875 53.515625 30.90625 
L 53.515625 0 
L 44.484375 0 
L 44.484375 32.71875 
Q 44.484375 40.625 41.703125 44.40625 
Q 38.921875 48.1875 33.109375 48.1875 
Q 26.21875 48.1875 22.15625 43.53125 
Q 18.109375 38.875 18.109375 30.90625 
L 18.109375 0 
L 9.078125 0 
L 9.078125 54.6875 
L 18.109375 54.6875 
L 18.109375 46.1875 
Q 21.1875 51.21875 25.484375 53.609375 
Q 29.78125 56 35.6875 56 
Q 41.65625 56 45.828125 52.96875 
Q 50 49.953125 52 44.1875 
" id="DejaVuSans-6d"/>
      <path d="M 9.421875 54.6875 
L 18.40625 54.6875 
L 18.40625 0 
L 9.421875 0 
z
M 9.421875 75.984375 
L 18.40625 75.984375 
L 18.40625 64.59375 
L 9.421875 64.59375 
z
" id="DejaVuSans-69"/>
      <path d="M 54.890625 33.015625 
L 54.890625 0 
L 45.90625 0 
L 45.90625 32.71875 
Q 45.90625 40.484375 42.875 44.328125 
Q 39.84375 48.1875 33.796875 48.1875 
Q 26.515625 48.1875 22.3125 43.546875 
Q 18.109375 38.921875 18.109375 30.90625 
L 18.109375 0 
L 9.078125 0 
L 9.078125 54.6875 
L 18.109375 54.6875 
L 18.109375 46.1875 
Q 21.34375 51.125 25.703125 53.5625 
Q 30.078125 56 35.796875 56 
Q 45.21875 56 50.046875 50.171875 
Q 54.890625 44.34375 54.890625 33.015625 
" id="DejaVuSans-6e"/>
     </defs>
     <g transform="translate(94.6 58.070437)scale(0.1 -0.1)">
      <use xlink:href="#DejaVuSans-67"/>
      <use x="63.476562" xlink:href="#DejaVuSans-61"/>
      <use x="124.755859" xlink:href="#DejaVuSans-72"/>
      <use x="165.853516" xlink:href="#DejaVuSans-6d"/>
      <use x="263.265625" xlink:href="#DejaVuSans-69"/>
      <use x="291.048828" xlink:href="#DejaVuSans-6e"/>
     </g>
    </g>
    <g id="line2d_38">
     <path d="M 66.6 69.248562 
L 86.6 69.248562 
" style="fill:none;stroke:#ff7f0e;stroke-linecap:square;stroke-width:1.5;"/>
    </g>
    <g id="line2d_39"/>
    <g id="text_18">
     <!-- scosche -->
     <defs>
      <path d="M 44.28125 53.078125 
L 44.28125 44.578125 
Q 40.484375 46.53125 36.375 47.5 
Q 32.28125 48.484375 27.875 48.484375 
Q 21.1875 48.484375 17.84375 46.4375 
Q 14.5 44.390625 14.5 40.28125 
Q 14.5 37.15625 16.890625 35.375 
Q 19.28125 33.59375 26.515625 31.984375 
L 29.59375 31.296875 
Q 39.15625 29.25 43.1875 25.515625 
Q 47.21875 21.78125 47.21875 15.09375 
Q 47.21875 7.46875 41.1875 3.015625 
Q 35.15625 -1.421875 24.609375 -1.421875 
Q 20.21875 -1.421875 15.453125 -0.5625 
Q 10.6875 0.296875 5.421875 2 
L 5.421875 11.28125 
Q 10.40625 8.6875 15.234375 7.390625 
Q 20.0625 6.109375 24.8125 6.109375 
Q 31.15625 6.109375 34.5625 8.28125 
Q 37.984375 10.453125 37.984375 14.40625 
Q 37.984375 18.0625 35.515625 20.015625 
Q 33.0625 21.96875 24.703125 23.78125 
L 21.578125 24.515625 
Q 13.234375 26.265625 9.515625 29.90625 
Q 5.8125 33.546875 5.8125 39.890625 
Q 5.8125 47.609375 11.28125 51.796875 
Q 16.75 56 26.8125 56 
Q 31.78125 56 36.171875 55.265625 
Q 40.578125 54.546875 44.28125 53.078125 
" id="DejaVuSans-73"/>
      <path d="M 48.78125 52.59375 
L 48.78125 44.1875 
Q 44.96875 46.296875 41.140625 47.34375 
Q 37.3125 48.390625 33.40625 48.390625 
Q 24.65625 48.390625 19.8125 42.84375 
Q 14.984375 37.3125 14.984375 27.296875 
Q 14.984375 17.28125 19.8125 11.734375 
Q 24.65625 6.203125 33.40625 6.203125 
Q 37.3125 6.203125 41.140625 7.25 
Q 44.96875 8.296875 48.78125 10.40625 
L 48.78125 2.09375 
Q 45.015625 0.34375 40.984375 -0.53125 
Q 36.96875 -1.421875 32.421875 -1.421875 
Q 20.0625 -1.421875 12.78125 6.34375 
Q 5.515625 14.109375 5.515625 27.296875 
Q 5.515625 40.671875 12.859375 48.328125 
Q 20.21875 56 33.015625 56 
Q 37.15625 56 41.109375 55.140625 
Q 45.0625 54.296875 48.78125 52.59375 
" id="DejaVuSans-63"/>
      <path d="M 30.609375 48.390625 
Q 23.390625 48.390625 19.1875 42.75 
Q 14.984375 37.109375 14.984375 27.296875 
Q 14.984375 17.484375 19.15625 11.84375 
Q 23.34375 6.203125 30.609375 6.203125 
Q 37.796875 6.203125 41.984375 11.859375 
Q 46.1875 17.53125 46.1875 27.296875 
Q 46.1875 37.015625 41.984375 42.703125 
Q 37.796875 48.390625 30.609375 48.390625 
M 30.609375 56 
Q 42.328125 56 49.015625 48.375 
Q 55.71875 40.765625 55.71875 27.296875 
Q 55.71875 13.875 49.015625 6.21875 
Q 42.328125 -1.421875 30.609375 -1.421875 
Q 18.84375 -1.421875 12.171875 6.21875 
Q 5.515625 13.875 5.515625 27.296875 
Q 5.515625 40.765625 12.171875 48.375 
Q 18.84375 56 30.609375 56 
" id="DejaVuSans-6f"/>
      <path d="M 54.890625 33.015625 
L 54.890625 0 
L 45.90625 0 
L 45.90625 32.71875 
Q 45.90625 40.484375 42.875 44.328125 
Q 39.84375 48.1875 33.796875 48.1875 
Q 26.515625 48.1875 22.3125 43.546875 
Q 18.109375 38.921875 18.109375 30.90625 
L 18.109375 0 
L 9.078125 0 
L 9.078125 75.984375 
L 18.109375 75.984375 
L 18.109375 46.1875 
Q 21.34375 51.125 25.703125 53.5625 
Q 30.078125 56 35.796875 56 
Q 45.21875 56 50.046875 50.171875 
Q 54.890625 44.34375 54.890625 33.015625 
" id="DejaVuSans-68"/>
      <path d="M 56.203125 29.59375 
L 56.203125 25.203125 
L 14.890625 25.203125 
Q 15.484375 15.921875 20.484375 11.0625 
Q 25.484375 6.203125 34.421875 6.203125 
Q 39.59375 6.203125 44.453125 7.46875 
Q 49.3125 8.734375 54.109375 11.28125 
L 54.109375 2.78125 
Q 49.265625 0.734375 44.1875 -0.34375 
Q 39.109375 -1.421875 33.890625 -1.421875 
Q 20.796875 -1.421875 13.15625 6.1875 
Q 5.515625 13.8125 5.515625 26.8125 
Q 5.515625 40.234375 12.765625 48.109375 
Q 20.015625 56 32.328125 56 
Q 43.359375 56 49.78125 48.890625 
Q 56.203125 41.796875 56.203125 29.59375 
M 47.21875 32.234375 
Q 47.125 39.59375 43.09375 43.984375 
Q 39.0625 48.390625 32.421875 48.390625 
Q 24.90625 48.390625 20.390625 44.140625 
Q 15.875 39.890625 15.1875 32.171875 
z
" id="DejaVuSans-65"/>
     </defs>
     <g transform="translate(94.6 72.748562)scale(0.1 -0.1)">
      <use xlink:href="#DejaVuSans-73"/>
      <use x="52.099609" xlink:href="#DejaVuSans-63"/>
      <use x="107.080078" xlink:href="#DejaVuSans-6f"/>
      <use x="168.261719" xlink:href="#DejaVuSans-73"/>
      <use x="220.361328" xlink:href="#DejaVuSans-63"/>
      <use x="275.341797" xlink:href="#DejaVuSans-68"/>
      <use x="338.720703" xlink:href="#DejaVuSans-65"/>
     </g>
    </g>
    <g id="line2d_40">
     <path d="M 66.6 83.926687 
L 86.6 83.926687 
" style="fill:none;stroke:#2ca02c;stroke-linecap:square;stroke-width:1.5;"/>
    </g>
    <g id="line2d_41"/>
    <g id="text_19">
     <!-- coospo -->
     <defs>
      <path d="M 18.109375 8.203125 
L 18.109375 -20.796875 
L 9.078125 -20.796875 
L 9.078125 54.6875 
L 18.109375 54.6875 
L 18.109375 46.390625 
Q 20.953125 51.265625 25.265625 53.625 
Q 29.59375 56 35.59375 56 
Q 45.5625 56 51.78125 48.09375 
Q 58.015625 40.1875 58.015625 27.296875 
Q 58.015625 14.40625 51.78125 6.484375 
Q 45.5625 -1.421875 35.59375 -1.421875 
Q 29.59375 -1.421875 25.265625 0.953125 
Q 20.953125 3.328125 18.109375 8.203125 
M 48.6875 27.296875 
Q 48.6875 37.203125 44.609375 42.84375 
Q 40.53125 48.484375 33.40625 48.484375 
Q 26.265625 48.484375 22.1875 42.84375 
Q 18.109375 37.203125 18.109375 27.296875 
Q 18.109375 17.390625 22.1875 11.75 
Q 26.265625 6.109375 33.40625 6.109375 
Q 40.53125 6.109375 44.609375 11.75 
Q 48.6875 17.390625 48.6875 27.296875 
" id="DejaVuSans-70"/>
     </defs>
     <g transform="translate(94.6 87.426687)scale(0.1 -0.1)">
      <use xlink:href="#DejaVuSans-63"/>
      <use x="54.980469" xlink:href="#DejaVuSans-6f"/>
      <use x="116.162109" xlink:href="#DejaVuSans-6f"/>
      <use x="177.34375" xlink:href="#DejaVuSans-73"/>
      <use x="229.443359" xlink:href="#DejaVuSans-70"/>
      <use x="292.919922" xlink:href="#DejaVuSans-6f"/>
     </g>
    </g>
   </g>
  </g>
 </g>
 <defs>
  <clipPath id="p748678596d">
   <rect height="235.008" width="357.12" x="57.6" y="41.472"/>
  </clipPath>
 </defs>
</svg>
