<?xml version="1.0" encoding="utf-8" standalone="no"?>
<!DOCTYPE svg PUBLIC "-//W3C//DTD SVG 1.1//EN"
  "http://www.w3.org/Graphics/SVG/1.1/DTD/svg11.dtd">
<!-- Created with matplotlib (http://matplotlib.org/) -->
<svg height="345pt" version="1.1" viewBox="0 0 460 345" width="460pt" xmlns="http://www.w3.org/2000/svg" xmlns:xlink="http://www.w3.org/1999/xlink">
 <defs>
  <style type="text/css">
*{stroke-linecap:butt;stroke-linejoin:round;}
  </style>
 </defs>
 <g id="figure_1">
  <g id="patch_1">
   <path d="M 0 345.6 
L 460.8 345.6 
L 460.8 0 
L 0 0 
z
" style="fill:#ffffff;"/>
  </g>
  <g id="axes_1">
   <g id="patch_2">
    <path d="M 57.6 307.584 
L 414.72 307.584 
L 414.72 41.472 
L 57.6 41.472 
z
" style="fill:#ffffff;"/>
   </g>
   <g id="matplotlib.axis_1">
    <g id="xtick_1">
     <g id="line2d_1">
      <path clip-path="url(#p62d2d907f1)" d="M 60.305453 307.584 
L 60.305453 41.472 
" style="fill:none;stroke:#b0b0b0;stroke-linecap:square;stroke-width:0.8;"/>
     </g>
     <g id="line2d_2">
      <defs>
       <path d="M 0 0 
L 0 3.5 
" id="m6b6203020f" style="stroke:#000000;stroke-width:0.8;"/>
      </defs>
      <g>
       <use style="stroke:#000000;stroke-width:0.8;" x="60.305453" xlink:href="#m6b6203020f" y="307.584"/>
      </g>
     </g>
     <g id="text_1">
      <!-- 25 03:43 -->
      <defs>
       <path d="M 19.1875 8.296875 
L 53.609375 8.296875 
L 53.609375 0 
L 7.328125 0 
L 7.328125 8.296875 
Q 12.9375 14.109375 22.625 23.890625 
Q 32.328125 33.6875 34.8125 36.53125 
Q 39.546875 41.84375 41.421875 45.53125 
Q 43.3125 49.21875 43.3125 52.78125 
Q 43.3125 58.59375 39.234375 62.25 
Q 35.15625 65.921875 28.609375 65.921875 
Q 23.96875 65.921875 18.8125 64.3125 
Q 13.671875 62.703125 7.8125 59.421875 
L 7.8125 69.390625 
Q 13.765625 71.78125 18.9375 73 
Q 24.125 74.21875 28.421875 74.21875 
Q 39.75 74.21875 46.484375 68.546875 
Q 53.21875 62.890625 53.21875 53.421875 
Q 53.21875 48.921875 51.53125 44.890625 
Q 49.859375 40.875 45.40625 35.40625 
Q 44.1875 33.984375 37.640625 27.21875 
Q 31.109375 20.453125 19.1875 8.296875 
" id="DejaVuSans-32"/>
       <path d="M 10.796875 72.90625 
L 49.515625 72.90625 
L 49.515625 64.59375 
L 19.828125 64.59375 
L 19.828125 46.734375 
Q 21.96875 47.46875 24.109375 47.828125 
Q 26.265625 48.1875 28.421875 48.1875 
Q 40.625 48.1875 47.75 41.5 
Q 54.890625 34.8125 54.890625 23.390625 
Q 54.890625 11.625 47.5625 5.09375 
Q 40.234375 -1.421875 26.90625 -1.421875 
Q 22.3125 -1.421875 17.546875 -0.640625 
Q 12.796875 0.140625 7.71875 1.703125 
L 7.71875 11.625 
Q 12.109375 9.234375 16.796875 8.0625 
Q 21.484375 6.890625 26.703125 6.890625 
Q 35.15625 6.890625 40.078125 11.328125 
Q 45.015625 15.765625 45.015625 23.390625 
Q 45.015625 31 40.078125 35.4375 
Q 35.15625 39.890625 26.703125 39.890625 
Q 22.75 39.890625 18.8125 39.015625 
Q 14.890625 38.140625 10.796875 36.28125 
z
" id="DejaVuSans-35"/>
       <path id="DejaVuSans-20"/>
       <path d="M 31.78125 66.40625 
Q 24.171875 66.40625 20.328125 58.90625 
Q 16.5 51.421875 16.5 36.375 
Q 16.5 21.390625 20.328125 13.890625 
Q 24.171875 6.390625 31.78125 6.390625 
Q 39.453125 6.390625 43.28125 13.890625 
Q 47.125 21.390625 47.125 36.375 
Q 47.125 51.421875 43.28125 58.90625 
Q 39.453125 66.40625 31.78125 66.40625 
M 31.78125 74.21875 
Q 44.046875 74.21875 50.515625 64.515625 
Q 56.984375 54.828125 56.984375 36.375 
Q 56.984375 17.96875 50.515625 8.265625 
Q 44.046875 -1.421875 31.78125 -1.421875 
Q 19.53125 -1.421875 13.0625 8.265625 
Q 6.59375 17.96875 6.59375 36.375 
Q 6.59375 54.828125 13.0625 64.515625 
Q 19.53125 74.21875 31.78125 74.21875 
" id="DejaVuSans-30"/>
       <path d="M 40.578125 39.3125 
Q 47.65625 37.796875 51.625 33 
Q 55.609375 28.21875 55.609375 21.1875 
Q 55.609375 10.40625 48.1875 4.484375 
Q 40.765625 -1.421875 27.09375 -1.421875 
Q 22.515625 -1.421875 17.65625 -0.515625 
Q 12.796875 0.390625 7.625 2.203125 
L 7.625 11.71875 
Q 11.71875 9.328125 16.59375 8.109375 
Q 21.484375 6.890625 26.8125 6.890625 
Q 36.078125 6.890625 40.9375 10.546875 
Q 45.796875 14.203125 45.796875 21.1875 
Q 45.796875 27.640625 41.28125 31.265625 
Q 36.765625 34.90625 28.71875 34.90625 
L 20.21875 34.90625 
L 20.21875 43.015625 
L 29.109375 43.015625 
Q 36.375 43.015625 40.234375 45.921875 
Q 44.09375 48.828125 44.09375 54.296875 
Q 44.09375 59.90625 40.109375 62.90625 
Q 36.140625 65.921875 28.71875 65.921875 
Q 24.65625 65.921875 20.015625 65.03125 
Q 15.375 64.15625 9.8125 62.3125 
L 9.8125 71.09375 
Q 15.4375 72.65625 20.34375 73.4375 
Q 25.25 74.21875 29.59375 74.21875 
Q 40.828125 74.21875 47.359375 69.109375 
Q 53.90625 64.015625 53.90625 55.328125 
Q 53.90625 49.265625 50.4375 45.09375 
Q 46.96875 40.921875 40.578125 39.3125 
" id="DejaVuSans-33"/>
       <path d="M 11.71875 12.40625 
L 22.015625 12.40625 
L 22.015625 0 
L 11.71875 0 
z
M 11.71875 51.703125 
L 22.015625 51.703125 
L 22.015625 39.3125 
L 11.71875 39.3125 
z
" id="DejaVuSans-3a"/>
       <path d="M 37.796875 64.3125 
L 12.890625 25.390625 
L 37.796875 25.390625 
z
M 35.203125 72.90625 
L 47.609375 72.90625 
L 47.609375 25.390625 
L 58.015625 25.390625 
L 58.015625 17.1875 
L 47.609375 17.1875 
L 47.609375 0 
L 37.796875 0 
L 37.796875 17.1875 
L 4.890625 17.1875 
L 4.890625 26.703125 
z
" id="DejaVuSans-34"/>
      </defs>
      <g transform="translate(37.944516 322.182437)scale(0.1 -0.1)">
       <use xlink:href="#DejaVuSans-32"/>
       <use x="63.623047" xlink:href="#DejaVuSans-35"/>
       <use x="127.246094" xlink:href="#DejaVuSans-20"/>
       <use x="159.033203" xlink:href="#DejaVuSans-30"/>
       <use x="222.65625" xlink:href="#DejaVuSans-33"/>
       <use x="286.279297" xlink:href="#DejaVuSans-3a"/>
       <use x="319.970703" xlink:href="#DejaVuSans-34"/>
       <use x="383.59375" xlink:href="#DejaVuSans-33"/>
      </g>
     </g>
    </g>
    <g id="xtick_2">
     <g id="line2d_3">
      <path clip-path="url(#p62d2d907f1)" d="M 100.485472 307.584 
L 100.485472 41.472 
" style="fill:none;stroke:#b0b0b0;stroke-linecap:square;stroke-width:0.8;"/>
     </g>
     <g id="line2d_4">
      <g>
       <use style="stroke:#000000;stroke-width:0.8;" x="100.485472" xlink:href="#m6b6203020f" y="307.584"/>
      </g>
     </g>
     <g id="text_2">
      <!-- 25 03:48 -->
      <defs>
       <path d="M 31.78125 34.625 
Q 24.75 34.625 20.71875 30.859375 
Q 16.703125 27.09375 16.703125 20.515625 
Q 16.703125 13.921875 20.71875 10.15625 
Q 24.75 6.390625 31.78125 6.390625 
Q 38.8125 6.390625 42.859375 10.171875 
Q 46.921875 13.96875 46.921875 20.515625 
Q 46.921875 27.09375 42.890625 30.859375 
Q 38.875 34.625 31.78125 34.625 
M 21.921875 38.8125 
Q 15.578125 40.375 12.03125 44.71875 
Q 8.5 49.078125 8.5 55.328125 
Q 8.5 64.0625 14.71875 69.140625 
Q 20.953125 74.21875 31.78125 74.21875 
Q 42.671875 74.21875 48.875 69.140625 
Q 55.078125 64.0625 55.078125 55.328125 
Q 55.078125 49.078125 51.53125 44.71875 
Q 48 40.375 41.703125 38.8125 
Q 48.828125 37.15625 52.796875 32.3125 
Q 56.78125 27.484375 56.78125 20.515625 
Q 56.78125 9.90625 50.3125 4.234375 
Q 43.84375 -1.421875 31.78125 -1.421875 
Q 19.734375 -1.421875 13.25 4.234375 
Q 6.78125 9.90625 6.78125 20.515625 
Q 6.78125 27.484375 10.78125 32.3125 
Q 14.796875 37.15625 21.921875 38.8125 
M 18.3125 54.390625 
Q 18.3125 48.734375 21.84375 45.5625 
Q 25.390625 42.390625 31.78125 42.390625 
Q 38.140625 42.390625 41.71875 45.5625 
Q 45.3125 48.734375 45.3125 54.390625 
Q 45.3125 60.0625 41.71875 63.234375 
Q 38.140625 66.40625 31.78125 66.40625 
Q 25.390625 66.40625 21.84375 63.234375 
Q 18.3125 60.0625 18.3125 54.390625 
" id="DejaVuSans-38"/>
      </defs>
      <g transform="translate(78.124534 322.182437)scale(0.1 -0.1)">
       <use xlink:href="#DejaVuSans-32"/>
       <use x="63.623047" xlink:href="#DejaVuSans-35"/>
       <use x="127.246094" xlink:href="#DejaVuSans-20"/>
       <use x="159.033203" xlink:href="#DejaVuSans-30"/>
       <use x="222.65625" xlink:href="#DejaVuSans-33"/>
       <use x="286.279297" xlink:href="#DejaVuSans-3a"/>
       <use x="319.970703" xlink:href="#DejaVuSans-34"/>
       <use x="383.59375" xlink:href="#DejaVuSans-38"/>
      </g>
     </g>
    </g>
    <g id="xtick_3">
     <g id="line2d_5">
      <path clip-path="url(#p62d2d907f1)" d="M 140.66549 307.584 
L 140.66549 41.472 
" style="fill:none;stroke:#b0b0b0;stroke-linecap:square;stroke-width:0.8;"/>
     </g>
     <g id="line2d_6">
      <g>
       <use style="stroke:#000000;stroke-width:0.8;" x="140.66549" xlink:href="#m6b6203020f" y="307.584"/>
      </g>
     </g>
     <g id="text_3">
      <!-- 25 03:53 -->
      <g transform="translate(118.304553 322.182437)scale(0.1 -0.1)">
       <use xlink:href="#DejaVuSans-32"/>
       <use x="63.623047" xlink:href="#DejaVuSans-35"/>
       <use x="127.246094" xlink:href="#DejaVuSans-20"/>
       <use x="159.033203" xlink:href="#DejaVuSans-30"/>
       <use x="222.65625" xlink:href="#DejaVuSans-33"/>
       <use x="286.279297" xlink:href="#DejaVuSans-3a"/>
       <use x="319.970703" xlink:href="#DejaVuSans-35"/>
       <use x="383.59375" xlink:href="#DejaVuSans-33"/>
      </g>
     </g>
    </g>
    <g id="xtick_4">
     <g id="line2d_7">
      <path clip-path="url(#p62d2d907f1)" d="M 180.845509 307.584 
L 180.845509 41.472 
" style="fill:none;stroke:#b0b0b0;stroke-linecap:square;stroke-width:0.8;"/>
     </g>
     <g id="line2d_8">
      <g>
       <use style="stroke:#000000;stroke-width:0.8;" x="180.845509" xlink:href="#m6b6203020f" y="307.584"/>
      </g>
     </g>
     <g id="text_4">
      <!-- 25 03:58 -->
      <g transform="translate(158.484571 322.182437)scale(0.1 -0.1)">
       <use xlink:href="#DejaVuSans-32"/>
       <use x="63.623047" xlink:href="#DejaVuSans-35"/>
       <use x="127.246094" xlink:href="#DejaVuSans-20"/>
       <use x="159.033203" xlink:href="#DejaVuSans-30"/>
       <use x="222.65625" xlink:href="#DejaVuSans-33"/>
       <use x="286.279297" xlink:href="#DejaVuSans-3a"/>
       <use x="319.970703" xlink:href="#DejaVuSans-35"/>
       <use x="383.59375" xlink:href="#DejaVuSans-38"/>
      </g>
     </g>
    </g>
    <g id="xtick_5">
     <g id="line2d_9">
      <path clip-path="url(#p62d2d907f1)" d="M 221.025526 307.584 
L 221.025526 41.472 
" style="fill:none;stroke:#b0b0b0;stroke-linecap:square;stroke-width:0.8;"/>
     </g>
     <g id="line2d_10">
      <g>
       <use style="stroke:#000000;stroke-width:0.8;" x="221.025526" xlink:href="#m6b6203020f" y="307.584"/>
      </g>
     </g>
     <g id="text_5">
      <!-- 25 04:03 -->
      <g transform="translate(198.664589 322.182437)scale(0.1 -0.1)">
       <use xlink:href="#DejaVuSans-32"/>
       <use x="63.623047" xlink:href="#DejaVuSans-35"/>
       <use x="127.246094" xlink:href="#DejaVuSans-20"/>
       <use x="159.033203" xlink:href="#DejaVuSans-30"/>
       <use x="222.65625" xlink:href="#DejaVuSans-34"/>
       <use x="286.279297" xlink:href="#DejaVuSans-3a"/>
       <use x="319.970703" xlink:href="#DejaVuSans-30"/>
       <use x="383.59375" xlink:href="#DejaVuSans-33"/>
      </g>
     </g>
    </g>
    <g id="xtick_6">
     <g id="line2d_11">
      <path clip-path="url(#p62d2d907f1)" d="M 261.205544 307.584 
L 261.205544 41.472 
" style="fill:none;stroke:#b0b0b0;stroke-linecap:square;stroke-width:0.8;"/>
     </g>
     <g id="line2d_12">
      <g>
       <use style="stroke:#000000;stroke-width:0.8;" x="261.205544" xlink:href="#m6b6203020f" y="307.584"/>
      </g>
     </g>
     <g id="text_6">
      <!-- 25 04:08 -->
      <g transform="translate(238.844607 322.182437)scale(0.1 -0.1)">
       <use xlink:href="#DejaVuSans-32"/>
       <use x="63.623047" xlink:href="#DejaVuSans-35"/>
       <use x="127.246094" xlink:href="#DejaVuSans-20"/>
       <use x="159.033203" xlink:href="#DejaVuSans-30"/>
       <use x="222.65625" xlink:href="#DejaVuSans-34"/>
       <use x="286.279297" xlink:href="#DejaVuSans-3a"/>
       <use x="319.970703" xlink:href="#DejaVuSans-30"/>
       <use x="383.59375" xlink:href="#DejaVuSans-38"/>
      </g>
     </g>
    </g>
    <g id="xtick_7">
     <g id="line2d_13">
      <path clip-path="url(#p62d2d907f1)" d="M 301.385563 307.584 
L 301.385563 41.472 
" style="fill:none;stroke:#b0b0b0;stroke-linecap:square;stroke-width:0.8;"/>
     </g>
     <g id="line2d_14">
      <g>
       <use style="stroke:#000000;stroke-width:0.8;" x="301.385563" xlink:href="#m6b6203020f" y="307.584"/>
      </g>
     </g>
     <g id="text_7">
      <!-- 25 04:13 -->
      <defs>
       <path d="M 12.40625 8.296875 
L 28.515625 8.296875 
L 28.515625 63.921875 
L 10.984375 60.40625 
L 10.984375 69.390625 
L 28.421875 72.90625 
L 38.28125 72.90625 
L 38.28125 8.296875 
L 54.390625 8.296875 
L 54.390625 0 
L 12.40625 0 
z
" id="DejaVuSans-31"/>
      </defs>
      <g transform="translate(279.024625 322.182437)scale(0.1 -0.1)">
       <use xlink:href="#DejaVuSans-32"/>
       <use x="63.623047" xlink:href="#DejaVuSans-35"/>
       <use x="127.246094" xlink:href="#DejaVuSans-20"/>
       <use x="159.033203" xlink:href="#DejaVuSans-30"/>
       <use x="222.65625" xlink:href="#DejaVuSans-34"/>
       <use x="286.279297" xlink:href="#DejaVuSans-3a"/>
       <use x="319.970703" xlink:href="#DejaVuSans-31"/>
       <use x="383.59375" xlink:href="#DejaVuSans-33"/>
      </g>
     </g>
    </g>
    <g id="xtick_8">
     <g id="line2d_15">
      <path clip-path="url(#p62d2d907f1)" d="M 341.565581 307.584 
L 341.565581 41.472 
" style="fill:none;stroke:#b0b0b0;stroke-linecap:square;stroke-width:0.8;"/>
     </g>
     <g id="line2d_16">
      <g>
       <use style="stroke:#000000;stroke-width:0.8;" x="341.565581" xlink:href="#m6b6203020f" y="307.584"/>
      </g>
     </g>
     <g id="text_8">
      <!-- 25 04:18 -->
      <g transform="translate(319.204644 322.182437)scale(0.1 -0.1)">
       <use xlink:href="#DejaVuSans-32"/>
       <use x="63.623047" xlink:href="#DejaVuSans-35"/>
       <use x="127.246094" xlink:href="#DejaVuSans-20"/>
       <use x="159.033203" xlink:href="#DejaVuSans-30"/>
       <use x="222.65625" xlink:href="#DejaVuSans-34"/>
       <use x="286.279297" xlink:href="#DejaVuSans-3a"/>
       <use x="319.970703" xlink:href="#DejaVuSans-31"/>
       <use x="383.59375" xlink:href="#DejaVuSans-38"/>
      </g>
     </g>
    </g>
    <g id="xtick_9">
     <g id="line2d_17">
      <path clip-path="url(#p62d2d907f1)" d="M 381.7456 307.584 
L 381.7456 41.472 
" style="fill:none;stroke:#b0b0b0;stroke-linecap:square;stroke-width:0.8;"/>
     </g>
     <g id="line2d_18">
      <g>
       <use style="stroke:#000000;stroke-width:0.8;" x="381.7456" xlink:href="#m6b6203020f" y="307.584"/>
      </g>
     </g>
     <g id="text_9">
      <!-- 25 04:23 -->
      <g transform="translate(359.384662 322.182437)scale(0.1 -0.1)">
       <use xlink:href="#DejaVuSans-32"/>
       <use x="63.623047" xlink:href="#DejaVuSans-35"/>
       <use x="127.246094" xlink:href="#DejaVuSans-20"/>
       <use x="159.033203" xlink:href="#DejaVuSans-30"/>
       <use x="222.65625" xlink:href="#DejaVuSans-34"/>
       <use x="286.279297" xlink:href="#DejaVuSans-3a"/>
       <use x="319.970703" xlink:href="#DejaVuSans-32"/>
       <use x="383.59375" xlink:href="#DejaVuSans-33"/>
      </g>
     </g>
    </g>
    <g id="text_10">
     <!-- Time -->
     <defs>
      <path d="M -0.296875 72.90625 
L 61.375 72.90625 
L 61.375 64.59375 
L 35.5 64.59375 
L 35.5 0 
L 25.59375 0 
L 25.59375 64.59375 
L -0.296875 64.59375 
z
" id="DejaVuSans-54"/>
      <path d="M 9.421875 54.6875 
L 18.40625 54.6875 
L 18.40625 0 
L 9.421875 0 
z
M 9.421875 75.984375 
L 18.40625 75.984375 
L 18.40625 64.59375 
L 9.421875 64.59375 
z
" id="DejaVuSans-69"/>
      <path d="M 52 44.1875 
Q 55.375 50.25 60.0625 53.125 
Q 64.75 56 71.09375 56 
Q 79.640625 56 84.28125 50.015625 
Q 88.921875 44.046875 88.921875 33.015625 
L 88.921875 0 
L 79.890625 0 
L 79.890625 32.71875 
Q 79.890625 40.578125 77.09375 44.375 
Q 74.3125 48.1875 68.609375 48.1875 
Q 61.625 48.1875 57.5625 43.546875 
Q 53.515625 38.921875 53.515625 30.90625 
L 53.515625 0 
L 44.484375 0 
L 44.484375 32.71875 
Q 44.484375 40.625 41.703125 44.40625 
Q 38.921875 48.1875 33.109375 48.1875 
Q 26.21875 48.1875 22.15625 43.53125 
Q 18.109375 38.875 18.109375 30.90625 
L 18.109375 0 
L 9.078125 0 
L 9.078125 54.6875 
L 18.109375 54.6875 
L 18.109375 46.1875 
Q 21.1875 51.21875 25.484375 53.609375 
Q 29.78125 56 35.6875 56 
Q 41.65625 56 45.828125 52.96875 
Q 50 49.953125 52 44.1875 
" id="DejaVuSans-6d"/>
      <path d="M 56.203125 29.59375 
L 56.203125 25.203125 
L 14.890625 25.203125 
Q 15.484375 15.921875 20.484375 11.0625 
Q 25.484375 6.203125 34.421875 6.203125 
Q 39.59375 6.203125 44.453125 7.46875 
Q 49.3125 8.734375 54.109375 11.28125 
L 54.109375 2.78125 
Q 49.265625 0.734375 44.1875 -0.34375 
Q 39.109375 -1.421875 33.890625 -1.421875 
Q 20.796875 -1.421875 13.15625 6.1875 
Q 5.515625 13.8125 5.515625 26.8125 
Q 5.515625 40.234375 12.765625 48.109375 
Q 20.015625 56 32.328125 56 
Q 43.359375 56 49.78125 48.890625 
Q 56.203125 41.796875 56.203125 29.59375 
M 47.21875 32.234375 
Q 47.125 39.59375 43.09375 43.984375 
Q 39.0625 48.390625 32.421875 48.390625 
Q 24.90625 48.390625 20.390625 44.140625 
Q 15.875 39.890625 15.1875 32.171875 
z
" id="DejaVuSans-65"/>
     </defs>
     <g transform="translate(223.7725 335.860562)scale(0.1 -0.1)">
      <use xlink:href="#DejaVuSans-54"/>
      <use x="61.037109" xlink:href="#DejaVuSans-69"/>
      <use x="88.820312" xlink:href="#DejaVuSans-6d"/>
      <use x="186.232422" xlink:href="#DejaVuSans-65"/>
     </g>
    </g>
   </g>
   <g id="matplotlib.axis_2">
    <g id="ytick_1">
     <g id="line2d_19">
      <path clip-path="url(#p62d2d907f1)" d="M 57.6 299.389935 
L 414.72 299.389935 
" style="fill:none;stroke:#b0b0b0;stroke-linecap:square;stroke-width:0.8;"/>
     </g>
     <g id="line2d_20">
      <defs>
       <path d="M 0 0 
L -3.5 0 
" id="m513883e06d" style="stroke:#000000;stroke-width:0.8;"/>
      </defs>
      <g>
       <use style="stroke:#000000;stroke-width:0.8;" x="57.6" xlink:href="#m513883e06d" y="299.389935"/>
      </g>
     </g>
     <g id="text_11">
      <!-- 90 -->
      <defs>
       <path d="M 10.984375 1.515625 
L 10.984375 10.5 
Q 14.703125 8.734375 18.5 7.8125 
Q 22.3125 6.890625 25.984375 6.890625 
Q 35.75 6.890625 40.890625 13.453125 
Q 46.046875 20.015625 46.78125 33.40625 
Q 43.953125 29.203125 39.59375 26.953125 
Q 35.25 24.703125 29.984375 24.703125 
Q 19.046875 24.703125 12.671875 31.3125 
Q 6.296875 37.9375 6.296875 49.421875 
Q 6.296875 60.640625 12.9375 67.421875 
Q 19.578125 74.21875 30.609375 74.21875 
Q 43.265625 74.21875 49.921875 64.515625 
Q 56.59375 54.828125 56.59375 36.375 
Q 56.59375 19.140625 48.40625 8.859375 
Q 40.234375 -1.421875 26.421875 -1.421875 
Q 22.703125 -1.421875 18.890625 -0.6875 
Q 15.09375 0.046875 10.984375 1.515625 
M 30.609375 32.421875 
Q 37.25 32.421875 41.125 36.953125 
Q 45.015625 41.5 45.015625 49.421875 
Q 45.015625 57.28125 41.125 61.84375 
Q 37.25 66.40625 30.609375 66.40625 
Q 23.96875 66.40625 20.09375 61.84375 
Q 16.21875 57.28125 16.21875 49.421875 
Q 16.21875 41.5 20.09375 36.953125 
Q 23.96875 32.421875 30.609375 32.421875 
" id="DejaVuSans-39"/>
      </defs>
      <g transform="translate(37.875 303.189154)scale(0.1 -0.1)">
       <use xlink:href="#DejaVuSans-39"/>
       <use x="63.623047" xlink:href="#DejaVuSans-30"/>
      </g>
     </g>
    </g>
    <g id="ytick_2">
     <g id="line2d_21">
      <path clip-path="url(#p62d2d907f1)" d="M 57.6 260.370581 
L 414.72 260.370581 
" style="fill:none;stroke:#b0b0b0;stroke-linecap:square;stroke-width:0.8;"/>
     </g>
     <g id="line2d_22">
      <g>
       <use style="stroke:#000000;stroke-width:0.8;" x="57.6" xlink:href="#m513883e06d" y="260.370581"/>
      </g>
     </g>
     <g id="text_12">
      <!-- 100 -->
      <g transform="translate(31.5125 264.169799)scale(0.1 -0.1)">
       <use xlink:href="#DejaVuSans-31"/>
       <use x="63.623047" xlink:href="#DejaVuSans-30"/>
       <use x="127.246094" xlink:href="#DejaVuSans-30"/>
      </g>
     </g>
    </g>
    <g id="ytick_3">
     <g id="line2d_23">
      <path clip-path="url(#p62d2d907f1)" d="M 57.6 221.351226 
L 414.72 221.351226 
" style="fill:none;stroke:#b0b0b0;stroke-linecap:square;stroke-width:0.8;"/>
     </g>
     <g id="line2d_24">
      <g>
       <use style="stroke:#000000;stroke-width:0.8;" x="57.6" xlink:href="#m513883e06d" y="221.351226"/>
      </g>
     </g>
     <g id="text_13">
      <!-- 110 -->
      <g transform="translate(31.5125 225.150445)scale(0.1 -0.1)">
       <use xlink:href="#DejaVuSans-31"/>
       <use x="63.623047" xlink:href="#DejaVuSans-31"/>
       <use x="127.246094" xlink:href="#DejaVuSans-30"/>
      </g>
     </g>
    </g>
    <g id="ytick_4">
     <g id="line2d_25">
      <path clip-path="url(#p62d2d907f1)" d="M 57.6 182.331871 
L 414.72 182.331871 
" style="fill:none;stroke:#b0b0b0;stroke-linecap:square;stroke-width:0.8;"/>
     </g>
     <g id="line2d_26">
      <g>
       <use style="stroke:#000000;stroke-width:0.8;" x="57.6" xlink:href="#m513883e06d" y="182.331871"/>
      </g>
     </g>
     <g id="text_14">
      <!-- 120 -->
      <g transform="translate(31.5125 186.13109)scale(0.1 -0.1)">
       <use xlink:href="#DejaVuSans-31"/>
       <use x="63.623047" xlink:href="#DejaVuSans-32"/>
       <use x="127.246094" xlink:href="#DejaVuSans-30"/>
      </g>
     </g>
    </g>
    <g id="ytick_5">
     <g id="line2d_27">
      <path clip-path="url(#p62d2d907f1)" d="M 57.6 143.312516 
L 414.72 143.312516 
" style="fill:none;stroke:#b0b0b0;stroke-linecap:square;stroke-width:0.8;"/>
     </g>
     <g id="line2d_28">
      <g>
       <use style="stroke:#000000;stroke-width:0.8;" x="57.6" xlink:href="#m513883e06d" y="143.312516"/>
      </g>
     </g>
     <g id="text_15">
      <!-- 130 -->
      <g transform="translate(31.5125 147.111735)scale(0.1 -0.1)">
       <use xlink:href="#DejaVuSans-31"/>
       <use x="63.623047" xlink:href="#DejaVuSans-33"/>
       <use x="127.246094" xlink:href="#DejaVuSans-30"/>
      </g>
     </g>
    </g>
    <g id="ytick_6">
     <g id="line2d_29">
      <path clip-path="url(#p62d2d907f1)" d="M 57.6 104.293161 
L 414.72 104.293161 
" style="fill:none;stroke:#b0b0b0;stroke-linecap:square;stroke-width:0.8;"/>
     </g>
     <g id="line2d_30">
      <g>
       <use style="stroke:#000000;stroke-width:0.8;" x="57.6" xlink:href="#m513883e06d" y="104.293161"/>
      </g>
     </g>
     <g id="text_16">
      <!-- 140 -->
      <g transform="translate(31.5125 108.09238)scale(0.1 -0.1)">
       <use xlink:href="#DejaVuSans-31"/>
       <use x="63.623047" xlink:href="#DejaVuSans-34"/>
       <use x="127.246094" xlink:href="#DejaVuSans-30"/>
      </g>
     </g>
    </g>
    <g id="ytick_7">
     <g id="line2d_31">
      <path clip-path="url(#p62d2d907f1)" d="M 57.6 65.273806 
L 414.72 65.273806 
" style="fill:none;stroke:#b0b0b0;stroke-linecap:square;stroke-width:0.8;"/>
     </g>
     <g id="line2d_32">
      <g>
       <use style="stroke:#000000;stroke-width:0.8;" x="57.6" xlink:href="#m513883e06d" y="65.273806"/>
      </g>
     </g>
     <g id="text_17">
      <!-- 150 -->
      <g transform="translate(31.5125 69.073025)scale(0.1 -0.1)">
       <use xlink:href="#DejaVuSans-31"/>
       <use x="63.623047" xlink:href="#DejaVuSans-35"/>
       <use x="127.246094" xlink:href="#DejaVuSans-30"/>
      </g>
     </g>
    </g>
    <g id="text_18">
     <!-- Heart rate -->
     <defs>
      <path d="M 9.8125 72.90625 
L 19.671875 72.90625 
L 19.671875 43.015625 
L 55.515625 43.015625 
L 55.515625 72.90625 
L 65.375 72.90625 
L 65.375 0 
L 55.515625 0 
L 55.515625 34.71875 
L 19.671875 34.71875 
L 19.671875 0 
L 9.8125 0 
z
" id="DejaVuSans-48"/>
      <path d="M 34.28125 27.484375 
Q 23.390625 27.484375 19.1875 25 
Q 14.984375 22.515625 14.984375 16.5 
Q 14.984375 11.71875 18.140625 8.90625 
Q 21.296875 6.109375 26.703125 6.109375 
Q 34.1875 6.109375 38.703125 11.40625 
Q 43.21875 16.703125 43.21875 25.484375 
L 43.21875 27.484375 
z
M 52.203125 31.203125 
L 52.203125 0 
L 43.21875 0 
L 43.21875 8.296875 
Q 40.140625 3.328125 35.546875 0.953125 
Q 30.953125 -1.421875 24.3125 -1.421875 
Q 15.921875 -1.421875 10.953125 3.296875 
Q 6 8.015625 6 15.921875 
Q 6 25.140625 12.171875 29.828125 
Q 18.359375 34.515625 30.609375 34.515625 
L 43.21875 34.515625 
L 43.21875 35.40625 
Q 43.21875 41.609375 39.140625 45 
Q 35.0625 48.390625 27.6875 48.390625 
Q 23 48.390625 18.546875 47.265625 
Q 14.109375 46.140625 10.015625 43.890625 
L 10.015625 52.203125 
Q 14.9375 54.109375 19.578125 55.046875 
Q 24.21875 56 28.609375 56 
Q 40.484375 56 46.34375 49.84375 
Q 52.203125 43.703125 52.203125 31.203125 
" id="DejaVuSans-61"/>
      <path d="M 41.109375 46.296875 
Q 39.59375 47.171875 37.8125 47.578125 
Q 36.03125 48 33.890625 48 
Q 26.265625 48 22.1875 43.046875 
Q 18.109375 38.09375 18.109375 28.8125 
L 18.109375 0 
L 9.078125 0 
L 9.078125 54.6875 
L 18.109375 54.6875 
L 18.109375 46.1875 
Q 20.953125 51.171875 25.484375 53.578125 
Q 30.03125 56 36.53125 56 
Q 37.453125 56 38.578125 55.875 
Q 39.703125 55.765625 41.0625 55.515625 
z
" id="DejaVuSans-72"/>
      <path d="M 18.3125 70.21875 
L 18.3125 54.6875 
L 36.8125 54.6875 
L 36.8125 47.703125 
L 18.3125 47.703125 
L 18.3125 18.015625 
Q 18.3125 11.328125 20.140625 9.421875 
Q 21.96875 7.515625 27.59375 7.515625 
L 36.8125 7.515625 
L 36.8125 0 
L 27.59375 0 
Q 17.1875 0 13.234375 3.875 
Q 9.28125 7.765625 9.28125 18.015625 
L 9.28125 47.703125 
L 2.6875 47.703125 
L 2.6875 54.6875 
L 9.28125 54.6875 
L 9.28125 70.21875 
z
" id="DejaVuSans-74"/>
     </defs>
     <g transform="translate(25.432812 200.189719)rotate(-90)scale(0.1 -0.1)">
      <use xlink:href="#DejaVuSans-48"/>
      <use x="75.195312" xlink:href="#DejaVuSans-65"/>
      <use x="136.71875" xlink:href="#DejaVuSans-61"/>
      <use x="197.998047" xlink:href="#DejaVuSans-72"/>
      <use x="239.111328" xlink:href="#DejaVuSans-74"/>
      <use x="278.320312" xlink:href="#DejaVuSans-20"/>
      <use x="310.107422" xlink:href="#DejaVuSans-72"/>
      <use x="351.220703" xlink:href="#DejaVuSans-61"/>
      <use x="412.5" xlink:href="#DejaVuSans-74"/>
      <use x="451.708984" xlink:href="#DejaVuSans-65"/>
     </g>
    </g>
   </g>
   <g id="line2d_33">
    <path clip-path="url(#p62d2d907f1)" d="M 73.96666 287.684129 
L 74.904194 260.370581 
L 75.707794 233.057032 
L 76.645329 225.253161 
L 77.448928 217.44929 
L 77.582862 213.547355 
L 78.788263 201.841548 
L 79.457929 190.135742 
L 79.993664 178.429935 
L 80.797264 166.724129 
L 81.734797 158.920258 
L 82.806265 158.920258 
L 83.475932 147.214452 
L 84.279531 135.508645 
L 85.350999 139.410581 
L 86.154598 151.116387 
L 87.226067 143.312516 
L 90.708335 143.312516 
L 91.913735 151.116387 
L 92.985203 151.116387 
L 94.190603 147.214452 
L 95.26207 155.018323 
L 96.333536 158.920258 
L 97.538938 158.920258 
L 98.744338 147.214452 
L 99.815804 135.508645 
L 101.021206 131.60671 
L 103.432007 139.410581 
L 104.503473 139.410581 
L 105.441008 135.508645 
L 106.512474 131.60671 
L 107.182142 119.900903 
L 108.387543 115.998968 
L 109.325077 123.802839 
L 111.46801 131.60671 
L 112.539478 131.60671 
L 114.950278 139.410581 
L 116.289613 131.60671 
L 117.628946 131.60671 
L 118.834348 139.410581 
L 120.17368 143.312516 
L 121.513016 155.018323 
L 122.718416 155.018323 
L 124.05775 158.920258 
L 126.468551 143.312516 
L 126.736418 147.214452 
L 127.941818 147.214452 
L 129.147218 151.116387 
L 130.352618 143.312516 
L 131.55802 139.410581 
L 132.897354 143.312516 
L 134.102754 143.312516 
L 135.308154 139.410581 
L 137.718956 139.410581 
L 138.924356 135.508645 
L 141.06729 135.508645 
L 143.478091 143.312516 
L 144.683492 143.312516 
L 145.888893 139.410581 
L 146.96036 135.508645 
L 148.031828 123.802839 
L 148.835428 112.097032 
L 149.906895 100.391226 
L 150.040829 100.391226 
L 151.380162 96.48929 
L 152.585563 108.195097 
L 153.25523 119.900903 
L 154.594563 119.900903 
L 155.66603 115.998968 
L 156.201763 104.293161 
L 156.871431 92.587355 
L 157.808965 84.783484 
L 158.612565 80.881548 
L 159.550099 84.783484 
L 162.228767 84.783484 
L 163.1663 80.881548 
L 164.103834 80.881548 
L 165.041368 84.783484 
L 166.916436 84.783484 
L 167.987903 92.587355 
L 169.05937 96.48929 
L 170.264771 104.293161 
L 171.336237 100.391226 
L 172.407705 112.097032 
L 173.613106 123.802839 
L 175.220306 131.60671 
L 176.559639 135.508645 
L 177.76504 135.508645 
L 178.970441 139.410581 
L 180.309774 143.312516 
L 181.515175 147.214452 
L 182.988442 147.214452 
L 184.595644 155.018323 
L 186.738578 155.018323 
L 187.943978 151.116387 
L 189.149379 151.116387 
L 190.354779 155.018323 
L 191.694113 155.018323 
L 193.033448 162.822194 
L 193.837048 151.116387 
L 194.908515 127.704774 
L 195.712114 115.998968 
L 197.587183 92.587355 
L 198.524716 88.685419 
L 199.462251 92.587355 
L 200.533717 100.391226 
L 201.471251 104.293161 
L 202.408784 104.293161 
L 203.346318 100.391226 
L 204.417787 96.48929 
L 205.489253 96.48929 
L 206.426787 100.391226 
L 207.36432 96.48929 
L 208.435788 100.391226 
L 209.507255 100.391226 
L 210.578721 112.097032 
L 211.784122 112.097032 
L 215.802124 135.508645 
L 217.141459 139.410581 
L 219.686193 139.410581 
L 220.75766 151.116387 
L 221.96306 151.116387 
L 223.168461 147.214452 
L 224.507794 143.312516 
L 225.847129 151.116387 
L 227.186462 155.018323 
L 228.391863 158.920258 
L 229.597264 151.116387 
L 230.936598 147.214452 
L 231.874131 139.410581 
L 232.409864 127.704774 
L 232.811666 115.998968 
L 233.347399 104.293161 
L 233.481333 104.293161 
L 235.892133 92.587355 
L 236.695733 84.783484 
L 237.3654 73.077677 
L 238.302935 61.371871 
L 239.240469 61.371871 
L 240.044068 65.273806 
L 240.981603 69.175742 
L 241.919137 76.979613 
L 242.856669 80.881548 
L 245.669271 69.175742 
L 246.606804 69.175742 
L 247.678272 73.077677 
L 248.214005 84.783484 
L 250.624807 108.195097 
L 251.964141 115.998968 
L 253.303474 127.704774 
L 254.642809 135.508645 
L 255.848209 139.410581 
L 257.187543 147.214452 
L 259.866211 155.018323 
L 261.205544 155.018323 
L 262.410945 158.920258 
L 263.616346 158.920258 
L 264.821747 162.822194 
L 265.893213 155.018323 
L 267.098615 158.920258 
L 268.571881 162.822194 
L 269.777283 155.018323 
L 271.384482 119.900903 
L 272.188083 112.097032 
L 272.85775 100.391226 
L 273.795284 92.587355 
L 274.598884 80.881548 
L 275.268552 76.979613 
L 276.072151 69.175742 
L 276.875751 65.273806 
L 277.679353 69.175742 
L 278.616885 76.979613 
L 279.688354 80.881548 
L 282.902755 80.881548 
L 283.840288 76.979613 
L 284.777822 76.979613 
L 285.849289 84.783484 
L 286.786822 96.48929 
L 287.590423 108.195097 
L 289.06369 112.097032 
L 290.403025 115.998968 
L 291.742358 115.998968 
L 293.081693 123.802839 
L 294.287092 127.704774 
L 296.296093 139.410581 
L 297.903295 131.60671 
L 299.510495 135.508645 
L 300.84983 139.410581 
L 302.05523 139.410581 
L 303.126698 143.312516 
L 306.742899 143.312516 
L 307.680432 135.508645 
L 309.019767 96.48929 
L 309.287634 84.783484 
L 310.626966 57.469935 
L 310.894834 53.568 
L 312.903834 53.568 
L 313.975303 61.371871 
L 315.046769 65.273806 
L 315.984303 65.273806 
L 316.921837 69.175742 
L 317.725437 69.175742 
L 318.662971 73.077677 
L 320.939838 73.077677 
L 322.011306 76.979613 
L 322.948839 84.783484 
L 324.288173 92.587355 
L 325.225707 104.293161 
L 326.431108 108.195097 
L 328.306174 123.802839 
L 329.377643 131.60671 
L 330.449109 135.508645 
L 331.386643 127.704774 
L 332.592044 131.60671 
L 333.797443 139.410581 
L 337.54758 139.410581 
L 338.886913 151.116387 
L 340.092314 155.018323 
L 341.297715 147.214452 
L 343.708515 147.214452 
L 346.119316 139.410581 
L 347.324718 143.312516 
L 348.396184 139.410581 
L 349.467652 131.60671 
L 350.137318 131.60671 
L 352.280252 139.410581 
L 353.485654 143.312516 
L 357.101854 143.312516 
L 358.307255 151.116387 
L 359.512656 151.116387 
L 360.718057 139.410581 
L 361.789523 135.508645 
L 362.994924 131.60671 
L 364.066391 127.704774 
L 365.271791 123.802839 
L 366.343258 115.998968 
L 368.887994 115.998968 
L 369.825528 108.195097 
L 370.896995 100.391226 
L 372.102395 100.391226 
L 374.245329 108.195097 
L 375.450729 112.097032 
L 377.593664 127.704774 
L 380.138398 127.704774 
L 381.477732 135.508645 
L 382.817066 135.508645 
L 384.022468 131.60671 
L 386.835068 131.60671 
L 388.040469 135.508645 
L 389.24587 135.508645 
L 390.45127 139.410581 
L 391.65667 135.508645 
L 392.86207 135.508645 
L 394.067472 143.312516 
L 395.272872 143.312516 
L 396.478272 139.410581 
L 397.95154 151.116387 
L 398.487273 162.822194 
L 398.487273 162.822194 
" style="fill:none;stroke:#1f77b4;stroke-linecap:square;stroke-width:1.5;"/>
   </g>
   <g id="line2d_34">
    <path clip-path="url(#p62d2d907f1)" d="M 73.832727 287.684129 
L 74.100594 295.488 
L 74.368461 295.488 
L 75.038128 252.56671 
L 75.707794 244.762839 
L 75.97566 229.155097 
L 76.243527 229.155097 
L 76.779263 217.44929 
L 77.181062 221.351226 
L 78.118595 221.351226 
L 78.386462 217.44929 
L 78.654329 217.44929 
L 79.056129 201.841548 
L 79.323997 201.841548 
L 80.127596 194.037677 
L 80.66333 174.528 
L 81.332997 166.724129 
L 81.600863 158.920258 
L 82.136597 158.920258 
L 82.538398 155.018323 
L 82.940197 158.920258 
L 83.208065 158.920258 
L 84.145597 147.214452 
L 85.217066 115.998968 
L 85.618865 123.802839 
L 85.886732 123.802839 
L 86.556399 115.998968 
L 87.36 100.391226 
L 88.029667 92.587355 
L 88.297533 80.881548 
L 89.636867 80.881548 
L 90.306534 65.273806 
L 90.976202 76.979613 
L 91.913735 108.195097 
L 93.65487 135.508645 
L 94.458469 143.312516 
L 95.396004 131.60671 
L 96.333536 162.822194 
L 97.27107 158.920258 
L 97.672872 131.60671 
L 98.074671 131.60671 
L 98.744338 135.508645 
L 99.547938 127.704774 
L 100.217606 119.900903 
L 100.485472 88.685419 
L 100.887273 88.685419 
L 101.15514 80.881548 
L 101.690873 80.881548 
L 102.36054 76.979613 
L 103.298073 80.881548 
L 103.96774 84.783484 
L 104.637407 92.587355 
L 105.708875 108.195097 
L 106.780341 73.077677 
L 107.583942 73.077677 
L 108.119676 80.881548 
L 108.65541 69.175742 
L 108.923276 76.979613 
L 109.191143 76.979613 
L 109.459009 65.273806 
L 109.994742 65.273806 
L 110.262609 80.881548 
L 110.798345 80.881548 
L 111.066211 108.195097 
L 111.334078 108.195097 
L 112.271611 127.704774 
L 113.209145 139.410581 
L 114.146678 139.410581 
L 115.084212 135.508645 
L 115.887813 139.410581 
L 116.825347 131.60671 
L 117.76288 127.704774 
L 118.432547 131.60671 
L 119.637947 143.312516 
L 120.575481 143.312516 
L 120.977283 151.116387 
L 121.914815 151.116387 
L 122.182681 155.018323 
L 122.450549 155.018323 
L 122.852349 158.920258 
L 123.120215 158.920258 
L 123.522017 151.116387 
L 123.789883 151.116387 
L 124.191684 162.822194 
L 124.45955 162.822194 
L 125.26315 158.920258 
L 125.798883 139.410581 
L 126.066751 151.116387 
L 126.468551 151.116387 
L 127.272151 131.60671 
L 127.941818 147.214452 
L 128.343617 151.116387 
L 129.415086 151.116387 
L 130.352618 147.214452 
L 131.15622 147.214452 
L 131.55802 139.410581 
L 131.825886 139.410581 
L 132.227687 143.312516 
L 132.897354 151.116387 
L 133.834887 139.410581 
L 134.638488 139.410581 
L 135.174222 143.312516 
L 135.442088 139.410581 
L 135.709955 139.410581 
L 136.111755 143.312516 
L 136.379622 143.312516 
L 136.647489 139.410581 
L 137.718956 139.410581 
L 138.656489 135.508645 
L 138.924356 139.410581 
L 139.326156 139.410581 
L 140.26369 135.508645 
L 140.66549 139.410581 
L 141.603024 131.60671 
L 141.870892 139.410581 
L 142.138758 139.410581 
L 142.942358 143.312516 
L 143.879892 143.312516 
L 144.549559 139.410581 
L 145.219226 143.312516 
L 146.022825 143.312516 
L 146.96036 139.410581 
L 147.630027 127.704774 
L 148.031828 123.802839 
L 148.567561 115.998968 
L 148.96936 115.998968 
L 149.772962 100.391226 
L 150.174761 100.391226 
L 150.844429 96.48929 
L 151.514096 100.391226 
L 152.049829 96.48929 
L 152.451629 104.293161 
L 152.85343 104.293161 
L 153.25523 123.802839 
L 153.790963 123.802839 
L 154.326696 119.900903 
L 155.398164 119.900903 
L 156.067831 115.998968 
L 156.603564 104.293161 
L 157.273232 92.587355 
L 157.808965 88.685419 
L 158.478632 84.783484 
L 158.746499 80.881548 
L 159.282232 80.881548 
L 159.951899 84.783484 
L 160.621566 80.881548 
L 160.889433 84.783484 
L 161.425166 84.783484 
L 162.094833 80.881548 
L 162.3627 84.783484 
L 162.764501 84.783484 
L 163.300234 80.881548 
L 164.505634 80.881548 
L 165.041368 88.685419 
L 165.711036 84.783484 
L 166.380701 84.783484 
L 167.050369 88.685419 
L 168.389702 88.685419 
L 169.05937 92.587355 
L 169.327236 100.391226 
L 170.398705 100.391226 
L 170.800504 104.293161 
L 171.738038 100.391226 
L 172.139838 108.195097 
L 172.809505 112.097032 
L 173.345238 115.998968 
L 174.014905 123.802839 
L 174.952439 123.802839 
L 175.622107 131.60671 
L 176.023906 131.60671 
L 176.96144 135.508645 
L 178.56864 135.508645 
L 179.907975 147.214452 
L 183.390244 147.214452 
L 184.193843 155.018323 
L 185.26531 155.018323 
L 185.66711 158.920258 
L 186.068912 158.920258 
L 186.470711 155.018323 
L 186.872512 155.018323 
L 187.542179 151.116387 
L 187.943978 155.018323 
L 188.479712 155.018323 
L 189.417246 151.116387 
L 190.220845 158.920258 
L 191.292314 158.920258 
L 191.694113 155.018323 
L 191.96198 155.018323 
L 192.229846 158.920258 
L 192.631647 158.920258 
L 193.033448 162.822194 
L 193.301314 162.822194 
L 193.837048 158.920258 
L 194.372781 147.214452 
L 195.042449 127.704774 
L 195.712114 123.802839 
L 196.247849 119.900903 
L 196.783583 108.195097 
L 197.319316 100.391226 
L 198.390782 92.587355 
L 199.730118 92.587355 
L 200.801584 100.391226 
L 201.471251 100.391226 
L 202.006985 108.195097 
L 203.078452 108.195097 
L 203.748119 100.391226 
L 204.283853 100.391226 
L 205.087453 96.48929 
L 205.355319 100.391226 
L 207.36432 100.391226 
L 207.900055 96.48929 
L 208.435788 96.48929 
L 209.105454 100.391226 
L 209.909056 100.391226 
L 211.248389 115.998968 
L 211.918056 112.097032 
L 212.721656 115.998968 
L 213.391324 119.900903 
L 214.194923 119.900903 
L 215.266391 131.60671 
L 218.078993 143.312516 
L 218.748659 143.312516 
L 219.418326 147.214452 
L 219.820127 143.312516 
L 220.221926 143.312516 
L 221.025526 155.018323 
L 221.427327 151.116387 
L 222.096994 151.116387 
L 222.364861 155.018323 
L 222.766661 155.018323 
L 223.704194 147.214452 
L 224.373861 143.312516 
L 225.311396 143.312516 
L 225.981062 147.214452 
L 226.382862 155.018323 
L 227.454329 155.018323 
L 227.990063 158.920258 
L 228.65973 162.822194 
L 229.597264 151.116387 
L 229.999064 151.116387 
L 230.936598 143.312516 
L 231.606265 147.214452 
L 232.409864 139.410581 
L 233.481333 108.195097 
L 233.7492 104.293161 
L 234.552799 96.48929 
L 235.088533 96.48929 
L 235.758201 100.391226 
L 236.16 88.685419 
L 236.5618 88.685419 
L 237.231468 80.881548 
L 238.302935 65.273806 
L 238.838668 61.371871 
L 239.106535 65.273806 
L 239.642268 65.273806 
L 239.910134 69.175742 
L 240.981603 69.175742 
L 241.517336 73.077677 
L 241.919137 73.077677 
L 242.320936 76.979613 
L 242.990603 80.881548 
L 243.526337 76.979613 
L 244.731737 76.979613 
L 245.267471 69.175742 
L 247.410406 69.175742 
L 247.812205 80.881548 
L 248.214005 80.881548 
L 248.883673 88.685419 
L 249.553339 92.587355 
L 250.490873 108.195097 
L 250.892673 108.195097 
L 251.428408 115.998968 
L 252.365941 115.998968 
L 253.035607 123.802839 
L 253.839209 127.704774 
L 254.508875 131.60671 
L 255.312475 139.410581 
L 255.714275 135.508645 
L 256.517876 139.410581 
L 257.187543 147.214452 
L 257.723276 147.214452 
L 258.125077 151.116387 
L 259.464411 151.116387 
L 259.866211 155.018323 
L 260.535877 158.920258 
L 261.473412 158.920258 
L 262.143079 155.018323 
L 262.812746 162.822194 
L 263.214545 155.018323 
L 263.616346 155.018323 
L 264.55388 158.920258 
L 265.223546 162.822194 
L 266.16108 162.822194 
L 266.696814 155.018323 
L 267.500415 162.822194 
L 269.509416 162.822194 
L 270.045149 158.920258 
L 270.714815 139.410581 
L 270.982683 127.704774 
L 271.384482 127.704774 
L 272.05415 112.097032 
L 272.723817 104.293161 
L 273.393483 100.391226 
L 273.929216 92.587355 
L 274.598884 88.685419 
L 275.134618 80.881548 
L 275.804285 76.979613 
L 276.473952 69.175742 
L 277.143619 65.273806 
L 277.679353 65.273806 
L 278.349019 73.077677 
L 279.018686 76.979613 
L 279.55442 76.979613 
L 279.822287 84.783484 
L 280.090153 84.783484 
L 280.491954 76.979613 
L 280.75982 76.979613 
L 281.56342 80.881548 
L 282.902755 80.881548 
L 283.438489 76.979613 
L 283.974222 76.979613 
L 284.643889 80.881548 
L 285.179623 80.881548 
L 285.581422 84.783484 
L 286.385023 84.783484 
L 287.322556 96.48929 
L 288.26009 112.097032 
L 288.661891 115.998968 
L 290.670892 115.998968 
L 290.938758 119.900903 
L 292.412025 119.900903 
L 292.679893 123.802839 
L 294.822827 123.802839 
L 295.224627 131.60671 
L 295.626428 131.60671 
L 296.831828 139.410581 
L 297.501494 135.508645 
L 298.305096 135.508645 
L 298.706895 131.60671 
L 298.974762 131.60671 
L 299.644429 135.508645 
L 300.314096 135.508645 
L 300.715896 139.410581 
L 301.787364 139.410581 
L 302.189163 143.312516 
L 303.394564 143.312516 
L 303.796365 147.214452 
L 304.733897 151.116387 
L 305.403564 143.312516 
L 307.680432 143.312516 
L 308.216166 135.508645 
L 308.7519 119.900903 
L 309.823367 84.783484 
L 310.3591 69.175742 
L 311.430567 53.568 
L 313.305635 53.568 
L 313.975303 57.469935 
L 314.778902 65.273806 
L 316.386103 65.273806 
L 317.725437 73.077677 
L 318.395103 73.077677 
L 319.064771 69.175742 
L 319.734438 73.077677 
L 321.877372 73.077677 
L 322.547039 76.979613 
L 323.216706 84.783484 
L 324.020307 84.783484 
L 324.823906 96.48929 
L 325.225707 100.391226 
L 325.493574 100.391226 
L 326.029307 104.293161 
L 326.832908 108.195097 
L 327.636509 115.998968 
L 329.243709 123.802839 
L 330.181243 139.410581 
L 330.85091 139.410581 
L 331.520576 131.60671 
L 332.324178 131.60671 
L 333.26171 127.704774 
L 333.931377 143.312516 
L 334.467111 139.410581 
L 335.806446 139.410581 
L 336.476111 143.312516 
L 337.413646 135.508645 
L 338.083313 135.508645 
L 339.690514 155.018323 
L 340.895914 155.018323 
L 341.565581 147.214452 
L 342.235248 143.312516 
L 342.637048 147.214452 
L 343.976381 147.214452 
L 344.378182 143.312516 
L 345.04785 143.312516 
L 345.449649 139.410581 
L 346.387183 139.410581 
L 347.45865 143.312516 
L 348.396184 139.410581 
L 349.199784 135.508645 
L 349.467652 131.60671 
L 350.539119 131.60671 
L 351.074852 135.508645 
L 351.342719 139.410581 
L 352.94992 139.410581 
L 353.887453 143.312516 
L 354.55712 143.312516 
L 355.494655 147.214452 
L 355.896454 143.312516 
L 356.967921 143.312516 
L 357.905456 151.116387 
L 360.182323 151.116387 
L 361.119856 143.312516 
L 362.45919 135.508645 
L 363.128858 135.508645 
L 363.396725 127.704774 
L 363.664592 127.704774 
L 364.602124 131.60671 
L 364.869992 123.802839 
L 365.405725 123.802839 
L 365.941459 115.998968 
L 366.209326 123.802839 
L 367.816525 112.097032 
L 368.084394 115.998968 
L 368.352261 115.998968 
L 368.887994 119.900903 
L 369.423727 115.998968 
L 369.691594 108.195097 
L 370.093394 108.195097 
L 370.896995 104.293161 
L 371.566662 100.391226 
L 372.370262 100.391226 
L 373.039928 104.293161 
L 373.709596 104.293161 
L 374.513195 112.097032 
L 375.182863 108.195097 
L 375.450729 112.097032 
L 375.986463 112.097032 
L 376.65613 115.998968 
L 377.325798 127.704774 
L 379.200865 127.704774 
L 380.138398 131.60671 
L 380.808065 131.60671 
L 381.209866 135.508645 
L 382.147399 139.410581 
L 383.084933 139.410581 
L 383.754601 131.60671 
L 386.701134 131.60671 
L 387.504736 135.508645 
L 389.111936 135.508645 
L 389.781603 139.410581 
L 390.719137 143.312516 
L 391.388803 139.410581 
L 392.058471 139.410581 
L 392.728138 135.508645 
L 393.263871 139.410581 
L 393.933538 139.410581 
L 394.603205 147.214452 
L 394.871071 147.214452 
L 396.210406 139.410581 
L 396.612206 135.508645 
L 398.085473 135.508645 
L 398.085473 135.508645 
" style="fill:none;stroke:#ff7f0e;stroke-linecap:square;stroke-width:1.5;"/>
   </g>
   <g id="patch_3">
    <path d="M 57.6 307.584 
L 57.6 41.472 
" style="fill:none;stroke:#000000;stroke-linecap:square;stroke-linejoin:miter;stroke-width:0.8;"/>
   </g>
   <g id="patch_4">
    <path d="M 414.72 307.584 
L 414.72 41.472 
" style="fill:none;stroke:#000000;stroke-linecap:square;stroke-linejoin:miter;stroke-width:0.8;"/>
   </g>
   <g id="patch_5">
    <path d="M 57.6 307.584 
L 414.72 307.584 
" style="fill:none;stroke:#000000;stroke-linecap:square;stroke-linejoin:miter;stroke-width:0.8;"/>
   </g>
   <g id="patch_6">
    <path d="M 57.6 41.472 
L 414.72 41.472 
" style="fill:none;stroke:#000000;stroke-linecap:square;stroke-linejoin:miter;stroke-width:0.8;"/>
   </g>
   <g id="text_19">
    <!-- Heart rate -->
    <g transform="translate(205.365938 35.472)scale(0.12 -0.12)">
     <use xlink:href="#DejaVuSans-48"/>
     <use x="75.195312" xlink:href="#DejaVuSans-65"/>
     <use x="136.71875" xlink:href="#DejaVuSans-61"/>
     <use x="197.998047" xlink:href="#DejaVuSans-72"/>
     <use x="239.111328" xlink:href="#DejaVuSans-74"/>
     <use x="278.320312" xlink:href="#DejaVuSans-20"/>
     <use x="310.107422" xlink:href="#DejaVuSans-72"/>
     <use x="351.220703" xlink:href="#DejaVuSans-61"/>
     <use x="412.5" xlink:href="#DejaVuSans-74"/>
     <use x="451.708984" xlink:href="#DejaVuSans-65"/>
    </g>
   </g>
   <g id="legend_1">
    <g id="patch_7">
     <path d="M 334.555938 78.82825 
L 407.72 78.82825 
Q 409.72 78.82825 409.72 76.82825 
L 409.72 48.472 
Q 409.72 46.472 407.72 46.472 
L 334.555938 46.472 
Q 332.555938 46.472 332.555938 48.472 
L 332.555938 76.82825 
Q 332.555938 78.82825 334.555938 78.82825 
z
" style="fill:#ffffff;opacity:0.8;stroke:#cccccc;stroke-linejoin:miter;"/>
    </g>
    <g id="line2d_35">
     <path d="M 336.555938 54.570437 
L 356.555938 54.570437 
" style="fill:none;stroke:#1f77b4;stroke-linecap:square;stroke-width:1.5;"/>
    </g>
    <g id="line2d_36"/>
    <g id="text_20">
     <!-- Garmin -->
     <defs>
      <path d="M 59.515625 10.40625 
L 59.515625 29.984375 
L 43.40625 29.984375 
L 43.40625 38.09375 
L 69.28125 38.09375 
L 69.28125 6.78125 
Q 63.578125 2.734375 56.6875 0.65625 
Q 49.8125 -1.421875 42 -1.421875 
Q 24.90625 -1.421875 15.25 8.5625 
Q 5.609375 18.5625 5.609375 36.375 
Q 5.609375 54.25 15.25 64.234375 
Q 24.90625 74.21875 42 74.21875 
Q 49.125 74.21875 55.546875 72.453125 
Q 61.96875 70.703125 67.390625 67.28125 
L 67.390625 56.78125 
Q 61.921875 61.421875 55.765625 63.765625 
Q 49.609375 66.109375 42.828125 66.109375 
Q 29.4375 66.109375 22.71875 58.640625 
Q 16.015625 51.171875 16.015625 36.375 
Q 16.015625 21.625 22.71875 14.15625 
Q 29.4375 6.6875 42.828125 6.6875 
Q 48.046875 6.6875 52.140625 7.59375 
Q 56.25 8.5 59.515625 10.40625 
" id="DejaVuSans-47"/>
      <path d="M 54.890625 33.015625 
L 54.890625 0 
L 45.90625 0 
L 45.90625 32.71875 
Q 45.90625 40.484375 42.875 44.328125 
Q 39.84375 48.1875 33.796875 48.1875 
Q 26.515625 48.1875 22.3125 43.546875 
Q 18.109375 38.921875 18.109375 30.90625 
L 18.109375 0 
L 9.078125 0 
L 9.078125 54.6875 
L 18.109375 54.6875 
L 18.109375 46.1875 
Q 21.34375 51.125 25.703125 53.5625 
Q 30.078125 56 35.796875 56 
Q 45.21875 56 50.046875 50.171875 
Q 54.890625 44.34375 54.890625 33.015625 
" id="DejaVuSans-6e"/>
     </defs>
     <g transform="translate(364.555938 58.070437)scale(0.1 -0.1)">
      <use xlink:href="#DejaVuSans-47"/>
      <use x="77.490234" xlink:href="#DejaVuSans-61"/>
      <use x="138.769531" xlink:href="#DejaVuSans-72"/>
      <use x="179.867188" xlink:href="#DejaVuSans-6d"/>
      <use x="277.279297" xlink:href="#DejaVuSans-69"/>
      <use x="305.0625" xlink:href="#DejaVuSans-6e"/>
     </g>
    </g>
    <g id="line2d_37">
     <path d="M 336.555938 69.248562 
L 356.555938 69.248562 
" style="fill:none;stroke:#ff7f0e;stroke-linecap:square;stroke-width:1.5;"/>
    </g>
    <g id="line2d_38"/>
    <g id="text_21">
     <!-- Scosche -->
     <defs>
      <path d="M 53.515625 70.515625 
L 53.515625 60.890625 
Q 47.90625 63.578125 42.921875 64.890625 
Q 37.9375 66.21875 33.296875 66.21875 
Q 25.25 66.21875 20.875 63.09375 
Q 16.5 59.96875 16.5 54.203125 
Q 16.5 49.359375 19.40625 46.890625 
Q 22.3125 44.4375 30.421875 42.921875 
L 36.375 41.703125 
Q 47.40625 39.59375 52.65625 34.296875 
Q 57.90625 29 57.90625 20.125 
Q 57.90625 9.515625 50.796875 4.046875 
Q 43.703125 -1.421875 29.984375 -1.421875 
Q 24.8125 -1.421875 18.96875 -0.25 
Q 13.140625 0.921875 6.890625 3.21875 
L 6.890625 13.375 
Q 12.890625 10.015625 18.65625 8.296875 
Q 24.421875 6.59375 29.984375 6.59375 
Q 38.421875 6.59375 43.015625 9.90625 
Q 47.609375 13.234375 47.609375 19.390625 
Q 47.609375 24.75 44.3125 27.78125 
Q 41.015625 30.8125 33.5 32.328125 
L 27.484375 33.5 
Q 16.453125 35.6875 11.515625 40.375 
Q 6.59375 45.0625 6.59375 53.421875 
Q 6.59375 63.09375 13.40625 68.65625 
Q 20.21875 74.21875 32.171875 74.21875 
Q 37.3125 74.21875 42.625 73.28125 
Q 47.953125 72.359375 53.515625 70.515625 
" id="DejaVuSans-53"/>
      <path d="M 48.78125 52.59375 
L 48.78125 44.1875 
Q 44.96875 46.296875 41.140625 47.34375 
Q 37.3125 48.390625 33.40625 48.390625 
Q 24.65625 48.390625 19.8125 42.84375 
Q 14.984375 37.3125 14.984375 27.296875 
Q 14.984375 17.28125 19.8125 11.734375 
Q 24.65625 6.203125 33.40625 6.203125 
Q 37.3125 6.203125 41.140625 7.25 
Q 44.96875 8.296875 48.78125 10.40625 
L 48.78125 2.09375 
Q 45.015625 0.34375 40.984375 -0.53125 
Q 36.96875 -1.421875 32.421875 -1.421875 
Q 20.0625 -1.421875 12.78125 6.34375 
Q 5.515625 14.109375 5.515625 27.296875 
Q 5.515625 40.671875 12.859375 48.328125 
Q 20.21875 56 33.015625 56 
Q 37.15625 56 41.109375 55.140625 
Q 45.0625 54.296875 48.78125 52.59375 
" id="DejaVuSans-63"/>
      <path d="M 30.609375 48.390625 
Q 23.390625 48.390625 19.1875 42.75 
Q 14.984375 37.109375 14.984375 27.296875 
Q 14.984375 17.484375 19.15625 11.84375 
Q 23.34375 6.203125 30.609375 6.203125 
Q 37.796875 6.203125 41.984375 11.859375 
Q 46.1875 17.53125 46.1875 27.296875 
Q 46.1875 37.015625 41.984375 42.703125 
Q 37.796875 48.390625 30.609375 48.390625 
M 30.609375 56 
Q 42.328125 56 49.015625 48.375 
Q 55.71875 40.765625 55.71875 27.296875 
Q 55.71875 13.875 49.015625 6.21875 
Q 42.328125 -1.421875 30.609375 -1.421875 
Q 18.84375 -1.421875 12.171875 6.21875 
Q 5.515625 13.875 5.515625 27.296875 
Q 5.515625 40.765625 12.171875 48.375 
Q 18.84375 56 30.609375 56 
" id="DejaVuSans-6f"/>
      <path d="M 44.28125 53.078125 
L 44.28125 44.578125 
Q 40.484375 46.53125 36.375 47.5 
Q 32.28125 48.484375 27.875 48.484375 
Q 21.1875 48.484375 17.84375 46.4375 
Q 14.5 44.390625 14.5 40.28125 
Q 14.5 37.15625 16.890625 35.375 
Q 19.28125 33.59375 26.515625 31.984375 
L 29.59375 31.296875 
Q 39.15625 29.25 43.1875 25.515625 
Q 47.21875 21.78125 47.21875 15.09375 
Q 47.21875 7.46875 41.1875 3.015625 
Q 35.15625 -1.421875 24.609375 -1.421875 
Q 20.21875 -1.421875 15.453125 -0.5625 
Q 10.6875 0.296875 5.421875 2 
L 5.421875 11.28125 
Q 10.40625 8.6875 15.234375 7.390625 
Q 20.0625 6.109375 24.8125 6.109375 
Q 31.15625 6.109375 34.5625 8.28125 
Q 37.984375 10.453125 37.984375 14.40625 
Q 37.984375 18.0625 35.515625 20.015625 
Q 33.0625 21.96875 24.703125 23.78125 
L 21.578125 24.515625 
Q 13.234375 26.265625 9.515625 29.90625 
Q 5.8125 33.546875 5.8125 39.890625 
Q 5.8125 47.609375 11.28125 51.796875 
Q 16.75 56 26.8125 56 
Q 31.78125 56 36.171875 55.265625 
Q 40.578125 54.546875 44.28125 53.078125 
" id="DejaVuSans-73"/>
      <path d="M 54.890625 33.015625 
L 54.890625 0 
L 45.90625 0 
L 45.90625 32.71875 
Q 45.90625 40.484375 42.875 44.328125 
Q 39.84375 48.1875 33.796875 48.1875 
Q 26.515625 48.1875 22.3125 43.546875 
Q 18.109375 38.921875 18.109375 30.90625 
L 18.109375 0 
L 9.078125 0 
L 9.078125 75.984375 
L 18.109375 75.984375 
L 18.109375 46.1875 
Q 21.34375 51.125 25.703125 53.5625 
Q 30.078125 56 35.796875 56 
Q 45.21875 56 50.046875 50.171875 
Q 54.890625 44.34375 54.890625 33.015625 
" id="DejaVuSans-68"/>
     </defs>
     <g transform="translate(364.555938 72.748562)scale(0.1 -0.1)">
      <use xlink:href="#DejaVuSans-53"/>
      <use x="63.476562" xlink:href="#DejaVuSans-63"/>
      <use x="118.457031" xlink:href="#DejaVuSans-6f"/>
      <use x="179.638672" xlink:href="#DejaVuSans-73"/>
      <use x="231.738281" xlink:href="#DejaVuSans-63"/>
      <use x="286.71875" xlink:href="#DejaVuSans-68"/>
      <use x="350.097656" xlink:href="#DejaVuSans-65"/>
     </g>
    </g>
   </g>
  </g>
 </g>
 <defs>
  <clipPath id="p62d2d907f1">
   <rect height="266.112" width="357.12" x="57.6" y="41.472"/>
  </clipPath>
 </defs>
</svg>
