<?xml version="1.0" encoding="utf-8" standalone="no"?>
<!DOCTYPE svg PUBLIC "-//W3C//DTD SVG 1.1//EN"
  "http://www.w3.org/Graphics/SVG/1.1/DTD/svg11.dtd">
<!-- Created with matplotlib (http://matplotlib.org/) -->
<svg height="345pt" version="1.1" viewBox="0 0 460 345" width="460pt" xmlns="http://www.w3.org/2000/svg" xmlns:xlink="http://www.w3.org/1999/xlink">
 <defs>
  <style type="text/css">
*{stroke-linecap:butt;stroke-linejoin:round;}
  </style>
 </defs>
 <g id="figure_1">
  <g id="patch_1">
   <path d="M 0 345.6 
L 460.8 345.6 
L 460.8 0 
L 0 0 
z
" style="fill:#ffffff;"/>
  </g>
  <g id="axes_1">
   <g id="patch_2">
    <path d="M 57.6 307.584 
L 414.72 307.584 
L 414.72 41.472 
L 57.6 41.472 
z
" style="fill:#ffffff;"/>
   </g>
   <g id="matplotlib.axis_1">
    <g id="xtick_1">
     <g id="line2d_1">
      <path clip-path="url(#pd4e47cf458)" d="M 70.585666 307.584 
L 70.585666 41.472 
" style="fill:none;stroke:#b0b0b0;stroke-linecap:square;stroke-width:0.8;"/>
     </g>
     <g id="line2d_2">
      <defs>
       <path d="M 0 0 
L 0 3.5 
" id="mec7a57b345" style="stroke:#000000;stroke-width:0.8;"/>
      </defs>
      <g>
       <use style="stroke:#000000;stroke-width:0.8;" x="70.585666" xlink:href="#mec7a57b345" y="307.584"/>
      </g>
     </g>
     <g id="text_1">
      <!-- 15 05:59 -->
      <defs>
       <path d="M 12.40625 8.296875 
L 28.515625 8.296875 
L 28.515625 63.921875 
L 10.984375 60.40625 
L 10.984375 69.390625 
L 28.421875 72.90625 
L 38.28125 72.90625 
L 38.28125 8.296875 
L 54.390625 8.296875 
L 54.390625 0 
L 12.40625 0 
z
" id="DejaVuSans-31"/>
       <path d="M 10.796875 72.90625 
L 49.515625 72.90625 
L 49.515625 64.59375 
L 19.828125 64.59375 
L 19.828125 46.734375 
Q 21.96875 47.46875 24.109375 47.828125 
Q 26.265625 48.1875 28.421875 48.1875 
Q 40.625 48.1875 47.75 41.5 
Q 54.890625 34.8125 54.890625 23.390625 
Q 54.890625 11.625 47.5625 5.09375 
Q 40.234375 -1.421875 26.90625 -1.421875 
Q 22.3125 -1.421875 17.546875 -0.640625 
Q 12.796875 0.140625 7.71875 1.703125 
L 7.71875 11.625 
Q 12.109375 9.234375 16.796875 8.0625 
Q 21.484375 6.890625 26.703125 6.890625 
Q 35.15625 6.890625 40.078125 11.328125 
Q 45.015625 15.765625 45.015625 23.390625 
Q 45.015625 31 40.078125 35.4375 
Q 35.15625 39.890625 26.703125 39.890625 
Q 22.75 39.890625 18.8125 39.015625 
Q 14.890625 38.140625 10.796875 36.28125 
z
" id="DejaVuSans-35"/>
       <path id="DejaVuSans-20"/>
       <path d="M 31.78125 66.40625 
Q 24.171875 66.40625 20.328125 58.90625 
Q 16.5 51.421875 16.5 36.375 
Q 16.5 21.390625 20.328125 13.890625 
Q 24.171875 6.390625 31.78125 6.390625 
Q 39.453125 6.390625 43.28125 13.890625 
Q 47.125 21.390625 47.125 36.375 
Q 47.125 51.421875 43.28125 58.90625 
Q 39.453125 66.40625 31.78125 66.40625 
M 31.78125 74.21875 
Q 44.046875 74.21875 50.515625 64.515625 
Q 56.984375 54.828125 56.984375 36.375 
Q 56.984375 17.96875 50.515625 8.265625 
Q 44.046875 -1.421875 31.78125 -1.421875 
Q 19.53125 -1.421875 13.0625 8.265625 
Q 6.59375 17.96875 6.59375 36.375 
Q 6.59375 54.828125 13.0625 64.515625 
Q 19.53125 74.21875 31.78125 74.21875 
" id="DejaVuSans-30"/>
       <path d="M 11.71875 12.40625 
L 22.015625 12.40625 
L 22.015625 0 
L 11.71875 0 
z
M 11.71875 51.703125 
L 22.015625 51.703125 
L 22.015625 39.3125 
L 11.71875 39.3125 
z
" id="DejaVuSans-3a"/>
       <path d="M 10.984375 1.515625 
L 10.984375 10.5 
Q 14.703125 8.734375 18.5 7.8125 
Q 22.3125 6.890625 25.984375 6.890625 
Q 35.75 6.890625 40.890625 13.453125 
Q 46.046875 20.015625 46.78125 33.40625 
Q 43.953125 29.203125 39.59375 26.953125 
Q 35.25 24.703125 29.984375 24.703125 
Q 19.046875 24.703125 12.671875 31.3125 
Q 6.296875 37.9375 6.296875 49.421875 
Q 6.296875 60.640625 12.9375 67.421875 
Q 19.578125 74.21875 30.609375 74.21875 
Q 43.265625 74.21875 49.921875 64.515625 
Q 56.59375 54.828125 56.59375 36.375 
Q 56.59375 19.140625 48.40625 8.859375 
Q 40.234375 -1.421875 26.421875 -1.421875 
Q 22.703125 -1.421875 18.890625 -0.6875 
Q 15.09375 0.046875 10.984375 1.515625 
M 30.609375 32.421875 
Q 37.25 32.421875 41.125 36.953125 
Q 45.015625 41.5 45.015625 49.421875 
Q 45.015625 57.28125 41.125 61.84375 
Q 37.25 66.40625 30.609375 66.40625 
Q 23.96875 66.40625 20.09375 61.84375 
Q 16.21875 57.28125 16.21875 49.421875 
Q 16.21875 41.5 20.09375 36.953125 
Q 23.96875 32.421875 30.609375 32.421875 
" id="DejaVuSans-39"/>
      </defs>
      <g transform="translate(48.224728 322.182437)scale(0.1 -0.1)">
       <use xlink:href="#DejaVuSans-31"/>
       <use x="63.623047" xlink:href="#DejaVuSans-35"/>
       <use x="127.246094" xlink:href="#DejaVuSans-20"/>
       <use x="159.033203" xlink:href="#DejaVuSans-30"/>
       <use x="222.65625" xlink:href="#DejaVuSans-35"/>
       <use x="286.279297" xlink:href="#DejaVuSans-3a"/>
       <use x="319.970703" xlink:href="#DejaVuSans-35"/>
       <use x="383.59375" xlink:href="#DejaVuSans-39"/>
      </g>
     </g>
    </g>
    <g id="xtick_2">
     <g id="line2d_3">
      <path clip-path="url(#pd4e47cf458)" d="M 116.97225 307.584 
L 116.97225 41.472 
" style="fill:none;stroke:#b0b0b0;stroke-linecap:square;stroke-width:0.8;"/>
     </g>
     <g id="line2d_4">
      <g>
       <use style="stroke:#000000;stroke-width:0.8;" x="116.97225" xlink:href="#mec7a57b345" y="307.584"/>
      </g>
     </g>
     <g id="text_2">
      <!-- 15 06:14 -->
      <defs>
       <path d="M 33.015625 40.375 
Q 26.375 40.375 22.484375 35.828125 
Q 18.609375 31.296875 18.609375 23.390625 
Q 18.609375 15.53125 22.484375 10.953125 
Q 26.375 6.390625 33.015625 6.390625 
Q 39.65625 6.390625 43.53125 10.953125 
Q 47.40625 15.53125 47.40625 23.390625 
Q 47.40625 31.296875 43.53125 35.828125 
Q 39.65625 40.375 33.015625 40.375 
M 52.59375 71.296875 
L 52.59375 62.3125 
Q 48.875 64.0625 45.09375 64.984375 
Q 41.3125 65.921875 37.59375 65.921875 
Q 27.828125 65.921875 22.671875 59.328125 
Q 17.53125 52.734375 16.796875 39.40625 
Q 19.671875 43.65625 24.015625 45.921875 
Q 28.375 48.1875 33.59375 48.1875 
Q 44.578125 48.1875 50.953125 41.515625 
Q 57.328125 34.859375 57.328125 23.390625 
Q 57.328125 12.15625 50.6875 5.359375 
Q 44.046875 -1.421875 33.015625 -1.421875 
Q 20.359375 -1.421875 13.671875 8.265625 
Q 6.984375 17.96875 6.984375 36.375 
Q 6.984375 53.65625 15.1875 63.9375 
Q 23.390625 74.21875 37.203125 74.21875 
Q 40.921875 74.21875 44.703125 73.484375 
Q 48.484375 72.75 52.59375 71.296875 
" id="DejaVuSans-36"/>
       <path d="M 37.796875 64.3125 
L 12.890625 25.390625 
L 37.796875 25.390625 
z
M 35.203125 72.90625 
L 47.609375 72.90625 
L 47.609375 25.390625 
L 58.015625 25.390625 
L 58.015625 17.1875 
L 47.609375 17.1875 
L 47.609375 0 
L 37.796875 0 
L 37.796875 17.1875 
L 4.890625 17.1875 
L 4.890625 26.703125 
z
" id="DejaVuSans-34"/>
      </defs>
      <g transform="translate(94.611312 322.182437)scale(0.1 -0.1)">
       <use xlink:href="#DejaVuSans-31"/>
       <use x="63.623047" xlink:href="#DejaVuSans-35"/>
       <use x="127.246094" xlink:href="#DejaVuSans-20"/>
       <use x="159.033203" xlink:href="#DejaVuSans-30"/>
       <use x="222.65625" xlink:href="#DejaVuSans-36"/>
       <use x="286.279297" xlink:href="#DejaVuSans-3a"/>
       <use x="319.970703" xlink:href="#DejaVuSans-31"/>
       <use x="383.59375" xlink:href="#DejaVuSans-34"/>
      </g>
     </g>
    </g>
    <g id="xtick_3">
     <g id="line2d_5">
      <path clip-path="url(#pd4e47cf458)" d="M 163.358833 307.584 
L 163.358833 41.472 
" style="fill:none;stroke:#b0b0b0;stroke-linecap:square;stroke-width:0.8;"/>
     </g>
     <g id="line2d_6">
      <g>
       <use style="stroke:#000000;stroke-width:0.8;" x="163.358833" xlink:href="#mec7a57b345" y="307.584"/>
      </g>
     </g>
     <g id="text_3">
      <!-- 15 06:29 -->
      <defs>
       <path d="M 19.1875 8.296875 
L 53.609375 8.296875 
L 53.609375 0 
L 7.328125 0 
L 7.328125 8.296875 
Q 12.9375 14.109375 22.625 23.890625 
Q 32.328125 33.6875 34.8125 36.53125 
Q 39.546875 41.84375 41.421875 45.53125 
Q 43.3125 49.21875 43.3125 52.78125 
Q 43.3125 58.59375 39.234375 62.25 
Q 35.15625 65.921875 28.609375 65.921875 
Q 23.96875 65.921875 18.8125 64.3125 
Q 13.671875 62.703125 7.8125 59.421875 
L 7.8125 69.390625 
Q 13.765625 71.78125 18.9375 73 
Q 24.125 74.21875 28.421875 74.21875 
Q 39.75 74.21875 46.484375 68.546875 
Q 53.21875 62.890625 53.21875 53.421875 
Q 53.21875 48.921875 51.53125 44.890625 
Q 49.859375 40.875 45.40625 35.40625 
Q 44.1875 33.984375 37.640625 27.21875 
Q 31.109375 20.453125 19.1875 8.296875 
" id="DejaVuSans-32"/>
      </defs>
      <g transform="translate(140.997895 322.182437)scale(0.1 -0.1)">
       <use xlink:href="#DejaVuSans-31"/>
       <use x="63.623047" xlink:href="#DejaVuSans-35"/>
       <use x="127.246094" xlink:href="#DejaVuSans-20"/>
       <use x="159.033203" xlink:href="#DejaVuSans-30"/>
       <use x="222.65625" xlink:href="#DejaVuSans-36"/>
       <use x="286.279297" xlink:href="#DejaVuSans-3a"/>
       <use x="319.970703" xlink:href="#DejaVuSans-32"/>
       <use x="383.59375" xlink:href="#DejaVuSans-39"/>
      </g>
     </g>
    </g>
    <g id="xtick_4">
     <g id="line2d_7">
      <path clip-path="url(#pd4e47cf458)" d="M 209.745417 307.584 
L 209.745417 41.472 
" style="fill:none;stroke:#b0b0b0;stroke-linecap:square;stroke-width:0.8;"/>
     </g>
     <g id="line2d_8">
      <g>
       <use style="stroke:#000000;stroke-width:0.8;" x="209.745417" xlink:href="#mec7a57b345" y="307.584"/>
      </g>
     </g>
     <g id="text_4">
      <!-- 15 06:44 -->
      <g transform="translate(187.38448 322.182437)scale(0.1 -0.1)">
       <use xlink:href="#DejaVuSans-31"/>
       <use x="63.623047" xlink:href="#DejaVuSans-35"/>
       <use x="127.246094" xlink:href="#DejaVuSans-20"/>
       <use x="159.033203" xlink:href="#DejaVuSans-30"/>
       <use x="222.65625" xlink:href="#DejaVuSans-36"/>
       <use x="286.279297" xlink:href="#DejaVuSans-3a"/>
       <use x="319.970703" xlink:href="#DejaVuSans-34"/>
       <use x="383.59375" xlink:href="#DejaVuSans-34"/>
      </g>
     </g>
    </g>
    <g id="xtick_5">
     <g id="line2d_9">
      <path clip-path="url(#pd4e47cf458)" d="M 256.132001 307.584 
L 256.132001 41.472 
" style="fill:none;stroke:#b0b0b0;stroke-linecap:square;stroke-width:0.8;"/>
     </g>
     <g id="line2d_10">
      <g>
       <use style="stroke:#000000;stroke-width:0.8;" x="256.132001" xlink:href="#mec7a57b345" y="307.584"/>
      </g>
     </g>
     <g id="text_5">
      <!-- 15 06:59 -->
      <g transform="translate(233.771063 322.182437)scale(0.1 -0.1)">
       <use xlink:href="#DejaVuSans-31"/>
       <use x="63.623047" xlink:href="#DejaVuSans-35"/>
       <use x="127.246094" xlink:href="#DejaVuSans-20"/>
       <use x="159.033203" xlink:href="#DejaVuSans-30"/>
       <use x="222.65625" xlink:href="#DejaVuSans-36"/>
       <use x="286.279297" xlink:href="#DejaVuSans-3a"/>
       <use x="319.970703" xlink:href="#DejaVuSans-35"/>
       <use x="383.59375" xlink:href="#DejaVuSans-39"/>
      </g>
     </g>
    </g>
    <g id="xtick_6">
     <g id="line2d_11">
      <path clip-path="url(#pd4e47cf458)" d="M 302.518584 307.584 
L 302.518584 41.472 
" style="fill:none;stroke:#b0b0b0;stroke-linecap:square;stroke-width:0.8;"/>
     </g>
     <g id="line2d_12">
      <g>
       <use style="stroke:#000000;stroke-width:0.8;" x="302.518584" xlink:href="#mec7a57b345" y="307.584"/>
      </g>
     </g>
     <g id="text_6">
      <!-- 15 07:14 -->
      <defs>
       <path d="M 8.203125 72.90625 
L 55.078125 72.90625 
L 55.078125 68.703125 
L 28.609375 0 
L 18.3125 0 
L 43.21875 64.59375 
L 8.203125 64.59375 
z
" id="DejaVuSans-37"/>
      </defs>
      <g transform="translate(280.157647 322.182437)scale(0.1 -0.1)">
       <use xlink:href="#DejaVuSans-31"/>
       <use x="63.623047" xlink:href="#DejaVuSans-35"/>
       <use x="127.246094" xlink:href="#DejaVuSans-20"/>
       <use x="159.033203" xlink:href="#DejaVuSans-30"/>
       <use x="222.65625" xlink:href="#DejaVuSans-37"/>
       <use x="286.279297" xlink:href="#DejaVuSans-3a"/>
       <use x="319.970703" xlink:href="#DejaVuSans-31"/>
       <use x="383.59375" xlink:href="#DejaVuSans-34"/>
      </g>
     </g>
    </g>
    <g id="xtick_7">
     <g id="line2d_13">
      <path clip-path="url(#pd4e47cf458)" d="M 348.905169 307.584 
L 348.905169 41.472 
" style="fill:none;stroke:#b0b0b0;stroke-linecap:square;stroke-width:0.8;"/>
     </g>
     <g id="line2d_14">
      <g>
       <use style="stroke:#000000;stroke-width:0.8;" x="348.905169" xlink:href="#mec7a57b345" y="307.584"/>
      </g>
     </g>
     <g id="text_7">
      <!-- 15 07:29 -->
      <g transform="translate(326.544231 322.182437)scale(0.1 -0.1)">
       <use xlink:href="#DejaVuSans-31"/>
       <use x="63.623047" xlink:href="#DejaVuSans-35"/>
       <use x="127.246094" xlink:href="#DejaVuSans-20"/>
       <use x="159.033203" xlink:href="#DejaVuSans-30"/>
       <use x="222.65625" xlink:href="#DejaVuSans-37"/>
       <use x="286.279297" xlink:href="#DejaVuSans-3a"/>
       <use x="319.970703" xlink:href="#DejaVuSans-32"/>
       <use x="383.59375" xlink:href="#DejaVuSans-39"/>
      </g>
     </g>
    </g>
    <g id="xtick_8">
     <g id="line2d_15">
      <path clip-path="url(#pd4e47cf458)" d="M 395.291752 307.584 
L 395.291752 41.472 
" style="fill:none;stroke:#b0b0b0;stroke-linecap:square;stroke-width:0.8;"/>
     </g>
     <g id="line2d_16">
      <g>
       <use style="stroke:#000000;stroke-width:0.8;" x="395.291752" xlink:href="#mec7a57b345" y="307.584"/>
      </g>
     </g>
     <g id="text_8">
      <!-- 15 07:44 -->
      <g transform="translate(372.930814 322.182437)scale(0.1 -0.1)">
       <use xlink:href="#DejaVuSans-31"/>
       <use x="63.623047" xlink:href="#DejaVuSans-35"/>
       <use x="127.246094" xlink:href="#DejaVuSans-20"/>
       <use x="159.033203" xlink:href="#DejaVuSans-30"/>
       <use x="222.65625" xlink:href="#DejaVuSans-37"/>
       <use x="286.279297" xlink:href="#DejaVuSans-3a"/>
       <use x="319.970703" xlink:href="#DejaVuSans-34"/>
       <use x="383.59375" xlink:href="#DejaVuSans-34"/>
      </g>
     </g>
    </g>
    <g id="text_9">
     <!-- Time -->
     <defs>
      <path d="M -0.296875 72.90625 
L 61.375 72.90625 
L 61.375 64.59375 
L 35.5 64.59375 
L 35.5 0 
L 25.59375 0 
L 25.59375 64.59375 
L -0.296875 64.59375 
z
" id="DejaVuSans-54"/>
      <path d="M 9.421875 54.6875 
L 18.40625 54.6875 
L 18.40625 0 
L 9.421875 0 
z
M 9.421875 75.984375 
L 18.40625 75.984375 
L 18.40625 64.59375 
L 9.421875 64.59375 
z
" id="DejaVuSans-69"/>
      <path d="M 52 44.1875 
Q 55.375 50.25 60.0625 53.125 
Q 64.75 56 71.09375 56 
Q 79.640625 56 84.28125 50.015625 
Q 88.921875 44.046875 88.921875 33.015625 
L 88.921875 0 
L 79.890625 0 
L 79.890625 32.71875 
Q 79.890625 40.578125 77.09375 44.375 
Q 74.3125 48.1875 68.609375 48.1875 
Q 61.625 48.1875 57.5625 43.546875 
Q 53.515625 38.921875 53.515625 30.90625 
L 53.515625 0 
L 44.484375 0 
L 44.484375 32.71875 
Q 44.484375 40.625 41.703125 44.40625 
Q 38.921875 48.1875 33.109375 48.1875 
Q 26.21875 48.1875 22.15625 43.53125 
Q 18.109375 38.875 18.109375 30.90625 
L 18.109375 0 
L 9.078125 0 
L 9.078125 54.6875 
L 18.109375 54.6875 
L 18.109375 46.1875 
Q 21.1875 51.21875 25.484375 53.609375 
Q 29.78125 56 35.6875 56 
Q 41.65625 56 45.828125 52.96875 
Q 50 49.953125 52 44.1875 
" id="DejaVuSans-6d"/>
      <path d="M 56.203125 29.59375 
L 56.203125 25.203125 
L 14.890625 25.203125 
Q 15.484375 15.921875 20.484375 11.0625 
Q 25.484375 6.203125 34.421875 6.203125 
Q 39.59375 6.203125 44.453125 7.46875 
Q 49.3125 8.734375 54.109375 11.28125 
L 54.109375 2.78125 
Q 49.265625 0.734375 44.1875 -0.34375 
Q 39.109375 -1.421875 33.890625 -1.421875 
Q 20.796875 -1.421875 13.15625 6.1875 
Q 5.515625 13.8125 5.515625 26.8125 
Q 5.515625 40.234375 12.765625 48.109375 
Q 20.015625 56 32.328125 56 
Q 43.359375 56 49.78125 48.890625 
Q 56.203125 41.796875 56.203125 29.59375 
M 47.21875 32.234375 
Q 47.125 39.59375 43.09375 43.984375 
Q 39.0625 48.390625 32.421875 48.390625 
Q 24.90625 48.390625 20.390625 44.140625 
Q 15.875 39.890625 15.1875 32.171875 
z
" id="DejaVuSans-65"/>
     </defs>
     <g transform="translate(223.7725 335.860562)scale(0.1 -0.1)">
      <use xlink:href="#DejaVuSans-54"/>
      <use x="61.037109" xlink:href="#DejaVuSans-69"/>
      <use x="88.820312" xlink:href="#DejaVuSans-6d"/>
      <use x="186.232422" xlink:href="#DejaVuSans-65"/>
     </g>
    </g>
   </g>
   <g id="matplotlib.axis_2">
    <g id="ytick_1">
     <g id="line2d_17">
      <path clip-path="url(#pd4e47cf458)" d="M 57.6 293.092752 
L 414.72 293.092752 
" style="fill:none;stroke:#b0b0b0;stroke-linecap:square;stroke-width:0.8;"/>
     </g>
     <g id="line2d_18">
      <defs>
       <path d="M 0 0 
L -3.5 0 
" id="md5641ac132" style="stroke:#000000;stroke-width:0.8;"/>
      </defs>
      <g>
       <use style="stroke:#000000;stroke-width:0.8;" x="57.6" xlink:href="#md5641ac132" y="293.092752"/>
      </g>
     </g>
     <g id="text_10">
      <!-- 60 -->
      <g transform="translate(37.875 296.891971)scale(0.1 -0.1)">
       <use xlink:href="#DejaVuSans-36"/>
       <use x="63.623047" xlink:href="#DejaVuSans-30"/>
      </g>
     </g>
    </g>
    <g id="ytick_2">
     <g id="line2d_19">
      <path clip-path="url(#pd4e47cf458)" d="M 57.6 245.187802 
L 414.72 245.187802 
" style="fill:none;stroke:#b0b0b0;stroke-linecap:square;stroke-width:0.8;"/>
     </g>
     <g id="line2d_20">
      <g>
       <use style="stroke:#000000;stroke-width:0.8;" x="57.6" xlink:href="#md5641ac132" y="245.187802"/>
      </g>
     </g>
     <g id="text_11">
      <!-- 80 -->
      <defs>
       <path d="M 31.78125 34.625 
Q 24.75 34.625 20.71875 30.859375 
Q 16.703125 27.09375 16.703125 20.515625 
Q 16.703125 13.921875 20.71875 10.15625 
Q 24.75 6.390625 31.78125 6.390625 
Q 38.8125 6.390625 42.859375 10.171875 
Q 46.921875 13.96875 46.921875 20.515625 
Q 46.921875 27.09375 42.890625 30.859375 
Q 38.875 34.625 31.78125 34.625 
M 21.921875 38.8125 
Q 15.578125 40.375 12.03125 44.71875 
Q 8.5 49.078125 8.5 55.328125 
Q 8.5 64.0625 14.71875 69.140625 
Q 20.953125 74.21875 31.78125 74.21875 
Q 42.671875 74.21875 48.875 69.140625 
Q 55.078125 64.0625 55.078125 55.328125 
Q 55.078125 49.078125 51.53125 44.71875 
Q 48 40.375 41.703125 38.8125 
Q 48.828125 37.15625 52.796875 32.3125 
Q 56.78125 27.484375 56.78125 20.515625 
Q 56.78125 9.90625 50.3125 4.234375 
Q 43.84375 -1.421875 31.78125 -1.421875 
Q 19.734375 -1.421875 13.25 4.234375 
Q 6.78125 9.90625 6.78125 20.515625 
Q 6.78125 27.484375 10.78125 32.3125 
Q 14.796875 37.15625 21.921875 38.8125 
M 18.3125 54.390625 
Q 18.3125 48.734375 21.84375 45.5625 
Q 25.390625 42.390625 31.78125 42.390625 
Q 38.140625 42.390625 41.71875 45.5625 
Q 45.3125 48.734375 45.3125 54.390625 
Q 45.3125 60.0625 41.71875 63.234375 
Q 38.140625 66.40625 31.78125 66.40625 
Q 25.390625 66.40625 21.84375 63.234375 
Q 18.3125 60.0625 18.3125 54.390625 
" id="DejaVuSans-38"/>
      </defs>
      <g transform="translate(37.875 248.987021)scale(0.1 -0.1)">
       <use xlink:href="#DejaVuSans-38"/>
       <use x="63.623047" xlink:href="#DejaVuSans-30"/>
      </g>
     </g>
    </g>
    <g id="ytick_3">
     <g id="line2d_21">
      <path clip-path="url(#pd4e47cf458)" d="M 57.6 197.282851 
L 414.72 197.282851 
" style="fill:none;stroke:#b0b0b0;stroke-linecap:square;stroke-width:0.8;"/>
     </g>
     <g id="line2d_22">
      <g>
       <use style="stroke:#000000;stroke-width:0.8;" x="57.6" xlink:href="#md5641ac132" y="197.282851"/>
      </g>
     </g>
     <g id="text_12">
      <!-- 100 -->
      <g transform="translate(31.5125 201.08207)scale(0.1 -0.1)">
       <use xlink:href="#DejaVuSans-31"/>
       <use x="63.623047" xlink:href="#DejaVuSans-30"/>
       <use x="127.246094" xlink:href="#DejaVuSans-30"/>
      </g>
     </g>
    </g>
    <g id="ytick_4">
     <g id="line2d_23">
      <path clip-path="url(#pd4e47cf458)" d="M 57.6 149.377901 
L 414.72 149.377901 
" style="fill:none;stroke:#b0b0b0;stroke-linecap:square;stroke-width:0.8;"/>
     </g>
     <g id="line2d_24">
      <g>
       <use style="stroke:#000000;stroke-width:0.8;" x="57.6" xlink:href="#md5641ac132" y="149.377901"/>
      </g>
     </g>
     <g id="text_13">
      <!-- 120 -->
      <g transform="translate(31.5125 153.17712)scale(0.1 -0.1)">
       <use xlink:href="#DejaVuSans-31"/>
       <use x="63.623047" xlink:href="#DejaVuSans-32"/>
       <use x="127.246094" xlink:href="#DejaVuSans-30"/>
      </g>
     </g>
    </g>
    <g id="ytick_5">
     <g id="line2d_25">
      <path clip-path="url(#pd4e47cf458)" d="M 57.6 101.47295 
L 414.72 101.47295 
" style="fill:none;stroke:#b0b0b0;stroke-linecap:square;stroke-width:0.8;"/>
     </g>
     <g id="line2d_26">
      <g>
       <use style="stroke:#000000;stroke-width:0.8;" x="57.6" xlink:href="#md5641ac132" y="101.47295"/>
      </g>
     </g>
     <g id="text_14">
      <!-- 140 -->
      <g transform="translate(31.5125 105.272169)scale(0.1 -0.1)">
       <use xlink:href="#DejaVuSans-31"/>
       <use x="63.623047" xlink:href="#DejaVuSans-34"/>
       <use x="127.246094" xlink:href="#DejaVuSans-30"/>
      </g>
     </g>
    </g>
    <g id="ytick_6">
     <g id="line2d_27">
      <path clip-path="url(#pd4e47cf458)" d="M 57.6 53.568 
L 414.72 53.568 
" style="fill:none;stroke:#b0b0b0;stroke-linecap:square;stroke-width:0.8;"/>
     </g>
     <g id="line2d_28">
      <g>
       <use style="stroke:#000000;stroke-width:0.8;" x="57.6" xlink:href="#md5641ac132" y="53.568"/>
      </g>
     </g>
     <g id="text_15">
      <!-- 160 -->
      <g transform="translate(31.5125 57.367219)scale(0.1 -0.1)">
       <use xlink:href="#DejaVuSans-31"/>
       <use x="63.623047" xlink:href="#DejaVuSans-36"/>
       <use x="127.246094" xlink:href="#DejaVuSans-30"/>
      </g>
     </g>
    </g>
    <g id="text_16">
     <!-- Heart rate -->
     <defs>
      <path d="M 9.8125 72.90625 
L 19.671875 72.90625 
L 19.671875 43.015625 
L 55.515625 43.015625 
L 55.515625 72.90625 
L 65.375 72.90625 
L 65.375 0 
L 55.515625 0 
L 55.515625 34.71875 
L 19.671875 34.71875 
L 19.671875 0 
L 9.8125 0 
z
" id="DejaVuSans-48"/>
      <path d="M 34.28125 27.484375 
Q 23.390625 27.484375 19.1875 25 
Q 14.984375 22.515625 14.984375 16.5 
Q 14.984375 11.71875 18.140625 8.90625 
Q 21.296875 6.109375 26.703125 6.109375 
Q 34.1875 6.109375 38.703125 11.40625 
Q 43.21875 16.703125 43.21875 25.484375 
L 43.21875 27.484375 
z
M 52.203125 31.203125 
L 52.203125 0 
L 43.21875 0 
L 43.21875 8.296875 
Q 40.140625 3.328125 35.546875 0.953125 
Q 30.953125 -1.421875 24.3125 -1.421875 
Q 15.921875 -1.421875 10.953125 3.296875 
Q 6 8.015625 6 15.921875 
Q 6 25.140625 12.171875 29.828125 
Q 18.359375 34.515625 30.609375 34.515625 
L 43.21875 34.515625 
L 43.21875 35.40625 
Q 43.21875 41.609375 39.140625 45 
Q 35.0625 48.390625 27.6875 48.390625 
Q 23 48.390625 18.546875 47.265625 
Q 14.109375 46.140625 10.015625 43.890625 
L 10.015625 52.203125 
Q 14.9375 54.109375 19.578125 55.046875 
Q 24.21875 56 28.609375 56 
Q 40.484375 56 46.34375 49.84375 
Q 52.203125 43.703125 52.203125 31.203125 
" id="DejaVuSans-61"/>
      <path d="M 41.109375 46.296875 
Q 39.59375 47.171875 37.8125 47.578125 
Q 36.03125 48 33.890625 48 
Q 26.265625 48 22.1875 43.046875 
Q 18.109375 38.09375 18.109375 28.8125 
L 18.109375 0 
L 9.078125 0 
L 9.078125 54.6875 
L 18.109375 54.6875 
L 18.109375 46.1875 
Q 20.953125 51.171875 25.484375 53.578125 
Q 30.03125 56 36.53125 56 
Q 37.453125 56 38.578125 55.875 
Q 39.703125 55.765625 41.0625 55.515625 
z
" id="DejaVuSans-72"/>
      <path d="M 18.3125 70.21875 
L 18.3125 54.6875 
L 36.8125 54.6875 
L 36.8125 47.703125 
L 18.3125 47.703125 
L 18.3125 18.015625 
Q 18.3125 11.328125 20.140625 9.421875 
Q 21.96875 7.515625 27.59375 7.515625 
L 36.8125 7.515625 
L 36.8125 0 
L 27.59375 0 
Q 17.1875 0 13.234375 3.875 
Q 9.28125 7.765625 9.28125 18.015625 
L 9.28125 47.703125 
L 2.6875 47.703125 
L 2.6875 54.6875 
L 9.28125 54.6875 
L 9.28125 70.21875 
z
" id="DejaVuSans-74"/>
     </defs>
     <g transform="translate(25.432812 200.189719)rotate(-90)scale(0.1 -0.1)">
      <use xlink:href="#DejaVuSans-48"/>
      <use x="75.195312" xlink:href="#DejaVuSans-65"/>
      <use x="136.71875" xlink:href="#DejaVuSans-61"/>
      <use x="197.998047" xlink:href="#DejaVuSans-72"/>
      <use x="239.111328" xlink:href="#DejaVuSans-74"/>
      <use x="278.320312" xlink:href="#DejaVuSans-20"/>
      <use x="310.107422" xlink:href="#DejaVuSans-72"/>
      <use x="351.220703" xlink:href="#DejaVuSans-61"/>
      <use x="412.5" xlink:href="#DejaVuSans-74"/>
      <use x="451.708984" xlink:href="#DejaVuSans-65"/>
     </g>
    </g>
   </g>
   <g id="line2d_29">
    <path clip-path="url(#pd4e47cf458)" d="M 74.038889 261.954535 
L 74.09043 259.559287 
L 74.451214 266.74503 
L 74.96662 288.302257 
L 75.585109 295.488 
L 76.51284 264.349782 
L 76.925166 257.16404 
L 77.492113 249.978297 
L 77.646735 242.792554 
L 78.368304 235.606812 
L 78.522926 228.421069 
L 79.502198 235.606812 
L 79.811442 228.421069 
L 80.069145 235.606812 
L 80.533011 228.421069 
L 80.893795 235.606812 
L 81.357661 230.816317 
L 81.718446 230.816317 
L 82.336934 218.840079 
L 85.532454 211.654337 
L 86.254023 204.468594 
L 87.078673 230.816317 
L 87.387917 233.211564 
L 87.59408 226.025822 
L 88.109486 216.444832 
L 88.264108 209.259089 
L 88.779515 202.073347 
L 89.655705 209.259089 
L 90.171113 202.073347 
L 90.583437 209.259089 
L 90.634978 216.444832 
L 90.944222 223.630574 
L 91.253466 238.002059 
L 91.717332 247.58305 
L 92.181198 240.397307 
L 92.902766 204.468594 
L 93.16047 202.073347 
L 93.469714 204.468594 
L 93.882039 190.097109 
L 94.088202 182.911366 
L 94.448986 194.887604 
L 94.861311 180.516119 
L 95.273636 158.958891 
L 95.634421 146.982653 
L 95.995205 156.563644 
L 96.35599 156.563644 
L 96.613693 151.773149 
L 96.819856 144.587406 
L 97.077559 142.192158 
L 97.283721 144.587406 
L 97.592966 146.982653 
L 97.902209 146.982653 
L 98.159913 144.587406 
L 98.520697 135.006416 
L 98.933022 135.006416 
L 99.55151 115.844436 
L 99.860754 115.844436 
L 100.066916 120.634931 
L 100.32462 123.030178 
L 100.840026 118.239683 
L 101.252352 125.425426 
L 101.355433 130.215921 
L 101.92238 130.215921 
L 102.180083 125.425426 
L 102.437787 123.030178 
L 102.798571 127.820673 
L 103.056274 127.820673 
L 103.571681 118.239683 
L 103.880925 120.634931 
L 104.29325 120.634931 
L 104.550953 118.239683 
L 105.1179 123.030178 
L 105.272522 123.030178 
L 106.097172 111.053941 
L 106.406416 111.053941 
L 106.818742 118.239683 
L 107.334148 108.658693 
L 107.591852 108.658693 
L 108.004177 120.634931 
L 108.31342 120.634931 
L 108.571124 115.844436 
L 108.828827 108.658693 
L 109.08653 108.658693 
L 109.601937 113.449188 
L 109.808099 106.263446 
L 110.065803 101.47295 
L 110.323505 99.077703 
L 110.581209 101.47295 
L 110.941994 108.658693 
L 111.199697 108.658693 
L 111.4574 103.868198 
L 111.715103 103.868198 
L 111.972807 113.449188 
L 112.178969 127.820673 
L 112.591294 132.611168 
L 112.900538 132.611168 
L 113.209782 137.401663 
L 113.519026 144.587406 
L 113.673648 144.587406 
L 113.82827 146.982653 
L 114.137514 146.982653 
L 114.395217 142.192158 
L 114.65292 135.006416 
L 114.910623 132.611168 
L 115.219868 135.006416 
L 115.322949 137.401663 
L 115.632193 137.401663 
L 115.889896 132.611168 
L 116.147599 130.215921 
L 116.817627 130.215921 
L 117.333034 120.634931 
L 117.899981 120.634931 
L 118.157684 127.820673 
L 118.57001 130.215921 
L 119.136957 101.47295 
L 119.446201 99.077703 
L 119.600822 99.077703 
L 119.910067 101.47295 
L 120.683176 101.47295 
L 120.786257 103.868198 
L 121.147042 106.263446 
L 121.404745 106.263446 
L 121.662448 101.47295 
L 121.868611 94.287208 
L 122.126314 91.89196 
L 122.229395 94.287208 
L 122.487099 94.287208 
L 122.744802 96.682455 
L 123.002505 94.287208 
L 123.41483 99.077703 
L 123.827156 108.658693 
L 124.342562 108.658693 
L 124.600266 113.449188 
L 124.909509 113.449188 
L 125.218753 111.053941 
L 125.476457 106.263446 
L 125.682619 99.077703 
L 125.991863 99.077703 
L 126.661891 113.449188 
L 127.435001 106.263446 
L 127.641164 111.053941 
L 127.950408 113.449188 
L 128.465814 108.658693 
L 128.878139 101.47295 
L 129.032761 101.47295 
L 129.290464 103.868198 
L 129.70279 99.077703 
L 129.960493 99.077703 
L 130.52744 108.658693 
L 131.042846 108.658693 
L 131.30055 103.868198 
L 131.558253 103.868198 
L 131.815956 106.263446 
L 131.970578 106.263446 
L 132.485984 127.820673 
L 133.310635 142.192158 
L 133.516798 149.377901 
L 133.929122 156.563644 
L 134.49607 163.749386 
L 135.887668 156.563644 
L 136.248452 163.749386 
L 136.815399 170.935129 
L 138.103915 178.120871 
L 140.217082 185.306614 
L 140.526326 178.120871 
L 140.732489 185.306614 
L 141.093273 182.911366 
L 142.124086 113.449188 
L 142.381789 106.263446 
L 142.536411 106.263446 
L 143.567224 70.334733 
L 144.03109 65.544238 
L 144.598037 65.544238 
L 144.701118 67.939485 
L 145.010362 70.334733 
L 145.422688 70.334733 
L 145.731931 72.72998 
L 146.762744 103.868198 
L 147.020447 99.077703 
L 147.948179 89.496713 
L 148.308964 89.496713 
L 148.875911 79.915723 
L 149.082074 79.915723 
L 149.906724 89.496713 
L 150.009805 87.101465 
L 150.267509 89.496713 
L 150.473671 87.101465 
L 151.19524 70.334733 
L 151.349862 70.334733 
L 151.452943 67.939485 
L 152.226053 65.544238 
L 152.741459 60.753743 
L 153.669191 60.753743 
L 154.236138 67.939485 
L 154.648464 63.14899 
L 154.803086 65.544238 
L 155.370033 89.496713 
L 155.679276 89.496713 
L 155.782358 87.101465 
L 156.040061 89.496713 
L 156.297764 94.287208 
L 156.400846 91.89196 
L 156.813171 96.682455 
L 157.431658 106.263446 
L 157.689362 106.263446 
L 158.514012 99.077703 
L 158.617094 99.077703 
L 158.823256 101.47295 
L 158.926337 99.077703 
L 159.08096 99.077703 
L 159.338663 94.287208 
L 159.596366 91.89196 
L 159.699447 94.287208 
L 159.95715 91.89196 
L 160.781801 67.939485 
L 161.194126 60.753743 
L 161.709532 55.963248 
L 162.224939 55.963248 
L 163.049589 72.72998 
L 163.307292 75.125228 
L 163.771159 70.334733 
L 163.977321 70.334733 
L 164.131943 75.125228 
L 164.441187 91.89196 
L 164.853512 99.077703 
L 165.059675 96.682455 
L 165.420459 96.682455 
L 165.729703 91.89196 
L 166.24511 87.101465 
L 166.554354 91.89196 
L 166.812057 91.89196 
L 167.327463 82.31097 
L 167.739788 82.31097 
L 167.945951 84.706218 
L 168.152113 82.31097 
L 168.255195 84.706218 
L 168.564439 87.101465 
L 168.822142 84.706218 
L 169.749874 65.544238 
L 170.522983 63.14899 
L 171.502256 58.358495 
L 171.8115 60.753743 
L 172.172285 70.334733 
L 172.739231 65.544238 
L 173.048475 65.544238 
L 173.203097 67.939485 
L 173.306178 65.544238 
L 173.4608 67.939485 
L 173.873126 79.915723 
L 173.976207 79.915723 
L 174.336991 87.101465 
L 174.594695 84.706218 
L 175.110101 89.496713 
L 175.367805 89.496713 
L 175.573967 91.89196 
L 175.934752 91.89196 
L 176.243995 87.101465 
L 176.450158 87.101465 
L 176.707861 82.31097 
L 177.017105 87.101465 
L 177.120186 87.101465 
L 177.223268 89.496713 
L 177.480971 87.101465 
L 177.738674 87.101465 
L 177.996377 84.706218 
L 178.460243 75.125228 
L 179.078731 60.753743 
L 180.315707 55.963248 
L 180.831113 53.568 
L 181.191898 58.358495 
L 182.17117 87.101465 
L 182.583495 79.915723 
L 182.738117 82.31097 
L 183.150442 103.868198 
L 183.356605 106.263446 
L 183.408145 108.658693 
L 183.614308 106.263446 
L 183.82047 103.868198 
L 184.851284 103.868198 
L 185.212068 108.658693 
L 185.315149 106.263446 
L 185.572853 106.263446 
L 186.088259 101.47295 
L 186.294422 96.682455 
L 186.603666 96.682455 
L 186.91291 101.47295 
L 187.582938 106.263446 
L 188.407588 99.077703 
L 189.077617 84.706218 
L 189.696105 77.520475 
L 190.314592 72.72998 
L 190.726918 65.544238 
L 191.345406 72.72998 
L 192.118515 89.496713 
L 192.633922 103.868198 
L 193.30395 108.658693 
L 193.716275 108.658693 
L 194.437844 123.030178 
L 194.85017 118.239683 
L 195.365576 118.239683 
L 195.777902 123.030178 
L 195.984064 123.030178 
L 196.293308 118.239683 
L 196.551011 111.053941 
L 197.27258 103.868198 
L 197.633365 87.101465 
L 197.891068 82.31097 
L 198.303393 70.334733 
L 198.458015 72.72998 
L 198.973422 91.89196 
L 199.128044 94.287208 
L 199.334206 94.287208 
L 199.64345 101.47295 
L 200.107316 101.47295 
L 200.313478 96.682455 
L 200.571182 96.682455 
L 200.777344 94.287208 
L 200.880425 94.287208 
L 200.983507 96.682455 
L 201.24121 94.287208 
L 201.705076 87.101465 
L 202.323564 87.101465 
L 202.426645 89.496713 
L 202.632807 87.101465 
L 202.890511 82.31097 
L 203.66362 75.125228 
L 204.282108 60.753743 
L 204.900596 55.963248 
L 205.519083 55.963248 
L 206.034491 53.568 
L 206.498356 60.753743 
L 206.8076 63.14899 
L 207.271466 58.358495 
L 207.477629 55.963248 
L 207.632251 58.358495 
L 208.302279 77.520475 
L 208.40536 77.520475 
L 208.817685 84.706218 
L 209.075389 87.101465 
L 209.281551 87.101465 
L 209.539254 89.496713 
L 210.209282 89.496713 
L 210.312364 91.89196 
L 210.621608 94.287208 
L 210.879312 91.89196 
L 211.394718 82.31097 
L 211.910124 89.496713 
L 212.786315 118.239683 
L 213.817128 139.796911 
L 214.023291 146.982653 
L 215.105645 154.168396 
L 215.878754 142.192158 
L 216.497242 142.192158 
L 217.218811 127.820673 
L 217.528055 123.030178 
L 217.837299 120.634931 
L 218.404246 113.449188 
L 218.610408 113.449188 
L 219.228897 108.658693 
L 219.795844 94.287208 
L 220.208169 89.496713 
L 220.620493 82.31097 
L 221.393604 77.520475 
L 222.012091 70.334733 
L 222.630579 63.14899 
L 223.042904 63.14899 
L 223.661392 72.72998 
L 224.022177 77.520475 
L 224.743746 87.101465 
L 225.156071 87.101465 
L 225.619937 82.31097 
L 226.083803 77.520475 
L 226.341506 75.125228 
L 226.444587 75.125228 
L 226.65075 79.915723 
L 226.959994 94.287208 
L 227.166156 99.077703 
L 227.578481 99.077703 
L 227.681562 96.682455 
L 228.19697 101.47295 
L 228.506213 106.263446 
L 228.763916 106.263446 
L 229.227782 101.47295 
L 229.537026 101.47295 
L 230.052433 96.682455 
L 230.67092 96.682455 
L 231.031704 101.47295 
L 231.340949 99.077703 
L 232.165599 87.101465 
L 232.629465 82.31097 
L 232.99025 75.125228 
L 233.505656 67.939485 
L 233.557197 70.334733 
L 234.948794 58.358495 
L 235.206497 58.358495 
L 235.36112 60.753743 
L 235.670363 63.14899 
L 235.928067 63.14899 
L 236.082688 65.544238 
L 236.18577 63.14899 
L 236.701176 77.520475 
L 236.958879 91.89196 
L 237.165042 94.287208 
L 237.216583 96.682455 
L 237.371205 94.287208 
L 237.835071 94.287208 
L 238.092773 99.077703 
L 238.814343 91.89196 
L 238.968965 94.287208 
L 239.329749 94.287208 
L 239.845156 89.496713 
L 240.102859 89.496713 
L 240.515184 94.287208 
L 240.824428 94.287208 
L 241.082131 89.496713 
L 241.339835 82.31097 
L 241.597538 79.915723 
L 241.906782 75.125228 
L 243.401461 65.544238 
L 243.968408 65.544238 
L 244.638436 58.358495 
L 244.793058 58.358495 
L 246.287737 101.47295 
L 246.54544 108.658693 
L 247.112388 113.449188 
L 247.421631 111.053941 
L 247.627794 111.053941 
L 247.833956 108.658693 
L 247.988578 111.053941 
L 248.658607 137.401663 
L 248.710147 137.401663 
L 249.122473 127.820673 
L 249.68942 123.030178 
L 249.947123 118.239683 
L 250.51407 123.030178 
L 250.926395 123.030178 
L 251.441802 111.053941 
L 251.957208 106.263446 
L 252.214911 111.053941 
L 252.421074 113.449188 
L 253.297265 120.634931 
L 253.864212 127.820673 
L 254.585782 142.192158 
L 254.895025 149.377901 
L 255.358891 156.563644 
L 256.235082 149.377901 
L 256.750488 137.401663 
L 257.420516 125.425426 
L 257.987464 111.053941 
L 258.245167 106.263446 
L 259.018277 82.31097 
L 259.482143 75.125228 
L 260.100631 75.125228 
L 260.512956 77.520475 
L 261.079903 77.520475 
L 261.286066 75.125228 
L 261.440688 77.520475 
L 262.110716 106.263446 
L 262.213798 106.263446 
L 262.626122 111.053941 
L 262.935366 113.449188 
L 263.24461 111.053941 
L 263.502314 106.263446 
L 264.069261 106.263446 
L 264.172342 108.658693 
L 264.533126 113.449188 
L 265.048533 108.658693 
L 265.770102 108.658693 
L 265.873183 111.053941 
L 266.182427 108.658693 
L 267.522484 87.101465 
L 268.192513 72.72998 
L 268.450216 72.72998 
L 269.687191 67.939485 
L 270.151057 72.72998 
L 270.511841 77.520475 
L 270.975708 77.520475 
L 271.18187 79.915723 
L 271.336492 79.915723 
L 271.439573 82.31097 
L 271.95498 101.47295 
L 272.212683 103.868198 
L 272.418846 101.47295 
L 272.72809 103.868198 
L 272.77963 101.47295 
L 273.037333 103.868198 
L 275.305122 103.868198 
L 275.717447 108.658693 
L 275.820529 108.658693 
L 276.129772 103.868198 
L 276.439016 103.868198 
L 276.69672 101.47295 
L 276.954423 96.682455 
L 277.366748 94.287208 
L 278.758346 87.101465 
L 278.912967 89.496713 
L 279.479914 82.31097 
L 280.304565 67.939485 
L 280.71689 67.939485 
L 280.768431 65.544238 
L 280.923052 67.939485 
L 281.335378 70.334733 
L 281.593081 72.72998 
L 282.005406 72.72998 
L 282.36619 77.520475 
L 282.623894 94.287208 
L 282.830057 101.47295 
L 283.036219 101.47295 
L 283.397004 103.868198 
L 283.706247 106.263446 
L 283.963951 106.263446 
L 284.479358 96.682455 
L 284.68552 96.682455 
L 285.149386 106.263446 
L 285.45863 106.263446 
L 286.077117 94.287208 
L 286.695605 106.263446 
L 286.747146 106.263446 
L 287.314093 96.682455 
L 287.520256 89.496713 
L 287.777959 84.706218 
L 288.241825 79.915723 
L 289.118016 58.358495 
L 289.684963 53.568 
L 290.612695 53.568 
L 290.818857 55.963248 
L 291.643508 60.753743 
L 291.79813 55.963248 
L 292.107373 60.753743 
L 292.519699 82.31097 
L 292.777402 87.101465 
L 292.880483 84.706218 
L 293.035105 84.706218 
L 293.138186 87.101465 
L 293.498971 89.496713 
L 293.808215 94.287208 
L 294.065918 91.89196 
L 294.323622 94.287208 
L 294.890569 94.287208 
L 295.148272 91.89196 
L 295.663679 91.89196 
L 295.972922 94.287208 
L 296.230626 96.682455 
L 296.59141 96.682455 
L 297.158357 91.89196 
L 297.41606 87.101465 
L 297.828385 82.31097 
L 298.756117 63.14899 
L 298.96228 60.753743 
L 299.993093 55.963248 
L 300.405418 58.358495 
L 301.333149 72.72998 
L 301.951637 87.101465 
L 302.209341 87.101465 
L 302.621665 91.89196 
L 302.776288 94.287208 
L 302.93091 101.47295 
L 303.291694 101.47295 
L 303.600938 106.263446 
L 303.910182 111.053941 
L 304.683292 103.868198 
L 305.456401 103.868198 
L 306.332592 96.682455 
L 306.435674 96.682455 
L 306.796458 101.47295 
L 307.054162 99.077703 
L 307.569568 87.101465 
L 307.878812 84.706218 
L 308.188056 84.706218 
L 308.4973 87.101465 
L 309.064247 87.101465 
L 309.373491 84.706218 
L 310.09506 89.496713 
L 310.662007 84.706218 
L 310.91971 87.101465 
L 311.125873 89.496713 
L 311.486657 94.287208 
L 312.105145 94.287208 
L 312.414389 91.89196 
L 312.672092 91.89196 
L 312.775174 94.287208 
L 313.135958 96.682455 
L 313.960608 89.496713 
L 314.115231 87.101465 
L 314.424474 89.496713 
L 314.733718 96.682455 
L 315.094503 99.077703 
L 315.352206 99.077703 
L 315.816072 91.89196 
L 315.919153 91.89196 
L 316.022234 94.287208 
L 316.537641 99.077703 
L 317.156128 99.077703 
L 317.619994 96.682455 
L 317.723075 96.682455 
L 317.877698 99.077703 
L 318.238482 99.077703 
L 318.496185 96.682455 
L 318.85697 101.47295 
L 319.114673 108.658693 
L 319.578539 115.844436 
L 320.248568 111.053941 
L 320.918596 101.47295 
L 321.124759 103.868198 
L 321.434002 106.263446 
L 322.000949 101.47295 
L 322.310194 94.287208 
L 322.413275 96.682455 
L 322.567897 96.682455 
L 322.928681 101.47295 
L 323.907954 101.47295 
L 324.062576 99.077703 
L 324.42336 99.077703 
L 324.732604 96.682455 
L 324.990307 91.89196 
L 325.351092 89.496713 
L 326.536527 111.053941 
L 326.691149 118.239683 
L 327.979665 146.982653 
L 328.39199 154.168396 
L 328.752775 151.773149 
L 329.113559 137.401663 
L 329.21664 130.215921 
L 329.474344 123.030178 
L 329.886669 118.239683 
L 330.092832 115.844436 
L 330.350535 108.658693 
L 330.969023 103.868198 
L 331.278266 103.868198 
L 332.051376 99.077703 
L 332.412161 91.89196 
L 332.824486 87.101465 
L 333.236811 84.706218 
L 333.752217 89.496713 
L 334.164543 94.287208 
L 334.525327 94.287208 
L 335.092274 99.077703 
L 335.298437 101.47295 
L 335.762303 101.47295 
L 336.020006 99.077703 
L 336.277709 91.89196 
L 336.535412 91.89196 
L 337.308522 108.658693 
L 338.133173 108.658693 
L 338.597039 99.077703 
L 338.75166 99.077703 
L 339.112445 106.263446 
L 339.782474 113.449188 
L 340.29788 120.634931 
L 340.607124 127.820673 
L 340.967908 142.192158 
L 341.483315 149.377901 
L 342.977994 156.563644 
L 343.132616 163.749386 
L 343.648022 173.330376 
L 343.854185 180.516119 
L 344.730376 173.330376 
L 345.451945 166.144634 
L 347.307408 158.958891 
L 347.977437 166.144634 
L 348.080518 173.330376 
L 348.905169 187.701861 
L 350.65755 194.887604 
L 351.379119 187.701861 
L 351.739904 173.330376 
L 353.02842 158.958891 
L 353.749989 166.144634 
L 353.904611 175.725624 
L 354.986965 185.306614 
L 357.151672 178.120871 
L 357.460916 163.749386 
L 358.130944 156.563644 
L 359.007135 170.935129 
L 359.419461 163.749386 
L 359.934867 170.935129 
L 360.244111 163.749386 
L 361.635708 178.120871 
L 362.048034 168.539881 
L 362.460359 146.982653 
L 362.769603 154.168396 
L 363.078846 146.982653 
L 363.697334 139.796911 
L 364.88277 132.611168 
L 365.398176 139.796911 
L 366.274367 132.611168 
L 367.30518 70.334733 
L 367.923668 65.544238 
L 368.232912 65.544238 
L 368.593696 72.72998 
L 368.851399 82.31097 
L 369.212184 89.496713 
L 370.913025 146.982653 
L 371.943838 154.168396 
L 372.201541 161.354139 
L 372.92311 168.539881 
L 373.232354 161.354139 
L 373.64468 168.539881 
L 374.211627 161.354139 
L 374.366249 168.539881 
L 374.830114 161.354139 
L 376.015549 154.168396 
L 376.479415 135.006416 
L 376.788659 130.215921 
L 376.943281 125.425426 
L 377.252525 120.634931 
L 377.871013 115.844436 
L 378.747204 91.89196 
L 379.159529 87.101465 
L 379.778017 82.31097 
L 381.324236 82.31097 
L 381.58194 87.101465 
L 381.788102 94.287208 
L 382.35505 101.47295 
L 382.767375 99.077703 
L 383.385862 99.077703 
L 383.695106 96.682455 
L 384.210513 101.47295 
L 384.468216 103.868198 
L 385.241326 118.239683 
L 385.653651 115.844436 
L 385.859813 111.053941 
L 386.117517 103.868198 
L 386.478301 99.077703 
L 386.942167 101.47295 
L 387.302951 106.263446 
L 387.612195 108.658693 
L 387.921439 123.030178 
L 388.179143 139.796911 
L 388.385305 142.192158 
L 388.539927 139.796911 
L 388.900712 132.611168 
L 389.158415 130.215921 
L 389.261496 130.215921 
L 389.519199 135.006416 
L 389.983065 135.006416 
L 390.240768 132.611168 
L 390.550012 130.215921 
L 391.683907 111.053941 
L 392.250854 106.263446 
L 392.766261 96.682455 
L 393.023963 89.496713 
L 393.693992 82.31097 
L 394.36402 82.31097 
L 394.982508 89.496713 
L 395.600996 111.053941 
L 395.961781 127.820673 
L 396.477187 139.796911 
L 397.044134 146.982653 
L 397.198756 154.168396 
L 398.074947 168.539881 
L 398.178028 175.725624 
L 398.487272 180.516119 
L 398.487272 180.516119 
" style="fill:none;stroke:#1f77b4;stroke-linecap:square;stroke-width:1.5;"/>
   </g>
   <g id="line2d_30">
    <path clip-path="url(#pd4e47cf458)" d="M 73.832727 283.511762 
L 74.296592 278.721267 
L 74.708918 273.930772 
L 75.172783 295.488 
L 75.636649 290.697505 
L 76.100515 271.535525 
L 76.51284 247.58305 
L 76.770543 242.792554 
L 77.028247 252.373545 
L 77.492113 252.373545 
L 77.904438 240.397307 
L 78.471385 233.211564 
L 78.677547 223.630574 
L 79.141413 146.982653 
L 79.605279 118.239683 
L 80.069145 132.611168 
L 80.584551 139.796911 
L 81.099958 146.982653 
L 81.718446 168.539881 
L 82.130771 137.401663 
L 82.594636 115.844436 
L 83.419287 144.587406 
L 83.831612 163.749386 
L 84.295478 178.120871 
L 84.707803 185.306614 
L 85.22321 209.259089 
L 85.635535 216.444832 
L 85.944779 226.025822 
L 86.408645 216.444832 
L 86.82097 211.654337 
L 87.284836 194.887604 
L 88.367189 240.397307 
L 88.676434 233.211564 
L 88.934137 235.606812 
L 89.19184 245.187802 
L 89.810328 245.187802 
L 90.274194 240.397307 
L 91.150384 221.235327 
L 91.614251 226.025822 
L 92.078116 233.211564 
L 92.335819 233.211564 
L 92.696604 230.816317 
L 92.851226 206.863842 
L 93.057389 197.282851 
L 93.315092 180.516119 
L 93.572795 180.516119 
L 93.778957 173.330376 
L 94.191283 142.192158 
L 94.294364 146.982653 
L 94.448986 146.982653 
L 94.603608 151.773149 
L 94.809771 154.168396 
L 95.170555 137.401663 
L 95.58288 149.377901 
L 96.046746 146.982653 
L 96.510612 187.701861 
L 96.716774 180.516119 
L 96.922937 180.516119 
L 97.232181 161.354139 
L 97.644506 156.563644 
L 97.850669 158.958891 
L 98.056831 166.144634 
L 98.366075 182.911366 
L 98.778401 178.120871 
L 99.55151 161.354139 
L 100.015376 161.354139 
L 100.840026 132.611168 
L 101.046189 115.844436 
L 101.14927 89.496713 
L 101.303892 89.496713 
L 101.406973 99.077703 
L 101.92238 99.077703 
L 102.128543 101.47295 
L 102.334705 99.077703 
L 102.437787 103.868198 
L 102.592409 103.868198 
L 103.004734 125.425426 
L 103.417059 139.796911 
L 103.623221 139.796911 
L 103.726303 135.006416 
L 104.087087 135.006416 
L 104.29325 132.611168 
L 104.499412 132.611168 
L 104.705575 130.215921 
L 104.911738 130.215921 
L 105.014819 125.425426 
L 105.169441 125.425426 
L 105.375604 113.449188 
L 105.787929 103.868198 
L 105.994091 91.89196 
L 106.200254 96.682455 
L 106.561038 99.077703 
L 106.818742 99.077703 
L 107.024904 96.682455 
L 107.437229 87.101465 
L 107.54031 89.496713 
L 107.694933 89.496713 
L 107.952636 106.263446 
L 108.158799 103.868198 
L 108.571124 108.658693 
L 108.725746 103.868198 
L 109.034989 84.706218 
L 109.447315 91.89196 
L 109.85964 111.053941 
L 110.065803 101.47295 
L 110.271965 101.47295 
L 110.375046 94.287208 
L 110.68429 94.287208 
L 110.838912 91.89196 
L 111.251237 103.868198 
L 111.4574 99.077703 
L 111.663562 101.47295 
L 111.766644 106.263446 
L 111.921266 106.263446 
L 112.178969 103.868198 
L 112.436673 115.844436 
L 112.694376 130.215921 
L 112.900538 127.820673 
L 113.158241 123.030178 
L 113.261322 103.868198 
L 113.415945 103.868198 
L 113.519026 94.287208 
L 113.673648 94.287208 
L 113.879811 99.077703 
L 114.085973 94.287208 
L 114.498298 103.868198 
L 114.807542 101.47295 
L 114.910623 101.47295 
L 115.116786 96.682455 
L 115.322949 99.077703 
L 115.735274 99.077703 
L 116.147599 77.520475 
L 116.559925 67.939485 
L 116.766087 67.939485 
L 117.281493 82.31097 
L 117.487656 79.915723 
L 117.693819 79.915723 
L 117.7969 99.077703 
L 118.054603 108.658693 
L 118.260766 108.658693 
L 118.673091 118.239683 
L 118.879253 130.215921 
L 119.085416 132.611168 
L 119.549282 123.030178 
L 119.755445 127.820673 
L 119.910067 125.425426 
L 120.322392 125.425426 
L 120.528554 120.634931 
L 120.631635 132.611168 
L 120.786257 132.611168 
L 120.99242 137.401663 
L 121.404745 108.658693 
L 121.610908 106.263446 
L 121.920152 111.053941 
L 122.023233 111.053941 
L 122.229395 101.47295 
L 122.435558 89.496713 
L 122.796343 89.496713 
L 123.002505 87.101465 
L 123.311749 79.915723 
L 123.466371 79.915723 
L 123.878696 111.053941 
L 124.084859 103.868198 
L 124.291022 103.868198 
L 124.754887 108.658693 
L 124.96105 113.449188 
L 125.115672 113.449188 
L 125.527997 127.820673 
L 125.73416 123.030178 
L 126.043404 125.425426 
L 126.198026 125.425426 
L 126.816514 132.611168 
L 127.022676 130.215921 
L 127.589623 106.263446 
L 127.692704 106.263446 
L 127.898867 96.682455 
L 128.105029 99.077703 
L 128.311193 106.263446 
L 128.517355 106.263446 
L 128.723517 103.868198 
L 129.084302 106.263446 
L 129.290464 108.658693 
L 129.496627 115.844436 
L 129.70279 111.053941 
L 129.908952 94.287208 
L 130.115115 91.89196 
L 130.321278 94.287208 
L 130.475899 91.89196 
L 130.836684 108.658693 
L 130.991306 101.47295 
L 131.197469 84.706218 
L 131.403631 84.706218 
L 131.609794 91.89196 
L 131.712875 108.658693 
L 132.846769 120.634931 
L 133.259094 132.611168 
L 134.599151 132.611168 
L 135.063017 139.796911 
L 135.475343 137.401663 
L 135.939208 137.401663 
L 136.351533 142.192158 
L 137.279265 142.192158 
L 137.743131 156.563644 
L 138.206996 158.958891 
L 139.134728 180.516119 
L 139.598594 180.516119 
L 140.06246 178.120871 
L 140.474785 178.120871 
L 140.629407 173.330376 
L 140.938651 173.330376 
L 141.196354 163.749386 
L 141.402517 151.773149 
L 141.60868 149.377901 
L 141.814842 151.773149 
L 142.381789 151.773149 
L 142.897196 142.192158 
L 143.206439 127.820673 
L 143.876468 127.820673 
L 144.134171 125.425426 
L 144.340333 108.658693 
L 144.443415 108.658693 
L 144.701118 89.496713 
L 144.855741 91.89196 
L 145.268065 111.053941 
L 145.422688 106.263446 
L 145.783472 72.72998 
L 145.886554 72.72998 
L 146.40196 89.496713 
L 146.608122 101.47295 
L 146.865826 96.682455 
L 147.226611 72.72998 
L 147.381232 67.939485 
L 147.690476 75.125228 
L 147.845098 60.753743 
L 148.257423 60.753743 
L 148.515126 65.544238 
L 148.875911 70.334733 
L 149.030533 60.753743 
L 149.236696 63.14899 
L 149.494399 72.72998 
L 149.700561 82.31097 
L 150.112886 108.658693 
L 150.525212 135.006416 
L 150.731374 127.820673 
L 150.937537 108.658693 
L 151.092159 106.263446 
L 151.556025 108.658693 
L 151.762187 111.053941 
L 151.96835 118.239683 
L 152.226053 118.239683 
L 152.432216 130.215921 
L 152.586838 125.425426 
L 152.741459 125.425426 
L 153.102244 103.868198 
L 153.308407 115.844436 
L 153.411488 115.844436 
L 153.669191 125.425426 
L 153.823813 127.820673 
L 154.081516 120.634931 
L 154.33922 115.844436 
L 154.493842 106.263446 
L 154.854626 65.544238 
L 155.009248 65.544238 
L 155.524654 91.89196 
L 155.98852 91.89196 
L 156.194683 94.287208 
L 156.400846 91.89196 
L 156.607008 91.89196 
L 156.813171 94.287208 
L 157.019333 91.89196 
L 157.225496 96.682455 
L 157.431658 99.077703 
L 157.586281 99.077703 
L 157.792443 108.658693 
L 157.947065 108.658693 
L 158.101687 111.053941 
L 158.514012 123.030178 
L 158.771715 120.634931 
L 158.926337 115.844436 
L 159.1325 113.449188 
L 159.699447 120.634931 
L 159.90561 120.634931 
L 160.163313 127.820673 
L 160.369475 123.030178 
L 160.73026 123.030178 
L 161.091045 130.215921 
L 161.451829 130.215921 
L 161.915695 77.520475 
L 162.121858 72.72998 
L 162.328021 75.125228 
L 162.482642 87.101465 
L 162.998049 91.89196 
L 163.15267 89.496713 
L 163.410374 103.868198 
L 163.564996 108.658693 
L 163.771159 111.053941 
L 164.028862 91.89196 
L 164.235024 87.101465 
L 164.389646 87.101465 
L 164.69889 91.89196 
L 165.008134 94.287208 
L 165.368918 87.101465 
L 165.52354 87.101465 
L 165.678163 89.496713 
L 165.832784 99.077703 
L 166.038947 99.077703 
L 166.24511 101.47295 
L 166.451272 103.868198 
L 166.657435 103.868198 
L 166.915138 101.47295 
L 167.379004 101.47295 
L 167.585166 99.077703 
L 167.997492 89.496713 
L 168.203654 77.520475 
L 168.409817 75.125228 
L 168.615979 77.520475 
L 168.822142 84.706218 
L 169.079845 89.496713 
L 169.286007 89.496713 
L 169.956036 111.053941 
L 170.26528 113.449188 
L 170.419902 113.449188 
L 170.883768 120.634931 
L 171.296093 96.682455 
L 171.502256 101.47295 
L 171.656878 108.658693 
L 171.8115 108.658693 
L 172.069202 113.449188 
L 172.172285 125.425426 
L 172.326906 125.425426 
L 172.481528 142.192158 
L 172.687691 142.192158 
L 173.306178 82.31097 
L 173.666963 70.334733 
L 174.285451 89.496713 
L 174.697776 82.31097 
L 174.903938 84.706218 
L 175.110101 79.915723 
L 175.316264 91.89196 
L 175.522427 87.101465 
L 175.677048 89.496713 
L 175.883211 89.496713 
L 176.089374 91.89196 
L 176.295536 99.077703 
L 176.501698 96.682455 
L 176.707861 96.682455 
L 176.914024 87.101465 
L 177.37789 87.101465 
L 177.687133 106.263446 
L 178.099459 84.706218 
L 178.408703 87.101465 
L 179.130271 65.544238 
L 179.387975 65.544238 
L 179.954922 87.101465 
L 180.212626 82.31097 
L 180.367247 94.287208 
L 180.521869 89.496713 
L 180.985735 89.496713 
L 181.39806 118.239683 
L 181.552682 118.239683 
L 181.810385 99.077703 
L 182.17117 103.868198 
L 182.686577 82.31097 
L 182.789658 82.31097 
L 182.995821 79.915723 
L 183.562768 108.658693 
L 183.76893 113.449188 
L 183.975092 106.263446 
L 184.181255 106.263446 
L 184.387418 108.658693 
L 184.799743 108.658693 
L 185.005906 106.263446 
L 185.212068 111.053941 
L 185.36669 113.449188 
L 185.521312 118.239683 
L 185.675934 115.844436 
L 185.985178 115.844436 
L 186.345963 108.658693 
L 186.552125 115.844436 
L 186.655206 115.844436 
L 186.91291 111.053941 
L 187.170613 108.658693 
L 187.273695 101.47295 
L 187.634479 101.47295 
L 187.840641 96.682455 
L 188.046804 106.263446 
L 188.407588 94.287208 
L 188.819914 106.263446 
L 189.180698 108.658693 
L 189.438401 106.263446 
L 189.696105 108.658693 
L 189.902267 106.263446 
L 190.366133 108.658693 
L 190.520755 111.053941 
L 190.675377 111.053941 
L 190.93308 103.868198 
L 191.396946 115.844436 
L 191.603109 113.449188 
L 191.75773 101.47295 
L 192.376218 87.101465 
L 192.788543 103.868198 
L 193.046247 108.658693 
L 193.149328 106.263446 
L 193.819356 120.634931 
L 194.283223 118.239683 
L 194.489385 118.239683 
L 194.644007 108.658693 
L 194.85017 113.449188 
L 195.056332 111.053941 
L 195.210954 111.053941 
L 195.365576 103.868198 
L 195.520198 103.868198 
L 195.674819 118.239683 
L 195.829442 118.239683 
L 195.984064 120.634931 
L 196.190227 118.239683 
L 196.396389 103.868198 
L 196.654092 106.263446 
L 196.860255 113.449188 
L 196.963336 113.449188 
L 197.324121 118.239683 
L 197.478743 113.449188 
L 197.633365 115.844436 
L 197.787987 120.634931 
L 198.200312 108.658693 
L 198.303393 108.658693 
L 198.509555 115.844436 
L 198.612637 120.634931 
L 198.715718 118.239683 
L 198.87034 99.077703 
L 199.179584 91.89196 
L 199.540369 91.89196 
L 199.746531 94.287208 
L 200.313478 130.215921 
L 200.519641 123.030178 
L 200.725803 108.658693 
L 200.880425 108.658693 
L 201.086588 106.263446 
L 201.447372 115.844436 
L 201.601994 123.030178 
L 202.01432 99.077703 
L 202.117401 103.868198 
L 202.529726 103.868198 
L 202.735888 87.101465 
L 203.148214 91.89196 
L 203.354377 89.496713 
L 203.715161 77.520475 
L 204.333649 96.682455 
L 205.158299 149.377901 
L 205.312921 132.611168 
L 205.467543 132.611168 
L 205.622165 135.006416 
L 205.776787 144.587406 
L 206.034491 137.401663 
L 206.137572 142.192158 
L 206.292194 142.192158 
L 206.652978 144.587406 
L 206.8076 144.587406 
L 206.962222 146.982653 
L 207.116844 154.168396 
L 207.271466 154.168396 
L 207.632251 118.239683 
L 207.735332 111.053941 
L 208.044576 77.520475 
L 208.199197 75.125228 
L 208.456901 75.125228 
L 208.663063 77.520475 
L 208.869226 77.520475 
L 209.023848 82.31097 
L 209.230011 70.334733 
L 209.333092 77.520475 
L 209.487714 77.520475 
L 209.693876 91.89196 
L 209.900039 118.239683 
L 210.106201 125.425426 
L 210.312364 123.030178 
L 210.518527 118.239683 
L 211.033933 118.239683 
L 211.240096 113.449188 
L 211.343177 103.868198 
L 212.013206 87.101465 
L 212.425531 103.868198 
L 213.301722 125.425426 
L 213.765588 130.215921 
L 214.177913 144.587406 
L 214.641778 146.982653 
L 215.105645 146.982653 
L 215.363348 149.377901 
L 215.466429 149.377901 
L 215.672592 151.773149 
L 215.878754 144.587406 
L 216.34262 144.587406 
L 216.548783 156.563644 
L 216.754945 142.192158 
L 216.961108 137.401663 
L 217.16727 137.401663 
L 217.579596 156.563644 
L 217.991921 139.796911 
L 218.198083 146.982653 
L 218.455787 137.401663 
L 218.661949 120.634931 
L 218.868112 123.030178 
L 219.4866 149.377901 
L 219.950465 130.215921 
L 220.156628 149.377901 
L 220.826657 132.611168 
L 221.1359 132.611168 
L 221.393604 137.401663 
L 221.96055 163.749386 
L 222.218254 161.354139 
L 222.372876 161.354139 
L 222.733661 139.796911 
L 222.991364 137.401663 
L 223.197526 127.820673 
L 223.352148 108.658693 
L 223.609851 94.287208 
L 223.816014 89.496713 
L 224.33142 99.077703 
L 224.537583 120.634931 
L 224.846827 120.634931 
L 225.001449 127.820673 
L 225.310693 125.425426 
L 226.032262 89.496713 
L 226.186884 87.101465 
L 226.547668 77.520475 
L 226.65075 79.915723 
L 226.856913 77.520475 
L 227.217697 99.077703 
L 227.42386 101.47295 
L 227.630022 101.47295 
L 228.042347 94.287208 
L 228.24851 94.287208 
L 228.454672 96.682455 
L 228.660835 106.263446 
L 228.970079 108.658693 
L 229.124701 108.658693 
L 229.330863 111.053941 
L 229.537026 94.287208 
L 229.743189 96.682455 
L 229.949351 103.868198 
L 230.155514 99.077703 
L 230.361676 101.47295 
L 230.61938 96.682455 
L 230.825542 99.077703 
L 230.928623 99.077703 
L 231.340949 94.287208 
L 231.547112 96.682455 
L 231.753274 106.263446 
L 232.21714 111.053941 
L 232.371761 125.425426 
L 232.732546 125.425426 
L 232.99025 120.634931 
L 233.196412 96.682455 
L 233.454115 91.89196 
L 233.660278 91.89196 
L 233.917982 77.520475 
L 234.433388 99.077703 
L 234.845713 108.658693 
L 235.051875 101.47295 
L 235.309578 103.868198 
L 235.773445 99.077703 
L 235.928067 106.263446 
L 236.082688 103.868198 
L 236.340392 96.682455 
L 236.546554 77.520475 
L 236.649635 75.125228 
L 236.804257 67.939485 
L 237.165042 94.287208 
L 237.474286 111.053941 
L 237.577367 111.053941 
L 237.78353 123.030178 
L 237.989692 115.844436 
L 238.195855 118.239683 
L 238.402018 108.658693 
L 238.608181 106.263446 
L 238.814343 101.47295 
L 238.968965 101.47295 
L 239.123587 96.682455 
L 239.535912 113.449188 
L 239.742074 111.053941 
L 240.1544 118.239683 
L 240.360562 99.077703 
L 240.618266 99.077703 
L 240.824428 91.89196 
L 241.236753 106.263446 
L 241.649078 111.053941 
L 242.061404 120.634931 
L 242.52527 120.634931 
L 242.937595 108.658693 
L 243.195298 84.706218 
L 243.659163 67.939485 
L 243.968408 67.939485 
L 244.329192 70.334733 
L 244.483814 60.753743 
L 244.638436 60.753743 
L 245.102302 72.72998 
L 245.514627 75.125228 
L 246.803143 111.053941 
L 247.112388 137.401663 
L 247.31855 130.215921 
L 247.524713 135.006416 
L 247.679335 130.215921 
L 247.937037 113.449188 
L 248.040119 111.053941 
L 248.246281 115.844436 
L 248.607066 139.796911 
L 248.813229 127.820673 
L 249.225554 101.47295 
L 249.534798 101.47295 
L 249.74096 113.449188 
L 249.947123 115.844436 
L 250.153286 120.634931 
L 250.359448 113.449188 
L 250.617151 115.844436 
L 250.823314 123.030178 
L 251.029477 125.425426 
L 251.235639 115.844436 
L 251.441802 113.449188 
L 251.647964 115.844436 
L 251.854127 113.449188 
L 252.008749 108.658693 
L 252.214911 108.658693 
L 252.421074 113.449188 
L 253.554968 113.449188 
L 253.967293 115.844436 
L 254.843484 115.844436 
L 255.30735 118.239683 
L 256.595867 118.239683 
L 257.059732 113.449188 
L 257.523599 113.449188 
L 257.67822 120.634931 
L 258.142086 132.611168 
L 258.348248 135.006416 
L 258.760573 166.144634 
L 259.121358 108.658693 
L 259.27598 96.682455 
L 259.430602 96.682455 
L 259.688305 84.706218 
L 259.946009 84.706218 
L 260.203712 87.101465 
L 260.667578 87.101465 
L 260.976822 91.89196 
L 261.234525 77.520475 
L 261.440688 82.31097 
L 261.543769 77.520475 
L 261.749931 82.31097 
L 261.956094 99.077703 
L 262.162257 103.868198 
L 262.265338 111.053941 
L 262.41996 111.053941 
L 262.626122 108.658693 
L 262.832285 108.658693 
L 263.193069 115.844436 
L 263.605395 127.820673 
L 263.811557 137.401663 
L 264.01772 149.377901 
L 264.223883 156.563644 
L 264.430045 158.958891 
L 265.048533 158.958891 
L 265.357777 135.006416 
L 265.56394 135.006416 
L 265.821642 139.796911 
L 266.646293 120.634931 
L 267.058618 127.820673 
L 267.21324 118.239683 
L 267.677106 111.053941 
L 267.883269 113.449188 
L 268.398675 113.449188 
L 268.811 96.682455 
L 269.274866 96.682455 
L 269.790273 137.401663 
L 269.996435 137.401663 
L 270.202598 154.168396 
L 270.305679 154.168396 
L 270.511841 156.563644 
L 270.718005 161.354139 
L 270.975708 156.563644 
L 271.594195 79.915723 
L 271.748817 91.89196 
L 272.058061 101.47295 
L 272.161143 101.47295 
L 272.625009 108.658693 
L 272.831171 106.263446 
L 273.037333 113.449188 
L 273.243496 115.844436 
L 273.449658 120.634931 
L 273.655821 106.263446 
L 273.861984 106.263446 
L 274.068147 111.053941 
L 274.32585 111.053941 
L 274.738175 132.611168 
L 274.944337 146.982653 
L 275.202041 149.377901 
L 275.408204 139.796911 
L 275.511285 139.796911 
L 275.975151 127.820673 
L 276.181313 125.425426 
L 276.284394 118.239683 
L 276.439016 118.239683 
L 276.645179 120.634931 
L 277.212126 106.263446 
L 277.57291 103.868198 
L 278.809886 103.868198 
L 279.170671 106.263446 
L 279.686077 111.053941 
L 280.046862 139.796911 
L 280.459187 154.168396 
L 280.71689 151.773149 
L 280.923052 156.563644 
L 281.283837 156.563644 
L 281.438459 154.168396 
L 281.902325 137.401663 
L 282.160028 115.844436 
L 282.520813 82.31097 
L 282.881598 82.31097 
L 283.08776 94.287208 
L 283.345463 101.47295 
L 283.551626 115.844436 
L 283.757788 113.449188 
L 283.860869 113.449188 
L 284.221654 125.425426 
L 284.427817 125.425426 
L 284.633979 113.449188 
L 284.840142 111.053941 
L 284.994764 115.844436 
L 285.200926 118.239683 
L 285.767874 118.239683 
L 285.974036 115.844436 
L 286.077117 125.425426 
L 286.23174 125.425426 
L 286.489443 120.634931 
L 286.747146 130.215921 
L 286.953309 130.215921 
L 287.571796 154.168396 
L 287.777959 146.982653 
L 288.396447 146.982653 
L 289.066475 130.215921 
L 289.221097 144.587406 
L 289.375719 146.982653 
L 289.839585 149.377901 
L 290.097288 137.401663 
L 290.354991 142.192158 
L 290.458073 166.144634 
L 290.612695 166.144634 
L 290.870398 163.749386 
L 291.179642 144.587406 
L 291.591967 137.401663 
L 292.313536 77.520475 
L 292.468158 75.125228 
L 292.67432 82.31097 
L 292.983565 99.077703 
L 293.086646 99.077703 
L 293.189727 96.682455 
L 293.344349 96.682455 
L 293.550511 91.89196 
L 293.653593 91.89196 
L 293.859756 96.682455 
L 294.014377 87.101465 
L 294.22054 82.31097 
L 294.323622 91.89196 
L 294.478243 91.89196 
L 294.632865 94.287208 
L 294.839028 94.287208 
L 295.04519 96.682455 
L 295.251353 101.47295 
L 295.457515 113.449188 
L 295.663679 132.611168 
L 295.869841 115.844436 
L 296.127544 113.449188 
L 296.385247 115.844436 
L 296.59141 108.658693 
L 296.797572 106.263446 
L 297.003735 108.658693 
L 297.209898 108.658693 
L 297.41606 113.449188 
L 297.673764 115.844436 
L 297.828385 113.449188 
L 298.034548 113.449188 
L 298.395332 108.658693 
L 299.013821 84.706218 
L 299.168442 96.682455 
L 300.250796 149.377901 
L 300.405418 151.773149 
L 301.023906 144.587406 
L 301.281609 125.425426 
L 301.38469 125.425426 
L 301.797016 113.449188 
L 302.106259 89.496713 
L 302.260881 89.496713 
L 302.518584 87.101465 
L 302.621665 89.496713 
L 302.776288 89.496713 
L 302.93091 91.89196 
L 303.291694 103.868198 
L 303.394775 99.077703 
L 303.549397 99.077703 
L 303.75556 101.47295 
L 303.910182 113.449188 
L 304.116344 115.844436 
L 304.322507 123.030178 
L 304.52867 118.239683 
L 304.734832 103.868198 
L 304.940995 106.263446 
L 305.35332 111.053941 
L 305.559483 106.263446 
L 305.714105 106.263446 
L 305.920268 101.47295 
L 306.281052 101.47295 
L 306.487215 99.077703 
L 306.744918 87.101465 
L 306.95108 87.101465 
L 307.157243 89.496713 
L 307.569568 99.077703 
L 307.775731 108.658693 
L 308.188056 87.101465 
L 308.394218 89.496713 
L 308.600381 94.287208 
L 309.012706 113.449188 
L 309.218869 99.077703 
L 309.476572 96.682455 
L 309.734275 106.263446 
L 309.837357 106.263446 
L 309.940438 108.658693 
L 310.09506 108.658693 
L 310.301223 115.844436 
L 310.558926 137.401663 
L 310.662007 137.401663 
L 310.91971 144.587406 
L 311.125873 142.192158 
L 311.332036 142.192158 
L 311.538198 139.796911 
L 311.950523 111.053941 
L 312.156686 108.658693 
L 312.414389 99.077703 
L 312.51747 103.868198 
L 312.672092 103.868198 
L 312.878255 106.263446 
L 313.084417 106.263446 
L 313.29058 113.449188 
L 313.909068 158.958891 
L 314.012149 144.587406 
L 314.269852 142.192158 
L 314.630637 111.053941 
L 314.733718 111.053941 
L 314.939881 115.844436 
L 315.042962 115.844436 
L 315.506828 127.820673 
L 315.71299 127.820673 
L 315.816072 123.030178 
L 315.970694 123.030178 
L 316.43456 106.263446 
L 316.692263 101.47295 
L 316.898426 103.868198 
L 317.877698 144.587406 
L 318.135401 146.982653 
L 318.547726 161.354139 
L 318.650807 161.354139 
L 318.960051 168.539881 
L 319.423917 158.958891 
L 319.63008 175.725624 
L 319.836243 178.120871 
L 320.042405 182.911366 
L 320.248568 178.120871 
L 320.45473 180.516119 
L 320.557811 180.516119 
L 320.763974 190.097109 
L 320.867055 185.306614 
L 321.22784 185.306614 
L 321.434002 180.516119 
L 321.640165 170.935129 
L 321.846328 168.539881 
L 322.052491 163.749386 
L 322.258653 166.144634 
L 322.8256 173.330376 
L 323.031763 166.144634 
L 323.237925 170.935129 
L 323.65025 151.773149 
L 323.907954 156.563644 
L 324.114116 139.796911 
L 324.371819 123.030178 
L 324.577982 120.634931 
L 324.784144 113.449188 
L 324.990307 115.844436 
L 325.19647 120.634931 
L 325.711876 130.215921 
L 326.588068 125.425426 
L 327.000392 120.634931 
L 327.928124 146.982653 
L 328.340449 149.377901 
L 328.804315 154.168396 
L 329.474344 180.516119 
L 329.628966 175.725624 
L 329.886669 166.144634 
L 330.092832 166.144634 
L 330.195913 156.563644 
L 330.402075 156.563644 
L 330.608238 158.958891 
L 330.8144 173.330376 
L 331.072104 182.911366 
L 331.329807 175.725624 
L 331.639051 161.354139 
L 331.896754 113.449188 
L 332.154457 96.682455 
L 332.412161 89.496713 
L 332.979108 103.868198 
L 333.082189 96.682455 
L 333.236811 96.682455 
L 333.752217 106.263446 
L 333.855299 106.263446 
L 334.164543 103.868198 
L 334.267624 115.844436 
L 334.628408 115.844436 
L 334.834571 111.053941 
L 335.040734 113.449188 
L 335.195355 101.47295 
L 335.55614 106.263446 
L 335.762303 106.263446 
L 335.968465 108.658693 
L 336.174628 106.263446 
L 336.432331 108.658693 
L 336.638494 113.449188 
L 336.844656 99.077703 
L 336.947738 99.077703 
L 337.205441 108.658693 
L 337.514685 106.263446 
L 337.772388 106.263446 
L 338.236254 99.077703 
L 338.339335 108.658693 
L 339.009364 142.192158 
L 339.163986 130.215921 
L 339.730933 113.449188 
L 340.143258 113.449188 
L 340.607124 125.425426 
L 341.07099 130.215921 
L 341.483315 125.425426 
L 343.235697 125.425426 
L 343.699563 130.215921 
L 344.163429 139.796911 
L 344.627295 161.354139 
L 345.451945 161.354139 
L 345.915811 156.563644 
L 346.328136 156.563644 
L 346.792002 158.958891 
L 347.255867 163.749386 
L 348.132059 163.749386 
L 348.595924 180.516119 
L 349.05979 182.911366 
L 349.472116 192.492356 
L 349.88444 190.097109 
L 350.348307 182.911366 
L 350.760632 194.887604 
L 351.688364 199.678099 
L 352.461473 168.539881 
L 353.389205 168.539881 
L 353.80153 166.144634 
L 354.265396 166.144634 
L 354.729262 175.725624 
L 355.141587 187.701861 
L 355.553912 180.516119 
L 356.017778 192.492356 
L 356.481644 175.725624 
L 356.893969 187.701861 
L 357.357835 185.306614 
L 357.821701 168.539881 
L 358.285566 156.563644 
L 358.697891 163.749386 
L 359.161757 166.144634 
L 359.625623 166.144634 
L 360.037948 173.330376 
L 360.501814 173.330376 
L 360.96568 166.144634 
L 361.429546 178.120871 
L 361.893412 180.516119 
L 362.718062 180.516119 
L 363.181928 149.377901 
L 363.33655 146.982653 
L 363.800416 146.982653 
L 364.264281 139.796911 
L 365.140473 135.006416 
L 366.016664 139.796911 
L 366.892855 135.006416 
L 367.30518 130.215921 
L 367.511342 130.215921 
L 368.232912 144.587406 
L 368.90294 149.377901 
L 369.315265 142.192158 
L 369.779131 151.773149 
L 370.242997 120.634931 
L 370.706863 137.401663 
L 371.170729 149.377901 
L 371.583054 137.401663 
L 372.04692 149.377901 
L 372.510786 166.144634 
L 372.974651 163.749386 
L 373.026192 166.144634 
L 373.490058 170.935129 
L 373.902383 173.330376 
L 374.366249 168.539881 
L 374.830114 158.958891 
L 375.293981 166.144634 
L 375.809387 168.539881 
L 375.964009 161.354139 
L 376.170171 161.354139 
L 376.376334 163.749386 
L 376.582497 163.749386 
L 376.8402 166.144634 
L 377.458687 180.516119 
L 377.561769 187.701861 
L 377.716391 187.701861 
L 378.077176 175.725624 
L 379.056448 158.958891 
L 379.468773 146.982653 
L 379.726476 154.168396 
L 379.932639 154.168396 
L 380.396504 158.958891 
L 380.705748 139.796911 
L 380.911911 139.796911 
L 381.118074 151.773149 
L 381.324236 149.377901 
L 381.530399 154.168396 
L 381.736561 137.401663 
L 381.942724 135.006416 
L 382.35505 135.006416 
L 382.612752 139.796911 
L 382.973537 139.796911 
L 383.282781 156.563644 
L 383.695106 168.539881 
L 383.798188 168.539881 
L 383.952809 178.120871 
L 384.158972 180.516119 
L 384.313594 180.516119 
L 384.571297 170.935129 
L 384.725919 144.587406 
L 385.086703 123.030178 
L 385.344407 123.030178 
L 385.60211 113.449188 
L 385.911354 115.844436 
L 386.014435 115.844436 
L 386.220598 113.449188 
L 386.581382 118.239683 
L 386.942167 137.401663 
L 387.14833 139.796911 
L 387.509114 111.053941 
L 387.766817 115.844436 
L 387.97298 120.634931 
L 388.076061 120.634931 
L 388.230683 127.820673 
L 388.436846 139.796911 
L 388.643008 156.563644 
L 389.158415 127.820673 
L 389.467659 132.611168 
L 389.983065 127.820673 
L 390.189228 125.425426 
L 390.601553 125.425426 
L 390.807715 127.820673 
L 391.632366 173.330376 
L 392.044691 173.330376 
L 392.250854 178.120871 
L 392.457016 187.701861 
L 392.663179 190.097109 
L 392.869342 178.120871 
L 393.075504 175.725624 
L 393.230126 180.516119 
L 393.487829 182.911366 
L 393.642451 178.120871 
L 394.054776 173.330376 
L 394.31248 175.725624 
L 394.724805 194.887604 
L 395.291752 180.516119 
L 396.219484 123.030178 
L 396.425646 144.587406 
L 397.095675 158.958891 
L 398.074947 158.958891 
L 398.074947 158.958891 
" style="fill:none;stroke:#ff7f0e;stroke-linecap:square;stroke-width:1.5;"/>
   </g>
   <g id="patch_3">
    <path d="M 57.6 307.584 
L 57.6 41.472 
" style="fill:none;stroke:#000000;stroke-linecap:square;stroke-linejoin:miter;stroke-width:0.8;"/>
   </g>
   <g id="patch_4">
    <path d="M 414.72 307.584 
L 414.72 41.472 
" style="fill:none;stroke:#000000;stroke-linecap:square;stroke-linejoin:miter;stroke-width:0.8;"/>
   </g>
   <g id="patch_5">
    <path d="M 57.599999 307.584 
L 414.719999 307.584 
" style="fill:none;stroke:#000000;stroke-linecap:square;stroke-linejoin:miter;stroke-width:0.8;"/>
   </g>
   <g id="patch_6">
    <path d="M 57.599999 41.472 
L 414.719999 41.472 
" style="fill:none;stroke:#000000;stroke-linecap:square;stroke-linejoin:miter;stroke-width:0.8;"/>
   </g>
   <g id="text_17">
    <!-- Heart rate -->
    <g transform="translate(205.365938 35.472)scale(0.12 -0.12)">
     <use xlink:href="#DejaVuSans-48"/>
     <use x="75.195312" xlink:href="#DejaVuSans-65"/>
     <use x="136.71875" xlink:href="#DejaVuSans-61"/>
     <use x="197.998047" xlink:href="#DejaVuSans-72"/>
     <use x="239.111328" xlink:href="#DejaVuSans-74"/>
     <use x="278.320312" xlink:href="#DejaVuSans-20"/>
     <use x="310.107422" xlink:href="#DejaVuSans-72"/>
     <use x="351.220703" xlink:href="#DejaVuSans-61"/>
     <use x="412.5" xlink:href="#DejaVuSans-74"/>
     <use x="451.708984" xlink:href="#DejaVuSans-65"/>
    </g>
   </g>
   <g id="legend_1">
    <g id="patch_7">
     <path d="M 334.555938 302.584 
L 407.72 302.584 
Q 409.72 302.584 409.72 300.584 
L 409.72 272.22775 
Q 409.72 270.22775 407.72 270.22775 
L 334.555938 270.22775 
Q 332.555938 270.22775 332.555938 272.22775 
L 332.555938 300.584 
Q 332.555938 302.584 334.555938 302.584 
z
" style="fill:#ffffff;opacity:0.8;stroke:#cccccc;stroke-linejoin:miter;"/>
    </g>
    <g id="line2d_31">
     <path d="M 336.555938 278.326187 
L 356.555938 278.326187 
" style="fill:none;stroke:#1f77b4;stroke-linecap:square;stroke-width:1.5;"/>
    </g>
    <g id="line2d_32"/>
    <g id="text_18">
     <!-- Garmin -->
     <defs>
      <path d="M 59.515625 10.40625 
L 59.515625 29.984375 
L 43.40625 29.984375 
L 43.40625 38.09375 
L 69.28125 38.09375 
L 69.28125 6.78125 
Q 63.578125 2.734375 56.6875 0.65625 
Q 49.8125 -1.421875 42 -1.421875 
Q 24.90625 -1.421875 15.25 8.5625 
Q 5.609375 18.5625 5.609375 36.375 
Q 5.609375 54.25 15.25 64.234375 
Q 24.90625 74.21875 42 74.21875 
Q 49.125 74.21875 55.546875 72.453125 
Q 61.96875 70.703125 67.390625 67.28125 
L 67.390625 56.78125 
Q 61.921875 61.421875 55.765625 63.765625 
Q 49.609375 66.109375 42.828125 66.109375 
Q 29.4375 66.109375 22.71875 58.640625 
Q 16.015625 51.171875 16.015625 36.375 
Q 16.015625 21.625 22.71875 14.15625 
Q 29.4375 6.6875 42.828125 6.6875 
Q 48.046875 6.6875 52.140625 7.59375 
Q 56.25 8.5 59.515625 10.40625 
" id="DejaVuSans-47"/>
      <path d="M 54.890625 33.015625 
L 54.890625 0 
L 45.90625 0 
L 45.90625 32.71875 
Q 45.90625 40.484375 42.875 44.328125 
Q 39.84375 48.1875 33.796875 48.1875 
Q 26.515625 48.1875 22.3125 43.546875 
Q 18.109375 38.921875 18.109375 30.90625 
L 18.109375 0 
L 9.078125 0 
L 9.078125 54.6875 
L 18.109375 54.6875 
L 18.109375 46.1875 
Q 21.34375 51.125 25.703125 53.5625 
Q 30.078125 56 35.796875 56 
Q 45.21875 56 50.046875 50.171875 
Q 54.890625 44.34375 54.890625 33.015625 
" id="DejaVuSans-6e"/>
     </defs>
     <g transform="translate(364.555938 281.826187)scale(0.1 -0.1)">
      <use xlink:href="#DejaVuSans-47"/>
      <use x="77.490234" xlink:href="#DejaVuSans-61"/>
      <use x="138.769531" xlink:href="#DejaVuSans-72"/>
      <use x="179.867188" xlink:href="#DejaVuSans-6d"/>
      <use x="277.279297" xlink:href="#DejaVuSans-69"/>
      <use x="305.0625" xlink:href="#DejaVuSans-6e"/>
     </g>
    </g>
    <g id="line2d_33">
     <path d="M 336.555938 293.004312 
L 356.555938 293.004312 
" style="fill:none;stroke:#ff7f0e;stroke-linecap:square;stroke-width:1.5;"/>
    </g>
    <g id="line2d_34"/>
    <g id="text_19">
     <!-- Scosche -->
     <defs>
      <path d="M 53.515625 70.515625 
L 53.515625 60.890625 
Q 47.90625 63.578125 42.921875 64.890625 
Q 37.9375 66.21875 33.296875 66.21875 
Q 25.25 66.21875 20.875 63.09375 
Q 16.5 59.96875 16.5 54.203125 
Q 16.5 49.359375 19.40625 46.890625 
Q 22.3125 44.4375 30.421875 42.921875 
L 36.375 41.703125 
Q 47.40625 39.59375 52.65625 34.296875 
Q 57.90625 29 57.90625 20.125 
Q 57.90625 9.515625 50.796875 4.046875 
Q 43.703125 -1.421875 29.984375 -1.421875 
Q 24.8125 -1.421875 18.96875 -0.25 
Q 13.140625 0.921875 6.890625 3.21875 
L 6.890625 13.375 
Q 12.890625 10.015625 18.65625 8.296875 
Q 24.421875 6.59375 29.984375 6.59375 
Q 38.421875 6.59375 43.015625 9.90625 
Q 47.609375 13.234375 47.609375 19.390625 
Q 47.609375 24.75 44.3125 27.78125 
Q 41.015625 30.8125 33.5 32.328125 
L 27.484375 33.5 
Q 16.453125 35.6875 11.515625 40.375 
Q 6.59375 45.0625 6.59375 53.421875 
Q 6.59375 63.09375 13.40625 68.65625 
Q 20.21875 74.21875 32.171875 74.21875 
Q 37.3125 74.21875 42.625 73.28125 
Q 47.953125 72.359375 53.515625 70.515625 
" id="DejaVuSans-53"/>
      <path d="M 48.78125 52.59375 
L 48.78125 44.1875 
Q 44.96875 46.296875 41.140625 47.34375 
Q 37.3125 48.390625 33.40625 48.390625 
Q 24.65625 48.390625 19.8125 42.84375 
Q 14.984375 37.3125 14.984375 27.296875 
Q 14.984375 17.28125 19.8125 11.734375 
Q 24.65625 6.203125 33.40625 6.203125 
Q 37.3125 6.203125 41.140625 7.25 
Q 44.96875 8.296875 48.78125 10.40625 
L 48.78125 2.09375 
Q 45.015625 0.34375 40.984375 -0.53125 
Q 36.96875 -1.421875 32.421875 -1.421875 
Q 20.0625 -1.421875 12.78125 6.34375 
Q 5.515625 14.109375 5.515625 27.296875 
Q 5.515625 40.671875 12.859375 48.328125 
Q 20.21875 56 33.015625 56 
Q 37.15625 56 41.109375 55.140625 
Q 45.0625 54.296875 48.78125 52.59375 
" id="DejaVuSans-63"/>
      <path d="M 30.609375 48.390625 
Q 23.390625 48.390625 19.1875 42.75 
Q 14.984375 37.109375 14.984375 27.296875 
Q 14.984375 17.484375 19.15625 11.84375 
Q 23.34375 6.203125 30.609375 6.203125 
Q 37.796875 6.203125 41.984375 11.859375 
Q 46.1875 17.53125 46.1875 27.296875 
Q 46.1875 37.015625 41.984375 42.703125 
Q 37.796875 48.390625 30.609375 48.390625 
M 30.609375 56 
Q 42.328125 56 49.015625 48.375 
Q 55.71875 40.765625 55.71875 27.296875 
Q 55.71875 13.875 49.015625 6.21875 
Q 42.328125 -1.421875 30.609375 -1.421875 
Q 18.84375 -1.421875 12.171875 6.21875 
Q 5.515625 13.875 5.515625 27.296875 
Q 5.515625 40.765625 12.171875 48.375 
Q 18.84375 56 30.609375 56 
" id="DejaVuSans-6f"/>
      <path d="M 44.28125 53.078125 
L 44.28125 44.578125 
Q 40.484375 46.53125 36.375 47.5 
Q 32.28125 48.484375 27.875 48.484375 
Q 21.1875 48.484375 17.84375 46.4375 
Q 14.5 44.390625 14.5 40.28125 
Q 14.5 37.15625 16.890625 35.375 
Q 19.28125 33.59375 26.515625 31.984375 
L 29.59375 31.296875 
Q 39.15625 29.25 43.1875 25.515625 
Q 47.21875 21.78125 47.21875 15.09375 
Q 47.21875 7.46875 41.1875 3.015625 
Q 35.15625 -1.421875 24.609375 -1.421875 
Q 20.21875 -1.421875 15.453125 -0.5625 
Q 10.6875 0.296875 5.421875 2 
L 5.421875 11.28125 
Q 10.40625 8.6875 15.234375 7.390625 
Q 20.0625 6.109375 24.8125 6.109375 
Q 31.15625 6.109375 34.5625 8.28125 
Q 37.984375 10.453125 37.984375 14.40625 
Q 37.984375 18.0625 35.515625 20.015625 
Q 33.0625 21.96875 24.703125 23.78125 
L 21.578125 24.515625 
Q 13.234375 26.265625 9.515625 29.90625 
Q 5.8125 33.546875 5.8125 39.890625 
Q 5.8125 47.609375 11.28125 51.796875 
Q 16.75 56 26.8125 56 
Q 31.78125 56 36.171875 55.265625 
Q 40.578125 54.546875 44.28125 53.078125 
" id="DejaVuSans-73"/>
      <path d="M 54.890625 33.015625 
L 54.890625 0 
L 45.90625 0 
L 45.90625 32.71875 
Q 45.90625 40.484375 42.875 44.328125 
Q 39.84375 48.1875 33.796875 48.1875 
Q 26.515625 48.1875 22.3125 43.546875 
Q 18.109375 38.921875 18.109375 30.90625 
L 18.109375 0 
L 9.078125 0 
L 9.078125 75.984375 
L 18.109375 75.984375 
L 18.109375 46.1875 
Q 21.34375 51.125 25.703125 53.5625 
Q 30.078125 56 35.796875 56 
Q 45.21875 56 50.046875 50.171875 
Q 54.890625 44.34375 54.890625 33.015625 
" id="DejaVuSans-68"/>
     </defs>
     <g transform="translate(364.555938 296.504312)scale(0.1 -0.1)">
      <use xlink:href="#DejaVuSans-53"/>
      <use x="63.476562" xlink:href="#DejaVuSans-63"/>
      <use x="118.457031" xlink:href="#DejaVuSans-6f"/>
      <use x="179.638672" xlink:href="#DejaVuSans-73"/>
      <use x="231.738281" xlink:href="#DejaVuSans-63"/>
      <use x="286.71875" xlink:href="#DejaVuSans-68"/>
      <use x="350.097656" xlink:href="#DejaVuSans-65"/>
     </g>
    </g>
   </g>
  </g>
 </g>
 <defs>
  <clipPath id="pd4e47cf458">
   <rect height="266.112" width="357.12" x="57.6" y="41.472"/>
  </clipPath>
 </defs>
</svg>
