<?xml version="1.0" encoding="utf-8" standalone="no"?>
<!DOCTYPE svg PUBLIC "-//W3C//DTD SVG 1.1//EN"
  "http://www.w3.org/Graphics/SVG/1.1/DTD/svg11.dtd">
<!-- Created with matplotlib (http://matplotlib.org/) -->
<svg height="345pt" version="1.1" viewBox="0 0 460 345" width="460pt" xmlns="http://www.w3.org/2000/svg" xmlns:xlink="http://www.w3.org/1999/xlink">
 <defs>
  <style type="text/css">
*{stroke-linecap:butt;stroke-linejoin:round;}
  </style>
 </defs>
 <g id="figure_1">
  <g id="patch_1">
   <path d="M 0 345.6 
L 460.8 345.6 
L 460.8 0 
L 0 0 
z
" style="fill:#ffffff;"/>
  </g>
  <g id="axes_1">
   <g id="patch_2">
    <path d="M 57.6 276.48 
L 414.72 276.48 
L 414.72 41.472 
L 57.6 41.472 
z
" style="fill:#ffffff;"/>
   </g>
   <g id="matplotlib.axis_1">
    <g id="xtick_1">
     <g id="line2d_1">
      <path clip-path="url(#p75976f34d6)" d="M 116.262674 276.48 
L 116.262674 41.472 
" style="fill:none;stroke:#b0b0b0;stroke-linecap:square;stroke-width:0.8;"/>
     </g>
     <g id="line2d_2">
      <defs>
       <path d="M 0 0 
L 0 3.5 
" id="mab6f80ea41" style="stroke:#000000;stroke-width:0.8;"/>
      </defs>
      <g>
       <use style="stroke:#000000;stroke-width:0.8;" x="116.262674" xlink:href="#mab6f80ea41" y="276.48"/>
      </g>
     </g>
     <g id="text_1">
      <!-- 10:12 -->
      <defs>
       <path d="M 12.40625 8.296875 
L 28.515625 8.296875 
L 28.515625 63.921875 
L 10.984375 60.40625 
L 10.984375 69.390625 
L 28.421875 72.90625 
L 38.28125 72.90625 
L 38.28125 8.296875 
L 54.390625 8.296875 
L 54.390625 0 
L 12.40625 0 
z
" id="DejaVuSans-31"/>
       <path d="M 31.78125 66.40625 
Q 24.171875 66.40625 20.328125 58.90625 
Q 16.5 51.421875 16.5 36.375 
Q 16.5 21.390625 20.328125 13.890625 
Q 24.171875 6.390625 31.78125 6.390625 
Q 39.453125 6.390625 43.28125 13.890625 
Q 47.125 21.390625 47.125 36.375 
Q 47.125 51.421875 43.28125 58.90625 
Q 39.453125 66.40625 31.78125 66.40625 
M 31.78125 74.21875 
Q 44.046875 74.21875 50.515625 64.515625 
Q 56.984375 54.828125 56.984375 36.375 
Q 56.984375 17.96875 50.515625 8.265625 
Q 44.046875 -1.421875 31.78125 -1.421875 
Q 19.53125 -1.421875 13.0625 8.265625 
Q 6.59375 17.96875 6.59375 36.375 
Q 6.59375 54.828125 13.0625 64.515625 
Q 19.53125 74.21875 31.78125 74.21875 
" id="DejaVuSans-30"/>
       <path d="M 11.71875 12.40625 
L 22.015625 12.40625 
L 22.015625 0 
L 11.71875 0 
z
M 11.71875 51.703125 
L 22.015625 51.703125 
L 22.015625 39.3125 
L 11.71875 39.3125 
z
" id="DejaVuSans-3a"/>
       <path d="M 19.1875 8.296875 
L 53.609375 8.296875 
L 53.609375 0 
L 7.328125 0 
L 7.328125 8.296875 
Q 12.9375 14.109375 22.625 23.890625 
Q 32.328125 33.6875 34.8125 36.53125 
Q 39.546875 41.84375 41.421875 45.53125 
Q 43.3125 49.21875 43.3125 52.78125 
Q 43.3125 58.59375 39.234375 62.25 
Q 35.15625 65.921875 28.609375 65.921875 
Q 23.96875 65.921875 18.8125 64.3125 
Q 13.671875 62.703125 7.8125 59.421875 
L 7.8125 69.390625 
Q 13.765625 71.78125 18.9375 73 
Q 24.125 74.21875 28.421875 74.21875 
Q 39.75 74.21875 46.484375 68.546875 
Q 53.21875 62.890625 53.21875 53.421875 
Q 53.21875 48.921875 51.53125 44.890625 
Q 49.859375 40.875 45.40625 35.40625 
Q 44.1875 33.984375 37.640625 27.21875 
Q 31.109375 20.453125 19.1875 8.296875 
" id="DejaVuSans-32"/>
      </defs>
      <g transform="translate(90.26506 304.469815)rotate(-30)scale(0.1 -0.1)">
       <use xlink:href="#DejaVuSans-31"/>
       <use x="63.623047" xlink:href="#DejaVuSans-30"/>
       <use x="127.246094" xlink:href="#DejaVuSans-3a"/>
       <use x="160.9375" xlink:href="#DejaVuSans-31"/>
       <use x="224.560547" xlink:href="#DejaVuSans-32"/>
      </g>
     </g>
    </g>
    <g id="xtick_2">
     <g id="line2d_3">
      <path clip-path="url(#p75976f34d6)" d="M 185.567486 276.48 
L 185.567486 41.472 
" style="fill:none;stroke:#b0b0b0;stroke-linecap:square;stroke-width:0.8;"/>
     </g>
     <g id="line2d_4">
      <g>
       <use style="stroke:#000000;stroke-width:0.8;" x="185.567486" xlink:href="#mab6f80ea41" y="276.48"/>
      </g>
     </g>
     <g id="text_2">
      <!-- 10:42 -->
      <defs>
       <path d="M 37.796875 64.3125 
L 12.890625 25.390625 
L 37.796875 25.390625 
z
M 35.203125 72.90625 
L 47.609375 72.90625 
L 47.609375 25.390625 
L 58.015625 25.390625 
L 58.015625 17.1875 
L 47.609375 17.1875 
L 47.609375 0 
L 37.796875 0 
L 37.796875 17.1875 
L 4.890625 17.1875 
L 4.890625 26.703125 
z
" id="DejaVuSans-34"/>
      </defs>
      <g transform="translate(159.569873 304.469815)rotate(-30)scale(0.1 -0.1)">
       <use xlink:href="#DejaVuSans-31"/>
       <use x="63.623047" xlink:href="#DejaVuSans-30"/>
       <use x="127.246094" xlink:href="#DejaVuSans-3a"/>
       <use x="160.9375" xlink:href="#DejaVuSans-34"/>
       <use x="224.560547" xlink:href="#DejaVuSans-32"/>
      </g>
     </g>
    </g>
    <g id="xtick_3">
     <g id="line2d_5">
      <path clip-path="url(#p75976f34d6)" d="M 254.8723 276.48 
L 254.8723 41.472 
" style="fill:none;stroke:#b0b0b0;stroke-linecap:square;stroke-width:0.8;"/>
     </g>
     <g id="line2d_6">
      <g>
       <use style="stroke:#000000;stroke-width:0.8;" x="254.8723" xlink:href="#mab6f80ea41" y="276.48"/>
      </g>
     </g>
     <g id="text_3">
      <!-- 11:12 -->
      <g transform="translate(228.874686 304.469815)rotate(-30)scale(0.1 -0.1)">
       <use xlink:href="#DejaVuSans-31"/>
       <use x="63.623047" xlink:href="#DejaVuSans-31"/>
       <use x="127.246094" xlink:href="#DejaVuSans-3a"/>
       <use x="160.9375" xlink:href="#DejaVuSans-31"/>
       <use x="224.560547" xlink:href="#DejaVuSans-32"/>
      </g>
     </g>
    </g>
    <g id="xtick_4">
     <g id="line2d_7">
      <path clip-path="url(#p75976f34d6)" d="M 324.177113 276.48 
L 324.177113 41.472 
" style="fill:none;stroke:#b0b0b0;stroke-linecap:square;stroke-width:0.8;"/>
     </g>
     <g id="line2d_8">
      <g>
       <use style="stroke:#000000;stroke-width:0.8;" x="324.177113" xlink:href="#mab6f80ea41" y="276.48"/>
      </g>
     </g>
     <g id="text_4">
      <!-- 11:42 -->
      <g transform="translate(298.179499 304.469815)rotate(-30)scale(0.1 -0.1)">
       <use xlink:href="#DejaVuSans-31"/>
       <use x="63.623047" xlink:href="#DejaVuSans-31"/>
       <use x="127.246094" xlink:href="#DejaVuSans-3a"/>
       <use x="160.9375" xlink:href="#DejaVuSans-34"/>
       <use x="224.560547" xlink:href="#DejaVuSans-32"/>
      </g>
     </g>
    </g>
    <g id="xtick_5">
     <g id="line2d_9">
      <path clip-path="url(#p75976f34d6)" d="M 393.481925 276.48 
L 393.481925 41.472 
" style="fill:none;stroke:#b0b0b0;stroke-linecap:square;stroke-width:0.8;"/>
     </g>
     <g id="line2d_10">
      <g>
       <use style="stroke:#000000;stroke-width:0.8;" x="393.481925" xlink:href="#mab6f80ea41" y="276.48"/>
      </g>
     </g>
     <g id="text_5">
      <!-- 12:12 -->
      <g transform="translate(367.484312 304.469815)rotate(-30)scale(0.1 -0.1)">
       <use xlink:href="#DejaVuSans-31"/>
       <use x="63.623047" xlink:href="#DejaVuSans-32"/>
       <use x="127.246094" xlink:href="#DejaVuSans-3a"/>
       <use x="160.9375" xlink:href="#DejaVuSans-31"/>
       <use x="224.560547" xlink:href="#DejaVuSans-32"/>
      </g>
     </g>
    </g>
   </g>
   <g id="matplotlib.axis_2">
    <g id="ytick_1">
     <g id="line2d_11">
      <path clip-path="url(#p75976f34d6)" d="M 57.6 265.797818 
L 414.72 265.797818 
" style="fill:none;stroke:#b0b0b0;stroke-linecap:square;stroke-width:0.8;"/>
     </g>
     <g id="line2d_12">
      <defs>
       <path d="M 0 0 
L -3.5 0 
" id="m86edf206e6" style="stroke:#000000;stroke-width:0.8;"/>
      </defs>
      <g>
       <use style="stroke:#000000;stroke-width:0.8;" x="57.6" xlink:href="#m86edf206e6" y="265.797818"/>
      </g>
     </g>
     <g id="text_6">
      <!-- 0 -->
      <g transform="translate(44.2375 269.597037)scale(0.1 -0.1)">
       <use xlink:href="#DejaVuSans-30"/>
      </g>
     </g>
    </g>
    <g id="ytick_2">
     <g id="line2d_13">
      <path clip-path="url(#p75976f34d6)" d="M 57.6 239.092364 
L 414.72 239.092364 
" style="fill:none;stroke:#b0b0b0;stroke-linecap:square;stroke-width:0.8;"/>
     </g>
     <g id="line2d_14">
      <g>
       <use style="stroke:#000000;stroke-width:0.8;" x="57.6" xlink:href="#m86edf206e6" y="239.092364"/>
      </g>
     </g>
     <g id="text_7">
      <!-- 20 -->
      <g transform="translate(37.875 242.891582)scale(0.1 -0.1)">
       <use xlink:href="#DejaVuSans-32"/>
       <use x="63.623047" xlink:href="#DejaVuSans-30"/>
      </g>
     </g>
    </g>
    <g id="ytick_3">
     <g id="line2d_15">
      <path clip-path="url(#p75976f34d6)" d="M 57.6 212.386909 
L 414.72 212.386909 
" style="fill:none;stroke:#b0b0b0;stroke-linecap:square;stroke-width:0.8;"/>
     </g>
     <g id="line2d_16">
      <g>
       <use style="stroke:#000000;stroke-width:0.8;" x="57.6" xlink:href="#m86edf206e6" y="212.386909"/>
      </g>
     </g>
     <g id="text_8">
      <!-- 40 -->
      <g transform="translate(37.875 216.186128)scale(0.1 -0.1)">
       <use xlink:href="#DejaVuSans-34"/>
       <use x="63.623047" xlink:href="#DejaVuSans-30"/>
      </g>
     </g>
    </g>
    <g id="ytick_4">
     <g id="line2d_17">
      <path clip-path="url(#p75976f34d6)" d="M 57.6 185.681455 
L 414.72 185.681455 
" style="fill:none;stroke:#b0b0b0;stroke-linecap:square;stroke-width:0.8;"/>
     </g>
     <g id="line2d_18">
      <g>
       <use style="stroke:#000000;stroke-width:0.8;" x="57.6" xlink:href="#m86edf206e6" y="185.681455"/>
      </g>
     </g>
     <g id="text_9">
      <!-- 60 -->
      <defs>
       <path d="M 33.015625 40.375 
Q 26.375 40.375 22.484375 35.828125 
Q 18.609375 31.296875 18.609375 23.390625 
Q 18.609375 15.53125 22.484375 10.953125 
Q 26.375 6.390625 33.015625 6.390625 
Q 39.65625 6.390625 43.53125 10.953125 
Q 47.40625 15.53125 47.40625 23.390625 
Q 47.40625 31.296875 43.53125 35.828125 
Q 39.65625 40.375 33.015625 40.375 
M 52.59375 71.296875 
L 52.59375 62.3125 
Q 48.875 64.0625 45.09375 64.984375 
Q 41.3125 65.921875 37.59375 65.921875 
Q 27.828125 65.921875 22.671875 59.328125 
Q 17.53125 52.734375 16.796875 39.40625 
Q 19.671875 43.65625 24.015625 45.921875 
Q 28.375 48.1875 33.59375 48.1875 
Q 44.578125 48.1875 50.953125 41.515625 
Q 57.328125 34.859375 57.328125 23.390625 
Q 57.328125 12.15625 50.6875 5.359375 
Q 44.046875 -1.421875 33.015625 -1.421875 
Q 20.359375 -1.421875 13.671875 8.265625 
Q 6.984375 17.96875 6.984375 36.375 
Q 6.984375 53.65625 15.1875 63.9375 
Q 23.390625 74.21875 37.203125 74.21875 
Q 40.921875 74.21875 44.703125 73.484375 
Q 48.484375 72.75 52.59375 71.296875 
" id="DejaVuSans-36"/>
      </defs>
      <g transform="translate(37.875 189.480673)scale(0.1 -0.1)">
       <use xlink:href="#DejaVuSans-36"/>
       <use x="63.623047" xlink:href="#DejaVuSans-30"/>
      </g>
     </g>
    </g>
    <g id="ytick_5">
     <g id="line2d_19">
      <path clip-path="url(#p75976f34d6)" d="M 57.6 158.976 
L 414.72 158.976 
" style="fill:none;stroke:#b0b0b0;stroke-linecap:square;stroke-width:0.8;"/>
     </g>
     <g id="line2d_20">
      <g>
       <use style="stroke:#000000;stroke-width:0.8;" x="57.6" xlink:href="#m86edf206e6" y="158.976"/>
      </g>
     </g>
     <g id="text_10">
      <!-- 80 -->
      <defs>
       <path d="M 31.78125 34.625 
Q 24.75 34.625 20.71875 30.859375 
Q 16.703125 27.09375 16.703125 20.515625 
Q 16.703125 13.921875 20.71875 10.15625 
Q 24.75 6.390625 31.78125 6.390625 
Q 38.8125 6.390625 42.859375 10.171875 
Q 46.921875 13.96875 46.921875 20.515625 
Q 46.921875 27.09375 42.890625 30.859375 
Q 38.875 34.625 31.78125 34.625 
M 21.921875 38.8125 
Q 15.578125 40.375 12.03125 44.71875 
Q 8.5 49.078125 8.5 55.328125 
Q 8.5 64.0625 14.71875 69.140625 
Q 20.953125 74.21875 31.78125 74.21875 
Q 42.671875 74.21875 48.875 69.140625 
Q 55.078125 64.0625 55.078125 55.328125 
Q 55.078125 49.078125 51.53125 44.71875 
Q 48 40.375 41.703125 38.8125 
Q 48.828125 37.15625 52.796875 32.3125 
Q 56.78125 27.484375 56.78125 20.515625 
Q 56.78125 9.90625 50.3125 4.234375 
Q 43.84375 -1.421875 31.78125 -1.421875 
Q 19.734375 -1.421875 13.25 4.234375 
Q 6.78125 9.90625 6.78125 20.515625 
Q 6.78125 27.484375 10.78125 32.3125 
Q 14.796875 37.15625 21.921875 38.8125 
M 18.3125 54.390625 
Q 18.3125 48.734375 21.84375 45.5625 
Q 25.390625 42.390625 31.78125 42.390625 
Q 38.140625 42.390625 41.71875 45.5625 
Q 45.3125 48.734375 45.3125 54.390625 
Q 45.3125 60.0625 41.71875 63.234375 
Q 38.140625 66.40625 31.78125 66.40625 
Q 25.390625 66.40625 21.84375 63.234375 
Q 18.3125 60.0625 18.3125 54.390625 
" id="DejaVuSans-38"/>
      </defs>
      <g transform="translate(37.875 162.775219)scale(0.1 -0.1)">
       <use xlink:href="#DejaVuSans-38"/>
       <use x="63.623047" xlink:href="#DejaVuSans-30"/>
      </g>
     </g>
    </g>
    <g id="ytick_6">
     <g id="line2d_21">
      <path clip-path="url(#p75976f34d6)" d="M 57.6 132.270545 
L 414.72 132.270545 
" style="fill:none;stroke:#b0b0b0;stroke-linecap:square;stroke-width:0.8;"/>
     </g>
     <g id="line2d_22">
      <g>
       <use style="stroke:#000000;stroke-width:0.8;" x="57.6" xlink:href="#m86edf206e6" y="132.270545"/>
      </g>
     </g>
     <g id="text_11">
      <!-- 100 -->
      <g transform="translate(31.5125 136.069764)scale(0.1 -0.1)">
       <use xlink:href="#DejaVuSans-31"/>
       <use x="63.623047" xlink:href="#DejaVuSans-30"/>
       <use x="127.246094" xlink:href="#DejaVuSans-30"/>
      </g>
     </g>
    </g>
    <g id="ytick_7">
     <g id="line2d_23">
      <path clip-path="url(#p75976f34d6)" d="M 57.6 105.565091 
L 414.72 105.565091 
" style="fill:none;stroke:#b0b0b0;stroke-linecap:square;stroke-width:0.8;"/>
     </g>
     <g id="line2d_24">
      <g>
       <use style="stroke:#000000;stroke-width:0.8;" x="57.6" xlink:href="#m86edf206e6" y="105.565091"/>
      </g>
     </g>
     <g id="text_12">
      <!-- 120 -->
      <g transform="translate(31.5125 109.36431)scale(0.1 -0.1)">
       <use xlink:href="#DejaVuSans-31"/>
       <use x="63.623047" xlink:href="#DejaVuSans-32"/>
       <use x="127.246094" xlink:href="#DejaVuSans-30"/>
      </g>
     </g>
    </g>
    <g id="ytick_8">
     <g id="line2d_25">
      <path clip-path="url(#p75976f34d6)" d="M 57.6 78.859636 
L 414.72 78.859636 
" style="fill:none;stroke:#b0b0b0;stroke-linecap:square;stroke-width:0.8;"/>
     </g>
     <g id="line2d_26">
      <g>
       <use style="stroke:#000000;stroke-width:0.8;" x="57.6" xlink:href="#m86edf206e6" y="78.859636"/>
      </g>
     </g>
     <g id="text_13">
      <!-- 140 -->
      <g transform="translate(31.5125 82.658855)scale(0.1 -0.1)">
       <use xlink:href="#DejaVuSans-31"/>
       <use x="63.623047" xlink:href="#DejaVuSans-34"/>
       <use x="127.246094" xlink:href="#DejaVuSans-30"/>
      </g>
     </g>
    </g>
    <g id="ytick_9">
     <g id="line2d_27">
      <path clip-path="url(#p75976f34d6)" d="M 57.6 52.154182 
L 414.72 52.154182 
" style="fill:none;stroke:#b0b0b0;stroke-linecap:square;stroke-width:0.8;"/>
     </g>
     <g id="line2d_28">
      <g>
       <use style="stroke:#000000;stroke-width:0.8;" x="57.6" xlink:href="#m86edf206e6" y="52.154182"/>
      </g>
     </g>
     <g id="text_14">
      <!-- 160 -->
      <g transform="translate(31.5125 55.953401)scale(0.1 -0.1)">
       <use xlink:href="#DejaVuSans-31"/>
       <use x="63.623047" xlink:href="#DejaVuSans-36"/>
       <use x="127.246094" xlink:href="#DejaVuSans-30"/>
      </g>
     </g>
    </g>
   </g>
   <g id="line2d_29">
    <path clip-path="url(#p75976f34d6)" d="M 73.986738 188.352 
L 76.296898 170.993455 
L 78.491551 161.646545 
L 80.994225 157.640727 
L 81.109733 158.976 
L 82.110802 162.981818 
L 84.96 168.322909 
L 85.999572 168.322909 
L 90.42738 142.952727 
L 90.966417 129.6 
L 92.237005 64.171636 
L 92.352513 66.842182 
L 92.583529 66.842182 
L 92.699038 65.506909 
L 93.007059 69.512727 
L 93.161069 69.512727 
L 93.392086 66.842182 
L 93.815615 73.518545 
L 94.046631 66.842182 
L 94.123636 66.842182 
L 94.277647 65.506909 
L 94.431658 66.842182 
L 94.508663 66.842182 
L 94.816684 62.836364 
L 94.970695 64.171636 
L 95.124706 64.171636 
L 95.355722 60.165818 
L 95.779251 66.842182 
L 95.933262 65.506909 
L 96.279786 65.506909 
L 96.549304 61.501091 
L 96.703316 61.501091 
L 97.011337 65.506909 
L 97.165348 65.506909 
L 97.319358 64.171636 
L 97.473369 65.506909 
L 97.550375 65.506909 
L 97.704385 66.842182 
L 97.858396 66.842182 
L 98.012406 65.506909 
L 98.089412 65.506909 
L 98.243422 66.842182 
L 98.320427 66.842182 
L 98.397433 65.506909 
L 98.705454 70.848 
L 98.936471 66.842182 
L 99.051979 66.842182 
L 99.321497 69.512727 
L 99.475508 72.183273 
L 99.629519 68.177455 
L 99.706524 68.177455 
L 99.860535 69.512727 
L 99.899037 69.512727 
L 100.091551 66.842182 
L 100.399572 70.848 
L 100.784599 65.506909 
L 100.861604 65.506909 
L 101.015615 69.512727 
L 101.208128 77.524364 
L 101.477647 90.877091 
L 101.708663 93.547636 
L 101.785668 93.547636 
L 102.2477 86.871273 
L 102.324706 86.871273 
L 102.517219 77.524364 
L 102.67123 81.530182 
L 102.748235 81.530182 
L 102.902246 82.865455 
L 103.133262 80.194909 
L 103.210268 80.194909 
L 103.364278 81.530182 
L 103.595294 81.530182 
L 103.749305 82.865455 
L 103.82631 82.865455 
L 103.980321 84.200727 
L 104.134332 82.865455 
L 104.211337 82.865455 
L 104.365347 88.206545 
L 104.442353 88.206545 
L 104.673369 92.212364 
L 104.827379 89.541818 
L 104.942888 90.877091 
L 105.096898 90.877091 
L 105.250909 89.541818 
L 105.635936 89.541818 
L 105.943957 93.547636 
L 106.020962 93.547636 
L 106.097968 92.212364 
L 106.290481 101.559273 
L 106.405989 98.888727 
L 107.214545 118.917818 
L 109.332192 112.241455 
L 111.257326 114.912 
L 113.605989 122.923636 
L 117.186738 89.541818 
L 117.764278 104.229818 
L 117.956791 114.912 
L 121.306524 129.6 
L 124.810267 126.929455 
L 125.195294 129.6 
L 128.082994 124.258909 
L 128.583529 125.594182 
L 130.431658 108.235636 
L 134.666952 110.906182 
L 134.897968 104.229818 
L 135.013476 104.229818 
L 135.128984 102.894545 
L 135.321497 105.565091 
L 135.398503 104.229818 
L 135.51401 105.565091 
L 135.629519 105.565091 
L 135.822032 102.894545 
L 136.014545 101.559273 
L 136.284064 105.565091 
L 136.399572 105.565091 
L 136.823102 109.570909 
L 137.208128 128.264727 
L 138.440214 118.917818 
L 140.288342 153.634909 
L 140.904385 150.964364 
L 141.058396 149.629091 
L 143.060534 157.640727 
L 144.831658 152.299636 
L 145.87123 134.941091 
L 146.602781 128.264727 
L 147.411337 122.923636 
L 148.489412 108.235636 
L 154.187808 90.877091 
L 159.963209 117.582545 
L 161.041284 100.224 
L 161.42631 112.241455 
L 161.541818 113.576727 
L 161.695829 110.906182 
L 161.926845 113.576727 
L 162.00385 113.576727 
L 162.388877 106.900364 
L 162.619893 112.241455 
L 162.773904 116.247273 
L 163.197433 104.229818 
L 163.428449 109.570909 
L 163.58246 110.906182 
L 164.005989 110.906182 
L 164.198503 108.235636 
L 164.352513 108.235636 
L 164.506524 112.241455 
L 164.622032 113.576727 
L 164.699038 113.576727 
L 164.853048 110.906182 
L 165.045561 110.906182 
L 165.73861 82.865455 
L 165.815615 82.865455 
L 166.008128 86.871273 
L 166.123636 86.871273 
L 166.662673 78.859636 
L 166.970695 78.859636 
L 167.0477 80.194909 
L 167.278717 88.206545 
L 167.548235 88.206545 
L 167.663743 89.541818 
L 169.319358 89.541818 
L 169.473369 86.871273 
L 169.858396 98.888727 
L 170.012406 94.882909 
L 170.20492 97.553455 
L 170.628449 85.536 
L 170.78246 86.871273 
L 170.974973 86.871273 
L 171.090481 85.536 
L 171.475508 85.536 
L 171.668022 88.206545 
L 171.783529 88.206545 
L 171.93754 89.541818 
L 174.170695 89.541818 
L 174.324706 90.877091 
L 174.478716 86.871273 
L 174.632727 82.865455 
L 174.825241 85.536 
L 175.056257 85.536 
L 175.210267 88.206545 
L 175.287272 88.206545 
L 175.364278 86.871273 
L 175.518289 89.541818 
L 176.673369 89.541818 
L 176.82738 90.877091 
L 179.291551 90.877091 
L 179.599572 96.218182 
L 179.830588 86.871273 
L 179.946096 80.194909 
L 179.984599 81.530182 
L 180.215615 89.541818 
L 180.369626 88.206545 
L 180.562139 92.212364 
L 180.716149 93.547636 
L 180.908663 93.547636 
L 181.87123 92.212364 
L 184.681925 93.547636 
L 186.761069 124.258909 
L 187.107594 102.894545 
L 187.184599 102.894545 
L 187.261604 104.229818 
L 187.49262 97.553455 
L 187.685133 100.224 
L 187.954652 96.218182 
L 188.416684 104.229818 
L 188.49369 104.229818 
L 188.570695 102.894545 
L 188.724706 98.888727 
L 188.801712 98.888727 
L 188.955722 94.882909 
L 189.340749 101.559273 
L 189.494759 105.565091 
L 189.571764 105.565091 
L 189.764278 108.235636 
L 189.995294 98.888727 
L 190.072299 100.224 
L 190.303316 100.224 
L 190.726845 108.235636 
L 190.80385 106.900364 
L 190.957861 108.235636 
L 191.034866 108.235636 
L 191.150374 106.900364 
L 191.381391 102.894545 
L 191.458396 102.894545 
L 191.689412 105.565091 
L 191.766417 104.229818 
L 192.112941 104.229818 
L 192.343957 108.235636 
L 192.728984 97.553455 
L 192.805989 97.553455 
L 192.998503 101.559273 
L 193.152514 98.888727 
L 193.191016 98.888727 
L 193.306524 100.224 
L 193.691551 105.565091 
L 194.808128 105.565091 
L 195.000641 106.900364 
L 195.732193 106.900364 
L 196.078716 112.241455 
L 198.966417 112.241455 
L 199.58246 124.258909 
L 199.736471 112.241455 
L 199.928984 100.224 
L 199.967487 101.559273 
L 200.005989 101.559273 
L 200.198503 105.565091 
L 200.314011 104.229818 
L 200.699038 109.570909 
L 200.930053 109.570909 
L 201.084064 106.900364 
L 201.199572 106.900364 
L 201.469091 110.906182 
L 201.623102 112.241455 
L 201.777112 112.241455 
L 202.31615 92.212364 
L 202.47016 93.547636 
L 202.701176 90.877091 
L 202.932192 93.547636 
L 203.009198 93.547636 
L 203.124706 92.212364 
L 203.201711 92.212364 
L 203.817754 101.559273 
L 203.894759 101.559273 
L 204.202781 93.547636 
L 204.279786 93.547636 
L 204.395294 94.882909 
L 204.4723 96.218182 
L 204.62631 101.559273 
L 204.703315 101.559273 
L 204.780321 102.894545 
L 204.972834 102.894545 
L 205.126845 104.229818 
L 205.473369 104.229818 
L 205.78139 108.235636 
L 205.858396 108.235636 
L 205.973904 110.906182 
L 206.089412 110.906182 
L 206.474439 96.218182 
L 206.551444 94.882909 
L 206.936471 100.224 
L 206.974973 100.224 
L 207.090481 102.894545 
L 207.282994 102.894545 
L 207.398503 104.229818 
L 207.629519 106.900364 
L 207.783529 106.900364 
L 207.899037 105.565091 
L 208.053048 104.229818 
L 208.245562 105.565091 
L 208.553583 100.224 
L 208.784599 98.888727 
L 209.015615 94.882909 
L 209.131123 94.882909 
L 209.323637 96.218182 
L 209.400641 94.882909 
L 209.51615 96.218182 
L 209.747166 93.547636 
L 209.824171 93.547636 
L 209.978182 94.882909 
L 212.596364 94.882909 
L 212.904385 104.229818 
L 213.058395 100.224 
L 213.289412 93.547636 
L 213.481925 97.553455 
L 213.520428 97.553455 
L 213.789947 104.229818 
L 213.828449 104.229818 
L 214.059465 100.224 
L 214.213476 101.559273 
L 214.367487 100.224 
L 214.444492 100.224 
L 214.752513 96.218182 
L 214.829519 96.218182 
L 214.906524 97.553455 
L 215.13754 104.229818 
L 215.214545 104.229818 
L 215.291551 105.565091 
L 215.445561 105.565091 
L 215.869091 100.224 
L 216.254117 100.224 
L 216.446631 94.882909 
L 216.754653 100.224 
L 216.908663 104.229818 
L 217.024171 100.224 
L 217.178182 89.541818 
L 217.255187 90.877091 
L 217.332192 90.877091 
L 217.447701 89.541818 
L 217.678717 85.536 
L 217.832727 85.536 
L 218.025241 86.871273 
L 218.140749 85.536 
L 218.256257 88.206545 
L 218.371765 88.206545 
L 218.679786 85.536 
L 218.8723 85.536 
L 219.064813 88.206545 
L 219.180321 90.877091 
L 219.44984 90.877091 
L 219.60385 92.212364 
L 219.680856 92.212364 
L 219.873369 88.206545 
L 220.219893 89.541818 
L 220.373904 88.206545 
L 220.450909 88.206545 
L 220.643423 85.536 
L 221.105454 98.888727 
L 221.143958 98.888727 
L 221.336471 102.894545 
L 221.374973 102.894545 
L 221.528984 104.229818 
L 221.682995 100.224 
L 222.49155 100.224 
L 222.645562 101.559273 
L 222.838075 101.559273 
L 223.839144 102.894545 
L 228.305455 112.241455 
L 228.728984 105.565091 
L 229.037005 110.906182 
L 229.114011 109.570909 
L 229.499038 121.588364 
L 229.576043 120.253091 
L 229.807059 113.576727 
L 230.076578 113.576727 
L 230.230588 117.582545 
L 230.500107 110.906182 
L 232.84877 121.588364 
L 233.426311 121.588364 
L 233.811337 130.935273 
L 239.548235 122.923636 
L 240.587808 118.917818 
L 240.780321 117.582545 
L 241.088342 126.929455 
L 241.165348 124.258909 
L 241.280856 124.258909 
L 241.434866 116.247273 
L 241.588877 112.241455 
L 241.819893 109.570909 
L 242.243423 105.565091 
L 242.589947 105.565091 
L 242.666952 101.559273 
L 242.78246 101.559273 
L 242.897968 104.229818 
L 243.167487 101.559273 
L 243.282995 104.229818 
L 243.398503 102.894545 
L 243.668021 94.882909 
L 243.822032 96.218182 
L 243.899037 94.882909 
L 244.130054 98.888727 
L 244.284064 93.547636 
L 245.323637 116.247273 
L 245.67016 104.229818 
L 246.170695 104.229818 
L 246.247701 102.894545 
L 246.401711 97.553455 
L 246.594224 94.882909 
L 246.67123 94.882909 
L 246.979251 89.541818 
L 247.056256 85.536 
L 247.171765 86.871273 
L 247.325775 85.536 
L 247.441284 85.536 
L 247.710802 78.859636 
L 247.787807 78.859636 
L 248.095829 85.536 
L 248.172834 84.200727 
L 248.326845 82.865455 
L 248.596364 82.865455 
L 248.673369 81.530182 
L 248.98139 90.877091 
L 249.058396 90.877091 
L 249.212407 93.547636 
L 249.40492 100.224 
L 249.635936 100.224 
L 249.866952 105.565091 
L 250.059465 110.906182 
L 250.136471 109.570909 
L 250.675508 80.194909 
L 250.752513 81.530182 
L 250.906524 81.530182 
L 251.022032 78.859636 
L 251.638075 96.218182 
L 251.71508 94.882909 
L 251.946096 85.536 
L 252.061604 82.865455 
L 252.29262 76.189091 
L 252.446631 80.194909 
L 252.600642 80.194909 
L 253.062674 73.518545 
L 253.178182 73.518545 
L 253.370695 76.189091 
L 253.563209 74.853818 
L 254.140749 77.524364 
L 254.294759 77.524364 
L 254.44877 76.189091 
L 254.679786 81.530182 
L 254.910802 76.189091 
L 255.141819 80.194909 
L 255.218823 80.194909 
L 256.527915 101.559273 
L 256.60492 101.559273 
L 257.220963 110.906182 
L 257.374973 110.906182 
L 257.451979 108.235636 
L 257.682994 85.536 
L 259.646631 85.536 
L 259.839144 77.524364 
L 260.147166 72.183273 
L 260.262674 73.518545 
L 260.378182 72.183273 
L 260.647701 72.183273 
L 260.840214 74.853818 
L 260.955722 73.518545 
L 261.032727 74.853818 
L 265.614545 126.929455 
L 266.11508 101.559273 
L 266.192085 101.559273 
L 266.307593 102.894545 
L 266.53861 97.553455 
L 266.615615 101.559273 
L 266.846631 93.547636 
L 267.000642 97.553455 
L 267.154653 97.553455 
L 267.231658 100.224 
L 267.655187 88.206545 
L 267.924706 92.212364 
L 268.040214 92.212364 
L 268.232727 94.882909 
L 268.386738 96.218182 
L 268.540749 98.888727 
L 268.964278 84.200727 
L 269.041283 84.200727 
L 269.118289 85.536 
L 269.42631 96.218182 
L 269.464813 96.218182 
L 269.772834 105.565091 
L 269.84984 105.565091 
L 270.234866 112.241455 
L 270.58139 98.888727 
L 270.658396 100.224 
L 270.966417 94.882909 
L 271.197433 82.865455 
L 271.466952 94.882909 
L 271.659465 102.894545 
L 271.736471 101.559273 
L 271.890481 100.224 
L 273.777112 100.224 
L 276.04877 92.212364 
L 276.356791 88.206545 
L 276.857327 57.495273 
L 277.011337 52.154182 
L 277.396364 62.836364 
L 277.550375 62.836364 
L 277.704385 60.165818 
L 277.819893 61.501091 
L 277.896898 61.501091 
L 278.20492 57.495273 
L 278.859465 77.524364 
L 279.090481 73.518545 
L 279.629519 93.547636 
L 279.783529 92.212364 
L 279.976043 94.882909 
L 280.245562 89.541818 
L 280.284064 90.877091 
L 280.399572 97.553455 
L 280.630589 106.900364 
L 280.784599 109.570909 
L 280.861604 109.570909 
L 281.015615 112.241455 
L 281.09262 113.576727 
L 281.208128 118.917818 
L 281.285134 116.247273 
L 281.51615 93.547636 
L 281.824171 89.541818 
L 281.978182 89.541818 
L 282.170695 97.553455 
L 282.2477 96.218182 
L 282.324706 96.218182 
L 282.440214 98.888727 
L 282.786738 104.229818 
L 283.210268 104.229818 
L 283.441283 101.559273 
L 283.749305 97.553455 
L 283.787807 97.553455 
L 283.864813 96.218182 
L 283.941818 97.553455 
L 284.134332 101.559273 
L 284.442353 97.553455 
L 284.596364 98.888727 
L 285.058396 90.877091 
L 285.212407 92.212364 
L 285.289412 90.877091 
L 285.443422 93.547636 
L 285.674438 102.894545 
L 286.059465 85.536 
L 286.213476 89.541818 
L 286.444492 84.200727 
L 286.752513 69.512727 
L 287.099037 77.524364 
L 287.368556 72.183273 
L 287.445561 74.853818 
L 287.676578 85.536 
L 287.907594 92.212364 
L 287.984599 92.212364 
L 288.215615 96.218182 
L 288.485134 108.235636 
L 288.562139 108.235636 
L 288.71615 112.241455 
L 288.793155 112.241455 
L 288.947166 114.912 
L 289.062674 112.241455 
L 289.139679 113.576727 
L 289.832727 120.253091 
L 289.948235 120.253091 
L 290.063744 113.576727 
L 290.410267 78.859636 
L 290.564278 72.183273 
L 290.641284 73.518545 
L 291.02631 93.547636 
L 291.103315 92.212364 
L 291.218823 93.547636 
L 291.44984 101.559273 
L 291.526845 100.224 
L 291.642353 101.559273 
L 291.719358 100.224 
L 292.296898 109.570909 
L 292.373904 109.570909 
L 292.527915 108.235636 
L 292.681925 110.906182 
L 292.797433 108.235636 
L 292.912941 108.235636 
L 293.066952 109.570909 
L 295.223102 122.923636 
L 295.377112 126.929455 
L 295.646631 126.929455 
L 295.877647 129.6 
L 295.91615 129.6 
L 296.031658 128.264727 
L 296.301177 128.264727 
L 296.686203 112.241455 
L 296.763209 113.576727 
L 297.07123 117.582545 
L 297.186738 110.906182 
L 297.379251 96.218182 
L 297.417754 97.553455 
L 297.533262 97.553455 
L 297.841284 105.565091 
L 297.879786 105.565091 
L 297.918289 106.900364 
L 297.956791 105.565091 
L 298.033797 105.565091 
L 298.149305 106.900364 
L 298.22631 106.900364 
L 298.341818 105.565091 
L 298.611337 105.565091 
L 298.80385 108.235636 
L 299.111872 108.235636 
L 299.535401 121.588364 
L 299.650909 121.588364 
L 299.80492 118.917818 
L 299.95893 118.917818 
L 300.074439 117.582545 
L 301.075508 117.582545 
L 301.383529 120.253091 
L 301.691551 120.253091 
L 301.807059 113.576727 
L 302.153583 92.212364 
L 302.192086 93.547636 
L 302.577112 104.229818 
L 302.654118 104.229818 
L 302.731123 102.894545 
L 302.846631 104.229818 
L 303.231658 104.229818 
L 303.308663 105.565091 
L 303.770695 105.565091 
L 304.001711 110.906182 
L 304.117219 116.247273 
L 304.386738 112.241455 
L 304.540749 113.576727 
L 305.84984 113.576727 
L 306.157861 108.235636 
L 306.311872 109.570909 
L 306.504385 124.258909 
L 306.658396 126.929455 
L 306.889411 104.229818 
L 307.120428 84.200727 
L 307.197433 84.200727 
L 307.351444 85.536 
L 308.545027 85.536 
L 308.660535 86.871273 
L 308.699038 86.871273 
L 308.930054 92.212364 
L 309.084064 93.547636 
L 309.392086 93.547636 
L 309.546096 90.877091 
L 310.624171 90.877091 
L 310.739679 92.212364 
L 310.89369 90.877091 
L 311.086203 80.194909 
L 311.163208 81.530182 
L 311.394225 78.859636 
L 311.432727 78.859636 
L 312.202781 102.894545 
L 312.279786 102.894545 
L 312.510802 105.565091 
L 313.011337 105.565091 
L 313.126845 104.229818 
L 313.319358 101.559273 
L 313.62738 104.229818 
L 313.742887 105.565091 
L 313.819893 105.565091 
L 313.973904 102.894545 
L 314.743957 102.894545 
L 314.897968 101.559273 
L 315.36 101.559273 
L 315.475508 102.894545 
L 315.591016 102.894545 
L 315.783529 105.565091 
L 315.860535 105.565091 
L 316.168556 96.218182 
L 316.322567 100.224 
L 316.399572 101.559273 
L 316.476578 97.553455 
L 316.669091 80.194909 
L 316.746097 80.194909 
L 316.900107 82.865455 
L 316.93861 82.865455 
L 317.131123 86.871273 
L 317.708663 86.871273 
L 317.978182 93.547636 
L 318.09369 94.882909 
L 318.363209 94.882909 
L 318.979251 116.247273 
L 319.287273 105.565091 
L 319.787807 96.218182 
L 320.24984 96.218182 
L 320.326845 97.553455 
L 320.480856 101.559273 
L 320.519358 101.559273 
L 320.750374 96.218182 
L 320.904385 96.218182 
L 321.135401 94.882909 
L 321.443422 80.194909 
L 322.020963 97.553455 
L 322.097968 93.547636 
L 322.328984 78.859636 
L 322.829519 93.547636 
L 322.98353 94.882909 
L 323.099038 93.547636 
L 323.830588 93.547636 
L 324.100107 100.224 
L 324.331123 102.894545 
L 326.333262 102.894545 
L 326.410267 104.229818 
L 326.641284 113.576727 
L 326.718289 112.241455 
L 326.949305 94.882909 
L 327.02631 93.547636 
L 327.295829 100.224 
L 327.334332 100.224 
L 327.488342 102.894545 
L 327.526845 102.894545 
L 327.796364 108.235636 
L 327.950374 114.912 
L 328.142888 112.241455 
L 328.60492 112.241455 
L 328.758931 116.247273 
L 329.02845 125.594182 
L 329.18246 124.258909 
L 329.374973 124.258909 
L 329.490481 125.594182 
L 329.721498 125.594182 
L 329.837006 126.929455 
L 331.454118 126.929455 
L 331.531123 128.264727 
L 331.877647 116.247273 
L 332.031658 114.912 
L 332.108663 114.912 
L 332.532193 96.218182 
L 332.878716 105.565091 
L 332.917219 105.565091 
L 333.148235 108.235636 
L 333.379251 108.235636 
L 333.533262 110.906182 
L 333.802781 110.906182 
L 334.110802 105.565091 
L 334.380321 105.565091 
L 334.534332 108.235636 
L 334.611337 108.235636 
L 334.765347 110.906182 
L 334.957861 110.906182 
L 335.073369 109.570909 
L 335.188877 109.570909 
L 335.342888 108.235636 
L 335.381391 108.235636 
L 335.612407 110.906182 
L 335.727914 110.906182 
L 335.80492 112.241455 
L 336.420963 112.241455 
L 336.767487 117.582545 
L 336.882995 117.582545 
L 336.921497 118.917818 
L 336.96 117.582545 
L 337.037005 117.582545 
L 337.152514 121.588364 
L 337.191016 120.253091 
L 337.53754 100.224 
L 337.768556 102.894545 
L 337.884064 102.894545 
L 337.999572 104.229818 
L 338.038075 104.229818 
L 338.153583 101.559273 
L 338.269091 104.229818 
L 338.346097 104.229818 
L 338.500107 102.894545 
L 338.731123 105.565091 
L 338.962139 102.894545 
L 339.11615 110.906182 
L 339.462674 128.264727 
L 339.770695 132.270545 
L 339.924706 130.935273 
L 340.040214 130.935273 
L 340.194225 129.6 
L 340.27123 129.6 
L 340.386738 130.935273 
L 340.964278 130.935273 
L 341.118289 132.270545 
L 341.2723 120.253091 
L 341.42631 118.917818 
L 341.580321 112.241455 
L 341.734332 116.247273 
L 341.811337 114.912 
L 342.196364 85.536 
L 342.273369 88.206545 
L 342.619893 97.553455 
L 342.850909 100.224 
L 343.00492 100.224 
L 343.15893 105.565091 
L 343.466952 105.565091 
L 343.813476 96.218182 
L 344.005989 96.218182 
L 344.16 98.888727 
L 344.198503 98.888727 
L 344.314011 100.224 
L 344.468021 97.553455 
L 344.622032 96.218182 
L 344.699038 96.218182 
L 345.084064 101.559273 
L 345.238075 101.559273 
L 345.392086 100.224 
L 345.73861 100.224 
L 345.892621 98.888727 
L 345.969626 98.888727 
L 346.085134 97.553455 
L 346.31615 90.877091 
L 346.585669 90.877091 
L 346.932192 72.183273 
L 346.970695 72.183273 
L 347.509733 88.206545 
L 347.586738 89.541818 
L 347.817754 100.224 
L 347.971765 101.559273 
L 348.087273 101.559273 
L 348.164279 100.224 
L 348.510802 81.530182 
L 348.587807 81.530182 
L 348.895829 88.206545 
L 349.280856 98.888727 
L 349.319358 98.888727 
L 349.434866 100.224 
L 349.511872 100.224 
L 349.62738 101.559273 
L 349.973904 101.559273 
L 350.127914 98.888727 
L 350.281925 98.888727 
L 350.397433 97.553455 
L 350.589947 97.553455 
L 350.743958 96.218182 
L 350.820963 96.218182 
L 350.897968 94.882909 
L 351.167487 104.229818 
L 351.244492 102.894545 
L 351.629519 77.524364 
L 351.668022 78.859636 
L 351.976043 82.865455 
L 352.130054 81.530182 
L 352.168556 81.530182 
L 352.284064 80.194909 
L 352.51508 77.524364 
L 352.669091 66.842182 
L 353.09262 54.824727 
L 353.246631 54.824727 
L 353.631658 62.836364 
L 353.747166 65.506909 
L 353.824171 65.506909 
L 353.939679 66.842182 
L 354.016685 66.842182 
L 354.555722 74.853818 
L 354.632727 74.853818 
L 354.979251 80.194909 
L 355.210268 80.194909 
L 355.325776 77.524364 
L 355.556791 82.865455 
L 355.787807 92.212364 
L 355.980321 88.206545 
L 356.211337 76.189091 
L 356.634866 88.206545 
L 356.82738 90.877091 
L 357.40492 90.877091 
L 357.751444 84.200727 
L 357.98246 84.200727 
L 358.213476 89.541818 
L 358.482995 96.218182 
L 358.637005 96.218182 
L 358.752513 97.553455 
L 358.829519 97.553455 
L 358.906524 98.888727 
L 359.060535 97.553455 
L 359.13754 97.553455 
L 359.214545 96.218182 
L 359.599572 80.194909 
L 360.754653 80.194909 
L 360.908663 76.189091 
L 361.139679 80.194909 
L 361.178182 78.859636 
L 361.216684 80.194909 
L 361.678717 93.547636 
L 361.755722 93.547636 
L 362.102246 100.224 
L 362.294759 105.565091 
L 362.410267 105.565091 
L 362.756792 113.576727 
L 362.987808 113.576727 
L 363.141818 116.247273 
L 363.372835 108.235636 
L 363.565348 110.906182 
L 363.642353 110.906182 
L 363.873369 97.553455 
L 364.02738 98.888727 
L 367.762139 110.906182 
L 370.264813 126.929455 
L 374.346096 126.929455 
L 375.424171 112.241455 
L 375.809198 112.241455 
L 375.924706 113.576727 
L 377.734332 128.264727 
L 379.312942 133.605818 
L 381.084064 129.6 
L 387.167487 134.941091 
L 389.246631 130.935273 
L 393.019893 130.935273 
L 393.597433 133.605818 
L 393.751444 134.941091 
L 394.521498 142.952727 
L 394.98353 149.629091 
L 395.676578 149.629091 
L 395.984599 145.623273 
L 397.101177 150.964364 
L 397.447701 150.964364 
L 397.563209 149.629091 
L 397.678717 146.958545 
L 398.063743 146.958545 
L 398.063743 146.958545 
" style="fill:none;stroke:#1f77b4;stroke-linecap:square;stroke-width:1.5;"/>
   </g>
   <g id="line2d_30">
    <path clip-path="url(#p75976f34d6)" d="M 74.102246 169.658182 
L 74.333262 158.976 
L 74.756791 133.605818 
L 74.872299 129.6 
L 75.02631 133.605818 
L 75.180321 142.952727 
L 75.834866 146.958545 
L 76.02738 150.964364 
L 76.566417 146.958545 
L 77.143957 158.976 
L 77.220963 162.981818 
L 77.875508 166.987636 
L 78.568556 162.981818 
L 80.416685 166.987636 
L 80.763208 170.993455 
L 81.302246 166.987636 
L 81.456256 170.993455 
L 81.764278 174.999273 
L 82.22631 166.987636 
L 82.726845 170.993455 
L 84.074439 166.987636 
L 84.690481 162.981818 
L 86.038074 166.987636 
L 86.731123 174.999273 
L 87.077647 179.005091 
L 87.539679 174.999273 
L 88.001711 165.652364 
L 88.733262 161.646545 
L 88.84877 165.652364 
L 89.233797 161.646545 
L 89.580321 165.652364 
L 89.811337 161.646545 
L 90.542887 156.305455 
L 90.735401 148.293818 
L 91.081925 125.594182 
L 91.312941 116.247273 
L 92.044492 110.906182 
L 92.275508 112.241455 
L 92.853048 104.229818 
L 93.700107 98.888727 
L 94.085134 97.553455 
L 94.47016 98.888727 
L 94.855187 96.218182 
L 95.317219 97.553455 
L 95.625241 96.218182 
L 96.241283 96.218182 
L 96.549304 98.888727 
L 96.741818 94.882909 
L 97.511871 89.541818 
L 97.896898 90.877091 
L 98.281925 90.877091 
L 98.666952 89.541818 
L 98.936471 90.877091 
L 100.399572 90.877091 
L 100.707593 89.541818 
L 100.861604 93.547636 
L 101.208128 94.882909 
L 101.593155 93.547636 
L 102.093689 85.536 
L 102.440214 82.865455 
L 103.479786 82.865455 
L 103.82631 84.200727 
L 104.211337 88.206545 
L 104.634866 90.877091 
L 104.98139 90.877091 
L 105.327914 89.541818 
L 105.674438 92.212364 
L 106.213476 100.224 
L 106.791016 114.912 
L 107.13754 118.917818 
L 107.291551 122.923636 
L 108.485134 118.917818 
L 110.256257 114.912 
L 110.60278 118.917818 
L 110.795294 128.264727 
L 112.219893 124.258909 
L 113.413476 120.253091 
L 114.645561 124.258909 
L 116.763208 128.264727 
L 117.07123 133.605818 
L 117.148235 137.611636 
L 117.533262 141.617455 
L 117.995294 137.611636 
L 118.418824 141.617455 
L 118.726845 137.611636 
L 119.419893 136.276364 
L 120.151444 140.282182 
L 120.228449 144.288 
L 120.459465 140.282182 
L 120.574973 134.941091 
L 120.767487 138.946909 
L 120.96 134.941091 
L 121.037005 130.935273 
L 121.653048 126.929455 
L 121.884064 136.276364 
L 122.269091 132.270545 
L 123.231658 136.276364 
L 123.69369 128.264727 
L 125.541818 124.258909 
L 125.695829 130.935273 
L 126.388877 125.594182 
L 126.504385 121.588364 
L 126.619893 125.594182 
L 127.274438 121.588364 
L 128.121497 125.594182 
L 128.853048 121.588364 
L 129.122567 117.582545 
L 129.931123 109.570909 
L 130.816684 113.576727 
L 131.355722 118.917818 
L 131.47123 122.923636 
L 131.740748 126.929455 
L 131.856256 132.270545 
L 132.241283 136.276364 
L 132.4723 125.594182 
L 132.587807 120.253091 
L 133.011337 128.264727 
L 133.242352 124.258909 
L 133.62738 132.270545 
L 133.973904 128.264727 
L 134.20492 118.917818 
L 134.743957 122.923636 
L 135.090481 126.929455 
L 135.822032 130.935273 
L 135.976043 134.941091 
L 136.245561 138.946909 
L 137.054118 142.952727 
L 138.825241 146.958545 
L 139.518289 150.964364 
L 140.365347 146.958545 
L 140.82738 142.952727 
L 141.019893 138.946909 
L 141.751444 142.952727 
L 142.367486 146.958545 
L 142.482995 150.964364 
L 142.945026 156.305455 
L 143.13754 152.299636 
L 143.330053 156.305455 
L 143.638075 148.293818 
L 143.753583 152.299636 
L 144.061604 148.293818 
L 144.254117 152.299636 
L 144.408128 148.293818 
L 144.562139 152.299636 
L 144.793155 148.293818 
L 145.486203 144.288 
L 145.755722 134.941091 
L 145.948235 126.929455 
L 146.371765 122.923636 
L 146.602781 126.929455 
L 147.02631 121.588364 
L 147.218823 125.594182 
L 147.60385 121.588364 
L 147.719358 117.582545 
L 147.950374 121.588364 
L 148.296898 125.594182 
L 148.527914 121.588364 
L 149.297968 129.6 
L 149.721497 125.594182 
L 150.568556 120.253091 
L 151.300107 125.594182 
L 151.685134 120.253091 
L 151.800642 116.247273 
L 152.378181 124.258909 
L 152.49369 128.264727 
L 152.878716 132.270545 
L 152.994225 136.276364 
L 153.186738 132.270545 
L 153.571764 128.264727 
L 153.802781 132.270545 
L 154.110802 126.929455 
L 155.727914 122.923636 
L 155.843422 126.929455 
L 156.459466 122.923636 
L 156.651978 118.917818 
L 157.229518 122.923636 
L 157.576043 118.917818 
L 157.768556 114.912 
L 158.615615 110.906182 
L 158.808128 101.559273 
L 159.809198 105.565091 
L 160.117219 109.570909 
L 160.194224 113.576727 
L 160.540749 109.570909 
L 160.84877 101.559273 
L 161.233797 101.559273 
L 161.580321 100.224 
L 161.772834 104.229818 
L 162.119358 106.900364 
L 162.42738 98.888727 
L 162.773904 98.888727 
L 163.043423 101.559273 
L 163.389946 100.224 
L 163.543957 96.218182 
L 163.813476 97.553455 
L 164.082994 97.553455 
L 164.352513 94.882909 
L 164.814546 88.206545 
L 165.161069 88.206545 
L 165.392086 92.212364 
L 165.969625 97.553455 
L 166.662673 97.553455 
L 166.970695 94.882909 
L 167.240214 94.882909 
L 167.856256 89.541818 
L 168.664813 77.524364 
L 169.011337 76.189091 
L 169.319358 81.530182 
L 169.935401 78.859636 
L 170.089412 82.865455 
L 170.320428 85.536 
L 170.589946 86.871273 
L 170.820962 89.541818 
L 171.051979 90.877091 
L 171.706524 90.877091 
L 172.014545 89.541818 
L 172.284064 89.541818 
L 172.553583 88.206545 
L 172.861604 85.536 
L 173.09262 81.530182 
L 173.400642 81.530182 
L 173.901176 73.518545 
L 174.170695 73.518545 
L 174.247701 76.189091 
L 174.632727 78.859636 
L 174.902246 86.871273 
L 175.133262 86.871273 
L 175.364278 89.541818 
L 175.633797 90.877091 
L 175.787807 85.536 
L 176.288342 85.536 
L 176.519359 84.200727 
L 176.904385 84.200727 
L 177.173904 86.871273 
L 177.443422 88.206545 
L 177.751444 86.871273 
L 178.059465 82.865455 
L 178.444492 74.853818 
L 178.752513 72.183273 
L 179.176043 72.183273 
L 179.330053 76.189091 
L 179.638075 78.859636 
L 179.946096 86.871273 
L 180.369626 90.877091 
L 180.562139 86.871273 
L 180.831658 85.536 
L 181.29369 94.882909 
L 182.641283 102.894545 
L 183.02631 106.900364 
L 183.064813 110.906182 
L 184.797433 116.247273 
L 184.989946 120.253091 
L 185.952514 124.258909 
L 186.222032 120.253091 
L 186.376043 124.258909 
L 186.953583 106.900364 
L 187.107594 102.894545 
L 187.377112 98.888727 
L 188.031658 98.888727 
L 188.147166 100.224 
L 188.994225 94.882909 
L 189.802781 89.541818 
L 190.072299 85.536 
L 190.534332 82.865455 
L 191.034866 82.865455 
L 191.612406 84.200727 
L 191.997433 85.536 
L 192.074438 86.871273 
L 192.420962 88.206545 
L 192.728984 85.536 
L 193.191016 85.536 
L 193.460535 88.206545 
L 193.845562 96.218182 
L 194.269091 97.553455 
L 194.69262 94.882909 
L 194.846631 92.212364 
L 195.27016 94.882909 
L 195.616684 94.882909 
L 196.078716 96.218182 
L 196.463743 93.547636 
L 196.964278 92.212364 
L 197.349305 88.206545 
L 197.926845 89.541818 
L 198.465882 88.206545 
L 199.00492 88.206545 
L 199.466952 94.882909 
L 199.774973 98.888727 
L 200.237005 101.559273 
L 200.429519 105.565091 
L 200.776042 102.894545 
L 201.122567 98.888727 
L 201.854117 94.882909 
L 202.008129 94.882909 
L 202.508663 96.218182 
L 203.317219 93.547636 
L 203.663743 89.541818 
L 204.164278 86.871273 
L 204.62631 86.871273 
L 204.857326 82.865455 
L 205.357861 81.530182 
L 206.127914 88.206545 
L 206.474439 89.541818 
L 206.743957 265.797818 
L 206.974973 265.797818 
L 207.205989 89.541818 
L 207.36 93.547636 
L 207.668022 93.547636 
L 208.053048 96.218182 
L 208.476577 97.553455 
L 208.630588 98.888727 
L 209.208128 98.888727 
L 210.055187 101.559273 
L 210.51722 100.224 
L 210.632727 96.218182 
L 211.094759 94.882909 
L 211.24877 94.882909 
L 211.710802 92.212364 
L 212.018824 88.206545 
L 212.480855 85.536 
L 212.711872 85.536 
L 213.135401 265.797818 
L 213.443423 85.536 
L 213.674438 265.797818 
L 214.174973 265.797818 
L 214.482995 86.871273 
L 214.829519 89.541818 
L 215.368556 89.541818 
L 215.792086 90.877091 
L 216.061604 90.877091 
L 216.523636 89.541818 
L 217.101176 89.541818 
L 217.717219 90.877091 
L 218.217754 89.541818 
L 219.218824 80.194909 
L 219.488342 76.189091 
L 219.950375 265.797818 
L 221.798503 265.797818 
L 222.222032 76.189091 
L 222.49155 81.530182 
L 223.261604 85.536 
L 223.877647 89.541818 
L 224.647701 93.547636 
L 224.724706 97.553455 
L 225.263743 101.559273 
L 226.688342 105.565091 
L 227.95893 112.241455 
L 228.690481 112.241455 
L 229.114011 113.576727 
L 229.53754 105.565091 
L 229.96107 105.565091 
L 230.269091 265.797818 
L 230.461604 98.888727 
L 231.770695 102.894545 
L 231.924706 106.900364 
L 233.734332 110.906182 
L 233.849839 114.912 
L 235.235936 118.917818 
L 237.507594 126.929455 
L 239.163208 122.923636 
L 239.394225 118.917818 
L 240.857327 121.588364 
L 241.280856 117.582545 
L 241.742887 116.247273 
L 242.281925 265.797818 
L 244.322567 265.797818 
L 245.439145 112.241455 
L 245.939679 109.570909 
L 246.286203 265.797818 
L 249.866952 265.797818 
L 250.251978 108.235636 
L 250.598503 265.797818 
L 256.566417 265.797818 
L 256.951444 102.894545 
L 257.451979 102.894545 
L 259.338609 105.565091 
L 259.762139 265.797818 
L 260.840214 265.797818 
L 262.880856 110.906182 
L 265.653048 114.912 
L 266.11508 114.912 
L 266.500107 265.797818 
L 271.813476 265.797818 
L 274.354652 118.917818 
L 274.547165 122.923636 
L 275.009198 126.929455 
L 276.202781 124.258909 
L 276.472299 265.797818 
L 289.062674 265.797818 
L 289.447701 169.658182 
L 290.102246 265.797818 
L 292.681925 265.797818 
L 295.261604 170.993455 
L 295.646631 265.797818 
L 295.993155 170.993455 
L 296.378182 265.797818 
L 300.074439 265.797818 
L 300.305455 170.993455 
L 300.574973 265.797818 
L 314.050909 265.797818 
L 314.320428 170.993455 
L 314.551444 170.993455 
L 314.78246 265.797818 
L 317.015615 265.797818 
L 317.285134 173.664 
L 317.51615 174.999273 
L 317.747166 265.797818 
L 320.326845 265.797818 
L 320.634866 174.999273 
L 320.904385 174.999273 
L 321.019893 265.797818 
L 321.635936 174.999273 
L 321.98246 265.797818 
L 324.71615 265.797818 
L 325.024171 174.999273 
L 325.332193 265.797818 
L 325.948235 265.797818 
L 326.294759 177.669818 
L 326.371765 265.797818 
L 330.33754 265.797818 
L 330.684064 177.669818 
L 330.992085 265.797818 
L 338.038075 265.797818 
L 338.307594 177.669818 
L 338.654118 265.797818 
L 356.24984 265.797818 
L 356.480855 177.669818 
L 356.750374 265.797818 
L 375.539679 265.797818 
L 376.810267 169.658182 
L 377.387808 152.299636 
L 379.274438 148.293818 
L 379.505455 140.282182 
L 379.659465 130.935273 
L 380.044492 126.929455 
L 380.237006 130.935273 
L 393.058396 265.797818 
L 398.487273 265.797818 
L 398.487273 265.797818 
" style="fill:none;stroke:#ff7f0e;stroke-linecap:square;stroke-width:1.5;"/>
   </g>
   <g id="line2d_31">
    <path clip-path="url(#p75976f34d6)" d="M 73.832727 174.999273 
L 73.87123 174.999273 
L 74.02524 172.328727 
L 74.333262 160.311273 
L 74.641284 136.276364 
L 74.949305 128.264727 
L 75.295829 146.958545 
L 75.642353 144.288 
L 76.258396 153.634909 
L 76.566417 146.958545 
L 77.605989 168.322909 
L 77.952513 173.664 
L 78.260534 172.328727 
L 78.607059 164.317091 
L 78.91508 165.652364 
L 79.223102 164.317091 
L 79.569626 165.652364 
L 79.877647 162.981818 
L 79.91615 164.317091 
L 80.378181 165.652364 
L 80.994225 172.328727 
L 81.07123 172.328727 
L 81.379251 168.322909 
L 81.725775 173.664 
L 82.110802 170.993455 
L 82.418824 166.987636 
L 82.765347 170.993455 
L 83.111871 169.658182 
L 84.151444 169.658182 
L 84.767486 161.646545 
L 85.075508 160.311273 
L 85.422032 162.981818 
L 85.768556 164.317091 
L 87.039144 177.669818 
L 87.385668 179.005091 
L 87.693689 173.664 
L 88.040214 165.652364 
L 88.348235 162.981818 
L 88.694759 161.646545 
L 89.041283 165.652364 
L 89.387807 161.646545 
L 89.695829 168.322909 
L 90.350374 160.311273 
L 90.696898 150.964364 
L 90.927915 125.594182 
L 91.312941 114.912 
L 91.466952 112.241455 
L 91.543957 112.241455 
L 91.813476 113.576727 
L 92.005989 110.906182 
L 92.198503 112.241455 
L 92.391016 110.906182 
L 92.468021 108.235636 
L 92.583529 108.235636 
L 92.73754 104.229818 
L 92.853048 104.229818 
L 93.238075 100.224 
L 93.430588 100.224 
L 93.738609 98.888727 
L 94.008128 98.888727 
L 94.239144 97.553455 
L 94.508663 98.888727 
L 94.970695 94.882909 
L 95.278717 97.553455 
L 95.548235 96.218182 
L 95.702246 94.882909 
L 95.894759 96.218182 
L 96.04877 96.218182 
L 96.241283 97.553455 
L 96.395294 97.553455 
L 96.549304 98.888727 
L 97.088342 90.877091 
L 97.473369 89.541818 
L 98.089412 89.541818 
L 98.397433 90.877091 
L 98.589946 90.877091 
L 98.897968 89.541818 
L 98.936471 90.877091 
L 99.090481 89.541818 
L 99.205989 89.541818 
L 99.36 90.877091 
L 99.629519 90.877091 
L 99.783529 89.541818 
L 99.976042 89.541818 
L 100.130054 90.877091 
L 100.36107 90.877091 
L 100.630588 89.541818 
L 100.977112 93.547636 
L 101.09262 93.547636 
L 101.246631 94.882909 
L 101.362139 93.547636 
L 101.631658 92.212364 
L 102.478717 81.530182 
L 102.555722 82.865455 
L 102.863743 82.865455 
L 102.979251 81.530182 
L 103.171764 81.530182 
L 103.364278 82.865455 
L 103.710802 82.865455 
L 103.980321 84.200727 
L 104.442353 90.877091 
L 104.98139 90.877091 
L 105.327914 89.541818 
L 105.712941 92.212364 
L 105.828449 92.212364 
L 105.98246 98.888727 
L 106.136471 98.888727 
L 106.868021 117.582545 
L 107.330053 122.923636 
L 108.138609 120.253091 
L 108.446631 120.253091 
L 108.754652 118.917818 
L 109.062674 116.247273 
L 109.409198 120.253091 
L 109.755722 116.247273 
L 110.063743 118.917818 
L 110.371765 114.912 
L 110.949305 133.605818 
L 111.295829 128.264727 
L 111.950374 128.264727 
L 112.258396 124.258909 
L 112.604919 122.923636 
L 112.912941 125.594182 
L 113.259465 122.923636 
L 113.567487 116.247273 
L 113.914011 118.917818 
L 114.260535 120.253091 
L 115.184599 128.264727 
L 115.531123 126.929455 
L 115.877647 122.923636 
L 116.224171 120.253091 
L 116.570695 122.923636 
L 116.878716 126.929455 
L 117.225241 140.282182 
L 117.494759 140.282182 
L 117.687273 142.952727 
L 118.033796 137.611636 
L 118.341818 138.946909 
L 118.688342 138.946909 
L 118.996364 134.941091 
L 119.304385 136.276364 
L 119.997433 133.605818 
L 120.305454 144.288 
L 120.651978 133.605818 
L 121.306524 138.946909 
L 121.653048 128.264727 
L 121.999572 137.611636 
L 122.307593 130.935273 
L 122.615615 146.958545 
L 122.923636 134.941091 
L 123.27016 134.941091 
L 123.616684 128.264727 
L 123.924706 133.605818 
L 124.232727 134.941091 
L 124.579251 126.929455 
L 125.156791 126.929455 
L 125.464813 125.594182 
L 125.772834 129.6 
L 126.080855 130.935273 
L 126.42738 125.594182 
L 126.773904 128.264727 
L 127.428449 121.588364 
L 127.774973 124.258909 
L 128.082994 124.258909 
L 128.429519 128.264727 
L 128.73754 126.929455 
L 129.045562 117.582545 
L 129.392085 114.912 
L 129.700107 110.906182 
L 130.393155 108.235636 
L 130.739679 110.906182 
L 131.086203 112.241455 
L 131.702246 122.923636 
L 132.04877 137.611636 
L 132.356791 134.941091 
L 132.703315 118.917818 
L 133.011337 128.264727 
L 133.357861 124.258909 
L 133.704385 133.605818 
L 134.358931 116.247273 
L 134.705454 120.253091 
L 135.013476 125.594182 
L 135.36 129.6 
L 135.437005 128.264727 
L 135.629519 126.929455 
L 135.976043 134.941091 
L 136.361069 137.611636 
L 136.746096 137.611636 
L 137.439144 144.288 
L 137.785668 140.282182 
L 138.132193 141.617455 
L 138.478716 145.623273 
L 138.825241 144.288 
L 139.133262 148.293818 
L 139.82631 153.634909 
L 140.172834 152.299636 
L 140.634866 146.958545 
L 140.98139 138.946909 
L 141.635936 141.617455 
L 141.943957 141.617455 
L 142.13647 142.952727 
L 142.482995 148.293818 
L 142.791016 150.964364 
L 143.13754 156.305455 
L 143.445561 154.970182 
L 143.753583 149.629091 
L 145.024171 149.629091 
L 145.447701 145.623273 
L 146.063743 125.594182 
L 146.410267 121.588364 
L 146.718288 126.929455 
L 146.949305 122.923636 
L 147.295829 126.929455 
L 147.642353 120.253091 
L 147.988877 120.253091 
L 148.335401 124.258909 
L 148.681925 130.935273 
L 148.989946 133.605818 
L 149.336471 130.935273 
L 149.644492 126.929455 
L 149.837005 122.923636 
L 150.222032 126.929455 
L 150.530054 124.258909 
L 150.876577 126.929455 
L 151.184599 124.258909 
L 151.49262 126.929455 
L 151.839144 116.247273 
L 152.185668 134.941091 
L 152.532193 128.264727 
L 153.22524 133.605818 
L 153.533262 130.935273 
L 153.879786 132.270545 
L 154.187808 125.594182 
L 154.534332 125.594182 
L 154.842353 126.929455 
L 155.496898 133.605818 
L 155.80492 124.258909 
L 156.151443 126.929455 
L 156.497968 121.588364 
L 156.805989 118.917818 
L 157.152513 134.941091 
L 157.807059 112.241455 
L 158.153583 116.247273 
L 158.500107 110.906182 
L 158.846631 98.888727 
L 159.539679 101.559273 
L 159.886203 105.565091 
L 160.232727 114.912 
L 160.925775 101.559273 
L 161.041284 102.894545 
L 161.156791 102.894545 
L 161.464813 98.888727 
L 161.926845 106.900364 
L 162.042353 106.900364 
L 162.311872 97.553455 
L 162.42738 97.553455 
L 162.542888 96.218182 
L 162.735401 97.553455 
L 162.812407 101.559273 
L 163.00492 101.559273 
L 163.312941 100.224 
L 163.543957 96.218182 
L 163.736471 96.218182 
L 163.928984 97.553455 
L 164.082994 97.553455 
L 164.699038 88.206545 
L 165.045561 88.206545 
L 165.276577 90.877091 
L 165.469091 93.547636 
L 165.623102 94.882909 
L 165.815615 94.882909 
L 166.008128 98.888727 
L 166.200642 97.553455 
L 166.508663 97.553455 
L 167.124706 93.547636 
L 167.278717 93.547636 
L 167.586738 90.877091 
L 167.740749 90.877091 
L 168.164278 84.200727 
L 168.318289 80.194909 
L 168.395294 80.194909 
L 168.510802 77.524364 
L 168.703315 76.189091 
L 168.895829 76.189091 
L 169.126845 77.524364 
L 169.242353 81.530182 
L 169.357861 81.530182 
L 169.473369 78.859636 
L 169.550375 80.194909 
L 169.858396 80.194909 
L 170.20492 86.871273 
L 170.743958 86.871273 
L 170.859465 92.212364 
L 171.051979 90.877091 
L 171.205989 90.877091 
L 171.36 89.541818 
L 171.475508 90.877091 
L 171.93754 90.877091 
L 172.361069 88.206545 
L 172.553583 88.206545 
L 173.131123 81.530182 
L 173.285133 81.530182 
L 173.477647 80.194909 
L 173.824171 73.518545 
L 174.016684 72.183273 
L 174.209198 73.518545 
L 174.440214 77.524364 
L 174.709733 78.859636 
L 175.017754 88.206545 
L 175.171765 86.871273 
L 175.364278 88.206545 
L 175.518289 90.877091 
L 175.595294 90.877091 
L 176.057326 84.200727 
L 176.211337 84.200727 
L 176.365347 85.536 
L 176.480855 84.200727 
L 176.942887 84.200727 
L 177.096899 86.871273 
L 177.443422 86.871273 
L 177.597433 88.206545 
L 177.789947 85.536 
L 177.905455 84.200727 
L 178.367486 74.853818 
L 178.521497 72.183273 
L 178.98353 69.512727 
L 179.253048 73.518545 
L 179.445561 78.859636 
L 179.638075 80.194909 
L 179.907594 88.206545 
L 180.254117 90.877091 
L 180.408128 89.541818 
L 180.523636 84.200727 
L 180.639144 84.200727 
L 181.024171 88.206545 
L 181.370695 96.218182 
L 182.025241 98.888727 
L 182.371765 101.559273 
L 182.679786 102.894545 
L 182.987807 105.565091 
L 183.334332 112.241455 
L 183.642353 113.576727 
L 184.18139 106.900364 
L 184.566417 109.570909 
L 184.912941 120.253091 
L 185.259465 122.923636 
L 185.914011 122.923636 
L 186.260535 121.588364 
L 186.607059 118.917818 
L 186.953583 105.565091 
L 187.300107 100.224 
L 187.608129 98.888727 
L 188.378182 98.888727 
L 188.532193 96.218182 
L 188.6477 96.218182 
L 189.186738 93.547636 
L 189.340749 92.212364 
L 189.456257 92.212364 
L 189.918289 88.206545 
L 190.264813 82.865455 
L 190.495829 81.530182 
L 190.957861 81.530182 
L 191.304385 84.200727 
L 191.689412 84.200727 
L 192.035936 86.871273 
L 192.074438 88.206545 
L 192.305455 89.541818 
L 192.497968 84.200727 
L 192.690481 82.865455 
L 192.882995 88.206545 
L 193.037005 100.224 
L 193.191016 100.224 
L 193.460535 97.553455 
L 193.614545 98.888727 
L 193.999572 98.888727 
L 194.269091 97.553455 
L 194.769626 92.212364 
L 194.923636 94.882909 
L 196.27123 94.882909 
L 196.694759 90.877091 
L 196.84877 90.877091 
L 197.541818 85.536 
L 197.695829 88.206545 
L 197.888342 88.206545 
L 198.350374 86.871273 
L 198.696898 84.200727 
L 198.812407 84.200727 
L 199.58246 98.888727 
L 199.736471 98.888727 
L 200.082995 105.565091 
L 200.275508 105.565091 
L 200.468021 106.900364 
L 200.545027 105.565091 
L 200.660535 105.565091 
L 201.161069 96.218182 
L 201.507594 94.882909 
L 202.162139 94.882909 
L 202.585669 96.218182 
L 203.124706 93.547636 
L 203.317219 93.547636 
L 203.971765 85.536 
L 204.279786 84.200727 
L 204.549305 85.536 
L 204.703315 84.200727 
L 204.818823 81.530182 
L 205.550374 81.530182 
L 205.896898 86.871273 
L 206.050909 88.206545 
L 206.243423 88.206545 
L 206.705454 97.553455 
L 207.205989 105.565091 
L 207.36 102.894545 
L 207.745027 100.224 
L 207.899037 100.224 
L 208.091551 97.553455 
L 208.438075 97.553455 
L 208.592086 98.888727 
L 208.977112 100.224 
L 209.285133 98.888727 
L 209.554652 100.224 
L 209.824171 100.224 
L 210.016685 101.559273 
L 210.324706 98.888727 
L 210.440214 96.218182 
L 210.979251 92.212364 
L 211.325775 93.547636 
L 211.787807 89.541818 
L 212.326845 82.865455 
L 212.673369 84.200727 
L 212.942888 89.541818 
L 213.366417 98.888727 
L 213.635936 102.894545 
L 213.789947 102.894545 
L 213.943957 101.559273 
L 214.482995 89.541818 
L 214.598503 88.206545 
L 214.791016 88.206545 
L 215.13754 90.877091 
L 216.138609 90.877091 
L 216.523636 88.206545 
L 216.71615 89.541818 
L 217.139679 88.206545 
L 217.409198 90.877091 
L 217.986738 90.877091 
L 218.140749 88.206545 
L 218.487273 89.541818 
L 218.949305 80.194909 
L 219.295829 76.189091 
L 219.642353 73.518545 
L 219.988877 78.859636 
L 220.258396 85.536 
L 220.566417 89.541818 
L 221.028449 98.888727 
L 221.18246 101.559273 
L 221.721498 94.882909 
L 221.914011 88.206545 
L 222.222032 90.877091 
L 222.376043 90.877091 
L 222.453048 93.547636 
L 222.684064 94.882909 
L 222.838075 101.559273 
L 223.223102 104.229818 
L 223.569626 105.565091 
L 223.91615 110.906182 
L 224.262674 112.241455 
L 224.570695 117.582545 
L 224.917219 113.576727 
L 225.225241 114.912 
L 225.571765 110.906182 
L 225.918289 112.241455 
L 226.264813 120.253091 
L 226.572834 113.576727 
L 227.22738 118.917818 
L 227.881925 121.588364 
L 228.228449 124.258909 
L 228.53647 112.241455 
L 228.690481 112.241455 
L 229.075508 110.906182 
L 229.306524 108.235636 
L 229.614545 104.229818 
L 229.730053 104.229818 
L 229.922566 102.894545 
L 229.999572 93.547636 
L 230.500107 93.547636 
L 230.923636 102.894545 
L 231.27016 105.565091 
L 231.616684 104.229818 
L 232.040214 108.235636 
L 232.348235 118.917818 
L 232.656257 124.258909 
L 233.002781 126.929455 
L 233.349305 132.270545 
L 233.426311 137.611636 
L 233.926845 134.941091 
L 234.273369 137.611636 
L 234.619893 134.941091 
L 235.274438 128.264727 
L 235.890481 125.594182 
L 236.237005 120.253091 
L 236.583529 122.923636 
L 236.891551 121.588364 
L 237.199572 122.923636 
L 237.546096 128.264727 
L 238.547166 124.258909 
L 238.89369 122.923636 
L 239.240214 120.253091 
L 239.586738 118.917818 
L 239.933262 113.576727 
L 240.241283 112.241455 
L 240.587808 116.247273 
L 240.972834 118.917818 
L 241.319358 112.241455 
L 241.665883 108.235636 
L 242.127914 104.229818 
L 242.589947 104.229818 
L 242.974973 98.888727 
L 243.398503 98.888727 
L 243.668021 94.882909 
L 243.860535 94.882909 
L 244.091551 97.553455 
L 245.131123 114.912 
L 245.51615 100.224 
L 245.785668 101.559273 
L 245.978182 100.224 
L 246.286203 96.218182 
L 246.401711 92.212364 
L 247.094759 82.865455 
L 247.210268 82.865455 
L 247.710802 85.536 
L 247.980321 84.200727 
L 248.172834 81.530182 
L 248.519358 81.530182 
L 248.750374 90.877091 
L 249.019893 92.212364 
L 249.173904 100.224 
L 249.481925 100.224 
L 249.674438 102.894545 
L 249.866952 109.570909 
L 250.906524 92.212364 
L 251.099038 90.877091 
L 251.484064 96.218182 
L 251.676578 92.212364 
L 251.869091 86.871273 
L 252.023102 81.530182 
L 252.600642 76.189091 
L 252.793155 76.189091 
L 252.985669 74.853818 
L 253.563209 74.853818 
L 253.909732 77.524364 
L 254.333262 77.524364 
L 254.641284 78.859636 
L 254.718289 77.524364 
L 255.334332 82.865455 
L 255.565348 89.541818 
L 255.642353 89.541818 
L 256.258396 100.224 
L 256.643423 105.565091 
L 256.951444 100.224 
L 257.066952 100.224 
L 257.297968 101.559273 
L 257.374973 97.553455 
L 257.490481 97.553455 
L 257.798503 93.547636 
L 258.106524 97.553455 
L 258.414546 98.888727 
L 258.722567 102.894545 
L 259.069091 102.894545 
L 259.377112 112.241455 
L 259.646631 113.576727 
L 259.91615 109.570909 
L 260.108663 97.553455 
L 260.416685 94.882909 
L 260.840214 98.888727 
L 261.032727 96.218182 
L 261.533262 97.553455 
L 262.149305 110.906182 
L 262.495829 118.917818 
L 262.842353 117.582545 
L 263.80492 133.605818 
L 264.112941 132.270545 
L 264.459465 132.270545 
L 264.767487 130.935273 
L 265.114011 134.941091 
L 265.460535 129.6 
L 265.768556 126.929455 
L 266.076578 118.917818 
L 266.269091 110.906182 
L 266.615615 98.888727 
L 266.923636 96.218182 
L 267.116149 92.212364 
L 267.886203 82.865455 
L 268.27123 81.530182 
L 268.540749 84.200727 
L 268.656257 84.200727 
L 269.002781 88.206545 
L 269.195294 94.882909 
L 269.387807 97.553455 
L 269.580321 104.229818 
L 269.965347 108.235636 
L 270.157861 108.235636 
L 270.465882 100.224 
L 270.542888 100.224 
L 270.812407 97.553455 
L 271.15893 96.218182 
L 271.312941 101.559273 
L 271.543957 102.894545 
L 271.697968 102.894545 
L 272.00599 97.553455 
L 272.660535 97.553455 
L 273.353583 105.565091 
L 273.700107 116.247273 
L 274.046631 118.917818 
L 274.662674 129.6 
L 275.009198 126.929455 
L 275.663743 126.929455 
L 275.933262 124.258909 
L 276.62631 109.570909 
L 276.895829 109.570909 
L 277.088342 108.235636 
L 277.319358 104.229818 
L 277.396364 93.547636 
L 277.511872 93.547636 
L 277.858396 85.536 
L 278.243423 86.871273 
L 278.666952 84.200727 
L 279.013476 86.871273 
L 279.36 85.536 
L 279.552514 85.536 
L 279.668021 86.871273 
L 279.899037 94.882909 
L 280.130054 97.553455 
L 280.322567 102.894545 
L 280.399572 109.570909 
L 280.93861 109.570909 
L 281.131123 105.565091 
L 281.285134 105.565091 
L 281.708663 102.894545 
L 281.901176 100.224 
L 282.363209 97.553455 
L 282.709733 93.547636 
L 283.017754 97.553455 
L 283.556792 100.224 
L 283.787807 100.224 
L 284.134332 102.894545 
L 284.442353 100.224 
L 284.750374 93.547636 
L 284.904385 92.212364 
L 285.135401 93.547636 
L 285.40492 93.547636 
L 285.789947 86.871273 
L 286.136471 82.865455 
L 286.482995 81.530182 
L 286.521497 82.865455 
L 286.945027 84.200727 
L 287.176043 84.200727 
L 287.484064 86.871273 
L 287.599572 90.877091 
L 287.907594 97.553455 
L 288.254117 108.235636 
L 288.446631 109.570909 
L 288.600642 113.576727 
L 288.793155 113.576727 
L 289.216684 118.917818 
L 289.986738 121.588364 
L 290.063744 113.576727 
L 290.179251 113.576727 
L 290.371765 106.900364 
L 290.718289 102.894545 
L 291.218823 102.894545 
L 291.565348 101.559273 
L 292.02738 109.570909 
L 292.60492 109.570909 
L 292.951444 105.565091 
L 293.336471 113.576727 
L 293.682995 113.576727 
L 293.991016 112.241455 
L 294.33754 112.241455 
L 294.645562 117.582545 
L 294.992085 117.582545 
L 295.184599 121.588364 
L 295.49262 106.900364 
L 295.877647 93.547636 
L 296.031658 90.877091 
L 296.609198 90.877091 
L 296.878716 92.212364 
L 297.109733 96.218182 
L 297.302246 96.218182 
L 297.610268 106.900364 
L 297.802781 105.565091 
L 298.110802 97.553455 
L 298.495829 90.877091 
L 298.957861 90.877091 
L 299.342888 86.871273 
L 299.573904 85.536 
L 299.650909 85.536 
L 299.80492 84.200727 
L 299.881925 84.200727 
L 300.151444 80.194909 
L 300.343957 73.518545 
L 300.574973 73.518545 
L 301.037005 76.189091 
L 301.306524 74.853818 
L 301.653048 81.530182 
L 301.691551 85.536 
L 301.884064 88.206545 
L 302.192086 97.553455 
L 302.346097 100.224 
L 302.654118 93.547636 
L 303.077647 90.877091 
L 303.270161 90.877091 
L 303.616685 92.212364 
L 303.69369 92.212364 
L 303.847701 89.541818 
L 303.924706 89.541818 
L 304.117219 90.877091 
L 304.309732 89.541818 
L 304.502246 90.877091 
L 304.656257 89.541818 
L 304.810267 86.871273 
L 304.964278 78.859636 
L 305.041284 78.859636 
L 305.2723 72.183273 
L 305.503315 73.518545 
L 305.695829 72.183273 
L 305.772834 68.177455 
L 305.888342 68.177455 
L 306.042353 65.506909 
L 306.311872 66.842182 
L 306.542888 73.518545 
L 306.658396 73.518545 
L 306.927915 82.865455 
L 307.120428 85.536 
L 307.274438 89.541818 
L 307.389946 89.541818 
L 307.543957 88.206545 
L 307.659465 88.206545 
L 307.890481 86.871273 
L 308.00599 88.206545 
L 308.198503 86.871273 
L 308.391016 86.871273 
L 309.238075 78.859636 
L 309.353583 76.189091 
L 310.008128 72.183273 
L 310.239144 70.848 
L 310.47016 72.183273 
L 310.816684 73.518545 
L 310.932192 76.189091 
L 311.124706 77.524364 
L 311.317219 81.530182 
L 311.47123 88.206545 
L 311.548235 88.206545 
L 311.702246 96.218182 
L 312.164278 101.559273 
L 312.356791 101.559273 
L 312.549305 100.224 
L 312.703316 94.882909 
L 312.934331 90.877091 
L 313.319358 96.218182 
L 313.550375 96.218182 
L 313.819893 93.547636 
L 313.896899 93.547636 
L 314.089412 90.877091 
L 314.281925 90.877091 
L 314.435936 89.541818 
L 314.705455 82.865455 
L 314.936471 80.194909 
L 315.321497 73.518545 
L 315.668021 70.848 
L 315.860535 72.183273 
L 316.053048 72.183273 
L 316.207059 73.518545 
L 316.553583 78.859636 
L 316.861604 85.536 
L 317.246631 89.541818 
L 317.400642 88.206545 
L 317.477647 84.200727 
L 317.593155 84.200727 
L 317.708663 82.865455 
L 318.132193 84.200727 
L 318.632727 74.853818 
L 318.825241 73.518545 
L 318.979251 73.518545 
L 319.094759 74.853818 
L 320.095829 80.194909 
L 320.326845 80.194909 
L 320.480856 76.189091 
L 320.673369 74.853818 
L 321.096898 62.836364 
L 321.712941 70.848 
L 321.98246 74.853818 
L 322.059465 78.859636 
L 322.174973 78.859636 
L 322.328984 82.865455 
L 322.714011 94.882909 
L 322.945027 100.224 
L 323.561069 93.547636 
L 323.676578 96.218182 
L 324.254118 101.559273 
L 324.600642 101.559273 
L 324.793155 98.888727 
L 324.947165 93.547636 
L 325.139679 92.212364 
L 325.486203 92.212364 
L 325.640214 90.877091 
L 326.02524 85.536 
L 326.294759 84.200727 
L 326.679786 90.877091 
L 326.795294 90.877091 
L 327.334332 102.894545 
L 327.488342 104.229818 
L 327.642353 106.900364 
L 327.719358 106.900364 
L 327.911872 105.565091 
L 328.258396 100.224 
L 328.335401 100.224 
L 328.527915 98.888727 
L 328.835936 102.894545 
L 329.18246 104.229818 
L 329.528984 101.559273 
L 329.682995 98.888727 
L 329.76 98.888727 
L 329.914011 96.218182 
L 329.991016 96.218182 
L 330.183529 93.547636 
L 330.33754 94.882909 
L 330.491551 94.882909 
L 331.377112 84.200727 
L 331.49262 86.871273 
L 331.877647 89.541818 
L 332.185668 93.547636 
L 332.301177 93.547636 
L 332.378182 104.229818 
L 332.6477 104.229818 
L 332.994225 106.900364 
L 333.148235 105.565091 
L 333.302246 101.559273 
L 333.379251 101.559273 
L 333.610268 94.882909 
L 334.110802 94.882909 
L 334.264813 93.547636 
L 334.341818 93.547636 
L 334.688343 90.877091 
L 334.765347 90.877091 
L 335.073369 93.547636 
L 335.265882 93.547636 
L 335.458396 92.212364 
L 335.727914 88.206545 
L 336.074439 80.194909 
L 336.266952 80.194909 
L 336.459466 81.530182 
L 336.651978 81.530182 
L 336.844492 82.865455 
L 337.152514 93.547636 
L 337.306524 98.888727 
L 337.691551 102.894545 
L 337.884064 102.894545 
L 338.038075 101.559273 
L 338.423101 96.218182 
L 338.69262 98.888727 
L 338.846631 98.888727 
L 339.039145 97.553455 
L 339.231658 96.218182 
L 339.385669 92.212364 
L 339.578182 90.877091 
L 339.924706 81.530182 
L 340.040214 74.853818 
L 340.348235 73.518545 
L 340.502246 73.518545 
L 340.771765 72.183273 
L 341.002781 69.512727 
L 341.156791 70.848 
L 341.310802 73.518545 
L 341.464813 73.518545 
L 341.772834 74.853818 
L 341.926845 78.859636 
L 342.234867 92.212364 
L 342.504385 100.224 
L 342.696898 100.224 
L 343.00492 93.547636 
L 343.197433 93.547636 
L 343.58246 89.541818 
L 343.774973 89.541818 
L 343.928984 90.877091 
L 344.314011 86.871273 
L 344.468021 84.200727 
L 344.930053 81.530182 
L 345.199572 76.189091 
L 345.315081 76.189091 
L 345.931123 65.506909 
L 346.085134 65.506909 
L 346.31615 64.171636 
L 347.124706 81.530182 
L 347.278717 88.206545 
L 347.509733 90.877091 
L 347.779252 88.206545 
L 347.971765 86.871273 
L 348.125775 82.865455 
L 348.318289 84.200727 
L 348.895829 77.524364 
L 349.049839 77.524364 
L 349.357861 74.853818 
L 349.511872 72.183273 
L 349.588877 66.842182 
L 349.704385 66.842182 
L 349.858396 64.171636 
L 350.050909 62.836364 
L 350.20492 61.501091 
L 350.705454 61.501091 
L 350.974973 64.171636 
L 351.629519 82.865455 
L 351.822032 82.865455 
L 352.014545 84.200727 
L 352.245562 81.530182 
L 352.630588 81.530182 
L 352.707593 82.865455 
L 353.208128 82.865455 
L 353.400642 81.530182 
L 353.670161 81.530182 
L 353.862674 80.194909 
L 354.016685 80.194909 
L 354.555722 69.512727 
L 355.171765 64.171636 
L 355.364278 65.506909 
L 355.518289 66.842182 
L 355.749305 68.177455 
L 356.134332 78.859636 
L 356.288342 82.865455 
L 356.480855 90.877091 
L 356.596364 90.877091 
L 356.942888 86.871273 
L 357.058396 84.200727 
L 357.250909 84.200727 
L 357.366417 82.865455 
L 357.943957 89.541818 
L 358.136471 89.541818 
L 358.213476 92.212364 
L 358.328984 92.212364 
L 358.714011 86.871273 
L 359.099038 86.871273 
L 359.368556 85.536 
L 359.71508 82.865455 
L 360.100107 77.524364 
L 360.408128 73.518545 
L 360.754653 74.853818 
L 361.216684 89.541818 
L 361.524706 92.212364 
L 361.678717 94.882909 
L 362.025241 102.894545 
L 362.294759 102.894545 
L 362.410267 101.559273 
L 363.180321 106.900364 
L 363.372835 105.565091 
L 363.680856 96.218182 
L 363.834867 96.218182 
L 364.758931 112.241455 
L 365.066952 110.906182 
L 365.374973 110.906182 
L 365.721497 122.923636 
L 366.029519 124.258909 
L 367.030589 112.241455 
L 367.33861 114.912 
L 367.800642 122.923636 
L 368.262674 125.594182 
L 368.955722 116.247273 
L 369.263743 117.582545 
L 369.610268 124.258909 
L 369.956791 126.929455 
L 370.303316 128.264727 
L 370.649839 121.588364 
L 370.957861 121.588364 
L 371.304385 120.253091 
L 371.650909 124.258909 
L 371.95893 117.582545 
L 372.266952 113.576727 
L 372.613476 114.912 
L 372.921497 105.565091 
L 373.268022 106.900364 
L 373.576043 118.917818 
L 373.922567 124.258909 
L 374.346096 121.588364 
L 375.69369 121.588364 
L 376.155722 124.258909 
L 376.617754 117.582545 
L 376.964278 118.917818 
L 377.310802 126.929455 
L 377.657326 129.6 
L 378.00385 133.605818 
L 378.350374 136.276364 
L 378.658396 136.276364 
L 379.389946 133.605818 
L 379.697968 126.929455 
L 380.00599 128.264727 
L 380.352513 132.270545 
L 380.660535 126.929455 
L 381.007059 129.6 
L 381.353583 128.264727 
L 381.661604 130.935273 
L 382.008129 134.941091 
L 382.31615 132.270545 
L 382.662674 130.935273 
L 383.009198 126.929455 
L 383.317219 126.929455 
L 383.625241 134.941091 
L 383.933262 136.276364 
L 384.279786 138.946909 
L 384.587808 137.611636 
L 384.895829 141.617455 
L 385.242353 140.282182 
L 385.550375 130.935273 
L 385.896898 134.941091 
L 386.20492 122.923636 
L 386.897968 130.935273 
L 387.205989 130.935273 
L 387.552514 126.929455 
L 387.899037 130.935273 
L 388.207059 128.264727 
L 388.553583 120.253091 
L 388.900107 129.6 
L 389.208128 129.6 
L 389.51615 137.611636 
L 389.862674 128.264727 
L 390.209198 130.935273 
L 390.51722 136.276364 
L 390.863744 140.282182 
L 391.210268 140.282182 
L 391.82631 145.623273 
L 392.172834 142.952727 
L 392.480855 144.288 
L 392.82738 140.282182 
L 393.135401 134.941091 
L 393.443423 141.617455 
L 393.789947 140.282182 
L 394.097968 142.952727 
L 394.444492 142.952727 
L 395.13754 148.293818 
L 395.445562 149.629091 
L 395.753583 146.958545 
L 396.061604 145.623273 
L 396.138609 149.629091 
L 396.639144 144.288 
L 396.947166 144.288 
L 397.909733 137.611636 
L 398.333262 141.617455 
L 398.333262 141.617455 
" style="fill:none;stroke:#2ca02c;stroke-linecap:square;stroke-width:1.5;"/>
   </g>
   <g id="patch_3">
    <path d="M 57.6 276.48 
L 57.6 41.472 
" style="fill:none;stroke:#000000;stroke-linecap:square;stroke-linejoin:miter;stroke-width:0.8;"/>
   </g>
   <g id="patch_4">
    <path d="M 414.72 276.48 
L 414.72 41.472 
" style="fill:none;stroke:#000000;stroke-linecap:square;stroke-linejoin:miter;stroke-width:0.8;"/>
   </g>
   <g id="patch_5">
    <path d="M 57.6 276.48 
L 414.72 276.48 
" style="fill:none;stroke:#000000;stroke-linecap:square;stroke-linejoin:miter;stroke-width:0.8;"/>
   </g>
   <g id="patch_6">
    <path d="M 57.6 41.472 
L 414.72 41.472 
" style="fill:none;stroke:#000000;stroke-linecap:square;stroke-linejoin:miter;stroke-width:0.8;"/>
   </g>
   <g id="legend_1">
    <g id="patch_7">
     <path d="M 64.6 271.48 
L 136.625 271.48 
Q 138.625 271.48 138.625 269.48 
L 138.625 226.445625 
Q 138.625 224.445625 136.625 224.445625 
L 64.6 224.445625 
Q 62.6 224.445625 62.6 226.445625 
L 62.6 269.48 
Q 62.6 271.48 64.6 271.48 
z
" style="fill:#ffffff;opacity:0.8;stroke:#cccccc;stroke-linejoin:miter;"/>
    </g>
    <g id="line2d_32">
     <path d="M 66.6 232.544062 
L 86.6 232.544062 
" style="fill:none;stroke:#1f77b4;stroke-linecap:square;stroke-width:1.5;"/>
    </g>
    <g id="line2d_33"/>
    <g id="text_15">
     <!-- scosche -->
     <defs>
      <path d="M 44.28125 53.078125 
L 44.28125 44.578125 
Q 40.484375 46.53125 36.375 47.5 
Q 32.28125 48.484375 27.875 48.484375 
Q 21.1875 48.484375 17.84375 46.4375 
Q 14.5 44.390625 14.5 40.28125 
Q 14.5 37.15625 16.890625 35.375 
Q 19.28125 33.59375 26.515625 31.984375 
L 29.59375 31.296875 
Q 39.15625 29.25 43.1875 25.515625 
Q 47.21875 21.78125 47.21875 15.09375 
Q 47.21875 7.46875 41.1875 3.015625 
Q 35.15625 -1.421875 24.609375 -1.421875 
Q 20.21875 -1.421875 15.453125 -0.5625 
Q 10.6875 0.296875 5.421875 2 
L 5.421875 11.28125 
Q 10.40625 8.6875 15.234375 7.390625 
Q 20.0625 6.109375 24.8125 6.109375 
Q 31.15625 6.109375 34.5625 8.28125 
Q 37.984375 10.453125 37.984375 14.40625 
Q 37.984375 18.0625 35.515625 20.015625 
Q 33.0625 21.96875 24.703125 23.78125 
L 21.578125 24.515625 
Q 13.234375 26.265625 9.515625 29.90625 
Q 5.8125 33.546875 5.8125 39.890625 
Q 5.8125 47.609375 11.28125 51.796875 
Q 16.75 56 26.8125 56 
Q 31.78125 56 36.171875 55.265625 
Q 40.578125 54.546875 44.28125 53.078125 
" id="DejaVuSans-73"/>
      <path d="M 48.78125 52.59375 
L 48.78125 44.1875 
Q 44.96875 46.296875 41.140625 47.34375 
Q 37.3125 48.390625 33.40625 48.390625 
Q 24.65625 48.390625 19.8125 42.84375 
Q 14.984375 37.3125 14.984375 27.296875 
Q 14.984375 17.28125 19.8125 11.734375 
Q 24.65625 6.203125 33.40625 6.203125 
Q 37.3125 6.203125 41.140625 7.25 
Q 44.96875 8.296875 48.78125 10.40625 
L 48.78125 2.09375 
Q 45.015625 0.34375 40.984375 -0.53125 
Q 36.96875 -1.421875 32.421875 -1.421875 
Q 20.0625 -1.421875 12.78125 6.34375 
Q 5.515625 14.109375 5.515625 27.296875 
Q 5.515625 40.671875 12.859375 48.328125 
Q 20.21875 56 33.015625 56 
Q 37.15625 56 41.109375 55.140625 
Q 45.0625 54.296875 48.78125 52.59375 
" id="DejaVuSans-63"/>
      <path d="M 30.609375 48.390625 
Q 23.390625 48.390625 19.1875 42.75 
Q 14.984375 37.109375 14.984375 27.296875 
Q 14.984375 17.484375 19.15625 11.84375 
Q 23.34375 6.203125 30.609375 6.203125 
Q 37.796875 6.203125 41.984375 11.859375 
Q 46.1875 17.53125 46.1875 27.296875 
Q 46.1875 37.015625 41.984375 42.703125 
Q 37.796875 48.390625 30.609375 48.390625 
M 30.609375 56 
Q 42.328125 56 49.015625 48.375 
Q 55.71875 40.765625 55.71875 27.296875 
Q 55.71875 13.875 49.015625 6.21875 
Q 42.328125 -1.421875 30.609375 -1.421875 
Q 18.84375 -1.421875 12.171875 6.21875 
Q 5.515625 13.875 5.515625 27.296875 
Q 5.515625 40.765625 12.171875 48.375 
Q 18.84375 56 30.609375 56 
" id="DejaVuSans-6f"/>
      <path d="M 54.890625 33.015625 
L 54.890625 0 
L 45.90625 0 
L 45.90625 32.71875 
Q 45.90625 40.484375 42.875 44.328125 
Q 39.84375 48.1875 33.796875 48.1875 
Q 26.515625 48.1875 22.3125 43.546875 
Q 18.109375 38.921875 18.109375 30.90625 
L 18.109375 0 
L 9.078125 0 
L 9.078125 75.984375 
L 18.109375 75.984375 
L 18.109375 46.1875 
Q 21.34375 51.125 25.703125 53.5625 
Q 30.078125 56 35.796875 56 
Q 45.21875 56 50.046875 50.171875 
Q 54.890625 44.34375 54.890625 33.015625 
" id="DejaVuSans-68"/>
      <path d="M 56.203125 29.59375 
L 56.203125 25.203125 
L 14.890625 25.203125 
Q 15.484375 15.921875 20.484375 11.0625 
Q 25.484375 6.203125 34.421875 6.203125 
Q 39.59375 6.203125 44.453125 7.46875 
Q 49.3125 8.734375 54.109375 11.28125 
L 54.109375 2.78125 
Q 49.265625 0.734375 44.1875 -0.34375 
Q 39.109375 -1.421875 33.890625 -1.421875 
Q 20.796875 -1.421875 13.15625 6.1875 
Q 5.515625 13.8125 5.515625 26.8125 
Q 5.515625 40.234375 12.765625 48.109375 
Q 20.015625 56 32.328125 56 
Q 43.359375 56 49.78125 48.890625 
Q 56.203125 41.796875 56.203125 29.59375 
M 47.21875 32.234375 
Q 47.125 39.59375 43.09375 43.984375 
Q 39.0625 48.390625 32.421875 48.390625 
Q 24.90625 48.390625 20.390625 44.140625 
Q 15.875 39.890625 15.1875 32.171875 
z
" id="DejaVuSans-65"/>
     </defs>
     <g transform="translate(94.6 236.044062)scale(0.1 -0.1)">
      <use xlink:href="#DejaVuSans-73"/>
      <use x="52.099609" xlink:href="#DejaVuSans-63"/>
      <use x="107.080078" xlink:href="#DejaVuSans-6f"/>
      <use x="168.261719" xlink:href="#DejaVuSans-73"/>
      <use x="220.361328" xlink:href="#DejaVuSans-63"/>
      <use x="275.341797" xlink:href="#DejaVuSans-68"/>
      <use x="338.720703" xlink:href="#DejaVuSans-65"/>
     </g>
    </g>
    <g id="line2d_34">
     <path d="M 66.6 247.222187 
L 86.6 247.222187 
" style="fill:none;stroke:#ff7f0e;stroke-linecap:square;stroke-width:1.5;"/>
    </g>
    <g id="line2d_35"/>
    <g id="text_16">
     <!-- garmin -->
     <defs>
      <path d="M 45.40625 27.984375 
Q 45.40625 37.75 41.375 43.109375 
Q 37.359375 48.484375 30.078125 48.484375 
Q 22.859375 48.484375 18.828125 43.109375 
Q 14.796875 37.75 14.796875 27.984375 
Q 14.796875 18.265625 18.828125 12.890625 
Q 22.859375 7.515625 30.078125 7.515625 
Q 37.359375 7.515625 41.375 12.890625 
Q 45.40625 18.265625 45.40625 27.984375 
M 54.390625 6.78125 
Q 54.390625 -7.171875 48.1875 -13.984375 
Q 42 -20.796875 29.203125 -20.796875 
Q 24.46875 -20.796875 20.265625 -20.09375 
Q 16.0625 -19.390625 12.109375 -17.921875 
L 12.109375 -9.1875 
Q 16.0625 -11.328125 19.921875 -12.34375 
Q 23.78125 -13.375 27.78125 -13.375 
Q 36.625 -13.375 41.015625 -8.765625 
Q 45.40625 -4.15625 45.40625 5.171875 
L 45.40625 9.625 
Q 42.625 4.78125 38.28125 2.390625 
Q 33.9375 0 27.875 0 
Q 17.828125 0 11.671875 7.65625 
Q 5.515625 15.328125 5.515625 27.984375 
Q 5.515625 40.671875 11.671875 48.328125 
Q 17.828125 56 27.875 56 
Q 33.9375 56 38.28125 53.609375 
Q 42.625 51.21875 45.40625 46.390625 
L 45.40625 54.6875 
L 54.390625 54.6875 
z
" id="DejaVuSans-67"/>
      <path d="M 34.28125 27.484375 
Q 23.390625 27.484375 19.1875 25 
Q 14.984375 22.515625 14.984375 16.5 
Q 14.984375 11.71875 18.140625 8.90625 
Q 21.296875 6.109375 26.703125 6.109375 
Q 34.1875 6.109375 38.703125 11.40625 
Q 43.21875 16.703125 43.21875 25.484375 
L 43.21875 27.484375 
z
M 52.203125 31.203125 
L 52.203125 0 
L 43.21875 0 
L 43.21875 8.296875 
Q 40.140625 3.328125 35.546875 0.953125 
Q 30.953125 -1.421875 24.3125 -1.421875 
Q 15.921875 -1.421875 10.953125 3.296875 
Q 6 8.015625 6 15.921875 
Q 6 25.140625 12.171875 29.828125 
Q 18.359375 34.515625 30.609375 34.515625 
L 43.21875 34.515625 
L 43.21875 35.40625 
Q 43.21875 41.609375 39.140625 45 
Q 35.0625 48.390625 27.6875 48.390625 
Q 23 48.390625 18.546875 47.265625 
Q 14.109375 46.140625 10.015625 43.890625 
L 10.015625 52.203125 
Q 14.9375 54.109375 19.578125 55.046875 
Q 24.21875 56 28.609375 56 
Q 40.484375 56 46.34375 49.84375 
Q 52.203125 43.703125 52.203125 31.203125 
" id="DejaVuSans-61"/>
      <path d="M 41.109375 46.296875 
Q 39.59375 47.171875 37.8125 47.578125 
Q 36.03125 48 33.890625 48 
Q 26.265625 48 22.1875 43.046875 
Q 18.109375 38.09375 18.109375 28.8125 
L 18.109375 0 
L 9.078125 0 
L 9.078125 54.6875 
L 18.109375 54.6875 
L 18.109375 46.1875 
Q 20.953125 51.171875 25.484375 53.578125 
Q 30.03125 56 36.53125 56 
Q 37.453125 56 38.578125 55.875 
Q 39.703125 55.765625 41.0625 55.515625 
z
" id="DejaVuSans-72"/>
      <path d="M 52 44.1875 
Q 55.375 50.25 60.0625 53.125 
Q 64.75 56 71.09375 56 
Q 79.640625 56 84.28125 50.015625 
Q 88.921875 44.046875 88.921875 33.015625 
L 88.921875 0 
L 79.890625 0 
L 79.890625 32.71875 
Q 79.890625 40.578125 77.09375 44.375 
Q 74.3125 48.1875 68.609375 48.1875 
Q 61.625 48.1875 57.5625 43.546875 
Q 53.515625 38.921875 53.515625 30.90625 
L 53.515625 0 
L 44.484375 0 
L 44.484375 32.71875 
Q 44.484375 40.625 41.703125 44.40625 
Q 38.921875 48.1875 33.109375 48.1875 
Q 26.21875 48.1875 22.15625 43.53125 
Q 18.109375 38.875 18.109375 30.90625 
L 18.109375 0 
L 9.078125 0 
L 9.078125 54.6875 
L 18.109375 54.6875 
L 18.109375 46.1875 
Q 21.1875 51.21875 25.484375 53.609375 
Q 29.78125 56 35.6875 56 
Q 41.65625 56 45.828125 52.96875 
Q 50 49.953125 52 44.1875 
" id="DejaVuSans-6d"/>
      <path d="M 9.421875 54.6875 
L 18.40625 54.6875 
L 18.40625 0 
L 9.421875 0 
z
M 9.421875 75.984375 
L 18.40625 75.984375 
L 18.40625 64.59375 
L 9.421875 64.59375 
z
" id="DejaVuSans-69"/>
      <path d="M 54.890625 33.015625 
L 54.890625 0 
L 45.90625 0 
L 45.90625 32.71875 
Q 45.90625 40.484375 42.875 44.328125 
Q 39.84375 48.1875 33.796875 48.1875 
Q 26.515625 48.1875 22.3125 43.546875 
Q 18.109375 38.921875 18.109375 30.90625 
L 18.109375 0 
L 9.078125 0 
L 9.078125 54.6875 
L 18.109375 54.6875 
L 18.109375 46.1875 
Q 21.34375 51.125 25.703125 53.5625 
Q 30.078125 56 35.796875 56 
Q 45.21875 56 50.046875 50.171875 
Q 54.890625 44.34375 54.890625 33.015625 
" id="DejaVuSans-6e"/>
     </defs>
     <g transform="translate(94.6 250.722187)scale(0.1 -0.1)">
      <use xlink:href="#DejaVuSans-67"/>
      <use x="63.476562" xlink:href="#DejaVuSans-61"/>
      <use x="124.755859" xlink:href="#DejaVuSans-72"/>
      <use x="165.853516" xlink:href="#DejaVuSans-6d"/>
      <use x="263.265625" xlink:href="#DejaVuSans-69"/>
      <use x="291.048828" xlink:href="#DejaVuSans-6e"/>
     </g>
    </g>
    <g id="line2d_36">
     <path d="M 66.6 261.900312 
L 86.6 261.900312 
" style="fill:none;stroke:#2ca02c;stroke-linecap:square;stroke-width:1.5;"/>
    </g>
    <g id="line2d_37"/>
    <g id="text_17">
     <!-- coospo -->
     <defs>
      <path d="M 18.109375 8.203125 
L 18.109375 -20.796875 
L 9.078125 -20.796875 
L 9.078125 54.6875 
L 18.109375 54.6875 
L 18.109375 46.390625 
Q 20.953125 51.265625 25.265625 53.625 
Q 29.59375 56 35.59375 56 
Q 45.5625 56 51.78125 48.09375 
Q 58.015625 40.1875 58.015625 27.296875 
Q 58.015625 14.40625 51.78125 6.484375 
Q 45.5625 -1.421875 35.59375 -1.421875 
Q 29.59375 -1.421875 25.265625 0.953125 
Q 20.953125 3.328125 18.109375 8.203125 
M 48.6875 27.296875 
Q 48.6875 37.203125 44.609375 42.84375 
Q 40.53125 48.484375 33.40625 48.484375 
Q 26.265625 48.484375 22.1875 42.84375 
Q 18.109375 37.203125 18.109375 27.296875 
Q 18.109375 17.390625 22.1875 11.75 
Q 26.265625 6.109375 33.40625 6.109375 
Q 40.53125 6.109375 44.609375 11.75 
Q 48.6875 17.390625 48.6875 27.296875 
" id="DejaVuSans-70"/>
     </defs>
     <g transform="translate(94.6 265.400312)scale(0.1 -0.1)">
      <use xlink:href="#DejaVuSans-63"/>
      <use x="54.980469" xlink:href="#DejaVuSans-6f"/>
      <use x="116.162109" xlink:href="#DejaVuSans-6f"/>
      <use x="177.34375" xlink:href="#DejaVuSans-73"/>
      <use x="229.443359" xlink:href="#DejaVuSans-70"/>
      <use x="292.919922" xlink:href="#DejaVuSans-6f"/>
     </g>
    </g>
   </g>
  </g>
 </g>
 <defs>
  <clipPath id="p75976f34d6">
   <rect height="235.008" width="357.12" x="57.6" y="41.472"/>
  </clipPath>
 </defs>
</svg>
