<?xml version="1.0" encoding="utf-8" standalone="no"?>
<!DOCTYPE svg PUBLIC "-//W3C//DTD SVG 1.1//EN"
  "http://www.w3.org/Graphics/SVG/1.1/DTD/svg11.dtd">
<!-- Created with matplotlib (http://matplotlib.org/) -->
<svg height="345pt" version="1.1" viewBox="0 0 460 345" width="460pt" xmlns="http://www.w3.org/2000/svg" xmlns:xlink="http://www.w3.org/1999/xlink">
 <defs>
  <style type="text/css">
*{stroke-linecap:butt;stroke-linejoin:round;}
  </style>
 </defs>
 <g id="figure_1">
  <g id="patch_1">
   <path d="M 0 345.6 
L 460.8 345.6 
L 460.8 0 
L 0 0 
z
" style="fill:#ffffff;"/>
  </g>
  <g id="axes_1">
   <g id="patch_2">
    <path d="M 57.6 307.584 
L 414.72 307.584 
L 414.72 41.472 
L 57.6 41.472 
z
" style="fill:#ffffff;"/>
   </g>
   <g id="matplotlib.axis_1">
    <g id="xtick_1">
     <g id="line2d_1">
      <path clip-path="url(#pe157e83745)" d="M 85.183383 307.584 
L 85.183383 41.472 
" style="fill:none;stroke:#b0b0b0;stroke-linecap:square;stroke-width:0.8;"/>
     </g>
     <g id="line2d_2">
      <defs>
       <path d="M 0 0 
L 0 3.5 
" id="m3c3e9197a3" style="stroke:#000000;stroke-width:0.8;"/>
      </defs>
      <g>
       <use style="stroke:#000000;stroke-width:0.8;" x="85.183383" xlink:href="#m3c3e9197a3" y="307.584"/>
      </g>
     </g>
     <g id="text_1">
      <!-- 05 04:07 -->
      <defs>
       <path d="M 31.78125 66.40625 
Q 24.171875 66.40625 20.328125 58.90625 
Q 16.5 51.421875 16.5 36.375 
Q 16.5 21.390625 20.328125 13.890625 
Q 24.171875 6.390625 31.78125 6.390625 
Q 39.453125 6.390625 43.28125 13.890625 
Q 47.125 21.390625 47.125 36.375 
Q 47.125 51.421875 43.28125 58.90625 
Q 39.453125 66.40625 31.78125 66.40625 
M 31.78125 74.21875 
Q 44.046875 74.21875 50.515625 64.515625 
Q 56.984375 54.828125 56.984375 36.375 
Q 56.984375 17.96875 50.515625 8.265625 
Q 44.046875 -1.421875 31.78125 -1.421875 
Q 19.53125 -1.421875 13.0625 8.265625 
Q 6.59375 17.96875 6.59375 36.375 
Q 6.59375 54.828125 13.0625 64.515625 
Q 19.53125 74.21875 31.78125 74.21875 
" id="DejaVuSans-30"/>
       <path d="M 10.796875 72.90625 
L 49.515625 72.90625 
L 49.515625 64.59375 
L 19.828125 64.59375 
L 19.828125 46.734375 
Q 21.96875 47.46875 24.109375 47.828125 
Q 26.265625 48.1875 28.421875 48.1875 
Q 40.625 48.1875 47.75 41.5 
Q 54.890625 34.8125 54.890625 23.390625 
Q 54.890625 11.625 47.5625 5.09375 
Q 40.234375 -1.421875 26.90625 -1.421875 
Q 22.3125 -1.421875 17.546875 -0.640625 
Q 12.796875 0.140625 7.71875 1.703125 
L 7.71875 11.625 
Q 12.109375 9.234375 16.796875 8.0625 
Q 21.484375 6.890625 26.703125 6.890625 
Q 35.15625 6.890625 40.078125 11.328125 
Q 45.015625 15.765625 45.015625 23.390625 
Q 45.015625 31 40.078125 35.4375 
Q 35.15625 39.890625 26.703125 39.890625 
Q 22.75 39.890625 18.8125 39.015625 
Q 14.890625 38.140625 10.796875 36.28125 
z
" id="DejaVuSans-35"/>
       <path id="DejaVuSans-20"/>
       <path d="M 37.796875 64.3125 
L 12.890625 25.390625 
L 37.796875 25.390625 
z
M 35.203125 72.90625 
L 47.609375 72.90625 
L 47.609375 25.390625 
L 58.015625 25.390625 
L 58.015625 17.1875 
L 47.609375 17.1875 
L 47.609375 0 
L 37.796875 0 
L 37.796875 17.1875 
L 4.890625 17.1875 
L 4.890625 26.703125 
z
" id="DejaVuSans-34"/>
       <path d="M 11.71875 12.40625 
L 22.015625 12.40625 
L 22.015625 0 
L 11.71875 0 
z
M 11.71875 51.703125 
L 22.015625 51.703125 
L 22.015625 39.3125 
L 11.71875 39.3125 
z
" id="DejaVuSans-3a"/>
       <path d="M 8.203125 72.90625 
L 55.078125 72.90625 
L 55.078125 68.703125 
L 28.609375 0 
L 18.3125 0 
L 43.21875 64.59375 
L 8.203125 64.59375 
z
" id="DejaVuSans-37"/>
      </defs>
      <g transform="translate(62.822445 322.182437)scale(0.1 -0.1)">
       <use xlink:href="#DejaVuSans-30"/>
       <use x="63.623047" xlink:href="#DejaVuSans-35"/>
       <use x="127.246094" xlink:href="#DejaVuSans-20"/>
       <use x="159.033203" xlink:href="#DejaVuSans-30"/>
       <use x="222.65625" xlink:href="#DejaVuSans-34"/>
       <use x="286.279297" xlink:href="#DejaVuSans-3a"/>
       <use x="319.970703" xlink:href="#DejaVuSans-30"/>
       <use x="383.59375" xlink:href="#DejaVuSans-37"/>
      </g>
     </g>
    </g>
    <g id="xtick_2">
     <g id="line2d_3">
      <path clip-path="url(#pe157e83745)" d="M 123.8788 307.584 
L 123.8788 41.472 
" style="fill:none;stroke:#b0b0b0;stroke-linecap:square;stroke-width:0.8;"/>
     </g>
     <g id="line2d_4">
      <g>
       <use style="stroke:#000000;stroke-width:0.8;" x="123.8788" xlink:href="#m3c3e9197a3" y="307.584"/>
      </g>
     </g>
     <g id="text_2">
      <!-- 05 04:12 -->
      <defs>
       <path d="M 12.40625 8.296875 
L 28.515625 8.296875 
L 28.515625 63.921875 
L 10.984375 60.40625 
L 10.984375 69.390625 
L 28.421875 72.90625 
L 38.28125 72.90625 
L 38.28125 8.296875 
L 54.390625 8.296875 
L 54.390625 0 
L 12.40625 0 
z
" id="DejaVuSans-31"/>
       <path d="M 19.1875 8.296875 
L 53.609375 8.296875 
L 53.609375 0 
L 7.328125 0 
L 7.328125 8.296875 
Q 12.9375 14.109375 22.625 23.890625 
Q 32.328125 33.6875 34.8125 36.53125 
Q 39.546875 41.84375 41.421875 45.53125 
Q 43.3125 49.21875 43.3125 52.78125 
Q 43.3125 58.59375 39.234375 62.25 
Q 35.15625 65.921875 28.609375 65.921875 
Q 23.96875 65.921875 18.8125 64.3125 
Q 13.671875 62.703125 7.8125 59.421875 
L 7.8125 69.390625 
Q 13.765625 71.78125 18.9375 73 
Q 24.125 74.21875 28.421875 74.21875 
Q 39.75 74.21875 46.484375 68.546875 
Q 53.21875 62.890625 53.21875 53.421875 
Q 53.21875 48.921875 51.53125 44.890625 
Q 49.859375 40.875 45.40625 35.40625 
Q 44.1875 33.984375 37.640625 27.21875 
Q 31.109375 20.453125 19.1875 8.296875 
" id="DejaVuSans-32"/>
      </defs>
      <g transform="translate(101.517863 322.182437)scale(0.1 -0.1)">
       <use xlink:href="#DejaVuSans-30"/>
       <use x="63.623047" xlink:href="#DejaVuSans-35"/>
       <use x="127.246094" xlink:href="#DejaVuSans-20"/>
       <use x="159.033203" xlink:href="#DejaVuSans-30"/>
       <use x="222.65625" xlink:href="#DejaVuSans-34"/>
       <use x="286.279297" xlink:href="#DejaVuSans-3a"/>
       <use x="319.970703" xlink:href="#DejaVuSans-31"/>
       <use x="383.59375" xlink:href="#DejaVuSans-32"/>
      </g>
     </g>
    </g>
    <g id="xtick_3">
     <g id="line2d_5">
      <path clip-path="url(#pe157e83745)" d="M 162.574216 307.584 
L 162.574216 41.472 
" style="fill:none;stroke:#b0b0b0;stroke-linecap:square;stroke-width:0.8;"/>
     </g>
     <g id="line2d_6">
      <g>
       <use style="stroke:#000000;stroke-width:0.8;" x="162.574216" xlink:href="#m3c3e9197a3" y="307.584"/>
      </g>
     </g>
     <g id="text_3">
      <!-- 05 04:17 -->
      <g transform="translate(140.213278 322.182437)scale(0.1 -0.1)">
       <use xlink:href="#DejaVuSans-30"/>
       <use x="63.623047" xlink:href="#DejaVuSans-35"/>
       <use x="127.246094" xlink:href="#DejaVuSans-20"/>
       <use x="159.033203" xlink:href="#DejaVuSans-30"/>
       <use x="222.65625" xlink:href="#DejaVuSans-34"/>
       <use x="286.279297" xlink:href="#DejaVuSans-3a"/>
       <use x="319.970703" xlink:href="#DejaVuSans-31"/>
       <use x="383.59375" xlink:href="#DejaVuSans-37"/>
      </g>
     </g>
    </g>
    <g id="xtick_4">
     <g id="line2d_7">
      <path clip-path="url(#pe157e83745)" d="M 201.269632 307.584 
L 201.269632 41.472 
" style="fill:none;stroke:#b0b0b0;stroke-linecap:square;stroke-width:0.8;"/>
     </g>
     <g id="line2d_8">
      <g>
       <use style="stroke:#000000;stroke-width:0.8;" x="201.269632" xlink:href="#m3c3e9197a3" y="307.584"/>
      </g>
     </g>
     <g id="text_4">
      <!-- 05 04:22 -->
      <g transform="translate(178.908695 322.182437)scale(0.1 -0.1)">
       <use xlink:href="#DejaVuSans-30"/>
       <use x="63.623047" xlink:href="#DejaVuSans-35"/>
       <use x="127.246094" xlink:href="#DejaVuSans-20"/>
       <use x="159.033203" xlink:href="#DejaVuSans-30"/>
       <use x="222.65625" xlink:href="#DejaVuSans-34"/>
       <use x="286.279297" xlink:href="#DejaVuSans-3a"/>
       <use x="319.970703" xlink:href="#DejaVuSans-32"/>
       <use x="383.59375" xlink:href="#DejaVuSans-32"/>
      </g>
     </g>
    </g>
    <g id="xtick_5">
     <g id="line2d_9">
      <path clip-path="url(#pe157e83745)" d="M 239.965049 307.584 
L 239.965049 41.472 
" style="fill:none;stroke:#b0b0b0;stroke-linecap:square;stroke-width:0.8;"/>
     </g>
     <g id="line2d_10">
      <g>
       <use style="stroke:#000000;stroke-width:0.8;" x="239.965049" xlink:href="#m3c3e9197a3" y="307.584"/>
      </g>
     </g>
     <g id="text_5">
      <!-- 05 04:27 -->
      <g transform="translate(217.604111 322.182437)scale(0.1 -0.1)">
       <use xlink:href="#DejaVuSans-30"/>
       <use x="63.623047" xlink:href="#DejaVuSans-35"/>
       <use x="127.246094" xlink:href="#DejaVuSans-20"/>
       <use x="159.033203" xlink:href="#DejaVuSans-30"/>
       <use x="222.65625" xlink:href="#DejaVuSans-34"/>
       <use x="286.279297" xlink:href="#DejaVuSans-3a"/>
       <use x="319.970703" xlink:href="#DejaVuSans-32"/>
       <use x="383.59375" xlink:href="#DejaVuSans-37"/>
      </g>
     </g>
    </g>
    <g id="xtick_6">
     <g id="line2d_11">
      <path clip-path="url(#pe157e83745)" d="M 278.660466 307.584 
L 278.660466 41.472 
" style="fill:none;stroke:#b0b0b0;stroke-linecap:square;stroke-width:0.8;"/>
     </g>
     <g id="line2d_12">
      <g>
       <use style="stroke:#000000;stroke-width:0.8;" x="278.660466" xlink:href="#m3c3e9197a3" y="307.584"/>
      </g>
     </g>
     <g id="text_6">
      <!-- 05 04:32 -->
      <defs>
       <path d="M 40.578125 39.3125 
Q 47.65625 37.796875 51.625 33 
Q 55.609375 28.21875 55.609375 21.1875 
Q 55.609375 10.40625 48.1875 4.484375 
Q 40.765625 -1.421875 27.09375 -1.421875 
Q 22.515625 -1.421875 17.65625 -0.515625 
Q 12.796875 0.390625 7.625 2.203125 
L 7.625 11.71875 
Q 11.71875 9.328125 16.59375 8.109375 
Q 21.484375 6.890625 26.8125 6.890625 
Q 36.078125 6.890625 40.9375 10.546875 
Q 45.796875 14.203125 45.796875 21.1875 
Q 45.796875 27.640625 41.28125 31.265625 
Q 36.765625 34.90625 28.71875 34.90625 
L 20.21875 34.90625 
L 20.21875 43.015625 
L 29.109375 43.015625 
Q 36.375 43.015625 40.234375 45.921875 
Q 44.09375 48.828125 44.09375 54.296875 
Q 44.09375 59.90625 40.109375 62.90625 
Q 36.140625 65.921875 28.71875 65.921875 
Q 24.65625 65.921875 20.015625 65.03125 
Q 15.375 64.15625 9.8125 62.3125 
L 9.8125 71.09375 
Q 15.4375 72.65625 20.34375 73.4375 
Q 25.25 74.21875 29.59375 74.21875 
Q 40.828125 74.21875 47.359375 69.109375 
Q 53.90625 64.015625 53.90625 55.328125 
Q 53.90625 49.265625 50.4375 45.09375 
Q 46.96875 40.921875 40.578125 39.3125 
" id="DejaVuSans-33"/>
      </defs>
      <g transform="translate(256.299529 322.182437)scale(0.1 -0.1)">
       <use xlink:href="#DejaVuSans-30"/>
       <use x="63.623047" xlink:href="#DejaVuSans-35"/>
       <use x="127.246094" xlink:href="#DejaVuSans-20"/>
       <use x="159.033203" xlink:href="#DejaVuSans-30"/>
       <use x="222.65625" xlink:href="#DejaVuSans-34"/>
       <use x="286.279297" xlink:href="#DejaVuSans-3a"/>
       <use x="319.970703" xlink:href="#DejaVuSans-33"/>
       <use x="383.59375" xlink:href="#DejaVuSans-32"/>
      </g>
     </g>
    </g>
    <g id="xtick_7">
     <g id="line2d_13">
      <path clip-path="url(#pe157e83745)" d="M 317.355882 307.584 
L 317.355882 41.472 
" style="fill:none;stroke:#b0b0b0;stroke-linecap:square;stroke-width:0.8;"/>
     </g>
     <g id="line2d_14">
      <g>
       <use style="stroke:#000000;stroke-width:0.8;" x="317.355882" xlink:href="#m3c3e9197a3" y="307.584"/>
      </g>
     </g>
     <g id="text_7">
      <!-- 05 04:37 -->
      <g transform="translate(294.994944 322.182437)scale(0.1 -0.1)">
       <use xlink:href="#DejaVuSans-30"/>
       <use x="63.623047" xlink:href="#DejaVuSans-35"/>
       <use x="127.246094" xlink:href="#DejaVuSans-20"/>
       <use x="159.033203" xlink:href="#DejaVuSans-30"/>
       <use x="222.65625" xlink:href="#DejaVuSans-34"/>
       <use x="286.279297" xlink:href="#DejaVuSans-3a"/>
       <use x="319.970703" xlink:href="#DejaVuSans-33"/>
       <use x="383.59375" xlink:href="#DejaVuSans-37"/>
      </g>
     </g>
    </g>
    <g id="xtick_8">
     <g id="line2d_15">
      <path clip-path="url(#pe157e83745)" d="M 356.051298 307.584 
L 356.051298 41.472 
" style="fill:none;stroke:#b0b0b0;stroke-linecap:square;stroke-width:0.8;"/>
     </g>
     <g id="line2d_16">
      <g>
       <use style="stroke:#000000;stroke-width:0.8;" x="356.051298" xlink:href="#m3c3e9197a3" y="307.584"/>
      </g>
     </g>
     <g id="text_8">
      <!-- 05 04:42 -->
      <g transform="translate(333.690361 322.182437)scale(0.1 -0.1)">
       <use xlink:href="#DejaVuSans-30"/>
       <use x="63.623047" xlink:href="#DejaVuSans-35"/>
       <use x="127.246094" xlink:href="#DejaVuSans-20"/>
       <use x="159.033203" xlink:href="#DejaVuSans-30"/>
       <use x="222.65625" xlink:href="#DejaVuSans-34"/>
       <use x="286.279297" xlink:href="#DejaVuSans-3a"/>
       <use x="319.970703" xlink:href="#DejaVuSans-34"/>
       <use x="383.59375" xlink:href="#DejaVuSans-32"/>
      </g>
     </g>
    </g>
    <g id="xtick_9">
     <g id="line2d_17">
      <path clip-path="url(#pe157e83745)" d="M 394.746715 307.584 
L 394.746715 41.472 
" style="fill:none;stroke:#b0b0b0;stroke-linecap:square;stroke-width:0.8;"/>
     </g>
     <g id="line2d_18">
      <g>
       <use style="stroke:#000000;stroke-width:0.8;" x="394.746715" xlink:href="#m3c3e9197a3" y="307.584"/>
      </g>
     </g>
     <g id="text_9">
      <!-- 05 04:47 -->
      <g transform="translate(372.385777 322.182437)scale(0.1 -0.1)">
       <use xlink:href="#DejaVuSans-30"/>
       <use x="63.623047" xlink:href="#DejaVuSans-35"/>
       <use x="127.246094" xlink:href="#DejaVuSans-20"/>
       <use x="159.033203" xlink:href="#DejaVuSans-30"/>
       <use x="222.65625" xlink:href="#DejaVuSans-34"/>
       <use x="286.279297" xlink:href="#DejaVuSans-3a"/>
       <use x="319.970703" xlink:href="#DejaVuSans-34"/>
       <use x="383.59375" xlink:href="#DejaVuSans-37"/>
      </g>
     </g>
    </g>
    <g id="text_10">
     <!-- Time -->
     <defs>
      <path d="M -0.296875 72.90625 
L 61.375 72.90625 
L 61.375 64.59375 
L 35.5 64.59375 
L 35.5 0 
L 25.59375 0 
L 25.59375 64.59375 
L -0.296875 64.59375 
z
" id="DejaVuSans-54"/>
      <path d="M 9.421875 54.6875 
L 18.40625 54.6875 
L 18.40625 0 
L 9.421875 0 
z
M 9.421875 75.984375 
L 18.40625 75.984375 
L 18.40625 64.59375 
L 9.421875 64.59375 
z
" id="DejaVuSans-69"/>
      <path d="M 52 44.1875 
Q 55.375 50.25 60.0625 53.125 
Q 64.75 56 71.09375 56 
Q 79.640625 56 84.28125 50.015625 
Q 88.921875 44.046875 88.921875 33.015625 
L 88.921875 0 
L 79.890625 0 
L 79.890625 32.71875 
Q 79.890625 40.578125 77.09375 44.375 
Q 74.3125 48.1875 68.609375 48.1875 
Q 61.625 48.1875 57.5625 43.546875 
Q 53.515625 38.921875 53.515625 30.90625 
L 53.515625 0 
L 44.484375 0 
L 44.484375 32.71875 
Q 44.484375 40.625 41.703125 44.40625 
Q 38.921875 48.1875 33.109375 48.1875 
Q 26.21875 48.1875 22.15625 43.53125 
Q 18.109375 38.875 18.109375 30.90625 
L 18.109375 0 
L 9.078125 0 
L 9.078125 54.6875 
L 18.109375 54.6875 
L 18.109375 46.1875 
Q 21.1875 51.21875 25.484375 53.609375 
Q 29.78125 56 35.6875 56 
Q 41.65625 56 45.828125 52.96875 
Q 50 49.953125 52 44.1875 
" id="DejaVuSans-6d"/>
      <path d="M 56.203125 29.59375 
L 56.203125 25.203125 
L 14.890625 25.203125 
Q 15.484375 15.921875 20.484375 11.0625 
Q 25.484375 6.203125 34.421875 6.203125 
Q 39.59375 6.203125 44.453125 7.46875 
Q 49.3125 8.734375 54.109375 11.28125 
L 54.109375 2.78125 
Q 49.265625 0.734375 44.1875 -0.34375 
Q 39.109375 -1.421875 33.890625 -1.421875 
Q 20.796875 -1.421875 13.15625 6.1875 
Q 5.515625 13.8125 5.515625 26.8125 
Q 5.515625 40.234375 12.765625 48.109375 
Q 20.015625 56 32.328125 56 
Q 43.359375 56 49.78125 48.890625 
Q 56.203125 41.796875 56.203125 29.59375 
M 47.21875 32.234375 
Q 47.125 39.59375 43.09375 43.984375 
Q 39.0625 48.390625 32.421875 48.390625 
Q 24.90625 48.390625 20.390625 44.140625 
Q 15.875 39.890625 15.1875 32.171875 
z
" id="DejaVuSans-65"/>
     </defs>
     <g transform="translate(223.7725 335.860562)scale(0.1 -0.1)">
      <use xlink:href="#DejaVuSans-54"/>
      <use x="61.037109" xlink:href="#DejaVuSans-69"/>
      <use x="88.820312" xlink:href="#DejaVuSans-6d"/>
      <use x="186.232422" xlink:href="#DejaVuSans-65"/>
     </g>
    </g>
   </g>
   <g id="matplotlib.axis_2">
    <g id="ytick_1">
     <g id="line2d_19">
      <path clip-path="url(#pe157e83745)" d="M 57.6 282.528 
L 414.72 282.528 
" style="fill:none;stroke:#b0b0b0;stroke-linecap:square;stroke-width:0.8;"/>
     </g>
     <g id="line2d_20">
      <defs>
       <path d="M 0 0 
L -3.5 0 
" id="mc9c587bcb4" style="stroke:#000000;stroke-width:0.8;"/>
      </defs>
      <g>
       <use style="stroke:#000000;stroke-width:0.8;" x="57.6" xlink:href="#mc9c587bcb4" y="282.528"/>
      </g>
     </g>
     <g id="text_11">
      <!-- 100 -->
      <g transform="translate(31.5125 286.327219)scale(0.1 -0.1)">
       <use xlink:href="#DejaVuSans-31"/>
       <use x="63.623047" xlink:href="#DejaVuSans-30"/>
       <use x="127.246094" xlink:href="#DejaVuSans-30"/>
      </g>
     </g>
    </g>
    <g id="ytick_2">
     <g id="line2d_21">
      <path clip-path="url(#pe157e83745)" d="M 57.6 239.328 
L 414.72 239.328 
" style="fill:none;stroke:#b0b0b0;stroke-linecap:square;stroke-width:0.8;"/>
     </g>
     <g id="line2d_22">
      <g>
       <use style="stroke:#000000;stroke-width:0.8;" x="57.6" xlink:href="#mc9c587bcb4" y="239.328"/>
      </g>
     </g>
     <g id="text_12">
      <!-- 110 -->
      <g transform="translate(31.5125 243.127219)scale(0.1 -0.1)">
       <use xlink:href="#DejaVuSans-31"/>
       <use x="63.623047" xlink:href="#DejaVuSans-31"/>
       <use x="127.246094" xlink:href="#DejaVuSans-30"/>
      </g>
     </g>
    </g>
    <g id="ytick_3">
     <g id="line2d_23">
      <path clip-path="url(#pe157e83745)" d="M 57.6 196.128 
L 414.72 196.128 
" style="fill:none;stroke:#b0b0b0;stroke-linecap:square;stroke-width:0.8;"/>
     </g>
     <g id="line2d_24">
      <g>
       <use style="stroke:#000000;stroke-width:0.8;" x="57.6" xlink:href="#mc9c587bcb4" y="196.128"/>
      </g>
     </g>
     <g id="text_13">
      <!-- 120 -->
      <g transform="translate(31.5125 199.927219)scale(0.1 -0.1)">
       <use xlink:href="#DejaVuSans-31"/>
       <use x="63.623047" xlink:href="#DejaVuSans-32"/>
       <use x="127.246094" xlink:href="#DejaVuSans-30"/>
      </g>
     </g>
    </g>
    <g id="ytick_4">
     <g id="line2d_25">
      <path clip-path="url(#pe157e83745)" d="M 57.6 152.928 
L 414.72 152.928 
" style="fill:none;stroke:#b0b0b0;stroke-linecap:square;stroke-width:0.8;"/>
     </g>
     <g id="line2d_26">
      <g>
       <use style="stroke:#000000;stroke-width:0.8;" x="57.6" xlink:href="#mc9c587bcb4" y="152.928"/>
      </g>
     </g>
     <g id="text_14">
      <!-- 130 -->
      <g transform="translate(31.5125 156.727219)scale(0.1 -0.1)">
       <use xlink:href="#DejaVuSans-31"/>
       <use x="63.623047" xlink:href="#DejaVuSans-33"/>
       <use x="127.246094" xlink:href="#DejaVuSans-30"/>
      </g>
     </g>
    </g>
    <g id="ytick_5">
     <g id="line2d_27">
      <path clip-path="url(#pe157e83745)" d="M 57.6 109.728 
L 414.72 109.728 
" style="fill:none;stroke:#b0b0b0;stroke-linecap:square;stroke-width:0.8;"/>
     </g>
     <g id="line2d_28">
      <g>
       <use style="stroke:#000000;stroke-width:0.8;" x="57.6" xlink:href="#mc9c587bcb4" y="109.728"/>
      </g>
     </g>
     <g id="text_15">
      <!-- 140 -->
      <g transform="translate(31.5125 113.527219)scale(0.1 -0.1)">
       <use xlink:href="#DejaVuSans-31"/>
       <use x="63.623047" xlink:href="#DejaVuSans-34"/>
       <use x="127.246094" xlink:href="#DejaVuSans-30"/>
      </g>
     </g>
    </g>
    <g id="ytick_6">
     <g id="line2d_29">
      <path clip-path="url(#pe157e83745)" d="M 57.6 66.528 
L 414.72 66.528 
" style="fill:none;stroke:#b0b0b0;stroke-linecap:square;stroke-width:0.8;"/>
     </g>
     <g id="line2d_30">
      <g>
       <use style="stroke:#000000;stroke-width:0.8;" x="57.6" xlink:href="#mc9c587bcb4" y="66.528"/>
      </g>
     </g>
     <g id="text_16">
      <!-- 150 -->
      <g transform="translate(31.5125 70.327219)scale(0.1 -0.1)">
       <use xlink:href="#DejaVuSans-31"/>
       <use x="63.623047" xlink:href="#DejaVuSans-35"/>
       <use x="127.246094" xlink:href="#DejaVuSans-30"/>
      </g>
     </g>
    </g>
    <g id="text_17">
     <!-- Heart rate -->
     <defs>
      <path d="M 9.8125 72.90625 
L 19.671875 72.90625 
L 19.671875 43.015625 
L 55.515625 43.015625 
L 55.515625 72.90625 
L 65.375 72.90625 
L 65.375 0 
L 55.515625 0 
L 55.515625 34.71875 
L 19.671875 34.71875 
L 19.671875 0 
L 9.8125 0 
z
" id="DejaVuSans-48"/>
      <path d="M 34.28125 27.484375 
Q 23.390625 27.484375 19.1875 25 
Q 14.984375 22.515625 14.984375 16.5 
Q 14.984375 11.71875 18.140625 8.90625 
Q 21.296875 6.109375 26.703125 6.109375 
Q 34.1875 6.109375 38.703125 11.40625 
Q 43.21875 16.703125 43.21875 25.484375 
L 43.21875 27.484375 
z
M 52.203125 31.203125 
L 52.203125 0 
L 43.21875 0 
L 43.21875 8.296875 
Q 40.140625 3.328125 35.546875 0.953125 
Q 30.953125 -1.421875 24.3125 -1.421875 
Q 15.921875 -1.421875 10.953125 3.296875 
Q 6 8.015625 6 15.921875 
Q 6 25.140625 12.171875 29.828125 
Q 18.359375 34.515625 30.609375 34.515625 
L 43.21875 34.515625 
L 43.21875 35.40625 
Q 43.21875 41.609375 39.140625 45 
Q 35.0625 48.390625 27.6875 48.390625 
Q 23 48.390625 18.546875 47.265625 
Q 14.109375 46.140625 10.015625 43.890625 
L 10.015625 52.203125 
Q 14.9375 54.109375 19.578125 55.046875 
Q 24.21875 56 28.609375 56 
Q 40.484375 56 46.34375 49.84375 
Q 52.203125 43.703125 52.203125 31.203125 
" id="DejaVuSans-61"/>
      <path d="M 41.109375 46.296875 
Q 39.59375 47.171875 37.8125 47.578125 
Q 36.03125 48 33.890625 48 
Q 26.265625 48 22.1875 43.046875 
Q 18.109375 38.09375 18.109375 28.8125 
L 18.109375 0 
L 9.078125 0 
L 9.078125 54.6875 
L 18.109375 54.6875 
L 18.109375 46.1875 
Q 20.953125 51.171875 25.484375 53.578125 
Q 30.03125 56 36.53125 56 
Q 37.453125 56 38.578125 55.875 
Q 39.703125 55.765625 41.0625 55.515625 
z
" id="DejaVuSans-72"/>
      <path d="M 18.3125 70.21875 
L 18.3125 54.6875 
L 36.8125 54.6875 
L 36.8125 47.703125 
L 18.3125 47.703125 
L 18.3125 18.015625 
Q 18.3125 11.328125 20.140625 9.421875 
Q 21.96875 7.515625 27.59375 7.515625 
L 36.8125 7.515625 
L 36.8125 0 
L 27.59375 0 
Q 17.1875 0 13.234375 3.875 
Q 9.28125 7.765625 9.28125 18.015625 
L 9.28125 47.703125 
L 2.6875 47.703125 
L 2.6875 54.6875 
L 9.28125 54.6875 
L 9.28125 70.21875 
z
" id="DejaVuSans-74"/>
     </defs>
     <g transform="translate(25.432812 200.189719)rotate(-90)scale(0.1 -0.1)">
      <use xlink:href="#DejaVuSans-48"/>
      <use x="75.195312" xlink:href="#DejaVuSans-65"/>
      <use x="136.71875" xlink:href="#DejaVuSans-61"/>
      <use x="197.998047" xlink:href="#DejaVuSans-72"/>
      <use x="239.111328" xlink:href="#DejaVuSans-74"/>
      <use x="278.320312" xlink:href="#DejaVuSans-20"/>
      <use x="310.107422" xlink:href="#DejaVuSans-72"/>
      <use x="351.220703" xlink:href="#DejaVuSans-61"/>
      <use x="412.5" xlink:href="#DejaVuSans-74"/>
      <use x="451.708984" xlink:href="#DejaVuSans-65"/>
     </g>
    </g>
   </g>
   <g id="line2d_31">
    <path clip-path="url(#pe157e83745)" d="M 73.961713 295.488 
L 74.477652 282.528 
L 75.380545 291.168 
L 75.896483 278.208 
L 77.057345 278.208 
L 77.315315 265.248 
L 77.960239 265.248 
L 78.347193 252.288 
L 79.508056 252.288 
L 79.766025 230.688 
L 80.281963 213.408 
L 81.571812 196.128 
L 82.087749 196.128 
L 82.345719 178.848 
L 83.119627 165.888 
L 84.28049 157.248 
L 84.796429 139.968 
L 85.570336 127.008 
L 86.602216 127.008 
L 87.118154 109.728 
L 88.150031 101.088 
L 89.310894 101.088 
L 90.471757 92.448 
L 91.63262 92.448 
L 92.406528 79.488 
L 93.696374 79.488 
L 94.470284 62.208 
L 94.599268 62.208 
L 95.76013 66.528 
L 98.081856 83.808 
L 100.661551 75.168 
L 101.822412 79.488 
L 104.144137 96.768 
L 105.176015 105.408 
L 107.239771 96.768 
L 108.271647 105.408 
L 109.43251 101.088 
L 112.012205 101.088 
L 113.302052 105.408 
L 114.462914 96.768 
L 115.623777 105.408 
L 116.913624 105.408 
L 118.203472 114.048 
L 119.364335 127.008 
L 120.783167 135.648 
L 122.201999 135.648 
L 123.36286 144.288 
L 124.007784 144.288 
L 124.910678 148.608 
L 125.942554 152.928 
L 126.716463 165.888 
L 126.845448 170.208 
L 127.361387 183.168 
L 128.393264 178.848 
L 129.554127 178.848 
L 130.71499 170.208 
L 131.875853 174.528 
L 133.036715 170.208 
L 134.326562 170.208 
L 135.487424 174.528 
L 136.777272 165.888 
L 139.227982 165.888 
L 140.775798 170.208 
L 142.065646 178.848 
L 143.355493 174.528 
L 144.645339 174.528 
L 145.935187 178.848 
L 147.225034 178.848 
L 148.514882 170.208 
L 149.54676 157.248 
L 151.22356 148.608 
L 151.352545 148.608 
L 152.513408 139.968 
L 153.287316 131.328 
L 153.545286 118.368 
L 154.190208 105.408 
L 154.448178 88.128 
L 155.093102 83.808 
L 155.738026 75.168 
L 156.511934 62.208 
L 157.414827 75.168 
L 158.31772 79.488 
L 159.091629 92.448 
L 159.994522 92.448 
L 161.0264 96.768 
L 161.929293 101.088 
L 162.96117 101.088 
L 163.864063 88.128 
L 164.895941 83.808 
L 166.056804 79.488 
L 167.088681 83.808 
L 168.507513 88.128 
L 169.539391 92.448 
L 170.571269 105.408 
L 171.732132 118.368 
L 172.635024 131.328 
L 173.408933 144.288 
L 174.182841 170.208 
L 175.601673 178.848 
L 177.020505 183.168 
L 178.181368 187.488 
L 179.471214 183.168 
L 180.890047 178.848 
L 182.179893 174.528 
L 183.211772 187.488 
L 184.501618 178.848 
L 187.081313 178.848 
L 188.242176 174.528 
L 189.145068 174.528 
L 189.661008 161.568 
L 190.5639 131.328 
L 191.07984 118.368 
L 193.401565 105.408 
L 194.304458 96.768 
L 195.465321 83.808 
L 196.368214 83.808 
L 197.400091 88.128 
L 198.302984 92.448 
L 199.334862 88.128 
L 201.011663 88.128 
L 201.914557 96.768 
L 202.946434 96.768 
L 203.978312 88.128 
L 205.139174 96.768 
L 205.784098 109.728 
L 207.073944 118.368 
L 208.234807 127.008 
L 209.266685 131.328 
L 211.846379 139.968 
L 212.491303 152.928 
L 213.652166 165.888 
L 214.942013 165.888 
L 216.360845 161.568 
L 218.940539 170.208 
L 220.359371 178.848 
L 221.649219 170.208 
L 222.939066 174.528 
L 224.099929 174.528 
L 225.518761 170.208 
L 226.163684 161.568 
L 227.195562 131.328 
L 227.582516 118.368 
L 228.098454 105.408 
L 228.743379 92.448 
L 229.517286 88.128 
L 230.678149 75.168 
L 232.483935 83.808 
L 234.289721 83.808 
L 235.192615 79.488 
L 235.966522 75.168 
L 236.740431 83.808 
L 237.772309 83.808 
L 238.675202 79.488 
L 240.480988 88.128 
L 241.770835 101.088 
L 242.544744 114.048 
L 243.060682 127.008 
L 243.834591 139.968 
L 244.866467 135.648 
L 246.02733 135.648 
L 247.188193 148.608 
L 248.478042 152.928 
L 249.896872 161.568 
L 252.476566 161.568 
L 253.766415 170.208 
L 254.798292 183.168 
L 256.346108 178.848 
L 257.50697 187.488 
L 258.667833 178.848 
L 260.989559 170.208 
L 262.021437 165.888 
L 262.795344 157.248 
L 263.569254 144.288 
L 263.956207 131.328 
L 264.085193 131.328 
L 264.601131 118.368 
L 265.246055 105.408 
L 266.019963 92.448 
L 266.793871 83.808 
L 267.567779 70.848 
L 268.212703 57.888 
L 269.115597 57.888 
L 270.01849 62.208 
L 270.792397 66.528 
L 271.695292 66.528 
L 272.469199 70.848 
L 273.372092 75.168 
L 275.177877 75.168 
L 276.983665 83.808 
L 277.886557 83.808 
L 279.176405 92.448 
L 279.950313 105.408 
L 281.111176 118.368 
L 282.401022 127.008 
L 283.045946 139.968 
L 283.819854 144.288 
L 285.109702 157.248 
L 286.399549 157.248 
L 287.81838 148.608 
L 289.108228 148.608 
L 290.398075 152.928 
L 291.687922 161.568 
L 292.848784 157.248 
L 295.428479 157.248 
L 296.718327 161.568 
L 298.137158 165.888 
L 299.298021 157.248 
L 299.942945 139.968 
L 300.200914 127.008 
L 300.845837 114.048 
L 302.393655 88.128 
L 303.038578 83.808 
L 303.812487 88.128 
L 304.586394 88.128 
L 305.489287 92.448 
L 306.263196 105.408 
L 307.295074 105.408 
L 309.10086 96.768 
L 311.164616 96.768 
L 312.196493 92.448 
L 312.970402 88.128 
L 313.873295 88.128 
L 314.776188 83.808 
L 316.066034 96.768 
L 317.484867 105.408 
L 318.645729 114.048 
L 321.225424 131.328 
L 322.386287 144.288 
L 322.644257 144.288 
L 324.836996 165.888 
L 325.868874 174.528 
L 327.029737 170.208 
L 328.190598 178.848 
L 328.319583 178.848 
L 329.480446 187.488 
L 330.641309 183.168 
L 331.802171 183.168 
L 333.092018 174.528 
L 335.800697 174.528 
L 337.090545 170.208 
L 338.251407 165.888 
L 339.541254 170.208 
L 340.960086 174.528 
L 342.249934 174.528 
L 343.539781 183.168 
L 344.958612 178.848 
L 346.248459 178.848 
L 347.280338 174.528 
L 352.310742 174.528 
L 354.116528 183.168 
L 355.535359 178.848 
L 356.825208 170.208 
L 357.857085 161.568 
L 359.017947 165.888 
L 360.307795 174.528 
L 361.339672 174.528 
L 363.274443 152.928 
L 368.175862 152.928 
L 369.078755 148.608 
L 370.110633 152.928 
L 371.271496 157.248 
L 373.593221 157.248 
L 375.914946 148.608 
L 376.817839 135.648 
L 377.978702 127.008 
L 379.010579 139.968 
L 380.300426 144.288 
L 381.590273 144.288 
L 382.751136 152.928 
L 384.943876 152.928 
L 386.104739 157.248 
L 387.394586 161.568 
L 388.684434 157.248 
L 389.97428 157.248 
L 391.264127 161.568 
L 392.42499 165.888 
L 393.714838 170.208 
L 395.004684 170.208 
L 396.294532 161.568 
L 398.487272 183.168 
L 398.487272 183.168 
" style="fill:none;stroke:#1f77b4;stroke-linecap:square;stroke-width:1.5;"/>
   </g>
   <g id="line2d_32">
    <path clip-path="url(#pe157e83745)" d="M 73.832727 295.488 
L 74.993589 273.888 
L 76.154452 226.368 
L 76.283438 226.368 
L 77.315315 213.408 
L 77.573284 213.408 
L 78.734147 200.448 
L 78.863132 196.128 
L 80.023993 178.848 
L 80.152979 170.208 
L 81.313842 161.568 
L 82.732674 161.568 
L 83.764551 165.888 
L 83.893536 165.888 
L 85.183383 157.248 
L 86.47323 152.928 
L 87.892062 152.928 
L 89.181911 161.568 
L 90.342772 170.208 
L 94.212315 170.208 
L 95.502161 174.528 
L 98.210839 174.528 
L 99.371702 178.848 
L 99.500688 178.848 
L 100.790534 187.488 
L 101.951397 191.808 
L 103.11226 187.488 
L 103.241243 187.488 
L 104.402106 178.848 
L 104.531092 178.848 
L 105.820938 170.208 
L 107.110785 152.928 
L 108.400633 139.968 
L 110.980328 157.248 
L 111.238297 157.248 
L 112.528144 165.888 
L 113.689007 161.568 
L 113.817992 161.568 
L 114.978853 174.528 
L 116.52667 174.528 
L 117.816517 165.888 
L 119.106365 170.208 
L 119.23535 174.528 
L 120.525197 174.528 
L 121.686059 178.848 
L 121.94403 183.168 
L 124.523723 183.168 
L 125.684586 187.488 
L 125.942554 191.808 
L 127.103417 183.168 
L 128.393264 183.168 
L 129.683112 178.848 
L 129.941082 178.848 
L 131.230928 165.888 
L 132.520777 170.208 
L 133.939609 170.208 
L 135.100471 174.528 
L 135.229455 174.528 
L 136.519301 165.888 
L 137.80915 161.568 
L 141.678691 174.528 
L 142.968538 174.528 
L 144.1294 178.848 
L 145.548233 178.848 
L 146.709095 183.168 
L 146.83808 183.168 
L 148.127927 170.208 
L 148.256912 170.208 
L 149.54676 157.248 
L 149.804729 157.248 
L 151.094575 148.608 
L 152.126454 144.288 
L 153.287316 118.368 
L 154.577164 83.808 
L 155.609041 66.528 
L 156.898889 66.528 
L 158.188736 83.808 
L 159.478582 92.448 
L 160.76843 96.768 
L 162.058277 109.728 
L 163.348125 101.088 
L 163.606094 101.088 
L 166.185787 118.368 
L 167.34665 131.328 
L 168.636498 135.648 
L 169.926345 148.608 
L 171.216193 157.248 
L 171.345177 161.568 
L 172.635024 174.528 
L 172.892995 174.528 
L 174.053856 178.848 
L 174.311825 178.848 
L 175.343704 174.528 
L 175.988626 174.528 
L 177.149489 178.848 
L 177.536444 183.168 
L 178.697307 187.488 
L 178.82629 187.488 
L 179.987153 174.528 
L 180.116138 174.528 
L 181.277001 178.848 
L 181.405985 174.528 
L 182.566848 183.168 
L 182.695833 183.168 
L 183.856694 187.488 
L 183.98568 187.488 
L 185.017557 178.848 
L 186.565374 178.848 
L 187.726237 174.528 
L 189.145068 174.528 
L 190.305931 135.648 
L 191.595778 114.048 
L 192.885626 109.728 
L 195.465321 83.808 
L 195.723289 79.488 
L 197.013136 83.808 
L 198.302984 92.448 
L 199.592831 88.128 
L 199.721816 88.128 
L 200.882679 83.808 
L 201.011663 88.128 
L 202.172525 96.768 
L 202.30151 101.088 
L 203.462373 92.448 
L 203.591358 88.128 
L 204.75222 92.448 
L 204.881205 92.448 
L 206.042068 109.728 
L 206.171052 114.048 
L 207.331915 122.688 
L 207.460899 122.688 
L 208.621762 131.328 
L 208.879731 135.648 
L 210.040594 131.328 
L 210.169578 131.328 
L 211.330441 135.648 
L 211.459426 135.648 
L 213.007242 157.248 
L 214.168104 161.568 
L 214.29709 161.568 
L 215.457952 165.888 
L 215.586937 161.568 
L 216.876783 161.568 
L 218.037646 170.208 
L 218.295615 170.208 
L 219.585464 178.848 
L 220.87531 174.528 
L 221.004295 174.528 
L 222.294142 170.208 
L 223.583989 174.528 
L 225.26079 174.528 
L 226.550638 148.608 
L 227.840485 105.408 
L 229.001348 88.128 
L 230.033225 79.488 
L 231.194088 75.168 
L 232.35495 83.808 
L 233.644798 83.808 
L 234.805659 79.488 
L 234.934645 79.488 
L 236.095508 75.168 
L 237.127385 83.808 
L 237.643324 79.488 
L 238.933172 79.488 
L 240.094033 88.128 
L 240.223019 88.128 
L 241.383882 92.448 
L 241.512865 92.448 
L 243.963576 139.968 
L 245.124438 131.328 
L 247.704132 148.608 
L 248.864995 152.928 
L 248.99398 152.928 
L 250.283827 165.888 
L 251.573673 161.568 
L 252.863522 161.568 
L 253.637429 165.888 
L 254.669307 183.168 
L 255.959155 178.848 
L 256.217124 174.528 
L 257.50697 183.168 
L 258.022909 183.168 
L 258.796819 174.528 
L 260.215651 174.528 
L 261.118543 165.888 
L 261.892452 165.888 
L 262.408391 157.248 
L 262.795344 152.928 
L 263.440269 139.968 
L 263.956207 127.008 
L 265.633008 92.448 
L 266.019963 88.128 
L 266.664887 79.488 
L 267.051841 70.848 
L 268.083717 53.568 
L 268.470673 53.568 
L 268.728642 57.888 
L 268.986611 57.888 
L 269.50255 62.208 
L 270.147473 62.208 
L 270.534429 66.528 
L 272.082245 66.528 
L 272.598184 70.848 
L 272.985138 75.168 
L 274.790924 75.168 
L 275.306863 79.488 
L 276.467726 79.488 
L 276.725696 83.808 
L 277.886557 83.808 
L 278.531481 88.128 
L 279.176405 88.128 
L 279.434374 105.408 
L 279.821328 105.408 
L 280.208282 109.728 
L 280.98219 114.048 
L 281.627114 122.688 
L 282.014069 131.328 
L 282.401022 131.328 
L 282.916962 139.968 
L 284.335793 148.608 
L 284.722748 152.928 
L 285.238686 157.248 
L 286.14158 152.928 
L 286.786504 157.248 
L 287.302443 152.928 
L 288.07635 144.288 
L 288.721274 144.288 
L 289.495182 152.928 
L 290.140106 152.928 
L 291.042998 157.248 
L 293.751678 157.248 
L 294.267617 152.928 
L 294.783556 152.928 
L 295.557464 157.248 
L 296.847312 165.888 
L 298.911066 165.888 
L 299.55599 148.608 
L 300.587868 109.728 
L 300.974822 101.088 
L 301.361777 96.768 
L 301.748731 88.128 
L 302.264669 83.808 
L 302.780609 83.808 
L 303.038578 88.128 
L 303.94147 88.128 
L 304.586394 83.808 
L 305.231318 88.128 
L 306.134212 88.128 
L 306.392181 92.448 
L 309.616798 92.448 
L 310.132737 96.768 
L 310.777661 96.768 
L 311.2936 92.448 
L 312.325478 92.448 
L 312.841417 88.128 
L 313.48634 88.128 
L 313.873295 83.808 
L 314.389234 83.808 
L 314.905172 88.128 
L 315.937051 92.448 
L 316.581973 96.768 
L 317.226897 105.408 
L 317.871821 109.728 
L 319.677607 127.008 
L 320.451515 127.008 
L 321.354408 131.328 
L 321.870347 139.968 
L 322.257301 144.288 
L 323.289179 152.928 
L 323.934103 157.248 
L 324.192072 161.568 
L 324.450042 161.568 
L 325.352935 170.208 
L 326.126842 174.528 
L 326.771767 170.208 
L 327.416691 170.208 
L 329.480446 187.488 
L 329.996385 187.488 
L 330.899278 183.168 
L 332.189126 183.168 
L 332.834048 174.528 
L 333.607956 170.208 
L 333.994911 174.528 
L 334.639835 174.528 
L 335.671713 178.848 
L 336.574606 178.848 
L 337.21953 170.208 
L 338.251407 165.888 
L 339.025315 170.208 
L 342.636888 170.208 
L 343.281811 174.528 
L 343.79775 183.168 
L 345.087597 174.528 
L 348.570185 174.528 
L 348.828154 170.208 
L 349.086123 170.208 
L 349.473078 174.528 
L 350.762925 174.528 
L 351.407848 170.208 
L 352.568711 174.528 
L 353.08465 178.848 
L 353.858558 183.168 
L 354.374496 183.168 
L 355.019421 178.848 
L 355.535359 174.528 
L 356.954191 170.208 
L 358.115054 157.248 
L 359.404901 165.888 
L 359.920839 174.528 
L 361.597641 174.528 
L 361.726626 170.208 
L 363.016473 157.248 
L 365.596168 148.608 
L 366.886016 152.928 
L 367.659924 152.928 
L 368.433832 148.608 
L 368.94977 148.608 
L 369.20774 152.928 
L 370.755557 152.928 
L 371.271496 161.568 
L 371.65845 161.568 
L 372.303373 157.248 
L 373.593221 157.248 
L 374.496113 152.928 
L 375.270022 148.608 
L 376.172915 144.288 
L 377.075808 135.648 
L 377.720732 127.008 
L 377.978702 131.328 
L 378.365656 131.328 
L 378.752609 139.968 
L 379.010579 139.968 
L 379.655502 144.288 
L 381.203319 144.288 
L 385.072862 157.248 
L 390.619205 157.248 
L 391.393112 161.568 
L 392.038036 165.888 
L 393.327883 170.208 
L 394.101791 170.208 
L 394.8757 165.888 
L 395.520623 161.568 
L 396.294532 161.568 
L 397.06844 165.888 
L 397.584379 174.528 
L 397.971334 174.528 
L 397.971334 174.528 
" style="fill:none;stroke:#ff7f0e;stroke-linecap:square;stroke-width:1.5;"/>
   </g>
   <g id="patch_3">
    <path d="M 57.6 307.584 
L 57.6 41.472 
" style="fill:none;stroke:#000000;stroke-linecap:square;stroke-linejoin:miter;stroke-width:0.8;"/>
   </g>
   <g id="patch_4">
    <path d="M 414.72 307.584 
L 414.72 41.472 
" style="fill:none;stroke:#000000;stroke-linecap:square;stroke-linejoin:miter;stroke-width:0.8;"/>
   </g>
   <g id="patch_5">
    <path d="M 57.599999 307.584 
L 414.719999 307.584 
" style="fill:none;stroke:#000000;stroke-linecap:square;stroke-linejoin:miter;stroke-width:0.8;"/>
   </g>
   <g id="patch_6">
    <path d="M 57.599999 41.472 
L 414.719999 41.472 
" style="fill:none;stroke:#000000;stroke-linecap:square;stroke-linejoin:miter;stroke-width:0.8;"/>
   </g>
   <g id="text_18">
    <!-- Heart rate -->
    <g transform="translate(205.365938 35.472)scale(0.12 -0.12)">
     <use xlink:href="#DejaVuSans-48"/>
     <use x="75.195312" xlink:href="#DejaVuSans-65"/>
     <use x="136.71875" xlink:href="#DejaVuSans-61"/>
     <use x="197.998047" xlink:href="#DejaVuSans-72"/>
     <use x="239.111328" xlink:href="#DejaVuSans-74"/>
     <use x="278.320312" xlink:href="#DejaVuSans-20"/>
     <use x="310.107422" xlink:href="#DejaVuSans-72"/>
     <use x="351.220703" xlink:href="#DejaVuSans-61"/>
     <use x="412.5" xlink:href="#DejaVuSans-74"/>
     <use x="451.708984" xlink:href="#DejaVuSans-65"/>
    </g>
   </g>
   <g id="legend_1">
    <g id="patch_7">
     <path d="M 337.684063 78.82825 
L 407.72 78.82825 
Q 409.72 78.82825 409.72 76.82825 
L 409.72 48.472 
Q 409.72 46.472 407.72 46.472 
L 337.684063 46.472 
Q 335.684063 46.472 335.684063 48.472 
L 335.684063 76.82825 
Q 335.684063 78.82825 337.684063 78.82825 
z
" style="fill:#ffffff;opacity:0.8;stroke:#cccccc;stroke-linejoin:miter;"/>
    </g>
    <g id="line2d_33">
     <path d="M 339.684063 54.570437 
L 359.684063 54.570437 
" style="fill:none;stroke:#1f77b4;stroke-linecap:square;stroke-width:1.5;"/>
    </g>
    <g id="line2d_34"/>
    <g id="text_19">
     <!-- Garmin -->
     <defs>
      <path d="M 59.515625 10.40625 
L 59.515625 29.984375 
L 43.40625 29.984375 
L 43.40625 38.09375 
L 69.28125 38.09375 
L 69.28125 6.78125 
Q 63.578125 2.734375 56.6875 0.65625 
Q 49.8125 -1.421875 42 -1.421875 
Q 24.90625 -1.421875 15.25 8.5625 
Q 5.609375 18.5625 5.609375 36.375 
Q 5.609375 54.25 15.25 64.234375 
Q 24.90625 74.21875 42 74.21875 
Q 49.125 74.21875 55.546875 72.453125 
Q 61.96875 70.703125 67.390625 67.28125 
L 67.390625 56.78125 
Q 61.921875 61.421875 55.765625 63.765625 
Q 49.609375 66.109375 42.828125 66.109375 
Q 29.4375 66.109375 22.71875 58.640625 
Q 16.015625 51.171875 16.015625 36.375 
Q 16.015625 21.625 22.71875 14.15625 
Q 29.4375 6.6875 42.828125 6.6875 
Q 48.046875 6.6875 52.140625 7.59375 
Q 56.25 8.5 59.515625 10.40625 
" id="DejaVuSans-47"/>
      <path d="M 54.890625 33.015625 
L 54.890625 0 
L 45.90625 0 
L 45.90625 32.71875 
Q 45.90625 40.484375 42.875 44.328125 
Q 39.84375 48.1875 33.796875 48.1875 
Q 26.515625 48.1875 22.3125 43.546875 
Q 18.109375 38.921875 18.109375 30.90625 
L 18.109375 0 
L 9.078125 0 
L 9.078125 54.6875 
L 18.109375 54.6875 
L 18.109375 46.1875 
Q 21.34375 51.125 25.703125 53.5625 
Q 30.078125 56 35.796875 56 
Q 45.21875 56 50.046875 50.171875 
Q 54.890625 44.34375 54.890625 33.015625 
" id="DejaVuSans-6e"/>
     </defs>
     <g transform="translate(367.684063 58.070437)scale(0.1 -0.1)">
      <use xlink:href="#DejaVuSans-47"/>
      <use x="77.490234" xlink:href="#DejaVuSans-61"/>
      <use x="138.769531" xlink:href="#DejaVuSans-72"/>
      <use x="179.867188" xlink:href="#DejaVuSans-6d"/>
      <use x="277.279297" xlink:href="#DejaVuSans-69"/>
      <use x="305.0625" xlink:href="#DejaVuSans-6e"/>
     </g>
    </g>
    <g id="line2d_35">
     <path d="M 339.684063 69.248562 
L 359.684063 69.248562 
" style="fill:none;stroke:#ff7f0e;stroke-linecap:square;stroke-width:1.5;"/>
    </g>
    <g id="line2d_36"/>
    <g id="text_20">
     <!-- CooSpo -->
     <defs>
      <path d="M 64.40625 67.28125 
L 64.40625 56.890625 
Q 59.421875 61.53125 53.78125 63.8125 
Q 48.140625 66.109375 41.796875 66.109375 
Q 29.296875 66.109375 22.65625 58.46875 
Q 16.015625 50.828125 16.015625 36.375 
Q 16.015625 21.96875 22.65625 14.328125 
Q 29.296875 6.6875 41.796875 6.6875 
Q 48.140625 6.6875 53.78125 8.984375 
Q 59.421875 11.28125 64.40625 15.921875 
L 64.40625 5.609375 
Q 59.234375 2.09375 53.4375 0.328125 
Q 47.65625 -1.421875 41.21875 -1.421875 
Q 24.65625 -1.421875 15.125 8.703125 
Q 5.609375 18.84375 5.609375 36.375 
Q 5.609375 53.953125 15.125 64.078125 
Q 24.65625 74.21875 41.21875 74.21875 
Q 47.75 74.21875 53.53125 72.484375 
Q 59.328125 70.75 64.40625 67.28125 
" id="DejaVuSans-43"/>
      <path d="M 30.609375 48.390625 
Q 23.390625 48.390625 19.1875 42.75 
Q 14.984375 37.109375 14.984375 27.296875 
Q 14.984375 17.484375 19.15625 11.84375 
Q 23.34375 6.203125 30.609375 6.203125 
Q 37.796875 6.203125 41.984375 11.859375 
Q 46.1875 17.53125 46.1875 27.296875 
Q 46.1875 37.015625 41.984375 42.703125 
Q 37.796875 48.390625 30.609375 48.390625 
M 30.609375 56 
Q 42.328125 56 49.015625 48.375 
Q 55.71875 40.765625 55.71875 27.296875 
Q 55.71875 13.875 49.015625 6.21875 
Q 42.328125 -1.421875 30.609375 -1.421875 
Q 18.84375 -1.421875 12.171875 6.21875 
Q 5.515625 13.875 5.515625 27.296875 
Q 5.515625 40.765625 12.171875 48.375 
Q 18.84375 56 30.609375 56 
" id="DejaVuSans-6f"/>
      <path d="M 53.515625 70.515625 
L 53.515625 60.890625 
Q 47.90625 63.578125 42.921875 64.890625 
Q 37.9375 66.21875 33.296875 66.21875 
Q 25.25 66.21875 20.875 63.09375 
Q 16.5 59.96875 16.5 54.203125 
Q 16.5 49.359375 19.40625 46.890625 
Q 22.3125 44.4375 30.421875 42.921875 
L 36.375 41.703125 
Q 47.40625 39.59375 52.65625 34.296875 
Q 57.90625 29 57.90625 20.125 
Q 57.90625 9.515625 50.796875 4.046875 
Q 43.703125 -1.421875 29.984375 -1.421875 
Q 24.8125 -1.421875 18.96875 -0.25 
Q 13.140625 0.921875 6.890625 3.21875 
L 6.890625 13.375 
Q 12.890625 10.015625 18.65625 8.296875 
Q 24.421875 6.59375 29.984375 6.59375 
Q 38.421875 6.59375 43.015625 9.90625 
Q 47.609375 13.234375 47.609375 19.390625 
Q 47.609375 24.75 44.3125 27.78125 
Q 41.015625 30.8125 33.5 32.328125 
L 27.484375 33.5 
Q 16.453125 35.6875 11.515625 40.375 
Q 6.59375 45.0625 6.59375 53.421875 
Q 6.59375 63.09375 13.40625 68.65625 
Q 20.21875 74.21875 32.171875 74.21875 
Q 37.3125 74.21875 42.625 73.28125 
Q 47.953125 72.359375 53.515625 70.515625 
" id="DejaVuSans-53"/>
      <path d="M 18.109375 8.203125 
L 18.109375 -20.796875 
L 9.078125 -20.796875 
L 9.078125 54.6875 
L 18.109375 54.6875 
L 18.109375 46.390625 
Q 20.953125 51.265625 25.265625 53.625 
Q 29.59375 56 35.59375 56 
Q 45.5625 56 51.78125 48.09375 
Q 58.015625 40.1875 58.015625 27.296875 
Q 58.015625 14.40625 51.78125 6.484375 
Q 45.5625 -1.421875 35.59375 -1.421875 
Q 29.59375 -1.421875 25.265625 0.953125 
Q 20.953125 3.328125 18.109375 8.203125 
M 48.6875 27.296875 
Q 48.6875 37.203125 44.609375 42.84375 
Q 40.53125 48.484375 33.40625 48.484375 
Q 26.265625 48.484375 22.1875 42.84375 
Q 18.109375 37.203125 18.109375 27.296875 
Q 18.109375 17.390625 22.1875 11.75 
Q 26.265625 6.109375 33.40625 6.109375 
Q 40.53125 6.109375 44.609375 11.75 
Q 48.6875 17.390625 48.6875 27.296875 
" id="DejaVuSans-70"/>
     </defs>
     <g transform="translate(367.684063 72.748562)scale(0.1 -0.1)">
      <use xlink:href="#DejaVuSans-43"/>
      <use x="69.824219" xlink:href="#DejaVuSans-6f"/>
      <use x="131.005859" xlink:href="#DejaVuSans-6f"/>
      <use x="192.1875" xlink:href="#DejaVuSans-53"/>
      <use x="255.664062" xlink:href="#DejaVuSans-70"/>
      <use x="319.140625" xlink:href="#DejaVuSans-6f"/>
     </g>
    </g>
   </g>
  </g>
 </g>
 <defs>
  <clipPath id="pe157e83745">
   <rect height="266.112" width="357.12" x="57.6" y="41.472"/>
  </clipPath>
 </defs>
</svg>
