<?xml version="1.0" encoding="UTF-8" standalone="no"?><svg xmlns="http://www.w3.org/2000/svg" xmlns:xlink="http://www.w3.org/1999/xlink" contentScriptType="application/ecmascript" contentStyleType="text/css" height="360px" preserveAspectRatio="none" style="width:304px;height:360px;" version="1.1" viewBox="0 0 304 360" width="304px" zoomAndPan="magnify"><defs><filter height="300%" id="f8hyxqwt35rgb" width="300%" x="-1" y="-1"><feGaussianBlur result="blurOut" stdDeviation="2.0"/><feColorMatrix in="blurOut" result="blurOut2" type="matrix" values="0 0 0 0 0 0 0 0 0 0 0 0 0 0 0 0 0 0 .4 0"/><feOffset dx="4.0" dy="4.0" in="blurOut2" result="blurOut3"/><feBlend in="SourceGraphic" in2="blurOut3" mode="normal"/></filter></defs><g><!--class Vertebrate--><rect fill="#FEFECE" filter="url(#f8hyxqwt35rgb)" height="73.6094" id="Vertebrate" style="stroke: #A80036; stroke-width: 1.5;" width="126" x="86" y="8"/><ellipse cx="112.7" cy="24" fill="#ADD1B2" rx="11" ry="11" style="stroke: #A80036; stroke-width: 1.0;"/><path d="M115.7,29 Q115.0906,29.5 114.4344,29.75 Q113.7781,30 113.0438,30 Q110.4344,30 109.0672,28.4609 Q107.7,26.9219 107.7,24 Q107.7,21.0781 109.0672,19.5391 Q110.4344,18 113.0438,18 Q113.7781,18 114.45,18.25 Q115.1219,18.5 115.7,19 L115.7,22 Q115.0906,20.9688 114.5125,20.4844 Q113.9344,20 113.325,20 Q112.0281,20 111.3641,21.0078 Q110.7,22.0156 110.7,24 Q110.7,25.9844 111.3641,26.9922 Q112.0281,28 113.325,28 Q113.9344,28 114.5125,27.5156 Q115.0906,27.0313 115.7,26 L115.7,29 Z "/><text fill="#000000" font-family="sans-serif" font-size="12" lengthAdjust="spacingAndGlyphs" textLength="68" x="129.3" y="28.1543">Vertebrate</text><line style="stroke: #A80036; stroke-width: 1.5;" x1="87" x2="211" y1="40" y2="40"/><line style="stroke: #A80036; stroke-width: 1.5;" x1="87" x2="211" y1="48" y2="48"/><text fill="#000000" font-family="sans-serif" font-size="11" lengthAdjust="spacingAndGlyphs" textLength="75" x="92" y="62.2104">def __init__():</text><text fill="#000000" font-family="sans-serif" font-size="11" lengthAdjust="spacingAndGlyphs" textLength="94" x="112" y="75.0151">super().__init__()</text><!--class Mammal--><rect fill="#FEFECE" filter="url(#f8hyxqwt35rgb)" height="73.6094" id="Mammal" style="stroke: #A80036; stroke-width: 1.5;" width="126" x="6" y="142"/><ellipse cx="40.35" cy="158" fill="#ADD1B2" rx="11" ry="11" style="stroke: #A80036; stroke-width: 1.0;"/><path d="M43.35,163 Q42.7406,163.5 42.0844,163.75 Q41.4281,164 40.6938,164 Q38.0844,164 36.7172,162.4609 Q35.35,160.9219 35.35,158 Q35.35,155.0781 36.7172,153.5391 Q38.0844,152 40.6938,152 Q41.4281,152 42.1,152.25 Q42.7719,152.5 43.35,153 L43.35,156 Q42.7406,154.9688 42.1625,154.4844 Q41.5844,154 40.975,154 Q39.6781,154 39.0141,155.0078 Q38.35,156.0156 38.35,158 Q38.35,159.9844 39.0141,160.9922 Q39.6781,162 40.975,162 Q41.5844,162 42.1625,161.5156 Q42.7406,161.0313 43.35,160 L43.35,163 Z "/><text fill="#000000" font-family="sans-serif" font-size="12" lengthAdjust="spacingAndGlyphs" textLength="51" x="58.65" y="162.1543">Mammal</text><line style="stroke: #A80036; stroke-width: 1.5;" x1="7" x2="131" y1="174" y2="174"/><line style="stroke: #A80036; stroke-width: 1.5;" x1="7" x2="131" y1="182" y2="182"/><text fill="#000000" font-family="sans-serif" font-size="11" lengthAdjust="spacingAndGlyphs" textLength="75" x="12" y="196.2104">def __init__():</text><text fill="#000000" font-family="sans-serif" font-size="11" lengthAdjust="spacingAndGlyphs" textLength="94" x="32" y="209.0151">super().__init__()</text><!--class Bird--><rect fill="#FEFECE" filter="url(#f8hyxqwt35rgb)" height="73.6094" id="Bird" style="stroke: #A80036; stroke-width: 1.5;" width="126" x="167" y="142"/><ellipse cx="213.75" cy="158" fill="#ADD1B2" rx="11" ry="11" style="stroke: #A80036; stroke-width: 1.0;"/><path d="M216.75,163 Q216.1406,163.5 215.4844,163.75 Q214.8281,164 214.0938,164 Q211.4844,164 210.1172,162.4609 Q208.75,160.9219 208.75,158 Q208.75,155.0781 210.1172,153.5391 Q211.4844,152 214.0938,152 Q214.8281,152 215.5,152.25 Q216.1719,152.5 216.75,153 L216.75,156 Q216.1406,154.9688 215.5625,154.4844 Q214.9844,154 214.375,154 Q213.0781,154 212.4141,155.0078 Q211.75,156.0156 211.75,158 Q211.75,159.9844 212.4141,160.9922 Q213.0781,162 214.375,162 Q214.9844,162 215.5625,161.5156 Q216.1406,161.0313 216.75,160 L216.75,163 Z "/><text fill="#000000" font-family="sans-serif" font-size="12" lengthAdjust="spacingAndGlyphs" textLength="24" x="234.25" y="162.1543">Bird</text><line style="stroke: #A80036; stroke-width: 1.5;" x1="168" x2="292" y1="174" y2="174"/><line style="stroke: #A80036; stroke-width: 1.5;" x1="168" x2="292" y1="182" y2="182"/><text fill="#000000" font-family="sans-serif" font-size="11" lengthAdjust="spacingAndGlyphs" textLength="75" x="173" y="196.2104">def __init__():</text><text fill="#000000" font-family="sans-serif" font-size="11" lengthAdjust="spacingAndGlyphs" textLength="94" x="193" y="209.0151">super().__init__()</text><!--class Platypus--><rect fill="#FEFECE" filter="url(#f8hyxqwt35rgb)" height="73.6094" id="Platypus" style="stroke: #A80036; stroke-width: 1.5;" width="126" x="86" y="276"/><ellipse cx="119.45" cy="292" fill="#ADD1B2" rx="11" ry="11" style="stroke: #A80036; stroke-width: 1.0;"/><path d="M122.45,297 Q121.8406,297.5 121.1844,297.75 Q120.5281,298 119.7938,298 Q117.1844,298 115.8172,296.4609 Q114.45,294.9219 114.45,292 Q114.45,289.0781 115.8172,287.5391 Q117.1844,286 119.7938,286 Q120.5281,286 121.2,286.25 Q121.8719,286.5 122.45,287 L122.45,290 Q121.8406,288.9688 121.2625,288.4844 Q120.6844,288 120.075,288 Q118.7781,288 118.1141,289.0078 Q117.45,290.0156 117.45,292 Q117.45,293.9844 118.1141,294.9922 Q118.7781,296 120.075,296 Q120.6844,296 121.2625,295.5156 Q121.8406,295.0313 122.45,294 L122.45,297 Z "/><text fill="#000000" font-family="sans-serif" font-size="12" lengthAdjust="spacingAndGlyphs" textLength="53" x="137.55" y="296.1543">Platypus</text><line style="stroke: #A80036; stroke-width: 1.5;" x1="87" x2="211" y1="308" y2="308"/><line style="stroke: #A80036; stroke-width: 1.5;" x1="87" x2="211" y1="316" y2="316"/><text fill="#000000" font-family="sans-serif" font-size="11" lengthAdjust="spacingAndGlyphs" textLength="75" x="92" y="330.2104">def __init__():</text><text fill="#000000" font-family="sans-serif" font-size="11" lengthAdjust="spacingAndGlyphs" textLength="94" x="112" y="343.0151">super().__init__()</text><!--link Vertebrate to Mammal--><path d="M116.3503,99.6883 C107.8804,113.8753 98.9552,128.825 91.165,141.8737 " fill="none" id="Vertebrate-Mammal" style="stroke: #A80036; stroke-width: 1.0;"/><polygon fill="none" points="110.4529,95.9106,126.7155,82.3265,122.4736,103.0872,110.4529,95.9106" style="stroke: #A80036; stroke-width: 1.0;"/><!--link Vertebrate to Bird--><path d="M182.0578,99.6883 C190.6336,113.8753 199.6703,128.825 207.558,141.8737 " fill="none" id="Vertebrate-Bird" style="stroke: #A80036; stroke-width: 1.0;"/><polygon fill="none" points="175.9187,103.0636,171.563,82.3265,187.8999,95.8212,175.9187,103.0636" style="stroke: #A80036; stroke-width: 1.0;"/><!--link Bird to Platypus--><path d="M196.9422,233.6883 C188.3664,247.8753 179.3297,262.825 171.442,275.8737 " fill="none" id="Bird-Platypus" style="stroke: #A80036; stroke-width: 1.0;"/><polygon fill="none" points="191.1001,229.8212,207.437,216.3265,203.0813,237.0636,191.1001,229.8212" style="stroke: #A80036; stroke-width: 1.0;"/><!--link Mammal to Platypus--><path d="M101.6497,233.6883 C110.1196,247.8753 119.0448,262.825 126.835,275.8737 " fill="none" id="Mammal-Platypus" style="stroke: #A80036; stroke-width: 1.0;"/><polygon fill="none" points="95.5264,237.0872,91.2845,216.3265,107.5471,229.9106,95.5264,237.0872" style="stroke: #A80036; stroke-width: 1.0;"/><!--
@startuml
class Vertebrate {
def __init__(): \n     super().__init__()
}
class Mammal {
def __init__(): \n     super().__init__()
}
class Bird {
def __init__(): \n     super().__init__()
}
class Platypus {
def __init__(): \n     super().__init__()
}
Vertebrate <|- - Mammal
Vertebrate <|- - Bird
Bird <|- - Platypus
Mammal <|- - Platypus

@enduml

PlantUML version 1.2018.11(Sat Sep 22 19:43:53 MSK 2018)
(GPL source distribution)
Java Runtime: OpenJDK Runtime Environment
JVM: OpenJDK 64-Bit Server VM
Java Version: 1.8.0_152-release-1248-b8
Operating System: Linux
OS Version: 4.15.0-36-generic
Default Encoding: UTF-8
Language: en
Country: US
--></g></svg>