<?xml version="1.0" encoding="UTF-8" standalone="no"?><svg xmlns="http://www.w3.org/2000/svg" xmlns:xlink="http://www.w3.org/1999/xlink" contentScriptType="application/ecmascript" contentStyleType="text/css" height="443px" preserveAspectRatio="none" style="width:362px;height:443px;" version="1.1" viewBox="0 0 362 443" width="362px" zoomAndPan="magnify"><defs><filter height="300%" id="fv839sxpe2ckd" width="300%" x="-1" y="-1"><feGaussianBlur result="blurOut" stdDeviation="2.0"/><feColorMatrix in="blurOut" result="blurOut2" type="matrix" values="0 0 0 0 0 0 0 0 0 0 0 0 0 0 0 0 0 0 .4 0"/><feOffset dx="4.0" dy="4.0" in="blurOut2" result="blurOut3"/><feBlend in="SourceGraphic" in2="blurOut3" mode="normal"/></filter></defs><g><!--class object--><rect fill="#FEFECE" filter="url(#fv839sxpe2ckd)" height="48" id="object" style="stroke: #A80036; stroke-width: 1.5;" width="71" x="137" y="8"/><ellipse cx="152" cy="24" fill="#ADD1B2" rx="11" ry="11" style="stroke: #A80036; stroke-width: 1.0;"/><path d="M155,29 Q154.3906,29.5 153.7344,29.75 Q153.0781,30 152.3438,30 Q149.7344,30 148.3672,28.4609 Q147,26.9219 147,24 Q147,21.0781 148.3672,19.5391 Q149.7344,18 152.3438,18 Q153.0781,18 153.75,18.25 Q154.4219,18.5 155,19 L155,22 Q154.3906,20.9688 153.8125,20.4844 Q153.2344,20 152.625,20 Q151.3281,20 150.6641,21.0078 Q150,22.0156 150,24 Q150,25.9844 150.6641,26.9922 Q151.3281,28 152.625,28 Q153.2344,28 153.8125,27.5156 Q154.3906,27.0313 155,26 L155,29 Z "/><text fill="#000000" font-family="sans-serif" font-size="12" lengthAdjust="spacingAndGlyphs" textLength="39" x="166" y="28.1543">object</text><line style="stroke: #A80036; stroke-width: 1.5;" x1="138" x2="207" y1="40" y2="40"/><line style="stroke: #A80036; stroke-width: 1.5;" x1="138" x2="207" y1="48" y2="48"/><!--class Vertebrate--><rect fill="#FEFECE" filter="url(#fv839sxpe2ckd)" height="73.6094" id="Vertebrate" style="stroke: #A80036; stroke-width: 1.5;" width="100" x="122.5" y="116"/><ellipse cx="137.5" cy="132" fill="#ADD1B2" rx="11" ry="11" style="stroke: #A80036; stroke-width: 1.0;"/><path d="M140.5,137 Q139.8906,137.5 139.2344,137.75 Q138.5781,138 137.8438,138 Q135.2344,138 133.8672,136.4609 Q132.5,134.9219 132.5,132 Q132.5,129.0781 133.8672,127.5391 Q135.2344,126 137.8438,126 Q138.5781,126 139.25,126.25 Q139.9219,126.5 140.5,127 L140.5,130 Q139.8906,128.9688 139.3125,128.4844 Q138.7344,128 138.125,128 Q136.8281,128 136.1641,129.0078 Q135.5,130.0156 135.5,132 Q135.5,133.9844 136.1641,134.9922 Q136.8281,136 138.125,136 Q138.7344,136 139.3125,135.5156 Q139.8906,135.0313 140.5,134 L140.5,137 Z "/><text fill="#000000" font-family="sans-serif" font-size="12" lengthAdjust="spacingAndGlyphs" textLength="68" x="151.5" y="136.1543">Vertebrate</text><line style="stroke: #A80036; stroke-width: 1.5;" x1="123.5" x2="221.5" y1="148" y2="148"/><line style="stroke: #A80036; stroke-width: 1.5;" x1="123.5" x2="221.5" y1="156" y2="156"/><text fill="#000000" font-family="sans-serif" font-size="11" lengthAdjust="spacingAndGlyphs" textLength="84" x="128.5" y="170.2104">def lay_eggs():</text><text fill="#000000" font-family="sans-serif" font-size="11" lengthAdjust="spacingAndGlyphs" textLength="68" x="140.5" y="183.0151">return None</text><!--class Mammal--><rect fill="#FEFECE" filter="url(#fv839sxpe2ckd)" height="48" id="Mammal" style="stroke: #A80036; stroke-width: 1.5;" width="83" x="6" y="263"/><ellipse cx="21" cy="279" fill="#ADD1B2" rx="11" ry="11" style="stroke: #A80036; stroke-width: 1.0;"/><path d="M24,284 Q23.3906,284.5 22.7344,284.75 Q22.0781,285 21.3438,285 Q18.7344,285 17.3672,283.4609 Q16,281.9219 16,279 Q16,276.0781 17.3672,274.5391 Q18.7344,273 21.3438,273 Q22.0781,273 22.75,273.25 Q23.4219,273.5 24,274 L24,277 Q23.3906,275.9688 22.8125,275.4844 Q22.2344,275 21.625,275 Q20.3281,275 19.6641,276.0078 Q19,277.0156 19,279 Q19,280.9844 19.6641,281.9922 Q20.3281,283 21.625,283 Q22.2344,283 22.8125,282.5156 Q23.3906,282.0313 24,281 L24,284 Z "/><text fill="#000000" font-family="sans-serif" font-size="12" lengthAdjust="spacingAndGlyphs" textLength="51" x="35" y="283.1543">Mammal</text><line style="stroke: #A80036; stroke-width: 1.5;" x1="7" x2="88" y1="295" y2="295"/><line style="stroke: #A80036; stroke-width: 1.5;" x1="7" x2="88" y1="303" y2="303"/><!--class Bird--><rect fill="#FEFECE" filter="url(#fv839sxpe2ckd)" height="73.6094" id="Bird" style="stroke: #A80036; stroke-width: 1.5;" width="96" x="124.5" y="250"/><ellipse cx="157.5" cy="266" fill="#ADD1B2" rx="11" ry="11" style="stroke: #A80036; stroke-width: 1.0;"/><path d="M160.5,271 Q159.8906,271.5 159.2344,271.75 Q158.5781,272 157.8438,272 Q155.2344,272 153.8672,270.4609 Q152.5,268.9219 152.5,266 Q152.5,263.0781 153.8672,261.5391 Q155.2344,260 157.8438,260 Q158.5781,260 159.25,260.25 Q159.9219,260.5 160.5,261 L160.5,264 Q159.8906,262.9688 159.3125,262.4844 Q158.7344,262 158.125,262 Q156.8281,262 156.1641,263.0078 Q155.5,264.0156 155.5,266 Q155.5,267.9844 156.1641,268.9922 Q156.8281,270 158.125,270 Q158.7344,270 159.3125,269.5156 Q159.8906,269.0313 160.5,268 L160.5,271 Z "/><text fill="#000000" font-family="sans-serif" font-size="12" lengthAdjust="spacingAndGlyphs" textLength="24" x="175.5" y="270.1543">Bird</text><line style="stroke: #A80036; stroke-width: 1.5;" x1="125.5" x2="219.5" y1="282" y2="282"/><line style="stroke: #A80036; stroke-width: 1.5;" x1="125.5" x2="219.5" y1="290" y2="290"/><text fill="#000000" font-family="sans-serif" font-size="11" lengthAdjust="spacingAndGlyphs" textLength="84" x="130.5" y="304.2104">def lay_eggs():</text><text fill="#000000" font-family="sans-serif" font-size="11" lengthAdjust="spacingAndGlyphs" textLength="65" x="142.5" y="317.0151">return True</text><!--class Dinosaur--><rect fill="#FEFECE" filter="url(#fv839sxpe2ckd)" height="73.6094" id="Dinosaur" style="stroke: #A80036; stroke-width: 1.5;" width="96" x="255.5" y="250"/><ellipse cx="274.1" cy="266" fill="#ADD1B2" rx="11" ry="11" style="stroke: #A80036; stroke-width: 1.0;"/><path d="M277.1,271 Q276.4906,271.5 275.8344,271.75 Q275.1781,272 274.4438,272 Q271.8344,272 270.4672,270.4609 Q269.1,268.9219 269.1,266 Q269.1,263.0781 270.4672,261.5391 Q271.8344,260 274.4438,260 Q275.1781,260 275.85,260.25 Q276.5219,260.5 277.1,261 L277.1,264 Q276.4906,262.9688 275.9125,262.4844 Q275.3344,262 274.725,262 Q273.4281,262 272.7641,263.0078 Q272.1,264.0156 272.1,266 Q272.1,267.9844 272.7641,268.9922 Q273.4281,270 274.725,270 Q275.3344,270 275.9125,269.5156 Q276.4906,269.0313 277.1,268 L277.1,271 Z "/><text fill="#000000" font-family="sans-serif" font-size="12" lengthAdjust="spacingAndGlyphs" textLength="56" x="288.9" y="270.1543">Dinosaur</text><line style="stroke: #A80036; stroke-width: 1.5;" x1="256.5" x2="350.5" y1="282" y2="282"/><line style="stroke: #A80036; stroke-width: 1.5;" x1="256.5" x2="350.5" y1="290" y2="290"/><text fill="#000000" font-family="sans-serif" font-size="11" lengthAdjust="spacingAndGlyphs" textLength="84" x="261.5" y="304.2104">def lay_eggs():</text><text fill="#000000" font-family="sans-serif" font-size="11" lengthAdjust="spacingAndGlyphs" textLength="65" x="273.5" y="317.0151">return True</text><!--class Platypus--><rect fill="#FEFECE" filter="url(#fv839sxpe2ckd)" height="48" id="Platypus" style="stroke: #A80036; stroke-width: 1.5;" width="85" x="67" y="384"/><ellipse cx="82" cy="400" fill="#ADD1B2" rx="11" ry="11" style="stroke: #A80036; stroke-width: 1.0;"/><path d="M85,405 Q84.3906,405.5 83.7344,405.75 Q83.0781,406 82.3438,406 Q79.7344,406 78.3672,404.4609 Q77,402.9219 77,400 Q77,397.0781 78.3672,395.5391 Q79.7344,394 82.3438,394 Q83.0781,394 83.75,394.25 Q84.4219,394.5 85,395 L85,398 Q84.3906,396.9688 83.8125,396.4844 Q83.2344,396 82.625,396 Q81.3281,396 80.6641,397.0078 Q80,398.0156 80,400 Q80,401.9844 80.6641,402.9922 Q81.3281,404 82.625,404 Q83.2344,404 83.8125,403.5156 Q84.3906,403.0313 85,402 L85,405 Z "/><text fill="#000000" font-family="sans-serif" font-size="12" lengthAdjust="spacingAndGlyphs" textLength="53" x="96" y="404.1543">Platypus</text><line style="stroke: #A80036; stroke-width: 1.5;" x1="68" x2="151" y1="416" y2="416"/><line style="stroke: #A80036; stroke-width: 1.5;" x1="68" x2="151" y1="424" y2="424"/><!--link object to Vertebrate--><path d="M172.5,76.5529 C172.5,89.5142 172.5,103.5269 172.5,115.9716 " fill="none" id="object-Vertebrate" style="stroke: #A80036; stroke-width: 1.0;"/><polygon fill="none" points="165.5001,76.1954,172.5,56.1953,179.5001,76.1953,165.5001,76.1954" style="stroke: #A80036; stroke-width: 1.0;"/><!--link Vertebrate to Mammal--><path d="M123.9025,205.0965 C105.2905,225.0486 84.9458,246.8581 69.9332,262.9516 " fill="none" id="Vertebrate-Mammal" style="stroke: #A80036; stroke-width: 1.0;"/><polygon fill="none" points="118.9194,200.1764,137.6805,190.3265,129.1567,209.7261,118.9194,200.1764" style="stroke: #A80036; stroke-width: 1.0;"/><!--link Vertebrate to Bird--><path d="M172.5,210.5351 C172.5,223.8601 172.5,237.6949 172.5,249.8737 " fill="none" id="Vertebrate-Bird" style="stroke: #A80036; stroke-width: 1.0;"/><polygon fill="none" points="165.5001,210.3265,172.5,190.3265,179.5001,210.3264,165.5001,210.3265" style="stroke: #A80036; stroke-width: 1.0;"/><!--link Vertebrate to Dinosaur--><path d="M223.2007,204.8618 C237.8764,219.8735 253.5979,235.9551 267.2049,249.8737 " fill="none" id="Vertebrate-Dinosaur" style="stroke: #A80036; stroke-width: 1.0;"/><polygon fill="none" points="217.9665,209.5212,208.9908,190.3265,227.9774,199.7344,217.9665,209.5212" style="stroke: #A80036; stroke-width: 1.0;"/><!--link Bird to Platypus--><path d="M143.6844,342.3442 C136.0679,356.9728 128.2405,372.0063 122.0009,383.9903 " fill="none" id="Bird-Platypus" style="stroke: #A80036; stroke-width: 1.0;"/><polygon fill="none" points="137.6387,338.7981,153.0839,324.2913,150.0564,345.2636,137.6387,338.7981" style="stroke: #A80036; stroke-width: 1.0;"/><!--link Mammal to Platypus--><path d="M69.0524,329.0619 C78.4388,347.3806 89.1029,368.1928 97.1239,383.8466 " fill="none" id="Mammal-Platypus" style="stroke: #A80036; stroke-width: 1.0;"/><polygon fill="none" points="62.7882,332.1869,59.8976,311.1953,75.2478,325.8026,62.7882,332.1869" style="stroke: #A80036; stroke-width: 1.0;"/><!--
@startuml

class object
class Vertebrate {
    def lay_eggs():\n   return None
}
class Mammal
class Bird {
    def lay_eggs():\n   return True
}
class Dinosaur {
    def lay_eggs():\n   return True
}
class Platypus
object <|- - Vertebrate
Vertebrate <|- - Mammal
Vertebrate <|- - Bird
Vertebrate <|- - Dinosaur
Bird <|- - Platypus
Mammal <|- - Platypus

@enduml

PlantUML version 1.2018.11(Sat Sep 22 19:43:53 MSK 2018)
(GPL source distribution)
Java Runtime: OpenJDK Runtime Environment
JVM: OpenJDK 64-Bit Server VM
Java Version: 1.8.0_152-release-1248-b8
Operating System: Linux
OS Version: 4.15.0-36-generic
Default Encoding: UTF-8
Language: en
Country: US
--></g></svg>