<svg xmlns="http://www.w3.org/2000/svg" xmlns:xlink="http://www.w3.org/1999/xlink" version="1.1" x="0px" y="0px" viewBox="0 0 100 125" style="enable-background:new 0 0 100 100;" xml:space="preserve"><g><g><path d="M53.115,61.004c-3.678-2.608-8.921,0.833-17.181,11.414c-0.007-0.026-0.007-0.053-0.015-0.079    c-0.318-1.063-0.609-2.159-0.903-3.265c-0.435-1.633-0.891-3.298-1.432-4.934c0.921-0.264,1.595-1.037,1.586-2.041    C35.16,60.896,34.183,60,32.985,60c-0.006,0-0.013,0-0.019,0l-2.299-0.05c-0.145-0.014-0.29-0.047-0.437-0.031l-11.155,0.077    c2.857-8.247,5.419-16.682,7.626-25.101c0.306-1.168-0.392-2.367-1.56-2.673c-1.167-0.304-2.363,0.39-2.669,1.558    c-2.44,9.304-5.317,18.615-8.552,27.679c-0.24,0.672-0.136,1.231,0.278,1.812c0.41,0.576,1.074,0.73,1.782,0.73    c0.006,0,0.012,0,0.019,0l12.998,0.078c0.303,0.808,0.582,1.733,0.837,2.585c-1.487,0.392-3.23,1.462-4.309,4.007    c-2.987,7.049,1.554,22.716,2.118,23.497c0.427,0.591,1.096,0.918,1.774,0.918c0.444,0,0.891-0.129,1.278-0.408    c0.797-0.575,1.091-1.585,0.791-2.47c-1.569-5.046-4.017-16.589-1.642-20.358c0.312-0.494,0.672-0.757,1.161-0.873    c0.236,0.88,0.47,1.763,0.724,2.614c0.283,0.948,1.152,1.562,2.094,1.562c0.011,0,0.022-0.005,0.034-0.005    c-0.372,0.498-0.738,0.984-1.121,1.509c-0.243,0.333-0.419,0.576-0.519,0.706c-0.421,0.458-0.646,1.091-0.562,1.756    c0.151,1.198,1.246,2.048,2.443,1.896c0.959-0.121,1.288-0.572,2.17-1.779C46.651,65.01,50.129,64.57,50.544,64.569    c0.327,0.366,0.485,0.804,0.504,1.387c0.096,2.872-3.246,8.196-8.721,13.893c-0.837,0.87-0.809,2.254,0.061,3.091    c0.424,0.407,0.969,0.609,1.514,0.609c0.574,0,1.147-0.225,1.577-0.671c4.634-4.82,10.118-11.696,9.939-17.069    c-0.062-1.843-0.787-3.448-2.095-4.639C53.257,61.111,53.188,61.055,53.115,61.004z"/><path d="M38,42.396c1.207,0,2-0.979,2-2.186v-5.575c0-1.207-0.793-2.186-2-2.186s-2,0.979-2,2.186v5.575    C36,41.417,36.793,42.396,38,42.396z"/><path d="M80.522,32.258c1.175-0.279,1.901-1.458,1.622-2.632c-0.28-1.176-1.462-1.904-2.632-1.622    c-2.87,0.69-10.608-3.486-17.434-7.163c-9.344-5.035-18.935-10.186-26.426-10.269c4.672-0.852,9.664-0.976,12.241-0.732    c1.216,0.112,2.27-0.767,2.385-1.968c0.114-1.202-0.766-2.269-1.968-2.384c-0.199-0.021-20.437-1.233-26.205,7.116    c-1.351,1.957-2.468,5.297-0.11,10.091c0.381,0.773,1.157,1.222,1.964,1.222c0.324,0,0.653-0.073,0.963-0.225    c0.335-0.165,0.6-0.409,0.803-0.692c0.032,0.008,0.061,0.023,0.095,0.03c1.18,0.247,2.34-0.51,2.587-1.692    c0.63-3.01,1.849-4.898,3.729-5.773c5.87-2.728,18.068,3.842,27.87,9.123c7.929,4.272,14.381,7.749,18.874,7.748    C79.459,32.439,80.008,32.381,80.522,32.258z M24.995,17.519c-0.038-1.344,0.478-2.096,0.707-2.428    c0.525-0.761,1.331-1.413,2.299-1.988C26.727,14.22,25.721,15.693,24.995,17.519z"/><path d="M82.533,44.359c-0.498-2.695-2.108-4.663-4.533-5.543c-3.062-1.11-7.189-0.244-10.029,2.108    c-0.93,0.771-1.059,2.149-0.288,3.078c0.77,0.929,2.149,1.059,3.078,0.288c1.651-1.369,4.127-1.955,5.748-1.365    c0.961,0.349,1.508,1.056,1.725,2.228c0.253,1.365-0.14,2.077-0.458,2.493c-0.977,1.283-3.425,2.209-6.549,2.476    c-1.002,0.086-1.817,0.845-1.973,1.84c-0.636,4.054,0.763,7.946,1.997,11.381c2.368,6.585,3.931,10.935-6.574,15.377    c-1.111,0.47-1.632,1.753-1.161,2.865c0.352,0.834,1.162,1.335,2.014,1.335c0.284,0,0.572-0.057,0.851-0.174    c14.315-6.053,11.361-14.276,8.986-20.883c-0.951-2.646-1.859-5.172-1.9-7.621c2.586-0.438,5.907-1.479,7.787-3.946    C82.505,48.654,82.947,46.601,82.533,44.359z"/></g></g><text x="0" y="115" fill="#000000" font-size="5px" font-weight="bold" font-family="'Helvetica Neue', Helvetica, Arial-Unicode, Arial, Sans-serif">Created by Ariel Kotzer</text><text x="0" y="120" fill="#000000" font-size="5px" font-weight="bold" font-family="'Helvetica Neue', Helvetica, Arial-Unicode, Arial, Sans-serif">from the Noun Project</text></svg>