<svg xmlns="http://www.w3.org/2000/svg" xmlns:xlink="http://www.w3.org/1999/xlink" version="1.1" x="0px" y="0px" viewBox="0 0 48 60" style="enable-background:new 0 0 48 48;" xml:space="preserve"><g><path d="M23.8,0.2c-0.1,0-11.1,0.9-14.5,12.1c-0.5,1-2.3,4.9-1,7.2c0,0,0.6,1.3-1.6,3.9c-0.4,0.4-2.4,2.4-2,4.2   c0.3,1.1,1.7,2,2.5,1.9c0,0,1.1,0,1.2,2.1c0,0.3,0.2,0.6,0.5,0.8l0.5,0.3L9.1,33c-0.2,0.3-0.3,0.6-0.2,0.9c0.3,0.9,0.5,2.4,0.1,3   c-0.1,0.1-0.7,1.3,0.1,2.7c0.9,1.7,3.3,2.6,7.4,2.9c0.6,0.4,2.8,2,2.8,4.4c0,0.5,0.5,1,1,1H37c0.9-0.1,1-0.9,1-1.1   c-1.7-11.3,1.6-17.6,3.8-21.7c0,0,0,0,0,0C46.5,15.9,40.5-2.1,23.8,0.2z M40,24.2c-2.1,4-5.6,10.6-4.2,21.8H21.3   c-0.7-3.6-4.2-5.4-4.3-5.4c-4.6-0.3-5.7-1.4-6-1.9c-0.2-0.4-0.1-0.7-0.1-0.8c0.7-1.2,0.4-3.1,0.1-4.1l0.6-0.8   c0.5-0.8,0-1.3-0.3-1.4l-1-0.7c-0.4-2.6-2-3.4-3.1-3.5c-0.4-0.1-0.6-0.3-0.6-0.4c-0.1-0.4,0.6-1.6,1.5-2.3c3.4-3.9,2-6.1,1.9-6.3   c-0.6-1,0.3-3.7,1.1-5.3c0-0.1,0-0.1,0.1-0.2C14.1,3.1,23.5,2.2,24,2.2C39.2,0.1,43.9,16.4,40,24.2z"/><path d="M17,16.8h3.9c0.2-1.7,1.3-2.7,3-2.7c2.7,0,3.5,3.1,2,4.7c-4.3,4.3-4,3.4-4,7.8h3.6c0-3.5-0.1-2.8,2.9-5.7   c3.1-3.1,2.1-6.9,0.2-8.6C25.4,9.5,17.8,10.1,17,16.8z"/><path d="M21.3,31.4c0,3.1,4.9,3.2,4.9,0C26.2,28.3,21.3,28.2,21.3,31.4z"/></g><text x="0" y="63" fill="#000000" font-size="5px" font-weight="bold" font-family="'Helvetica Neue', Helvetica, Arial-Unicode, Arial, Sans-serif">Created by Vectors Market</text><text x="0" y="68" fill="#000000" font-size="5px" font-weight="bold" font-family="'Helvetica Neue', Helvetica, Arial-Unicode, Arial, Sans-serif">from the Noun Project</text></svg>