<?xml version="1.0" encoding="UTF-8" standalone="no"?><svg xmlns="http://www.w3.org/2000/svg" xmlns:xlink="http://www.w3.org/1999/xlink" contentScriptType="application/ecmascript" contentStyleType="text/css" height="391px" preserveAspectRatio="none" style="width:210px;height:391px;" version="1.1" viewBox="0 0 210 391" width="210px" zoomAndPan="magnify"><defs><filter height="300%" id="f18653ks10t6nw" width="300%" x="-1" y="-1"><feGaussianBlur result="blurOut" stdDeviation="2.0"/><feColorMatrix in="blurOut" result="blurOut2" type="matrix" values="0 0 0 0 0 0 0 0 0 0 0 0 0 0 0 0 0 0 .4 0"/><feOffset dx="4.0" dy="4.0" in="blurOut2" result="blurOut3"/><feBlend in="SourceGraphic" in2="blurOut3" mode="normal"/></filter></defs><g><!--class MixinParent--><rect fill="#FEFECE" filter="url(#f18653ks10t6nw)" height="48" id="MixinParent" style="stroke: #A80036; stroke-width: 1.5;" width="104" x="6" y="116"/><ellipse cx="21" cy="132" fill="#ADD1B2" rx="11" ry="11" style="stroke: #A80036; stroke-width: 1.0;"/><path d="M24,137 Q23.3906,137.5 22.7344,137.75 Q22.0781,138 21.3438,138 Q18.7344,138 17.3672,136.4609 Q16,134.9219 16,132 Q16,129.0781 17.3672,127.5391 Q18.7344,126 21.3438,126 Q22.0781,126 22.75,126.25 Q23.4219,126.5 24,127 L24,130 Q23.3906,128.9688 22.8125,128.4844 Q22.2344,128 21.625,128 Q20.3281,128 19.6641,129.0078 Q19,130.0156 19,132 Q19,133.9844 19.6641,134.9922 Q20.3281,136 21.625,136 Q22.2344,136 22.8125,135.5156 Q23.3906,135.0313 24,134 L24,137 Z "/><text fill="#000000" font-family="sans-serif" font-size="12" lengthAdjust="spacingAndGlyphs" textLength="72" x="35" y="136.1543">MixinParent</text><line style="stroke: #A80036; stroke-width: 1.5;" x1="7" x2="109" y1="148" y2="148"/><line style="stroke: #A80036; stroke-width: 1.5;" x1="7" x2="109" y1="156" y2="156"/><!--class Mixin--><rect fill="#FEFECE" filter="url(#f18653ks10t6nw)" height="48" id="Mixin" style="stroke: #A80036; stroke-width: 1.5;" width="62" x="28" y="224"/><ellipse cx="43" cy="240" fill="#ADD1B2" rx="11" ry="11" style="stroke: #A80036; stroke-width: 1.0;"/><path d="M46,245 Q45.3906,245.5 44.7344,245.75 Q44.0781,246 43.3438,246 Q40.7344,246 39.3672,244.4609 Q38,242.9219 38,240 Q38,237.0781 39.3672,235.5391 Q40.7344,234 43.3438,234 Q44.0781,234 44.75,234.25 Q45.4219,234.5 46,235 L46,238 Q45.3906,236.9688 44.8125,236.4844 Q44.2344,236 43.625,236 Q42.3281,236 41.6641,237.0078 Q41,238.0156 41,240 Q41,241.9844 41.6641,242.9922 Q42.3281,244 43.625,244 Q44.2344,244 44.8125,243.5156 Q45.3906,243.0313 46,242 L46,245 Z "/><text fill="#000000" font-family="sans-serif" font-size="12" lengthAdjust="spacingAndGlyphs" textLength="30" x="57" y="244.1543">Mixin</text><line style="stroke: #A80036; stroke-width: 1.5;" x1="29" x2="89" y1="256" y2="256"/><line style="stroke: #A80036; stroke-width: 1.5;" x1="29" x2="89" y1="264" y2="264"/><!--class object--><rect fill="#FEFECE" filter="url(#f18653ks10t6nw)" height="48" id="object" style="stroke: #A80036; stroke-width: 1.5;" width="71" x="74.5" y="8"/><ellipse cx="89.5" cy="24" fill="#ADD1B2" rx="11" ry="11" style="stroke: #A80036; stroke-width: 1.0;"/><path d="M92.5,29 Q91.8906,29.5 91.2344,29.75 Q90.5781,30 89.8438,30 Q87.2344,30 85.8672,28.4609 Q84.5,26.9219 84.5,24 Q84.5,21.0781 85.8672,19.5391 Q87.2344,18 89.8438,18 Q90.5781,18 91.25,18.25 Q91.9219,18.5 92.5,19 L92.5,22 Q91.8906,20.9688 91.3125,20.4844 Q90.7344,20 90.125,20 Q88.8281,20 88.1641,21.0078 Q87.5,22.0156 87.5,24 Q87.5,25.9844 88.1641,26.9922 Q88.8281,28 90.125,28 Q90.7344,28 91.3125,27.5156 Q91.8906,27.0313 92.5,26 L92.5,29 Z "/><text fill="#000000" font-family="sans-serif" font-size="12" lengthAdjust="spacingAndGlyphs" textLength="39" x="103.5" y="28.1543">object</text><line style="stroke: #A80036; stroke-width: 1.5;" x1="75.5" x2="144.5" y1="40" y2="40"/><line style="stroke: #A80036; stroke-width: 1.5;" x1="75.5" x2="144.5" y1="48" y2="48"/><!--class Parent--><rect fill="#FEFECE" filter="url(#f18653ks10t6nw)" height="48" id="Parent" style="stroke: #A80036; stroke-width: 1.5;" width="74" x="125" y="224"/><ellipse cx="140" cy="240" fill="#ADD1B2" rx="11" ry="11" style="stroke: #A80036; stroke-width: 1.0;"/><path d="M143,245 Q142.3906,245.5 141.7344,245.75 Q141.0781,246 140.3438,246 Q137.7344,246 136.3672,244.4609 Q135,242.9219 135,240 Q135,237.0781 136.3672,235.5391 Q137.7344,234 140.3438,234 Q141.0781,234 141.75,234.25 Q142.4219,234.5 143,235 L143,238 Q142.3906,236.9688 141.8125,236.4844 Q141.2344,236 140.625,236 Q139.3281,236 138.6641,237.0078 Q138,238.0156 138,240 Q138,241.9844 138.6641,242.9922 Q139.3281,244 140.625,244 Q141.2344,244 141.8125,243.5156 Q142.3906,243.0313 143,242 L143,245 Z "/><text fill="#000000" font-family="sans-serif" font-size="12" lengthAdjust="spacingAndGlyphs" textLength="42" x="154" y="244.1543">Parent</text><line style="stroke: #A80036; stroke-width: 1.5;" x1="126" x2="198" y1="256" y2="256"/><line style="stroke: #A80036; stroke-width: 1.5;" x1="126" x2="198" y1="264" y2="264"/><!--class ObjectWithMixin--><rect fill="#FEFECE" filter="url(#f18653ks10t6nw)" height="48" id="ObjectWithMixin" style="stroke: #A80036; stroke-width: 1.5;" width="129" x="45.5" y="332"/><ellipse cx="60.5" cy="348" fill="#ADD1B2" rx="11" ry="11" style="stroke: #A80036; stroke-width: 1.0;"/><path d="M63.5,353 Q62.8906,353.5 62.2344,353.75 Q61.5781,354 60.8438,354 Q58.2344,354 56.8672,352.4609 Q55.5,350.9219 55.5,348 Q55.5,345.0781 56.8672,343.5391 Q58.2344,342 60.8438,342 Q61.5781,342 62.25,342.25 Q62.9219,342.5 63.5,343 L63.5,346 Q62.8906,344.9688 62.3125,344.4844 Q61.7344,344 61.125,344 Q59.8281,344 59.1641,345.0078 Q58.5,346.0156 58.5,348 Q58.5,349.9844 59.1641,350.9922 Q59.8281,352 61.125,352 Q61.7344,352 62.3125,351.5156 Q62.8906,351.0313 63.5,350 L63.5,353 Z "/><text fill="#000000" font-family="sans-serif" font-size="12" lengthAdjust="spacingAndGlyphs" textLength="97" x="74.5" y="352.1543">ObjectWithMixin</text><line style="stroke: #A80036; stroke-width: 1.5;" x1="46.5" x2="173.5" y1="364" y2="364"/><line style="stroke: #A80036; stroke-width: 1.5;" x1="46.5" x2="173.5" y1="372" y2="372"/><!--link MixinParent to Mixin--><path d="M58.4101,184.2911 C58.5353,197.8171 58.6684,212.1835 58.7763,223.8436 " fill="none" id="MixinParent-Mixin" style="stroke: #A80036; stroke-width: 1.0;"/><polygon fill="none" points="51.41,184.3013,58.2244,164.2373,65.4094,184.1716,51.41,184.3013" style="stroke: #A80036; stroke-width: 1.0;"/><!--link object to MixinParent--><path d="M89.6021,74.3649 C82.8239,88.4428 75.5123,103.6283 69.6309,115.8436 " fill="none" id="object-MixinParent" style="stroke: #A80036; stroke-width: 1.0;"/><polygon fill="none" points="83.3468,71.2206,98.3302,56.2373,95.9608,77.2941,83.3468,71.2206" style="stroke: #A80036; stroke-width: 1.0;"/><!--link object to Parent--><path d="M120.5673,75.895 C131.3046,120.4962 147.5451,187.9567 156.1575,223.7309 " fill="none" id="object-Parent" style="stroke: #A80036; stroke-width: 1.0;"/><polygon fill="none" points="113.7396,77.4409,115.864,56.3581,127.3507,74.1641,113.7396,77.4409" style="stroke: #A80036; stroke-width: 1.0;"/><!--link Parent to ObjectWithMixin--><path d="M141.6021,290.3649 C134.8239,304.4428 127.5123,319.6283 121.6309,331.8436 " fill="none" id="Parent-ObjectWithMixin" style="stroke: #A80036; stroke-width: 1.0;"/><polygon fill="none" points="135.3468,287.2206,150.3302,272.2373,147.9608,293.2941,135.3468,287.2206" style="stroke: #A80036; stroke-width: 1.0;"/><!--link Mixin to ObjectWithMixin--><path d="M79.0056,290.3649 C85.6535,304.4428 92.8245,319.6283 98.5928,331.8436 " fill="none" id="Mixin-ObjectWithMixin" style="stroke: #A80036; stroke-width: 1.0;"/><polygon fill="none" points="72.6558,293.3114,70.4454,272.2373,85.3153,287.3332,72.6558,293.3114" style="stroke: #A80036; stroke-width: 1.0;"/><!--
@startuml
MixinParent <|- - Mixin
object <|- - MixinParent
object <|- - Parent
Parent <|- - ObjectWithMixin
Mixin <|- - ObjectWithMixin

@enduml

PlantUML version 1.2018.11(Sat Sep 22 19:43:53 MSK 2018)
(GPL source distribution)
Java Runtime: OpenJDK Runtime Environment
JVM: OpenJDK 64-Bit Server VM
Java Version: 1.8.0_152-release-1248-b8
Operating System: Linux
OS Version: 4.15.0-36-generic
Default Encoding: UTF-8
Language: en
Country: US
--></g></svg>