<?xml version="1.0" encoding="UTF-8" standalone="no"?><svg xmlns="http://www.w3.org/2000/svg" xmlns:xlink="http://www.w3.org/1999/xlink" contentScriptType="application/ecmascript" contentStyleType="text/css" height="288px" preserveAspectRatio="none" style="width:324px;height:288px;" version="1.1" viewBox="0 0 324 288" width="324px" zoomAndPan="magnify"><defs><filter height="300%" id="fvszqfsk3o4pd" width="300%" x="-1" y="-1"><feGaussianBlur result="blurOut" stdDeviation="2.0"/><feColorMatrix in="blurOut" result="blurOut2" type="matrix" values="0 0 0 0 0 0 0 0 0 0 0 0 0 0 0 0 0 0 .4 0"/><feOffset dx="4.0" dy="4.0" in="blurOut2" result="blurOut3"/><feBlend in="SourceGraphic" in2="blurOut3" mode="normal"/></filter></defs><g><rect fill="#FFFFFF" filter="url(#fvszqfsk3o4pd)" height="93.2656" style="stroke: #A80036; stroke-width: 1.0;" width="10" x="138.5" y="67.2969"/><rect fill="#FFFFFF" filter="url(#fvszqfsk3o4pd)" height="19.1328" style="stroke: #A80036; stroke-width: 1.0;" width="10" x="138.5" y="197.5625"/><line style="stroke: #A80036; stroke-width: 1.0; stroke-dasharray: 5.0,5.0;" x1="30" x2="30" y1="51.2969" y2="234.6953"/><line style="stroke: #A80036; stroke-width: 1.0; stroke-dasharray: 5.0,5.0;" x1="85" x2="85" y1="51.2969" y2="234.6953"/><line style="stroke: #A80036; stroke-width: 1.0; stroke-dasharray: 5.0,5.0;" x1="143" x2="143" y1="51.2969" y2="234.6953"/><text fill="#000000" font-family="sans-serif" font-size="14" lengthAdjust="spacingAndGlyphs" textLength="39" x="8" y="47.9951">func1</text><ellipse cx="30.5" cy="19" fill="#FEFECE" filter="url(#fvszqfsk3o4pd)" rx="12" ry="12" style="stroke: #A80036; stroke-width: 2.0;"/><polygon fill="#A80036" points="26.5,7,32.5,2,30.5,7,32.5,12,26.5,7" style="stroke: #A80036; stroke-width: 1.0;"/><text fill="#000000" font-family="sans-serif" font-size="14" lengthAdjust="spacingAndGlyphs" textLength="39" x="8" y="246.6904">func1</text><ellipse cx="30.5" cy="265.9922" fill="#FEFECE" filter="url(#fvszqfsk3o4pd)" rx="12" ry="12" style="stroke: #A80036; stroke-width: 2.0;"/><polygon fill="#A80036" points="26.5,253.9922,32.5,248.9922,30.5,253.9922,32.5,258.9922,26.5,253.9922" style="stroke: #A80036; stroke-width: 1.0;"/><text fill="#000000" font-family="sans-serif" font-size="14" lengthAdjust="spacingAndGlyphs" textLength="39" x="63" y="47.9951">func2</text><ellipse cx="85.5" cy="19" fill="#FEFECE" filter="url(#fvszqfsk3o4pd)" rx="12" ry="12" style="stroke: #A80036; stroke-width: 2.0;"/><polygon fill="#A80036" points="81.5,7,87.5,2,85.5,7,87.5,12,81.5,7" style="stroke: #A80036; stroke-width: 1.0;"/><text fill="#000000" font-family="sans-serif" font-size="14" lengthAdjust="spacingAndGlyphs" textLength="39" x="63" y="246.6904">func2</text><ellipse cx="85.5" cy="265.9922" fill="#FEFECE" filter="url(#fvszqfsk3o4pd)" rx="12" ry="12" style="stroke: #A80036; stroke-width: 2.0;"/><polygon fill="#A80036" points="81.5,253.9922,87.5,248.9922,85.5,253.9922,87.5,258.9922,81.5,253.9922" style="stroke: #A80036; stroke-width: 1.0;"/><rect fill="#FEFECE" filter="url(#fvszqfsk3o4pd)" height="30.2969" style="stroke: #A80036; stroke-width: 1.5;" width="43" x="122" y="12"/><rect fill="#FEFECE" filter="url(#fvszqfsk3o4pd)" height="30.2969" style="stroke: #A80036; stroke-width: 1.5;" width="43" x="118" y="16"/><text fill="#000000" font-family="sans-serif" font-size="14" lengthAdjust="spacingAndGlyphs" textLength="29" x="125" y="35.9951">CPU</text><rect fill="#FEFECE" filter="url(#fvszqfsk3o4pd)" height="30.2969" style="stroke: #A80036; stroke-width: 1.5;" width="43" x="122" y="233.6953"/><rect fill="#FEFECE" filter="url(#fvszqfsk3o4pd)" height="30.2969" style="stroke: #A80036; stroke-width: 1.5;" width="43" x="118" y="237.6953"/><text fill="#000000" font-family="sans-serif" font-size="14" lengthAdjust="spacingAndGlyphs" textLength="29" x="125" y="257.6904">CPU</text><rect fill="#FFFFFF" filter="url(#fvszqfsk3o4pd)" height="93.2656" style="stroke: #A80036; stroke-width: 1.0;" width="10" x="138.5" y="67.2969"/><rect fill="#FFFFFF" filter="url(#fvszqfsk3o4pd)" height="19.1328" style="stroke: #A80036; stroke-width: 1.0;" width="10" x="138.5" y="197.5625"/><polygon fill="#A80036" points="126.5,63.2969,136.5,67.2969,126.5,71.2969,130.5,67.2969" style="stroke: #A80036; stroke-width: 1.0;"/><line style="stroke: #A80036; stroke-width: 1.0;" x1="30.5" x2="132.5" y1="67.2969" y2="67.2969"/><line style="stroke: #A80036; stroke-width: 2.0;" x1="120.5" x2="130.5" y1="96.4297" y2="106.4297"/><line style="stroke: #A80036; stroke-width: 2.0;" x1="120.5" x2="130.5" y1="106.4297" y2="96.4297"/><line style="stroke: #A80036; stroke-width: 1.0;" x1="85.5" x2="125.5" y1="101.4297" y2="101.4297"/><path d="M153,80.2969 L153,120.2969 L312,120.2969 L312,90.2969 L302,80.2969 L153,80.2969 " fill="#FBFB77" filter="url(#fvszqfsk3o4pd)" style="stroke: #A80036; stroke-width: 1.0;"/><path d="M302,80.2969 L302,90.2969 L312,90.2969 L302,80.2969 " fill="#FBFB77" style="stroke: #A80036; stroke-width: 1.0;"/><text fill="#000000" font-family="sans-serif" font-size="13" lengthAdjust="spacingAndGlyphs" textLength="134" x="159" y="97.3638">func2 request but we</text><text fill="#000000" font-family="sans-serif" font-size="13" lengthAdjust="spacingAndGlyphs" textLength="123" x="159" y="112.4966">are busy with func1</text><polygon fill="#A80036" points="41.5,156.5625,31.5,160.5625,41.5,164.5625,37.5,160.5625" style="stroke: #A80036; stroke-width: 1.0;"/><line style="stroke: #A80036; stroke-width: 1.0; stroke-dasharray: 2.0,2.0;" x1="35.5" x2="142.5" y1="160.5625" y2="160.5625"/><line style="stroke: #A80036; stroke-width: 1.0;" x1="143.5" x2="190.5" y1="184.6953" y2="184.6953"/><line style="stroke: #A80036; stroke-width: 1.0;" x1="190.5" x2="190.5" y1="184.6953" y2="197.6953"/><line style="stroke: #A80036; stroke-width: 1.0;" x1="149.5" x2="190.5" y1="197.6953" y2="197.6953"/><polygon fill="#A80036" points="159.5,193.6953,149.5,197.6953,159.5,201.6953,155.5,197.6953" style="stroke: #A80036; stroke-width: 1.0;"/><text fill="#000000" font-family="sans-serif" font-size="13" lengthAdjust="spacingAndGlyphs" textLength="141" x="155.5" y="179.6294">ready to get next func</text><polygon fill="#A80036" points="96.5,212.6953,86.5,216.6953,96.5,220.6953,92.5,216.6953" style="stroke: #A80036; stroke-width: 1.0;"/><line style="stroke: #A80036; stroke-width: 1.0; stroke-dasharray: 2.0,2.0;" x1="90.5" x2="142.5" y1="216.6953" y2="216.6953"/><!--
@startuml
control func1
control func2
collections CPU

func1 -> CPU
activate CPU
func2 ->x CPU
note right: func2 request but we \nare busy with func1
|||
CPU - -> func1
deactivate CPU
CPU -> CPU: ready to get next func
activate CPU
CPU - -> func2
deactivate CPU
@enduml

PlantUML version 1.2018.11(Sat Sep 22 19:43:53 MSK 2018)
(GPL source distribution)
Java Runtime: OpenJDK Runtime Environment
JVM: OpenJDK 64-Bit Server VM
Java Version: 1.8.0_152-release-1248-b8
Operating System: Linux
OS Version: 4.15.0-36-generic
Default Encoding: UTF-8
Language: en
Country: US
--></g></svg>