<?xml version="1.0" encoding="UTF-8" standalone="no"?><svg xmlns="http://www.w3.org/2000/svg" xmlns:xlink="http://www.w3.org/1999/xlink" contentScriptType="application/ecmascript" contentStyleType="text/css" height="231px" preserveAspectRatio="none" style="width:255px;height:231px;" version="1.1" viewBox="0 0 255 231" width="255px" zoomAndPan="magnify"><defs><filter height="300%" id="f8wxqf6idsu5l" width="300%" x="-1" y="-1"><feGaussianBlur result="blurOut" stdDeviation="2.0"/><feColorMatrix in="blurOut" result="blurOut2" type="matrix" values="0 0 0 0 0 0 0 0 0 0 0 0 0 0 0 0 0 0 .4 0"/><feOffset dx="4.0" dy="4.0" in="blurOut2" result="blurOut3"/><feBlend in="SourceGraphic" in2="blurOut3" mode="normal"/></filter></defs><g><rect fill="#FFFFFF" filter="url(#f8wxqf6idsu5l)" height="92" style="stroke: #A80036; stroke-width: 1.0;" width="10" x="143" y="67.2969"/><rect fill="#FFFFFF" filter="url(#f8wxqf6idsu5l)" height="14" style="stroke: #A80036; stroke-width: 1.0;" width="10" x="213" y="81.2969"/><line style="stroke: #A80036; stroke-width: 1.0; stroke-dasharray: 5.0,5.0;" x1="30" x2="30" y1="51.2969" y2="177.2969"/><line style="stroke: #A80036; stroke-width: 1.0; stroke-dasharray: 5.0,5.0;" x1="85" x2="85" y1="51.2969" y2="177.2969"/><line style="stroke: #A80036; stroke-width: 1.0; stroke-dasharray: 5.0,5.0;" x1="148" x2="148" y1="51.2969" y2="177.2969"/><line style="stroke: #A80036; stroke-width: 1.0; stroke-dasharray: 5.0,5.0;" x1="218" x2="218" y1="51.2969" y2="177.2969"/><text fill="#000000" font-family="sans-serif" font-size="14" lengthAdjust="spacingAndGlyphs" textLength="39" x="8" y="47.9951">func1</text><ellipse cx="30.5" cy="19" fill="#FEFECE" filter="url(#f8wxqf6idsu5l)" rx="12" ry="12" style="stroke: #A80036; stroke-width: 2.0;"/><polygon fill="#A80036" points="26.5,7,32.5,2,30.5,7,32.5,12,26.5,7" style="stroke: #A80036; stroke-width: 1.0;"/><text fill="#000000" font-family="sans-serif" font-size="14" lengthAdjust="spacingAndGlyphs" textLength="39" x="8" y="189.292">func1</text><ellipse cx="30.5" cy="208.5938" fill="#FEFECE" filter="url(#f8wxqf6idsu5l)" rx="12" ry="12" style="stroke: #A80036; stroke-width: 2.0;"/><polygon fill="#A80036" points="26.5,196.5938,32.5,191.5938,30.5,196.5938,32.5,201.5938,26.5,196.5938" style="stroke: #A80036; stroke-width: 1.0;"/><text fill="#000000" font-family="sans-serif" font-size="14" lengthAdjust="spacingAndGlyphs" textLength="39" x="63" y="47.9951">func2</text><ellipse cx="85.5" cy="19" fill="#FEFECE" filter="url(#f8wxqf6idsu5l)" rx="12" ry="12" style="stroke: #A80036; stroke-width: 2.0;"/><polygon fill="#A80036" points="81.5,7,87.5,2,85.5,7,87.5,12,81.5,7" style="stroke: #A80036; stroke-width: 1.0;"/><text fill="#000000" font-family="sans-serif" font-size="14" lengthAdjust="spacingAndGlyphs" textLength="39" x="63" y="189.292">func2</text><ellipse cx="85.5" cy="208.5938" fill="#FEFECE" filter="url(#f8wxqf6idsu5l)" rx="12" ry="12" style="stroke: #A80036; stroke-width: 2.0;"/><polygon fill="#A80036" points="81.5,196.5938,87.5,191.5938,85.5,196.5938,87.5,201.5938,81.5,196.5938" style="stroke: #A80036; stroke-width: 1.0;"/><rect fill="#FEFECE" filter="url(#f8wxqf6idsu5l)" height="30.2969" style="stroke: #A80036; stroke-width: 1.5;" width="52" x="122" y="12"/><rect fill="#FEFECE" filter="url(#f8wxqf6idsu5l)" height="30.2969" style="stroke: #A80036; stroke-width: 1.5;" width="52" x="118" y="16"/><text fill="#000000" font-family="sans-serif" font-size="14" lengthAdjust="spacingAndGlyphs" textLength="38" x="125" y="35.9951">CPU1</text><rect fill="#FEFECE" filter="url(#f8wxqf6idsu5l)" height="30.2969" style="stroke: #A80036; stroke-width: 1.5;" width="52" x="122" y="176.2969"/><rect fill="#FEFECE" filter="url(#f8wxqf6idsu5l)" height="30.2969" style="stroke: #A80036; stroke-width: 1.5;" width="52" x="118" y="180.2969"/><text fill="#000000" font-family="sans-serif" font-size="14" lengthAdjust="spacingAndGlyphs" textLength="38" x="125" y="200.292">CPU1</text><rect fill="#FEFECE" filter="url(#f8wxqf6idsu5l)" height="30.2969" style="stroke: #A80036; stroke-width: 1.5;" width="52" x="192" y="12"/><rect fill="#FEFECE" filter="url(#f8wxqf6idsu5l)" height="30.2969" style="stroke: #A80036; stroke-width: 1.5;" width="52" x="188" y="16"/><text fill="#000000" font-family="sans-serif" font-size="14" lengthAdjust="spacingAndGlyphs" textLength="38" x="195" y="35.9951">CPU2</text><rect fill="#FEFECE" filter="url(#f8wxqf6idsu5l)" height="30.2969" style="stroke: #A80036; stroke-width: 1.5;" width="52" x="192" y="176.2969"/><rect fill="#FEFECE" filter="url(#f8wxqf6idsu5l)" height="30.2969" style="stroke: #A80036; stroke-width: 1.5;" width="52" x="188" y="180.2969"/><text fill="#000000" font-family="sans-serif" font-size="14" lengthAdjust="spacingAndGlyphs" textLength="38" x="195" y="200.292">CPU2</text><rect fill="#FFFFFF" filter="url(#f8wxqf6idsu5l)" height="92" style="stroke: #A80036; stroke-width: 1.0;" width="10" x="143" y="67.2969"/><rect fill="#FFFFFF" filter="url(#f8wxqf6idsu5l)" height="14" style="stroke: #A80036; stroke-width: 1.0;" width="10" x="213" y="81.2969"/><polygon fill="#A80036" points="131,63.2969,141,67.2969,131,71.2969,135,67.2969" style="stroke: #A80036; stroke-width: 1.0;"/><line style="stroke: #A80036; stroke-width: 1.0;" x1="30.5" x2="137" y1="67.2969" y2="67.2969"/><polygon fill="#A80036" points="201,77.2969,211,81.2969,201,85.2969,205,81.2969" style="stroke: #A80036; stroke-width: 1.0;"/><line style="stroke: #A80036; stroke-width: 1.0;" x1="85.5" x2="207" y1="81.2969" y2="81.2969"/><polygon fill="#A80036" points="96.5,91.2969,86.5,95.2969,96.5,99.2969,92.5,95.2969" style="stroke: #A80036; stroke-width: 1.0;"/><line style="stroke: #A80036; stroke-width: 1.0; stroke-dasharray: 2.0,2.0;" x1="90.5" x2="217" y1="95.2969" y2="95.2969"/><polygon fill="#A80036" points="41.5,155.2969,31.5,159.2969,41.5,163.2969,37.5,159.2969" style="stroke: #A80036; stroke-width: 1.0;"/><line style="stroke: #A80036; stroke-width: 1.0; stroke-dasharray: 2.0,2.0;" x1="35.5" x2="147" y1="159.2969" y2="159.2969"/><!--
@startuml
control func1
control func2
collections CPU1
collections CPU2

func1 -> CPU1
activate CPU1
func2 -> CPU2
activate CPU2
CPU2 - -> func2
deactivate CPU2
|||
|||
CPU1 - -> func1
deactivate CPU1
@enduml

PlantUML version 1.2018.11(Sat Sep 22 19:43:53 MSK 2018)
(GPL source distribution)
Java Runtime: OpenJDK Runtime Environment
JVM: OpenJDK 64-Bit Server VM
Java Version: 1.8.0_152-release-1248-b8
Operating System: Linux
OS Version: 4.15.0-36-generic
Default Encoding: UTF-8
Language: en
Country: US
--></g></svg>