<?xml version="1.0" encoding="UTF-8" standalone="no"?><svg xmlns="http://www.w3.org/2000/svg" xmlns:xlink="http://www.w3.org/1999/xlink" contentScriptType="application/ecmascript" contentStyleType="text/css" height="286px" preserveAspectRatio="none" style="width:355px;height:286px;" version="1.1" viewBox="0 0 355 286" width="355px" zoomAndPan="magnify"><defs><filter height="300%" id="f121y1p3hfyozk" width="300%" x="-1" y="-1"><feGaussianBlur result="blurOut" stdDeviation="2.0"/><feColorMatrix in="blurOut" result="blurOut2" type="matrix" values="0 0 0 0 0 0 0 0 0 0 0 0 0 0 0 0 0 0 .4 0"/><feOffset dx="4.0" dy="4.0" in="blurOut2" result="blurOut3"/><feBlend in="SourceGraphic" in2="blurOut3" mode="normal"/></filter></defs><g><rect fill="#FFFFFF" filter="url(#f121y1p3hfyozk)" height="147.3984" style="stroke: #A80036; stroke-width: 1.0;" width="10" x="138.5" y="67.2969"/><rect fill="#FFFFFF" filter="url(#f121y1p3hfyozk)" height="41.6992" style="stroke: #A80036; stroke-width: 1.0;" width="10" x="143.5" y="108.9961"/><line style="stroke: #A80036; stroke-width: 1.0; stroke-dasharray: 5.0,5.0;" x1="30" x2="30" y1="51.2969" y2="232.6953"/><line style="stroke: #A80036; stroke-width: 1.0; stroke-dasharray: 5.0,5.0;" x1="85" x2="85" y1="51.2969" y2="232.6953"/><line style="stroke: #A80036; stroke-width: 1.0; stroke-dasharray: 5.0,5.0;" x1="143" x2="143" y1="51.2969" y2="232.6953"/><text fill="#000000" font-family="sans-serif" font-size="14" lengthAdjust="spacingAndGlyphs" textLength="39" x="8" y="47.9951">func1</text><ellipse cx="30.5" cy="19" fill="#FEFECE" filter="url(#f121y1p3hfyozk)" rx="12" ry="12" style="stroke: #A80036; stroke-width: 2.0;"/><polygon fill="#A80036" points="26.5,7,32.5,2,30.5,7,32.5,12,26.5,7" style="stroke: #A80036; stroke-width: 1.0;"/><text fill="#000000" font-family="sans-serif" font-size="14" lengthAdjust="spacingAndGlyphs" textLength="39" x="8" y="244.6904">func1</text><ellipse cx="30.5" cy="263.9922" fill="#FEFECE" filter="url(#f121y1p3hfyozk)" rx="12" ry="12" style="stroke: #A80036; stroke-width: 2.0;"/><polygon fill="#A80036" points="26.5,251.9922,32.5,246.9922,30.5,251.9922,32.5,256.9922,26.5,251.9922" style="stroke: #A80036; stroke-width: 1.0;"/><text fill="#000000" font-family="sans-serif" font-size="14" lengthAdjust="spacingAndGlyphs" textLength="39" x="63" y="47.9951">func2</text><ellipse cx="85.5" cy="19" fill="#FEFECE" filter="url(#f121y1p3hfyozk)" rx="12" ry="12" style="stroke: #A80036; stroke-width: 2.0;"/><polygon fill="#A80036" points="81.5,7,87.5,2,85.5,7,87.5,12,81.5,7" style="stroke: #A80036; stroke-width: 1.0;"/><text fill="#000000" font-family="sans-serif" font-size="14" lengthAdjust="spacingAndGlyphs" textLength="39" x="63" y="244.6904">func2</text><ellipse cx="85.5" cy="263.9922" fill="#FEFECE" filter="url(#f121y1p3hfyozk)" rx="12" ry="12" style="stroke: #A80036; stroke-width: 2.0;"/><polygon fill="#A80036" points="81.5,251.9922,87.5,246.9922,85.5,251.9922,87.5,256.9922,81.5,251.9922" style="stroke: #A80036; stroke-width: 1.0;"/><rect fill="#FEFECE" filter="url(#f121y1p3hfyozk)" height="30.2969" style="stroke: #A80036; stroke-width: 1.5;" width="43" x="122" y="12"/><rect fill="#FEFECE" filter="url(#f121y1p3hfyozk)" height="30.2969" style="stroke: #A80036; stroke-width: 1.5;" width="43" x="118" y="16"/><text fill="#000000" font-family="sans-serif" font-size="14" lengthAdjust="spacingAndGlyphs" textLength="29" x="125" y="35.9951">CPU</text><rect fill="#FEFECE" filter="url(#f121y1p3hfyozk)" height="30.2969" style="stroke: #A80036; stroke-width: 1.5;" width="43" x="122" y="231.6953"/><rect fill="#FEFECE" filter="url(#f121y1p3hfyozk)" height="30.2969" style="stroke: #A80036; stroke-width: 1.5;" width="43" x="118" y="235.6953"/><text fill="#000000" font-family="sans-serif" font-size="14" lengthAdjust="spacingAndGlyphs" textLength="29" x="125" y="255.6904">CPU</text><rect fill="#FFFFFF" filter="url(#f121y1p3hfyozk)" height="147.3984" style="stroke: #A80036; stroke-width: 1.0;" width="10" x="138.5" y="67.2969"/><rect fill="#FFFFFF" filter="url(#f121y1p3hfyozk)" height="41.6992" style="stroke: #A80036; stroke-width: 1.0;" width="10" x="143.5" y="108.9961"/><polygon fill="#A80036" points="126.5,63.2969,136.5,67.2969,126.5,71.2969,130.5,67.2969" style="stroke: #A80036; stroke-width: 1.0;"/><line style="stroke: #A80036; stroke-width: 1.0;" x1="30.5" x2="132.5" y1="67.2969" y2="67.2969"/><polygon fill="#A80036" points="131.5,104.9961,141.5,108.9961,131.5,112.9961,135.5,108.9961" style="stroke: #A80036; stroke-width: 1.0;"/><line style="stroke: #A80036; stroke-width: 1.0;" x1="85.5" x2="137.5" y1="108.9961" y2="108.9961"/><path d="M158,80.2969 L158,135.2969 L343,135.2969 L343,90.2969 L333,80.2969 L158,80.2969 " fill="#FBFB77" filter="url(#f121y1p3hfyozk)" style="stroke: #A80036; stroke-width: 1.0;"/><path d="M333,80.2969 L333,90.2969 L343,90.2969 L333,80.2969 " fill="#FBFB77" style="stroke: #A80036; stroke-width: 1.0;"/><text fill="#000000" font-family="sans-serif" font-size="13" lengthAdjust="spacingAndGlyphs" textLength="155" x="164" y="97.3638">switching between func1</text><text fill="#000000" font-family="sans-serif" font-size="13" lengthAdjust="spacingAndGlyphs" textLength="160" x="164" y="112.4966">and func2 - at least twice</text><text fill="#000000" font-family="sans-serif" font-size="13" lengthAdjust="spacingAndGlyphs" textLength="154" x="164" y="127.6294">as much execution time</text><polygon fill="#A80036" points="96.5,146.6953,86.5,150.6953,96.5,154.6953,92.5,150.6953" style="stroke: #A80036; stroke-width: 1.0;"/><line style="stroke: #A80036; stroke-width: 1.0; stroke-dasharray: 2.0,2.0;" x1="90.5" x2="137.5" y1="150.6953" y2="150.6953"/><polygon fill="#A80036" points="41.5,210.6953,31.5,214.6953,41.5,218.6953,37.5,214.6953" style="stroke: #A80036; stroke-width: 1.0;"/><line style="stroke: #A80036; stroke-width: 1.0; stroke-dasharray: 2.0,2.0;" x1="35.5" x2="142.5" y1="214.6953" y2="214.6953"/><!--
@startuml
control func1
control func2
collections CPU

func1 -> CPU
activate CPU
func2 -> CPU
note right: switching between func1 \nand func2 - at least twice \nas much execution time
activate CPU
CPU - -> func2
deactivate CPU
|||
|||
CPU - -> func1
deactivate CPU
@enduml

PlantUML version 1.2018.11(Sat Sep 22 19:43:53 MSK 2018)
(GPL source distribution)
Java Runtime: OpenJDK Runtime Environment
JVM: OpenJDK 64-Bit Server VM
Java Version: 1.8.0_152-release-1248-b8
Operating System: Linux
OS Version: 4.15.0-36-generic
Default Encoding: UTF-8
Language: en
Country: US
--></g></svg>